<svg xmlns="http://www.w3.org/2000/svg" viewBox="0 0 667.41 834.03"><defs><style>.cls-1{fill:#fff;}</style></defs><title>barra formulario</title><g id="Capa_2" data-name="Capa 2"><g id="Capa_1-2" data-name="Capa 1"><path class="cls-1" d="M398.2,820.63c-4.29,0-5.56.51-6.18.74l48.37,0c-1.52-.52-15.45-1.16-6.14-1.47-3.69-.51-14.07-.18-17.63.39l2.51-.57c-11.15,1-18.76-1-11.49-1.58h-.94L375.84,822C387.17,822.25,384.56,820.68,398.2,820.63Z"/><path class="cls-1" d="M1.73,105c-.12-2.69-.26-5.25-.47-7.58C1.41,104.93,1.57,105.85,1.73,105Z"/><path class="cls-1" d="M368.62,822.94,359,824.17C362.83,823.84,366.23,823.4,368.62,822.94Z"/><path class="cls-1" d="M149.18,827.54l-3.17.09C147.17,827.62,148.21,827.59,149.18,827.54Z"/><path class="cls-1" d="M368.62,822.94l7.22-.91-3.67-.14A9.85,9.85,0,0,1,368.62,822.94Z"/><path class="cls-1" d="M406.7,818.11l6.67-.84c-6.93.32-15,.54-24.79,1.08Z"/><path class="cls-1" d="M93.23,833.67c.57.14,1.5.27,2.11.36A16.2,16.2,0,0,0,93.23,833.67Z"/><path class="cls-1" d="M352.27,822c-10.53.77-6.51,2-22.32,2,6.2-.74,7.77-2.43-7.37-2.61-37.86,1.48-62.95,5.67-98.31,7.81-1.31-1.14-29.07-.82-42.56-1.09,5.15-1.22,15.16-1.56,25.55-1.81l-26.07-.16-3.4,2.39c-37.52.25,9.22-1.91-8-2.37-10.42.22-14.09,1.13-20.59,1.41,29.76-.77-4,3,26,2.51-4.27,1.64-21.64,1.79-31.83,1.35-11.52-1.59,10.08-1.16,12.69-2.71-12.05.25-9.92.54-15,1.42-18.91-.36-39.12,1.95-50.41-.24-13.69.34-12.79,1.1-20.66,1.94-1.4,1.51,16,1,23.32,1.86-.42-.1-.65-.21-.4-.31l11.84.36c-11.24-.59,1.56-1.7,7.56-1.83,4.37,0,13-.11,11.85.36l-6.61.36c8.52.54,18.78-1.23,27.77-.31.47.38-2.93.55-3.45.79,10.08-1.16,19.79-1.09,34.7-1.91l-8.64,1.68c11.92-1.86,38.92-1.33,57.64-.35-2.08-.28-5.82-.48-3.57-.81,11-.4,19.29.76,14.2,1.64,10.74-1.39,40.92,1.17,55.55-.64L359,824.17c-2.52.21-5.22.39-8,.46C344.84,823.16,341.55,823.33,352.27,822Z"/><path class="cls-1" d="M262.77,824.47a22.53,22.53,0,0,0,2.93.21C264.76,824.58,263.78,824.52,262.77,824.47Z"/><path class="cls-1" d="M210.56,826.18l-3.3.09,3.17,0C210.56,826.26,210.52,826.23,210.56,826.18Z"/><path class="cls-1" d="M363.3,819.33c2.25-.33,3.91-.42,6.16-.74-1.38.11-3.12.2-4.79.29S362.32,819.19,363.3,819.33Z"/><path class="cls-1" d="M370.87,821.33l-1.2.46,2.5.1C372.44,821.64,372.16,821.43,370.87,821.33Z"/><path class="cls-1" d="M34.42,818.23l-3.6.25A17,17,0,0,0,34.42,818.23Z"/><path class="cls-1" d="M262.77,824.47c-3.57-.63,12.07-2.15-8.55-1.37,1.66-.09.62-.23,2.26-.32-13.28-.88-18.61.62-30.05.64-6.84-.63,11.19-1,4.73-1.26-14.29.58-44.84-.76-43.89,1.6-10.4.16-11.83-.36-14.93-.79-16.45,2.51-61-1.07-60.9,2.13,6-.12,15.79-.05,24.6-.74l0,2.21c13.05-.11,1.56-1.69,20-1.7l-5.42-.11c13.24-.72,36.52-.39,52.26-.45-1.78.68,9.54.82,7.7,1.87,10.76-.24,21.41-.48,26.95-1.56C244.18,825,254.3,824,262.77,824.47Z"/><path class="cls-1" d="M341.39,819.49l-1.89,0Z"/><path class="cls-1" d="M339.5,819.47h0Z"/><path class="cls-1" d="M350.76,829.18a2.47,2.47,0,0,0-.62.11A5.51,5.51,0,0,0,350.76,829.18Z"/><path class="cls-1" d="M221.9,3.61c-1.23.27-2.77.47-4.31.67C220.46,4,223,3.76,221.9,3.61Z"/><path class="cls-1" d="M213.4,4.73c1.47-.13,2.89-.28,4.19-.45Z"/><path class="cls-1" d="M663.37,21c-.11.92-.2,2.28-.23,4.08A15.34,15.34,0,0,0,663.37,21Z"/><path class="cls-1" d="M171.93,7.56l-.47,0c-.41.05-.92.08-1.18.13Z"/><path class="cls-1" d="M622.87,826.86l-2.41.47C622.47,827.12,623.1,827,622.87,826.86Z"/><path class="cls-1" d="M666.77,783.92a3.34,3.34,0,0,1,.09.39A1.73,1.73,0,0,0,666.77,783.92Z"/><path class="cls-1" d="M666.77,783.92s-.07-.18-.1,0S666.74,783.83,666.77,783.92Z"/><path class="cls-1" d="M662.8,435s-.18,1.1-.36,2.83C662.54,438.51,662.66,437.84,662.8,435Z"/><path class="cls-1" d="M661.24,503.87c0,.44-.07.69-.12,1.26Z"/><path class="cls-1" d="M666.86,784.31c.11.72.23,1.74.37,3.43C667.08,785.88,667,784.89,666.86,784.31Z"/><path class="cls-1" d="M657.47,330c0,.73.08,1.42.12,2.11,0-.42,0-.84,0-1.25Z"/><path class="cls-1" d="M658.6,296.55c.07,1.92.15,3.61.26,4.92A31.28,31.28,0,0,0,658.6,296.55Z"/><path class="cls-1" d="M660.38,171c0-1.58-.09-3.28-.17-5.44C660.24,166.58,660.31,169,660.38,171Z"/><path class="cls-1" d="M441.38,817.66l-13.4-.32-1.73.15C426.7,817.87,441.65,818.65,441.38,817.66Z"/><path class="cls-1" d="M484.85,11.55c5-.15,10.75-.05,17.5.39-2.13-.28-5.25-.71-5.69-1.09C492.31,10.84,489.27,11.36,484.85,11.55Z"/><path class="cls-1" d="M241,817.83a1.13,1.13,0,0,0-.51.2Z"/><path class="cls-1" d="M661.38,358.38c0-.37,0-.46-.08-.32S661.35,358.43,661.38,358.38Z"/><path class="cls-1" d="M667.41,691.65l-1.69-26.71c.18-12.91.28-27.82-.18-39.7.16,4,.19,9.19.1,15.63-1.7-18.22.56-33.5-.15-56.59l.57,10.64c.34-17.42-.19-31.27-.72-45.14l1,.4c-1.42-1.85-1.73-31.87-2.15-38.55,1,42.64-1.12,36.65,0,78-1.43-15.52-1.69-26.69-3-43.52.1-6.4.33-8.93.65-9.42-.54-5.46-1.44-7.07-1.82-17l.55-3c.59-28.33-2.32-25.61-1.85-52.71,1.31-5.35,1.74,23.39,2.54,40,1.2-12.8.6,27,2.3,12l-.81-8.13c0-7.53.57-7.61.72-3.84-.21-9.34,0-7.12-.62-11.06-.13-43,1.68,4.56,2.26-37.47.35,4.77.29,16.4,1,14.12l-.31,22.59,1,.43c.08-28.56-1.23-45.35-2.91-58.39,1,25.76-1.07,2.81-1.56,16.29a66.09,66.09,0,0,1,.06-12.61c-.3-1.89-.48-14.87-1-13.16,2.45-6.14,2.49-62.05,5-49.3.73-15.92-.65-65.2-.8-99.76l.7,9.38c2.14-36.14-1.72-31.89-2.36-53,.88,18.54,1.05-16.45,1.77-23.95-.81-16.6-2.16-30.09-2.05-53.45,1-4.84,2.65-5.48,2.75-20.39l-.89-10.09c.1-14.88-.66-34.7,0-44.23l.07,2c.54-16.7-1-17.34-1.18-4.38l-.6-15.86.32-.53c-.23-7.5-.58-14.82-1-22.65q-.13-2.92-.27-6-.14-4-.28-8.25c-.15-5.63-.32-11.54-.49-17.86l-13.44.37-13.08.23c7.4-1.21-21.07-2.26,4-2.63-3.61.29-2.61.59-.53.88l1.71.21,2.4.21a28.55,28.55,0,0,1,3.31.4c5.67.13,11.17-.09,16.2-.37.27,6.29.61,11.68.67,15.27.28-2.64.77-3.15,1.28-1.84a41,41,0,0,1,1.43,9c-.33-6.72-.53-15.61-.67-25.68l-45,.56c-11.46.24-20.57.72-22.24,2-22.21-.19-51.19.6-76.53,0,1.05.14,3.1.43,2.5.66L502.29,4.31l5-.27-14.4-1c-1.5-.53,4.1-1,10.05-1.16,3.16-.17,6,.19,3.76.39,14.15-1-13.34-.48-3.4-1.61,3.8.19,8.72-.08,11.44,0C497.1-.23,488.89,1.83,478,0a254.56,254.56,0,0,1-41.63,1.28C442.61.55,419,1.44,427,0c-6.19.74-20.56-.28-23,.66a98.12,98.12,0,0,1,14.11,0c-6.63.36-7.44,1.21-15.51,1.05-1.05-.15-.45-.38-.45-.38-10.53.78-3.57,3-22,3-48.49.65,6.86-3.19,0-3.82-1.8.7-23.16,1.27-32.76.59l2.3-.33c-4.95.28-12.23.87-17.45.16-3,1.17-8.77,2.29-12.22,3.08l-21.77.19,4.51-.65c-5,.27-9.32.31-13.7.35-1.89-.9,4.53-.65,11.16-1a33.92,33.92,0,0,0-13.05.12l2.72.05c-5.59.51-26.06,1.83-9.85,2.15-12.19.87-16-.94-24.31-.48-.86-.76,6.8-1,2.61-1.55-8.08-.16-13.45-.27-20.09.1,6.45.25-1.84.7,8.34,1.15-3.9.42-14.24.58-13.83,1a64.46,64.46,0,0,1,11.39,0c-10.94.4-22.35.43-33.57-.16a14.47,14.47,0,0,1,2.8-.51c-14.59,1.31-36.49,1-46.26,2.49l4.32.3A75.49,75.49,0,0,1,185,7.45c-10.95.4,7.77,1.38-3.81,2-15.93.67-30.09-1-38.77.71,15.14.17,35.57,1.07,41.73.33l-9.78-.07,22.31-2c.86.76,19.69-.47,19.32.75-7.68.22-14.7.21-20.71.33,1.43.53,20.56.28,28.64.44l-10.18-.44c18.18-1,41.41-.67,59-1.43-13.86,1,17.63.84,6.51,1.85-4.52.65-11.83-.35-9.73-.07-1.39,1.08,10.77.22,14.34,1,1.86-.7,19.88-1.09,9.26-1.91,5.83.49,18.62-.62,26.55.15-2.35-1.27,14.83-.81,17.76-1.38a84.56,84.56,0,0,1,8.83.62L320.52,9.86h0c-3.77-.2-10.79-.21-8.71.07l-.15.48L273.1,12.8h-4.73l.92-.13L268,12.8H4.28V49.37L3.41,61.26.88,12.8c-.65,40,2.9,58.37,1.63,91-.29-5.16-.54-.11-.78,1.17.47,10.38.47,22.79,1.09,29.16l0,16.53c-.51-.18-1.77-6.56-1.74-23.43C1,186.34,3.54,231.6,2.63,291c-.24,2.51-.31-7.92-.47-3.44.26,6.84.55,17.51.82,20a28.8,28.8,0,0,1-.47-5.47C3,332,1.45,348,2.2,367.54c-.63,1.08-.41-15.14-.65-12.63C1,385.23,3,401,3,431.54c-.88-10.09-.91,6.75-1.43,15,.79,25.05,1,78.37,1.59,116.32-2.22-10-.06,42.24-1.95,45.33,0,8.45.32,21.59,1,22.51-.35-4.68.22-16.13.61-14.62C3,628.44,3,647.28,3.9,649L3,664.24c.47.61,1,3,1.31,6.94v10c-.54,6.11-.33,6.26,0,6.6v11a93.59,93.59,0,0,0-1.34-9.28c-.18,13,.25,11.2.44,20.36-.56,3-1.52-9.06-1.9-19L.94,707.57c1.12,16.06,2.69,44,2.34,69.84-.67-4.2-.65-12.59-1.57-5.81.13,5.56.5,12,.77,19,.06,1.73.11,3.49.17,5.27.05,1.94.08,3.93.1,5.91,0,4,0,8-.16,12.2-.07-2.17-.19-.66-.27-2.83.08,2.34.15,4.43.2,6a140.75,140.75,0,0,1,16.56,0l2.86.2,3.3.2c2.49.12,5.66.22,10.13.26a4.17,4.17,0,0,1-.95.4l11.92-.81c25-2,27.84,1.29,42.84,2.07l-3.32.19c9.39,1.29,39.57,0,48.15.57-10.63-.82-3.55-.81-11.33-2.19-9.35.31-6.51,2-22.13,1.41,2-1.31,21.71-1.79,25.77-2.82,8.74-.08,14.66,2,15.52,2.77,21.77-.19,34,.55,60.72.08,9.54-.92,16.83-3.73,39.12-1.94l-.71.27c2.22-.45,10.75.34,14.81-.24-7.72-1.38,9.51-.92.1-2.21,13.06-.12,15.24,1.77,16.54,2.91,9.22-1.91,25.77,1,45.66-.1-3.55.8-25.28,1-16.32,1.9l25.58-2.21-11.37,0c19.4-1.47,24.86.24,36.1.83,2.21.57-5.14.77-10.68.75,6,.08,15.5-.17,23.28-.61,5.88-.6,26.26-1.35,34.45-2.38l3.3.11a5.52,5.52,0,0,1-1.5.25c1.65,0,3-.09,4.24-.15l10.28.3-2.07.26,4-.21,10.63.28,5.47-.45-2.69,0c.51-.73,3.94-1.37,9.14-1.81h37.62c15.68.84,36.7-.95,43.61.87-24.37,1.74-36,.77-61.72,1.38-13.14-1.5,16.53-.91,17.34-1.76l-14.55-.41c1.95.9-28.33.55-20.82,2.54,31.9.69,63.65,1,91.19,1l-26.52,10.19c0,.14-.48.35-1.78.68l1.78-.68c0-.43-5.63,0-11.91.25,1.3-.46,2.7-1-4.73-1-14.93-.78-23.12,1.27-34,1.07l3.34-.19c-10.18-.45-23.23-.33-31.05.5-8.22-1.76,29.41-.41,13.58-2,11.23.59,27.31-.7,36-.77-14.54-.41-27.07-2.13-23-3.16-31.25,1.11,0,3.82-27.34,4.51l-18.89-.37-6.54,2c-11.36,0,7-1.59-10.42-1.44-4.73.92-16,.08-19.4.68.48-.44.71-.93-8.23-1-.6.23.21,1-6.8,1-4.84-1.94,18-.38,9.83-2.15-20,0-12.82,1.66-15.83,2.4.68,0,1.77,0,3.75.07-.2.62-8.71.08-7.81.84,3.41.06,6.79-.12,9.74-.3-6,.61,9.92,1.28,16,1.3,13.9-1,42.47-.53,61.58-.77-1.68.09-5,.28-2.9.56,27.17-.08,38.4.51,69.47,0l3.65-1.4c27.17-.09,13.08-3.94,19.69-4.3,6-.13,11.15-1,16.34-.29l-2.84.55c17-.52,5.31-1.49,20.45-1.32,12.21-.87-10.76-.21-3-1,16.2.32,10-2.76,35.17-1.53-1.22.47,2.8,1.66-11.94,1.86l14.4,1c-17,.53-6.63.36-24,.52-8,1.44-6.12,2.34-13.52,3.55,6.57-.36,5.27-1.5,15.06-1.43,11.82.35-1.86.7-3,1.17,15.68-1.66,17.47,1.45,31.46-.12-2.73-1.66,0-1.6-10.07-2.66,10-.54,22.61.57,21.67,2l2-1.31c2.33.32,10.25.34,10.75.68l3.36-.65c-7.31-1-13.17-1.49-25.76-1,5.1-.88-7-2.23,9.38-2.52,7.06,0,.86.75,1.31,1.13,12.77-.35,21.11-.19,27.8.13l12.71.57c4.36.2,8.71.4,13.53.56.11-4.63.2-9.79.23-15.83,0-5.73,0-14.17-.09-18.31.07,1.25.11,2.75.14,4.45,0,2.55,0,5.41,0,8.5,0,6.42,0,13.81,0,21.57-4.74,0-9.63,0-14.49.1l-7.24.15-1.79,0-1.53.06-2.23.13c.73.1,1.48.19,2.23.25l.64,0,.91,0,1.83.05c2.45.06,4.95.07,7.44,0,5-.07,9.91-.28,14.62-.44-.12-5-.2-9.84-.16-14.3.5,13.8.89,17.11,1.34.7l-.67-7.13c0-4,0-9.63,0-14.37a56.94,56.94,0,0,1,.24-7c-.25-.28-.42,2.41-.63,7.94-.92-15.31-1.35-44.07-.87-71.21,1.41,1.93.81,38.69,1.89,19-.25-11.12-1.77-20.19-1-39.42C666.87,708.35,666.9,691.42,667.41,691.65ZM480,829l9.93.19A69.32,69.32,0,0,1,480,829ZM659.17,151.49c.35,4.68,2,4,1.54,22.72-.15.23-.26-1.36-.33-3.22.2,8.49-.19,9.9-.4,19.12-1.07,2.82-.77-11.35-1.51-17.47.22,5.94.65,12.6.56,19.11l-.39-1.51.24,19.65c.82,8.09.11-14.92.73-16l.66,12.6c.21,14.4.51,52.84-1,65.88-.53,16.69.7,9.38,1.36,13.57.89,10.09-.26,19.41.11,29.29.83-.33.77,11.37,1.8,11.79l-.22,16.15c1.52,9.07.26-19.38.94-23.65,1.35-8.61.45,11.9,1.25,6.34-.14-12.39-.85-13.32-1.08-19.34-.1-7.11.25-10.91.77-10.67-.58,19.88,1.08,10.81.86,27l-.31.53c1,.41.4,23.51.89,32.17-1.16,17.69-1.55-14.32-1.87-13.76l.33,21.59c-.7-9.4-1.34.11-2-12.52.33,13.17-.62,14.73,0,27.33-1.56-14.3-1.17,17.72-2.12,19.28-.37-13.76.92-38,1.28-39.42-.21-2.44-.06-17.94.31-24.28l-1.4-10.28c-.06,11.65.55,27.49-.63,23.09l.61,15.88c-1.86-16.34-1.79-15.54-2.6-30.35-1.51,30.51,1.64,54.32.28,79.4l-.15-3.92c.2,25.06-.2,40.47-.91,51V326.64l.66,3.37c0-.68-.06-1.14-.1-1.86-.5-30.73,1.58-2.61.88-34.08.12,1.23.24,1.79.35,2.48-.44-12.83,0-36.39-1.09-39.18,0,3-.29,14.76-.7,20.42V237.54c.19-2.73.35-5.37.41-8.47h0v0c.06-3,0-6.4-.2-10.86-.08-1.07-.14-1.82-.21-2.36V168.07C657.88,169.71,657.79,132.89,659.17,151.49ZM656.81,305c.15,3,.28,7.06.42,10.72-.12,3.21-.27,3.91-.42,3.84Zm0,242a22.4,22.4,0,0,1,0,2.88Zm1.29-445.35c0,18.88-.28,5.74-.78,19.18-.18.75-.35.33-.51-.75v-42C657,90.17,657.06,102.61,658.1,101.65Zm-.35-57.34c-.08,6.5.28,24.79-.67,26.35,0-8.92-.06-11.45-.27-10.38V32.59a13.63,13.63,0,0,0,.36-2.59C657.38,34.16,657.52,40.52,657.75,44.31ZM485.23,7.05c13.5.27-.74.85,6.12,1.48,10.27-1.77,13.16,1.49,24-.52,13-.11,9,.92,13.13,1.49-13,.12,6.12,1.48-10.25,1.78,13.32.87,9.68-1.54,20.89-.95l1.73,1.51c10.21.45,32.23,1.25,46.07.29-11.68-1,6.78-1,4.88-1.88-2,1.32-18,.38-17.85-.22,8.6-.29,29.29-.55,36.12-.32L593.8,8.94c6.18-.75,28.3-2.16,28.9-2.39,3.45.31,7.76.43,11.66.56,1.94.07,3.79.15,5.37.26l2.41.19c.81.07,1.51.16,2.06.26l-3.88.28-3.2.27-6.4.55-4.6-1-7.37,1.21c4.16.22,10.62.54,16.51.93,3,.2,5.64.41,8.31.65a34.08,34.08,0,0,1,5.3.75h-8.3l-8.72.1c-6.1.1-12.79.27-20,.53-5,.18-10.16.4-15.58.66H470.75l1.55-.21a106,106,0,0,1,12.19-1,83.29,83.29,0,0,1-10.25-.28l23.55-2.5c-11.84-.36-13.63,2-28.11,1.54C470.64,8.86,469.75,8.11,485.23,7.05Zm53.53,809.16c-3.24-.28-4.14-.7-5-1.17l7.72.12Zm96.08.68c-1,1.47-16.73,1.52-21.44,2.79-3.91.41-22.37.42-18.26-.61,12.9.5,11.66-2.85,23.59-.89,1.88-.9-1.22-1.26-5.86-1.44a6.26,6.26,0,0,0,2.65-.61l13.29.13C632.53,816.38,635.84,816.52,634.84,816.89Zm23.44-.11c-2.38,0-4.43-.1-6.21-.18l4-.21H658q0-6.55,0-12c0-3.6,0-6.83,0-9.73,0-5.46-.13-9.66-.23-12.73-.19-6.15-.48-7.82-.83-6.21V763c.62,7.71,1.18,14.92,1.47,19,0,2.93.05,5.9.08,8.84s0,6.1,0,9.05C658.39,806.1,658.35,812,658.28,816.78Zm.18-87.17c-.27-1-.44-.14-.57,1.68-.06-4.76-.12-9.57-.18-14.39C658.19,719,658.73,715.9,658.46,729.61Zm1.31-58,.84-8.75c.32,21.56.5,30.73.07,54.58-1.07,2.83.26-10.91-.29-16.35l-1.08,11.24c0-5.17-.92-15.31.1-14.9-.51-.2-1.32-8.32-.91,6.79l-.77-11.35a19.74,19.74,0,0,0-.3,2.49c0-3.35-.1-6.8-.14-10.22.34-4.28.31-12,1.11-18.67.31-.49.42,6.63.57,10.7.45-10.27.27-19.44,0-25.36-.22,16.15-.72,7.52-1.59,11-.38-9.91-.16-26-.39-32,.37-13.7,1.36-25,2.14-15.83-.42-8.76,0-17.95-.93-27.23,1,17.29-2.17.41-.82,22.41-.27,1.24-.47,1.35-.61.64V587.58c.09-2.72.2-5.27.3-7.36.23,5.93.71.94,1.1,2.38-.34-11.82-.94-11.61-1.4-6.32V550l.75-10.57.3,16.39c.91-6.8.14-18.17.16-26.62.64-9.47.83,21.8,2.23,32.14.61,8.23,0,25-.49,26.61,1.29,2.86.67,30.51,1.41,41.37C661.21,656.64,659.17,647.31,659.77,671.64Z"/><path class="cls-1" d="M659.58,587.72c0,.41.12.47.18.25A.43.43,0,0,0,659.58,587.72Z"/><path class="cls-1" d="M2.51,302.12c0-.47,0-.93,0-1.4C2.49,301.22,2.5,301.68,2.51,302.12Z"/><path class="cls-1" d="M610.09,9.71l1.38.07C611.11,9.75,610.64,9.73,610.09,9.71Z"/><path class="cls-1" d="M663.45,503.94c0,.49,0,1,0,1.57C663.48,504.93,663.46,504.41,663.45,503.94Z"/><path class="cls-1" d="M506.73,2.25l-.6,0Z"/><path class="cls-1" d="M152.28,8a130.8,130.8,0,0,1-19.86,1.09c-3.66-2.42,15.93-.68,20.34-2.93-17.83-.23-23.31,1.88-38,2.09C122.05,9.29,151.75,9.87,152.28,8Z"/><polygon class="cls-1" points="161.19 5.13 160.21 4.99 150.28 5.53 151.26 5.67 161.19 5.13"/><polygon class="cls-1" points="533.12 2.82 528.16 3.09 526.96 3.56 533.12 2.82"/><polygon class="cls-1" points="525.72 0.21 521.19 0.86 534.88 0.51 525.72 0.21"/><path class="cls-1" d="M615.71,8.14l-8.19.45C609.14,8.5,620.35,9.09,615.71,8.14Z"/><path class="cls-1" d="M664.21,39.27c.56-.77.1,19.27.82,6.73C664.92,35.75,664.57,37.4,664.21,39.27Z"/><path class="cls-1" d="M664,40.37c.08-.31.15-.71.23-1.1A3.82,3.82,0,0,0,664,40.37Z"/><path class="cls-1" d="M657.8,184.37c0,1.61,0,3.31.13,4.94C657.88,187.37,657.83,185.74,657.8,184.37Z"/><path class="cls-1" d="M657.88,170.42a110.94,110.94,0,0,0-.08,14C657.8,179.18,658.14,174,657.88,170.42Z"/><path class="cls-1" d="M658,243.92l.06-4.71c.45,4.82.39,2.53,0-1.77,0-5-.31-4.71-.51-5.3l-.36-3.07c.13,1.53.24,2.92.33,4.09C657.55,240.9,657.59,245.62,658,243.92Z"/><polygon class="cls-1" points="666.83 185.14 666.68 181.17 665.75 174.32 666.83 185.14"/><path class="cls-1" d="M666.49,413.16c-.84-13.4-2,21.25-2.75-1.82-.89,29.76,1.19-2.28,1.06,19.67C665.08,418.15,666.15,411.85,666.49,413.16Z"/><path class="cls-1" d="M664.8,431c0,1.87-.07,3.89-.07,6.09C664.75,434.67,664.78,432.71,664.8,431Z"/><path class="cls-1" d="M659.17,615.05c.07,1.53.15,3,.28,4.5C659.36,617.6,659.27,616.28,659.17,615.05Z"/><path class="cls-1" d="M665.5,501.13l-1.27-20.08c.84,13.41.79,47.15,2,45.05.26-10.93-.08-24.07-.62-29.47Z"/><path class="cls-1" d="M658.84,581.57c.09-6.48,0-11.67-.17-17.59C658.43,566.43,658.21,582.6,658.84,581.57Z"/><path class="cls-1" d="M667.14,772.11c.13-9.7-1-17.28-1.24-14.74l.05,18.82c1-4.79,0-5.22.22-16.14Z"/><polygon class="cls-1" points="278.86 822.36 289.83 821.95 285.46 821.99 278.86 822.36"/><path class="cls-1" d="M221.53,819.88c5.22.71,15.11.17,18.42,0C228.55,819.89,233.49,819.62,221.53,819.88Z"/><polygon class="cls-1" points="235.63 827.54 224.63 827.94 225.66 828.08 235.63 827.54"/><polygon class="cls-1" points="156.72 826.24 155.68 826.09 145.75 826.64 146.8 826.78 156.72 826.24"/><path class="cls-1" d="M92.39,825.74a44.7,44.7,0,0,0,6-.52C95.94,825.39,94.08,825.56,92.39,825.74Z"/><path class="cls-1" d="M72,828.27c11.38-.79,12.65-1.7,20.37-2.53-13.75.57-42.63-.74-60.09.89-9.62,1.53-3.78,3.63-3.82,5.84,1.45.52,26.39.77,27.33-.7-11.68-1,16.11-1.28-5.52-1.7-1.9-.9,8.23-2.06,18.42-1.61-.81.84-9.92.54-3.66,1.4C71.81,828.88,74.38,829.55,72,828.27Z"/><path class="cls-1" d="M74.18,834c5.41.11,7.06,0,10.37-.16C83.66,833.06,78.55,833.94,74.18,834Z"/><path class="cls-1" d="M1.33,739.59l.33,17.74A31.05,31.05,0,0,1,2.37,750C2.11,748.78,1.78,737.07,1.33,739.59Z"/><path class="cls-1" d="M1.8,765.12l-.14-7.79C1.63,759.28,1.67,761.69,1.8,765.12Z"/><path class="cls-1" d="M2.53,749.17c0,.28-.1.53-.16.84S2.48,750.21,2.53,749.17Z"/><path class="cls-1" d="M.85,82.34a6,6,0,0,1-.26-1.42A5.41,5.41,0,0,0,.85,82.34Z"/><path class="cls-1" d="M.18,56.11l.2.67L0,46.92c.06,9.24,0,28.65.59,34C.17,76.15.83,61.41.18,56.11Z"/></g></g></svg>