<svg xmlns="http://www.w3.org/2000/svg" viewBox="0 0 230.44 48.8"><defs><style>.cls-1{fill:#59d4ff;}</style></defs><title>boton enviar</title><g id="Capa_2" data-name="Capa 2"><g id="Capa_1-2" data-name="Capa 1"><path class="cls-1" d="M228.24,34c0,.91-.2,1.71-.31,1.36.3,1.86-.05,1.9.54,2.14.28,1.19-.11,2.47-.35,1.11l.36,3.44.09-2.06c.48.56-.15,3.29.42,3.94l-.05-3.72.16.18a13.14,13.14,0,0,1,0-3.06c.08.09.21,0,.22.69,0-4.5-.84-1.22-1-4.95A4.51,4.51,0,0,1,228.24,34Z"/><path class="cls-1" d="M229.43,30.21l-.61-1.57L229,26c-.21,0-.38-2-.57-.65a6.38,6.38,0,0,1,.08,1.16c-.46-.29-.23-3.5-.69-2.72a13.44,13.44,0,0,0,.39,3.68,27.79,27.79,0,0,1-.31,4.18c.07.57.35.65.4,1.37l0-.49.69-.08a7.83,7.83,0,0,1-.09-1.83l.8,3.08c.63-1,.26-4,.52-5.23C229.61,30,229.9,27.29,229.43,30.21Z"/><path class="cls-1" d="M2.89,38.37s0,0-.07,0l.21.66v0C3,38.79,2.94,38.57,2.89,38.37Z"/><path class="cls-1" d="M.48,18.4l.4,3.28c-.19-.44-.13,1.14-.35.45,0,.25.1,1.42.2,1.1v-.67c.56,1.73.77.68,1.2,3.55a6.31,6.31,0,0,0-.23-3.5c0-.32-.05-.59-.07-.86L.83,19Z"/><path class="cls-1" d="M149.84,45.39l-.05,0C149.84,45.41,149.84,45.4,149.84,45.39Z"/><path class="cls-1" d="M149.6,45.55l.19-.13C149.55,45.49,148.64,45.55,149.6,45.55Z"/><path class="cls-1" d="M229.34,8.83l-.05.67A5,5,0,0,0,229.34,8.83Z"/><path class="cls-1" d="M50.37,2.17h1.19C51.09,2.17,50.71,2.16,50.37,2.17Z"/><path class="cls-1" d="M77,.51,78.73.39A16.19,16.19,0,0,0,77,.51Z"/><path class="cls-1" d="M218,2.32H218l-.27,0Z"/><path class="cls-1" d="M130.41,1.68a8.82,8.82,0,0,0,1,.11A3.51,3.51,0,0,0,130.41,1.68Z"/><path class="cls-1" d="M76.68.53h.11l.21,0Z"/><path class="cls-1" d="M38.64.7l-.76.05A5.9,5.9,0,0,0,38.64.7Z"/><path class="cls-1" d="M40.31,2.12l-.74,0Z"/><path class="cls-1" d="M1.85,10l.09,1.18A8.13,8.13,0,0,0,1.85,10Z"/><path class="cls-1" d="M36.08,1.8a1.15,1.15,0,0,0-.24.07C36.06,1.85,36.16,1.82,36.08,1.8Z"/><path class="cls-1" d="M227.32,16.54v-.07l-.08,0Z"/><path class="cls-1" d="M228.36,20.45a6.51,6.51,0,0,0-.05-1Z"/><path class="cls-1" d="M153.62,2.49c.42.07,1.41.16.95.24C155.38,2.63,155.32,2.37,153.62,2.49Z"/><path class="cls-1" d="M229.35,16.71a39.65,39.65,0,0,1,.07,6.13l-.44-.72a25,25,0,0,0,.14-5l-.23,4.27c-.36,2-.45.67-.53-.91a2,2,0,0,1-.11.84c.17.18.52,4.69.6.9.5.14.23,2.43.36,3.44.12-.73.32.37.5.14a9.5,9.5,0,0,1-.17-1.92c.23-.38.39.87.3,1.86.27-1.21.4,1.53.6-.18A38,38,0,0,0,229.35,16.71Z"/><path class="cls-1" d="M226.54,15.86Z"/><path class="cls-1" d="M15.24.75a.12.12,0,0,0-.08,0C14.9.72,15,.74,15.24.75Z"/><path class="cls-1" d="M150.81,1c-.59,0-1,0-1.4,0C149.84,1.07,150.3,1.06,150.81,1Z"/><path class="cls-1" d="M176.5,4.27c-.35,0-.69,0-1,0l-.2,0A9,9,0,0,0,176.5,4.27Z"/><path class="cls-1" d="M98.7,4.47a4.7,4.7,0,0,0,1-.12A5.2,5.2,0,0,0,98.7,4.47Z"/><path class="cls-1" d="M70.75,2h0Z"/><path class="cls-1" d="M229,10.41l0,.15A.8.8,0,0,0,229,10.41Z"/><path class="cls-1" d="M228.71,13.81c.14-1.14.54.41.8.27-.09-1.83-.56-1.72-.65-3.55,0-.47.14-.33.18-.12L229,9.88l-.06-.34-.06-.45a18.56,18.56,0,0,0,.2-2c.08-.81.18-1.34.33,0l0,1.75c.14-2,.34-4.66.49-6.83-2.79-.14-5.07-.29-4.8-.47-1.53,0-2.11,0-2.9,0l-1.51,0h-1.08l-1,0c-1.4.25.11.5-3.18.68l2.59.12c.54,0,1-.11,1.56-.15l-2.69,0c1.7-.12,1.4-.25,1.9-.49h1.71l1.89.05c1.14,0,2.05.09,2.84.15,1.58.12,2.66.26,4.16.32-2.17.19-5.31.13-4.35.43a16.25,16.25,0,0,0-3.14,0c-.45,0-.9.07-1.45.08h-.85c-.24,0-.51,0-.81-.06l.46-.08c-2,.24-2.22-.05-3.84.16.12-.06-.09-.1-.3-.13-3.51.13,1.06.18-2.46.47-3.12,0-1-.49-1.87-.64,5.24-.41-.11-.51,5.56-.84,0-.41-2.24-.46-5.28-.41,2,.18-1.25.6,1.37.88-4.53.21-4.15,1-9.22.63l.13-.06L201.21,3l-2.86-.16c1.77-.43,4-.22,5.36-.47-3.49-.43-4.69.42-8.71.39-3.35-.49,4.1-.28,4.08-.69a7.48,7.48,0,0,1-2.75-.22c3.77.15,2.3-.26,6.5,0-2.05.14.31.13-.07.31a67.32,67.32,0,0,1,7.31-.14c.64-.3-2.41-.24-4.16-.38-3.33.33-6.77-.26-9.33.12-3.59,0-.27-.29-.49-.33-3.22-.14-1.39.25-2.42.32-4.87.23-5.41-.35-8.88-.37-2.88.4-9.91.26-14.83.24.6-.15-.06-.26-.35-.39a34.67,34.67,0,0,1-5.54.68l3.1.2c-2.49.07-4.49.46-6.77.15,3,.52-4,.38-5.83.55-2.54-.18-5.08.19-6.47-.12l.34,0-3.68-.05.45-.49c-2.54-.19-5.65.17-4.78.32-2.66-.13-1.09-.19-1.47-.41,1.5-.16,4.72-.58,5.65-.18a2.74,2.74,0,0,0-.91,0c6.92.22,2.26-.6,5.71-.72a49.32,49.32,0,0,0-5.06-.14c-.9,0-4.53.2-6.36.38a26.12,26.12,0,0,1,5.78.17,33,33,0,0,1-3.38.07l.47-.08L139,1.63c-.27-.29-5-.12-2.24-.46-2.48.07-.85.26-3.11.37l4.46.1-.08.31a24.15,24.15,0,0,1-3.81,0l.15.35L131.21,2c.4.23-2.05.14-2.73.18-1.76-.13-.62-.67-3.61-.37l.22,0a37.88,37.88,0,0,1-5.17.09,8.31,8.31,0,0,1,1.14-.12c-3.42-.18-8.92.34-10.48-.16.28-.28,1.7-.12,1.78-.43,5.28.41,3.7-.51,9.91-.26.29.69,5.25-.41,6.43.28-2.44-.09-5.68.33-5.25.41,2.25,0,5.4-.06,7,0-1.38-.22-.93-.61.07-.85C126.85,1,120.24.55,115.1.49l.58.42c-4.44.3.54-.39-2.93-.41l-1.53.3-.21,0-2.55.37c1.8,0,1-.32,3-.14,1.76.13-.08.31-.58.55-1.2-.13-5.48,0-2.84-.32l-4.69.42c0-.16,1.06-.23,1.54-.31l-3.39.07.13-.06c-2.73.19-6.54.19-8.63.49,4.65.3-2.21.35-1.81.58-1.67,0-2.18-.77,1.36-1.07,1,.25,3.39-.07,5.18-.09a43.84,43.84,0,0,0-4.84.07c1.28-.19-2.4-.24-2.36-.4.24-.12,1-.48,3.32-.33,3.46,0,.36.39,1.38.32.92.4,4.83-.07,6.93,0,.23,0-.46.08-.8.11,1.8,0,5.61,0,5.88-.3l-4.51.2c-1-.08,1.39-.25,0-.4a32.48,32.48,0,0,1-3.6,0l.25-.12c-2.74-.22-7-.13-10.18,0-.71.61-2.35,1-3.74,1.63-4.7,0-9.61,0-14.61-.13.08.13,0,.25-.22.37-1.42-.16-4,0-4-.35-1.53.31-5.84.55-5,.85l-.57,0a59.07,59.07,0,0,0-9.46-.67c-1,0-1.1.2-.88.5-1-.09-2-.17-3-.18a11.07,11.07,0,0,1,2.69-.33l-7.64-.11.59-.14-3,.2c1.7-.07,4.33,0,3.68.32-3.41.23-5.35-.1-8.25.3,0-.56-1-.65,0-1a1.06,1.06,0,0,1,.34,0,27.43,27.43,0,0,1,5.2-.71C34.94.9,36.57,1.1,31,1,30.52.64,36.13.62,34.83.4l5.23.16A8.42,8.42,0,0,0,38.64.7c3.6-.23,4.91.07,7.62-.31,1.71.15-2.67.25-.79.31a15.21,15.21,0,0,0-3.92.68c4.11.13,2.33-.42,5.84-.55L50,1.11c1.59-.06-.51-.17-.61-.26C51.32.77,52.05,1,53.51,1,53.08.9,52.1.82,52.34.7c2.42.24,4.79.08,7,.54C58.08,1,60.85.68,61.88.61L57.28.16C51.42.3,47.78.08,41.46.31l.37-.18C31.88-.43,33.57,1,25.06,1c-.23-.45-3.94.06-3.62-.37,2.57,0,2-.14,1.32-.35A22.49,22.49,0,0,1,17.42.6C18.48.38,16,.19,18.77.1,16.82.06,15.31,0,14,.09l-.92.05L11.51.21c-1,.06-2,.13-2.85.23C5.67.54,4,.55,2.93.53A18.59,18.59,0,0,1,.77.36a4,4,0,0,0-.24,1.3c-.06.78-.07,2.07,0,4.28L.31,4.54.39,9.87l.07-.24,0-.12c0-.06,0-.15,0-.22l.15-.9,0,.81v.36l0,.21.09.86L1,12.35c.34,2.11.38-.86.63-.59l-.44-.71a8.22,8.22,0,0,0,0-1.11L1.17,8.26a8.58,8.58,0,0,1,.09-2.54A17,17,0,0,0,1.51,9q0,.17.09.3l0,.14a.79.79,0,0,0,0,.09,1.67,1.67,0,0,1,.16.47L1.8,9.5l0-.94L1.67,6.67,2,5.55C2,4,2,2.55,2,1.27c2.26,0,4.13-.06,5.74-.22a20.51,20.51,0,0,0-2.68.05,14.27,14.27,0,0,1-2.54,0A46.08,46.08,0,0,1,8.35.71l4.4-.09.82,0,.65,0,1.32,0c.09.09,1.2.12.73.2a5.23,5.23,0,0,1-1,0c.27.18-1.69.3,1.61.4A35.92,35.92,0,0,0,13.29,2H12.8l-.59,0L11,2.06l-2.54,0c-1.69,0-3.32,0-4.57-.06L4,2H2.93C3,3,3,4.34,3.05,5.43s0,1.92-.17,2L3,8.61l0,.6,0,.27,0,.15c0,.18.08.26.12.17a1.08,1.08,0,0,0,.07-.28c0-.19,0-.51.08-.9,0,1,.07,1.43.11,2l.12,1.75c-.7-.58-.84,2.72-1.41-.75,0,.12.09,1.39.22,3.43A.71.71,0,0,1,2.29,15a.62.62,0,0,0-.12-.27c0-.42,0-.67.12-.74-.5-1.22-.62.58-.66,2.49l.39.45a17.93,17.93,0,0,0-.4,4.82l1.47,5.13.09,1.5c-.23.67-.06,2.93-.52,2-.18.23-.27-.53-.18-1.51,0-.15.08.09.13-.07-.25-.28-.54-.39-.8.81a7.16,7.16,0,0,0-.07-2.24l-.06,1.24C1.59,26.81,1,24,.7,24.05c.48.56,0,1.74-.08,2.72C.52,26,.26,24.41.2,25.64c.19.44.47,3.79.66,1.41a15.35,15.35,0,0,1,.23,3.5c-.24-1.34-.41-.46-.73-.83.29,1.19.63,1.15.79,1.34C1,32.77.63,34,.4,35.23a16.19,16.19,0,0,0-.24,2c0,.36,0,.74,0,1.15,0,.59,0,1.23.07,1.92,0,.24,0,.08,0-.29l0-1.22c0-.6,0-1.22.18-1a7.55,7.55,0,0,1,.14,1v1.22c0,1-.11,1.85-.2,2.73A34.68,34.68,0,0,0,0,48.54l.54-1.7c0,.34.05.79.07,1.51,2.06-.05,5.24-.09,7-.12.25.07,2,.17,3.15.27s1.58.2-1,.26l2,0h1.57c.54,0,1,0,1.42-.06.84-.07,1.49-.18,2.16-.29a28.91,28.91,0,0,1,6.06-.4c-3-.11-3.35-.08-5.7-.08,2.51-.22.38-.17.66-.45,1.51.26,6.38,0,3.06.36,2,0,6,.05,7-.12l-1.76-.14a36.83,36.83,0,0,0,7-.52c-3.61,0-3.49.55-8.07.5-5-.28,1.18-.29-2.08-.68l-3.54.29,1.67,0c-.54.4-5.48,0-5,.44-.9-.09-1.64-.14-2.31-.18l-.49,0h-.72l-1.56,0c-2.05,0-4.24-.06-7.34-.24-1.78.17.66.17,2.55.2-2,0-3.08.15-4.55.22a13.88,13.88,0,0,1,.07-3c0-.87-.07-1-.19-.44a15.86,15.86,0,0,0-.25,3.25c0-1.35,0-2.65,0-4s0-2.74,0-4.23L.84,42.39V39.14L.6,41.93c0-.79,0-1.6,0-2.41V38.05c0-.85,0-1.69.07-2.48a17.6,17.6,0,0,1,.51-3.85c.21,1.44.28,3.35.38,5.11l.08,1.28.11,1.28a18.2,18.2,0,0,0,.38,2.94,13.51,13.51,0,0,0-.1-2.5l0-.38v-.37a3.09,3.09,0,0,1,0-.43,1.48,1.48,0,0,1,.23-.75L1.82,37c-.13-1-.28-3.34.11-3.55a25.76,25.76,0,0,0,1,4.9c.08,0,.12.26.14.66v0l0,1V41.3c0,.82,0,1.63.07,2.19C3,45,2.82,44.11,2.74,44a27.13,27.13,0,0,0-.12,2.91c2.7,0,5.29-.16,7.79-.29l1.88-.08,1.55-.06c.86,0,1.76,0,2.72,0,.05.26,3.74.31,2.59.44a41.21,41.21,0,0,0,6.14-.41c.4.23,4.24.07,2.84.32l2.55-.38c1.75.14,5.39-.06,6,.21,1.92-.08.54-.4,3.2-.27-.12.06.09.09-.47.08a31.38,31.38,0,0,0,5.39-.06c-1.88-.07-.43-.07-2.66-.12a17,17,0,0,1,5.08-.19c-3.44.38,2.72.38,1.1.59a126.78,126.78,0,0,0,13.18-.84c5.39-.06,12.08.1,16.3-.24h-.56l2.52-.22c1.45,0,0,.41,2.27.3-.75.36-3.93.07-6.23.32,4,.35-3.66.35-1,.64,1.51-.72,8.43-.11,11.88-.5,3.34.08-1.53.31.13.35l1.07-.23c1.32.07,1.76.14,1.72.3a87.77,87.77,0,0,0,10.6-.31c-3.84.16,1.31-.35-2.49-.34,1.15-.13,3.62-.2,6-.2-2.26.1,3,.51-2,.39.7.36,2.48-.07,4.71,0-1.14.13-3.68.36-3.45.39,3.36-.48,10.8.29,12.1-.05,2.44-.32,6.19-.57,9.17-.88,3,.26,6.25.09,9.59.17l-.6.15c1.89.07,4.83-.08,7.62,0l.62.27c1.91-.08,5.5-.12,8.43-.11,0-.16-2.67-.13-1.39-.32-1.46,0-2.7,0-2.18.2a15.24,15.24,0,0,1-2.71-.38l5.64-.17a2.15,2.15,0,0,1,.64.06l.41-.29c1.47,0,1.89.08,1.64.19,3.17-.11,4.27-.49,7.61-.41a21.84,21.84,0,0,1-4.7.42h3.81c-1.74.27-8.33.21-7.2.64,4.18-.18,10.29-.44,14-.79,1.95.33,4.84-.07,8,.07.44.07,1.42.16.83.3h-.9c4.25.07,9.11-.15,12.86-.41l1.94.33c6.47.13-1.22-.53,5.41-.62,1.6.35,8.14.17,8.41.45,1.24,0,1.8,0,1.95-.23-1.11,0-3.59,0-2.19-.21,2.27-.1,3.34.08,5.14.06-.13.06-1.41.25-.72.2,4.4-.14,12.58-.13,16.75-.72a25.77,25.77,0,0,1-3.86.16c0-.16,1.16-.13,1.62-.21-.26-.29-2.17.2-4.36,0L220,44h6.28V4.65h-1.18c.45-.05.89-.09,1.33-.11a22.53,22.53,0,0,1,0,2.74c0,.47,0,.93,0,1.4a9.09,9.09,0,0,0,.15,1.39c-.08-.09-.12-.34-.13.07-.08,2.72.68,3.81.32,6l-.24-.27c0,.19.23,1.48.5,1.22a31.72,31.72,0,0,1-.13-3.82,12.87,12.87,0,0,1,.41,3.21l.42.12c.45,1.38-.21,2.79.24,4.16l.28-1.61a2.24,2.24,0,0,1,.05.27,6.06,6.06,0,0,0-.2-1.53A6.73,6.73,0,0,1,228.71,13.81Zm-64.5-9.69a1.48,1.48,0,0,1-.47.09c3.82,0,4.16,0,7.19-.08L170,4.3c.54.23,3,0,5.47,0a12.23,12.23,0,0,1,3.3-.1l-.38.18a41.68,41.68,0,0,0,5.63.17l-.81.14H157.31C159.45,4.52,161.76,4.35,164.21,4.12Zm-54.16.31,5.54-.7-.13.06,4.84-.07-.59.14,2.84-.24c-.07.31.87.14.71.36,1.78.55,6.32-.22,10.18,0l-.59.14c2.09-.3,7.28,0,10.61.1l-.12.06c-1.54.09-2.14.22-1.93.34h-4.78a7.28,7.28,0,0,0-.73-.14c-.66.07-1.49.11-2.33.14h-7.24a10.68,10.68,0,0,1,1.19-.19l-9.45.18h-8.24C110.13,4.59,110.05,4.54,110.05,4.43ZM68,3.68l.25.29c5.92.11,10.13-.64,16.25-.49-.85.26-3.16.11-2.85.25,3.68,0,3.18-.68,6.79-.31-5.18.1,3.22.14-1.44.4,6.49-.43,13.4.17,17.67.09-1.07-.19,1.75-.27,1.87-.33,1.12,0,.74.2-.16.21,2.2.16,2.59.4,2.22.63l-4.5,0c.81,0,1.41.12,2,.19H99.16c-.44-.06-.66-.12-.46-.18-1.54.08-3.82-.16-4.65-.1,1.6.12,1.29.2.41.28H92c0-.09.47-.17-.39-.21L88,4.47l3.13,0-.37.13H68a15,15,0,0,1-3.65-.85Zm-18.5.58h-.34l3.47-.1c.32.25.46.44.13.49H47.72c-.41-.06-1-.12-1.63-.15Zm-3.74.39h-4A20.39,20.39,0,0,1,45.77,4.65ZM5.32,4.26V3.73l6.94.09,6.07.1-.53-.17a21.84,21.84,0,0,1,3.14,0,6.91,6.91,0,0,1-1,.21l-2.5.38-1.87.27H13.35a61.32,61.32,0,0,0-7.94-.87ZM6.5,26.18a6.72,6.72,0,0,1-.06,1.08l0-1.26ZM6.22,37.8l-.17-.58c.1-2.59.2-5,.29-7.28a16.39,16.39,0,0,1,.13,2.7c0-.22.08-.45.11-.69v5.76a14.84,14.84,0,0,1-.2-3C6.35,34.85,6.29,36.06,6.22,37.8Zm101.05,6.32L108,44h1.89C109.86,44.09,109.73,44.28,107.27,44.12Zm4.26-.08-.46-.08h1.71A8.84,8.84,0,0,1,111.53,44ZM225,4.65h-1.08c.76-.06,1.44-.1,2-.13Z"/><path class="cls-1" d="M78.57,1.58l-1.49.15a26.92,26.92,0,0,0,5-.28c-.13.06.09.09.52.17,2.48-.07,3.79-.41,2.51-.63l-.82.1L82.56.8c-.65.57-5.72.24-8.49.5,1.91-.25,3.55-.78,6-.43L79.81.58c2.13,0,3.86.25,5,0L82.37.61l0-.16a53.28,53.28,0,0,1-5.62.09A32.58,32.58,0,0,1,70.2,1l.13-.06c-2.59.53-7.22-.33-9.17-.09-1.13.53,4.2.22,5.49.44-1.61.21-3.33-.08-2,.24-3.76.25-2.25-.47-5.35-.1l1.76.14c-1.4.24-3.72.09-5.13.34-.19.37,2.36,0,5,.12l-1.2.29L65.15,2c1.57-.47.11-.47,3.43-.8A4.16,4.16,0,0,1,70.77,2,47.74,47.74,0,0,1,78.57,1.58Z"/><path class="cls-1" d="M227.26,17.77c.15.6.12,2.08.43,1.79C227.35,19.6,227.64,16.91,227.26,17.77Z"/><path class="cls-1" d="M227.14,20v.23A1.62,1.62,0,0,0,227.14,20Z"/><path class="cls-1" d="M226.93,19.54c.07.09.18.05.21.47l-.07-1.6Z"/><path class="cls-1" d="M203,1.3c-.19-.19-1.46,0-2.15,0A14.54,14.54,0,0,0,203,1.3Z"/><path class="cls-1" d="M174.83,47.32c-4.49,0-8.64.08-15.61.19Z"/><path class="cls-1" d="M149.32,2.17l1.81.38c4.19-.18,6.06-.51,10.33-.59C155.84,1.57,154,2.56,149.32,2.17Z"/><path class="cls-1" d="M150,1.71c2.83-.09,1.32-.34,3.88-.31L152.61,1C153.31,1.38,149.38,1.45,150,1.71Z"/><polygon class="cls-1" points="133.97 1.26 131.86 1.15 133.5 1.34 133.97 1.26"/><polygon class="cls-1" points="118.82 1.36 120.87 1.23 120.66 1.19 118.61 1.33 118.82 1.36"/><path class="cls-1" d="M70.48.7c2.85.07,2.41-.31,4.13-.39-3.22,0-3.88-.06-7.74,0C69.87.43,70.65.48,70.48.7Z"/><path class="cls-1" d="M74.61.31l1.12,0C75.26.28,74.92.29,74.61.31Z"/><path class="cls-1" d="M62.42.22A15.88,15.88,0,0,1,64.31.3C64.47.08,61.87.21,62.42.22Z"/><path class="cls-1" d="M76.78,4.54h0Z"/><path class="cls-1" d="M74,4.45a21.31,21.31,0,0,0,2.79.09A7.35,7.35,0,0,0,74,4.45Z"/><path class="cls-1" d="M54.86,1.45c.81-.11,1.9-.49-1-.34C54.37,1.12,55.23,1.27,54.86,1.45Z"/><polygon class="cls-1" points="70.99 4.35 68.51 4.41 68.94 4.49 70.99 4.35"/><path class="cls-1" d="M21,.31,22.45.16l-1.87,0C21.12.17,20.15.46,21,.31Z"/><path class="cls-1" d="M20.22.11h.36A1.86,1.86,0,0,0,20.22.11Z"/><polygon class="cls-1" points="7.89 0.84 8.32 0.87 12.7 0.81 7.89 0.84"/><polygon class="cls-1" points="0.58 10.31 0.48 10.62 0.67 12.14 0.77 11.82 0.58 10.31"/><path class="cls-1" d="M53.3,47l.68,0Z"/><path class="cls-1" d="M84.6,47.65a22.13,22.13,0,0,1,3.82,0c.37-.18-1-.34-.89-.56-4.2-.22-4.85.64-9,.51.16-.22,1.43-.41-1.26-.38l.69,0c-4.32.24-3.36-.49-6.08.1L72,47c-1.95.23-5.76.23-7.9.28l.13-.06c-6,.35-3.38.07-10.13.22l3.11-.36c-2.33-.15-2.86.24-4.53.2.1,0-.14-.21.63-.3l-7.52.51c-2,.24.4.23.71.36a16,16,0,0,1-4.46-.1c.47-.09,2.4-.17,1.19-.29l-2.81.5c-3.73-.31,2.84-.65,4.68-.83-3.8-.06-4.93.26-9,.26a18.25,18.25,0,0,1,2.58.28c.13.35-3.64.19-6.33.22,1.71.15.72.28-.53.42a3.54,3.54,0,0,0-.48,0l-.42.05h.32s0,.08.28.15c2.26-.1,4,.19,5.45.19-1.44-.56,5-.13,6.79-.3l2.11-.06h.79c.16.06-.07.14-1.27.25,1-.11,4.36-.07,4.05-.25h7.66a5.37,5.37,0,0,1,.65.09c.27,0,.31-.06.27-.09l33.36,0c-1.64,0-3.07-.17-4.76-.23C89.18,47.7,83.85,48,84.6,47.65Z"/><path class="cls-1" d="M34.61,47.35h1.51C35.68,47.34,35.19,47.34,34.61,47.35Z"/><path class="cls-1" d="M93.75,48.31H91.4C92.13,48.33,92.89,48.34,93.75,48.31Z"/><path class="cls-1" d="M28.53,48l-4.16,0c1.42.16-1.06.23-1.31.35h5.09C28.13,48.26,28.63,48.13,28.53,48Z"/><path class="cls-1" d="M29.62,48.61a5.94,5.94,0,0,1,1.32-.23H28.15C28.17,48.47,28.48,48.55,29.62,48.61Z"/><path class="cls-1" d="M111.07,47.08l1.11,0Z"/><path class="cls-1" d="M124.33,47.26c-3.56,0-8.74-.2-9.66.13.06-.06,0-.12-.52-.15l-2.2.35,2.1.11a65.73,65.73,0,0,1-10.66.06c4.07-.12,2-.55,7.69-.32-.25-.1-1.29-.3,0-.36-6.64.13-12.59-.07-19.46.3,5.41.35-3.55.29-1.85.74L92.71,48l-.25.12,3.59,0c-.74-.2-1.29-.22-1.13-.43,4.79.08,1.51.25,5,.53l5.36,0-.43.06a3,3,0,0,0,.8-.07L123.73,48C127,47.8,121.91,47.58,124.33,47.26Z"/><path class="cls-1" d="M158.18,47.17l-.05,0C158.25,47.19,158.29,47.18,158.18,47.17Z"/><path class="cls-1" d="M155.23,47.32l.73-.2-3.24.42,5.05,0,.36-.3A13.4,13.4,0,0,1,155.23,47.32Z"/><path class="cls-1" d="M152.92,47.17c-.06-.25-3-.1-3.68-.06l-.28.69c2.61-.13,2.47-.48,1-.64C152.4,47,151.27,47.54,152.92,47.17Z"/><polygon class="cls-1" points="129.75 47.61 130.48 47.47 128.67 47.43 129.75 47.61"/><path class="cls-1" d="M131.73,47.22l-1.25.25,1.79,0A1.16,1.16,0,0,0,131.73,47.22Z"/><path class="cls-1" d="M139.59,47.66l-2.62,0Z"/><path class="cls-1" d="M135,47.57l2,0-2.05-.09Z"/><path class="cls-1" d="M135.49,47.94l-.51-.37-2.71-.06C132.56,47.75,132.9,48,135.49,47.94Z"/><path class="cls-1" d="M144.39,47.75c0,.15,1.32.06,2,0A18.93,18.93,0,0,0,144.39,47.75Z"/><path class="cls-1" d="M196.91,47.26a6.77,6.77,0,0,0-1.21-.12Z"/></g></g></svg>