<svg xmlns="http://www.w3.org/2000/svg" viewBox="0 0 669.41 718.39"><defs><style>.cls-1{fill:#ffb7d1;}</style></defs><title>recuadro formulario </title><g id="Capa_2" data-name="Capa 2"><g id="Capa_1-2" data-name="Capa 1"><path class="cls-1" d="M399.4,706.85c-4.31,0-5.58.44-6.2.64l48.51,0c-1.52-.45-15.5-1-6.16-1.27a110.79,110.79,0,0,0-17.68.34l2.51-.49c-11.18.87-18.81-.85-11.52-1.36h-.94l-31,3.36C388.33,708.25,385.72,706.9,399.4,706.85Z"/><path class="cls-1" d="M1.74,90.44c-.13-2.32-.27-4.52-.48-6.52C1.42,90.38,1.57,91.17,1.74,90.44Z"/><path class="cls-1" d="M369.73,708.85l-9.7,1C363.91,709.61,367.33,709.24,369.73,708.85Z"/><path class="cls-1" d="M149.63,712.81l-3.18.07C147.61,712.87,148.66,712.84,149.63,712.81Z"/><path class="cls-1" d="M369.73,708.85l7.23-.8-3.67-.11A11.17,11.17,0,0,1,369.73,708.85Z"/><path class="cls-1" d="M407.92,704.69l6.69-.73c-6.95.27-15.08.46-24.86.92Z"/><path class="cls-1" d="M93.51,718.09c.57.12,1.51.23,2.11.3A17.69,17.69,0,0,0,93.51,718.09Z"/><path class="cls-1" d="M353.32,708c-10.55.68-6.52,1.7-22.38,1.75,6.22-.64,7.79-2.1-7.4-2.25-38,1.27-63.13,4.88-98.6,6.73-1.31-1-29.15-.71-42.69-.94,5.17-1,15.21-1.35,25.64-1.56l-26.16-.14-3.4,2.06c-37.64.21,9.24-1.65-8.05-2-10.45.19-14.13,1-20.65,1.22,29.85-.67-4,2.57,26.06,2.16-4.28,1.41-21.71,1.54-31.93,1.16-11.56-1.37,10.11-1,12.73-2.34-12.08.22-10,.47-15.08,1.23-19-.31-39.25,1.68-50.57-.21-13.73.3-12.83,1-20.72,1.67-1.41,1.3,16.06.88,23.39,1.61-.43-.09-.65-.19-.4-.27l11.87.3c-11.27-.51,1.57-1.45,7.59-1.57,4.38,0,13.08-.09,11.89.31l-6.64.31c8.54.46,18.84-1.06,27.86-.27.47.33-2.94.48-3.46.68,10.1-1,19.84-.93,34.8-1.64l-8.67,1.45c12-1.6,39-1.15,57.82-.3-2.09-.25-5.84-.42-3.59-.7,11-.34,19.36.65,14.25,1.41,10.77-1.2,41,1,55.71-.55L360,709.9c-2.52.18-5.23.33-8,.4C345.88,709,342.57,709.18,353.32,708Z"/><path class="cls-1" d="M263.56,710.16a27,27,0,0,0,2.94.18C265.55,710.25,264.57,710.21,263.56,710.16Z"/><path class="cls-1" d="M211.19,711.63l-3.3.08,3.17,0C211.19,711.7,211.15,711.67,211.19,711.63Z"/><path class="cls-1" d="M364.39,705.73c2.25-.28,3.92-.36,6.17-.64-1.38.1-3.12.17-4.8.26S363.4,705.61,364.39,705.73Z"/><path class="cls-1" d="M372,707.45l-1.21.4,2.51.09C373.55,707.72,373.27,707.54,372,707.45Z"/><path class="cls-1" d="M34.52,704.78l-3.61.22A20,20,0,0,0,34.52,704.78Z"/><path class="cls-1" d="M263.56,710.16c-3.59-.55,12.1-1.85-8.58-1.18,1.67-.08.62-.2,2.27-.28-13.32-.76-18.67.53-30.14.55-6.86-.54,11.22-.87,4.74-1.08-14.33.5-45-.65-44,1.37-10.43.15-11.87-.3-15-.67-16.5,2.16-61.23-.93-61.08,1.84,6-.11,15.84-.06,24.68-.65l0,1.91c13.08-.1,1.56-1.46,20.08-1.47l-5.44-.09c13.29-.62,36.63-.34,52.42-.39-1.78.58,9.57.71,7.72,1.61,10.79-.21,21.48-.41,27-1.34C244.91,710.59,255.06,709.77,263.56,710.16Z"/><path class="cls-1" d="M342.41,705.87l-1.89,0Z"/><path class="cls-1" d="M340.52,705.85h0Z"/><path class="cls-1" d="M351.81,714.21a3.09,3.09,0,0,0-.62.1A5.77,5.77,0,0,0,351.81,714.21Z"/><path class="cls-1" d="M222.57,3.11c-1.24.23-2.78.41-4.32.58C221.12,3.44,223.64,3.24,222.57,3.11Z"/><path class="cls-1" d="M214,4.07c1.48-.11,2.9-.24,4.21-.38Z"/><path class="cls-1" d="M665.36,18.11a30.56,30.56,0,0,0-.24,3.51A11,11,0,0,0,665.36,18.11Z"/><path class="cls-1" d="M172.44,6.51l-.47,0c-.41,0-.92.06-1.18.11Z"/><path class="cls-1" d="M624.74,712.21l-2.42.41C624.34,712.44,625,712.31,624.74,712.21Z"/><path class="cls-1" d="M668.77,675.23a2.26,2.26,0,0,1,.09.34A1.27,1.27,0,0,0,668.77,675.23Z"/><path class="cls-1" d="M668.77,675.23s-.07-.15-.1,0S668.73,675.15,668.77,675.23Z"/><path class="cls-1" d="M664.79,374.69s-.19.95-.36,2.45C664.53,377.72,664.64,377.14,664.79,374.69Z"/><path class="cls-1" d="M663.22,434c0,.38-.07.6-.12,1.08Z"/><path class="cls-1" d="M668.86,675.57c.11.62.23,1.5.37,2.95C669.08,676.92,669,676.07,668.86,675.57Z"/><path class="cls-1" d="M659.44,284.25c0,.63.08,1.23.12,1.83,0-.37,0-.73.05-1.09Z"/><path class="cls-1" d="M660.57,255.43c.07,1.66.15,3.11.27,4.24A23.93,23.93,0,0,0,660.57,255.43Z"/><path class="cls-1" d="M662.36,147.28c0-1.35-.09-2.83-.17-4.68C662.22,143.48,662.29,145.53,662.36,147.28Z"/><path class="cls-1" d="M442.71,704.29,429.27,704l-1.74.12C428,704.47,443,705.15,442.71,704.29Z"/><path class="cls-1" d="M486.3,10c5-.13,10.79,0,17.55.34-2.13-.25-5.26-.62-5.71-.95C493.79,9.34,490.73,9.79,486.3,10Z"/><path class="cls-1" d="M241.7,704.44a1.34,1.34,0,0,0-.52.17Z"/><path class="cls-1" d="M663.36,308.69c0-.32,0-.39-.08-.27S663.33,308.73,663.36,308.69Z"/><path class="cls-1" d="M669.41,595.76l-1.69-23c.17-11.12.27-24-.18-34.19.15,3.42.18,7.92.09,13.46-1.7-15.69.57-28.85-.15-48.74l.58,9.16c.34-15-.19-26.93-.72-38.88l1,.35c-1.41-1.59-1.73-27.45-2.15-33.21,1,36.73-1.12,31.57,0,67.16-1.44-13.37-1.7-23-3-37.49.09-5.51.32-7.69.64-8.12-.54-4.7-1.45-6.08-1.83-14.67l.56-2.59c.6-24.41-2.33-22.07-1.85-45.41,1.3-4.61,1.73,20.15,2.54,34.44,1.2-11,.6,23.29,2.31,10.37l-.81-7c0-6.48.57-6.55.71-3.31-.2-8,0-6.13-.61-9.53-.14-37,1.69,3.93,2.26-32.27.35,4.11.29,14.12,1,12.16l-.31,19.46,1,.37c.09-24.6-1.23-39.07-2.91-50.3,1,22.19-1.07,2.43-1.56,14a47.78,47.78,0,0,1,.06-10.85c-.3-1.63-.49-12.82-1-11.34,2.46-5.29,2.5-53.45,5-42.47.73-13.71-.66-56.16-.8-85.92l.7,8.08c2.14-31.13-1.73-27.47-2.37-45.62.88,16,1.05-14.17,1.77-20.63-.8-14.3-2.16-25.92-2.05-46,1-4.17,2.65-4.72,2.76-17.56l-.9-8.69c.1-12.82-.66-29.89,0-38.1l.08,1.75c.54-14.39-1-14.94-1.19-3.78l-.6-13.66.32-.45c-.23-6.47-.58-12.77-1-19.51-.09-1.69-.18-3.4-.28-5.15-.08-2.32-.18-4.68-.27-7.11-.16-4.85-.32-9.94-.5-15.38l-13.47.32-13.13.19c7.43-1-21.13-1.95,4-2.27-3.61.26-2.61.52-.52.76l1.71.19,2.41.18c1.56.12,2.86.23,3.32.34,5.69.11,11.2-.07,16.25-.32.27,5.42.61,10.06.67,13.16.28-2.28.77-2.72,1.28-1.59a31.13,31.13,0,0,1,1.44,7.75c-.33-5.78-.54-13.44-.67-22.11l-45.14.48c-11.5.2-20.63.62-22.31,1.74-22.27-.16-51.34.51-76.76,0,1,.12,3.11.37,2.51.57L503.79,3.72l5-.24L494.39,2.6c-1.5-.45,4.12-.89,10.09-1,3.17-.14,6,.17,3.77.34,14.19-.86-13.38-.41-3.42-1.39,3.82.17,8.76-.07,11.48,0-17.72-.73-25.95,1-36.87-.52a297.47,297.47,0,0,1-41.75,1.1c6.24-.63-17.44.13-9.39-1.11-6.21.64-20.62-.24-23.06.57a115.75,115.75,0,0,1,14.15,0c-6.65.31-7.46,1-15.55.91-1-.13-.46-.33-.46-.33-10.55.67-3.58,2.59-22.07,2.6-48.63.56,6.88-2.75,0-3.29-1.81.61-23.23,1.09-32.86.51l2.31-.28c-5,.23-12.27.75-17.5.13-3,1-8.8,2-12.26,2.66l-21.83.16,4.52-.56c-5,.23-9.35.27-13.75.3-1.89-.78,4.55-.56,11.2-.87a39.36,39.36,0,0,0-13.09.09l2.72,0c-5.59.44-26.13,1.58-9.87,1.85-12.22.75-16-.8-24.39-.41-.85-.65,6.83-.84,2.62-1.34-8.1-.13-13.49-.23-20.14.09,6.46.21-1.85.61,8.36,1-3.92.36-14.28.5-13.87.82a75.1,75.1,0,0,1,11.42,0c-11,.35-22.41.37-33.67-.14A17.33,17.33,0,0,1,214,4.07c-14.63,1.13-36.6.84-46.4,2.15l4.33.26a89.29,89.29,0,0,1,13.56-.07c-11,.35,7.79,1.2-3.82,1.74-16,.58-30.18-.82-38.9.62,15.19.15,35.68.92,41.86.28L174.87,9l22.37-1.74c.86.65,19.75-.41,19.38.64-7.71.19-14.75.18-20.77.29,1.43.45,20.62.24,28.72.38l-10.21-.39c18.24-.86,41.53-.57,59.21-1.23-13.9.83,17.68.73,6.53,1.6-4.54.56-11.87-.31-9.77-.06-1.39.93,10.81.18,14.39.88,1.87-.61,19.94-.94,9.29-1.65,5.84.42,18.67-.53,26.63.13-2.36-1.1,14.87-.7,17.81-1.19,3.47.06,6.49.28,8.86.53L321.48,8.5h0c-3.78-.17-10.82-.18-8.73.07l-.16.41L273.91,11h-4.73l.92-.12c-.44.05-.89.08-1.33.12H4.29v31.5L3.42,52.77.88,11C.23,45.5,3.79,61.3,2.52,89.43c-.29-4.44-.55-.09-.78,1,.47,8.94.46,19.63,1.09,25.12l0,14.23c-.52-.15-1.77-5.64-1.75-20.18-.08,50.9,2.5,89.88,1.57,141.05-.24,2.17-.3-6.82-.47-3,.27,5.89.55,15.08.83,17.24a21.47,21.47,0,0,1-.47-4.71c.44,25.71-1.07,39.54-.32,56.35-.63.93-.41-13-.65-10.88C1,331.82,3,345.39,3,371.71c-.89-8.69-.91,5.81-1.44,12.92.79,21.58,1,67.51,1.6,100.2-2.23-8.6-.06,36.38-2,39.05,0,7.27.32,18.59,1,19.38-.35-4,.23-13.89.62-12.59C3,541.31,3,557.54,3.91,559L3,572.15c.47.52,1,2.56,1.31,6v8.6c-.54,5.26-.33,5.39,0,5.68v9.49a67,67,0,0,0-1.35-8c-.17,11.17.26,9.64.45,17.54-.56,2.59-1.53-7.81-1.91-16.33L.94,609.47c1.12,13.83,2.7,37.87,2.35,60.15-.67-3.61-.66-10.84-1.58-5,.13,4.79.51,10.37.78,16.34,0,1.5.11,3,.17,4.55s.08,3.38.1,5.09c0,3.42,0,6.87-.16,10.51-.07-1.87-.2-.57-.27-2.44.08,2,.15,3.81.2,5.17,9.25-.3,12.66-.18,16.6,0L22,704l3.31.17c2.49.11,5.67.2,10.15.23a4,4,0,0,1-.95.34l12-.69c25.05-1.7,27.93,1.11,43,1.78l-3.32.16c9.42,1.11,39.69,0,48.29.5-10.66-.72-3.56-.7-11.37-1.89-9.37.26-6.52,1.69-22.18,1.21,2-1.13,21.77-1.54,25.84-2.42,8.76-.07,14.71,1.73,15.57,2.38,21.83-.16,34.12.47,60.9.07,9.56-.8,16.88-3.22,39.24-1.67l-.71.23c2.22-.39,10.77.3,14.84-.21-7.74-1.19,9.55-.79.11-1.9,13.09-.1,15.28,1.53,16.58,2.5,9.25-1.64,25.85.86,45.8-.08-3.56.69-25.35.85-16.36,1.64l25.65-1.9-11.41,0c19.46-1.27,24.94.2,36.21.71,2.22.49-5.15.67-10.71.65,6,.07,15.55-.14,23.35-.52,5.9-.52,26.35-1.17,34.56-2.06l3.31.1a6.33,6.33,0,0,1-1.51.22c1.66,0,3-.08,4.25-.14l10.32.26-2.08.23,4-.18,10.67.24,5.48-.39-2.69,0c.5-.62,3.94-1.18,9.16-1.55H479c15.72.72,36.81-.82,43.74.74-24.44,1.51-36.14.67-61.91,1.19-13.18-1.28,16.58-.78,17.4-1.51l-14.59-.35c2,.77-28.42.47-20.88,2.19,32,.59,63.83.83,91.46.81l-26.6,8.78c0,.12-.49.3-1.79.59l1.79-.59c0-.37-5.65,0-11.95.21,1.31-.39,2.7-.87-4.74-.82-15-.68-23.2,1.1-34.05.92l3.34-.16a282.33,282.33,0,0,0-31.14.43c-8.24-1.52,29.5-.35,13.62-1.68,11.27.5,27.4-.6,36.12-.66-14.58-.36-27.15-1.84-23-2.73-31.34,1,0,3.29-27.42,3.89L409.38,713l-6.57,1.69c-11.39,0,7-1.36-10.44-1.23-4.75.79-16,.06-19.47.58.48-.38.72-.8-8.25-.84-.6.21.21.85-6.83.84-4.85-1.67,18.09-.33,9.87-1.85-20.07,0-12.86,1.43-15.88,2.06.69,0,1.78,0,3.76.07-.19.53-8.73.07-7.83.72,3.42,0,6.8-.1,9.77-.26-6.05.53,9.95,1.11,16,1.12,13.95-.83,42.61-.45,61.77-.66-1.68.08-5,.24-2.91.48,27.25-.07,38.52.44,69.68,0l3.66-1.21c27.25-.07,13.12-3.39,19.75-3.71,6-.1,11.18-.87,16.39-.24L539,711c17.05-.46,5.32-1.29,20.51-1.14,12.25-.75-10.79-.18-3-.9,16.24.27,10-2.38,35.26-1.32-1.21.4,2.82,1.43-12,1.6l14.43.88c-17.05.46-6.64.32-24.09.45-8,1.24-6.14,2-13.55,3.06,6.58-.31,5.27-1.29,15.09-1.24,11.87.31-1.86.61-3,1,15.73-1.44,17.53,1.25,31.56-.11-2.75-1.43,0-1.38-10.11-2.29,10-.47,22.68.49,21.73,1.74l2.05-1.13c2.34.28,10.27.29,10.78.58l3.37-.55c-7.33-.87-13.21-1.29-25.85-.86,5.13-.76-7-1.92,9.42-2.18,7.08,0,.86.65,1.31,1,12.81-.3,21.18-.17,27.88.11l12.75.49c4.38.18,8.74.35,13.58.48.11-4,.19-8.43.22-13.63,0-4.94,0-12.21-.09-15.77.07,1.07.12,2.36.15,3.83,0,2.2,0,4.66,0,7.32,0,5.53,0,11.9,0,18.58-4.76,0-9.67,0-14.53.08l-7.27.13-1.79,0-1.54.05-2.24.12c.74.08,1.49.15,2.24.21l.64,0,.91,0,1.84,0c2.46.05,5,.05,7.46,0,5-.06,9.94-.24,14.66-.38-.11-4.35-.2-8.48-.16-12.32.5,11.89.9,14.74,1.35.61l-.67-6.15c0-3.46,0-8.29,0-12.38a42.15,42.15,0,0,1,.24-6c-.25-.24-.43,2.07-.63,6.84-.93-13.19-1.36-38-.88-61.34,1.42,1.66.81,33.33,1.9,16.36-.25-9.57-1.78-17.38-1-33.95C668.87,610.14,668.9,595.55,669.41,595.76Zm-188,118.31,10,.17A80.56,80.56,0,0,1,481.39,714.07ZM661.14,130.49c.35,4,2,3.48,1.55,19.56-.15.2-.26-1.17-.33-2.77.2,7.32-.19,8.53-.4,16.47-1.07,2.43-.78-9.77-1.52-15,.23,5.11.65,10.85.57,16.46l-.4-1.31.25,16.93c.82,7,.1-12.85.73-13.77l.66,10.85c.21,12.4.51,45.51-1,56.74-.54,14.39.7,8.08,1.36,11.69.89,8.69-.26,16.73.11,25.23.83-.28.77,9.8,1.8,10.16l-.22,13.91c1.53,7.81.27-16.69.94-20.38,1.36-7.41.46,10.26,1.26,5.47-.14-10.68-.85-11.47-1.08-16.66-.1-6.13.25-9.39.77-9.19-.59,17.12,1.09,9.31.87,23.25l-.32.46c1,.36.4,20.26.9,27.71-1.17,15.24-1.56-12.33-1.88-11.85l.33,18.6c-.7-8.1-1.34.09-2-10.79.34,11.34-.61,12.69,0,23.54C662.56,313.45,663,341,662,342.37c-.37-11.86.93-32.76,1.28-33.95-.21-2.11,0-15.45.31-20.92l-1.4-8.86c-.06,10,.55,23.69-.63,19.9l.61,13.68a249.09,249.09,0,0,1-2.61-26.14c-1.52,26.27,1.65,46.78.29,68.38l-.16-3.37c.2,21.58-.2,34.86-.91,43.9V281.36l.66,2.89c0-.58-.06-1-.1-1.59-.51-26.47,1.58-2.25.88-29.36.12,1,.24,1.54.35,2.13-.44-11.05,0-31.34-1.08-33.75,0,2.6-.3,12.72-.71,17.59V204.61c.19-2.36.35-4.63.41-7.3h0v0c.06-2.6,0-5.52-.2-9.36-.08-.92-.15-1.57-.21-2V144.76C659.85,146.18,659.76,114.47,661.14,130.49Zm-2.36,132.24c.14,2.56.28,6.08.42,9.23-.12,2.77-.27,3.37-.42,3.31Zm0,208.43a16.6,16.6,0,0,1,0,2.48Zm1.29-383.6c0,16.26-.28,4.94-.78,16.52-.18.64-.35.28-.51-.64V67.28C659,77.66,659,88.38,660.07,87.56Zm-.35-49.39c-.08,5.6.28,21.35-.67,22.69,0-7.68-.06-9.86-.27-8.94V28.08a11.93,11.93,0,0,0,.36-2.24C659.35,29.42,659.49,34.9,659.72,38.17Zm-173-32.1c13.53.24-.75.73,6.13,1.27,10.3-1.52,13.2,1.29,24.09-.44,13.09-.1,9,.79,13.18,1.28-13.06.1,6.13,1.28-10.29,1.53,13.36.76,9.71-1.32,21-.82l1.74,1.31c10.24.38,32.33,1.07,46.21.25-11.72-.84,6.8-.84,4.89-1.62-2,1.14-18.09.33-17.9-.19,8.62-.25,29.38-.47,36.23-.28L595.58,7.7c6.2-.64,28.38-1.86,29-2.06,3.46.27,7.78.37,11.69.49,2,.06,3.8.12,5.38.21l2.43.17c.81.06,1.51.14,2.06.23L642.24,7,639,7.21l-6.42.47L628,6.86l-7.4,1c4.18.19,10.65.46,16.56.8,3,.17,5.66.35,8.34.55a42.07,42.07,0,0,1,5.32.65h-8.33l-8.74.09c-6.13.09-12.84.23-20.07.46-5,.15-10.19.34-15.63.57H472.16l1.55-.19c3.45-.44,7.48-.75,12.23-.88a96.65,96.65,0,0,1-10.28-.25l23.62-2.15c-11.87-.31-13.67,1.68-28.19,1.33C472.05,7.63,471.16,7,486.69,6.07Zm53.68,697c-3.24-.25-4.15-.61-5-1l7.74.11Zm96.37.58c-1,1.26-16.78,1.31-21.5,2.4-3.92.36-22.44.37-18.32-.52,12.94.43,11.69-2.46,23.66-.77,1.89-.77-1.22-1.09-5.88-1.24a7.69,7.69,0,0,0,2.67-.52l13.32.1C634.42,703.19,637.75,703.31,636.74,703.63Zm23.51-.09c-2.39,0-4.44-.09-6.22-.16l4-.18h1.89c0-3.77,0-7.2,0-10.33s0-5.88-.06-8.38c-.05-4.7-.13-8.32-.23-11-.19-5.3-.48-6.74-.83-5.35v-11c.62,6.64,1.18,12.85,1.48,16.38,0,2.53,0,5.08.07,7.62s0,5.25,0,7.79C660.36,694.33,660.32,699.37,660.25,703.54Zm.18-75.09c-.27-.89-.44-.12-.56,1.45-.06-4.1-.12-8.25-.19-12.4C660.17,619.33,660.7,616.65,660.43,628.45Zm1.32-49.93.84-7.54c.32,18.58.5,26.47.07,47-1.07,2.45.26-9.4-.29-14.07l-1.08,9.68c0-4.46-.93-13.19.1-12.84-.51-.17-1.33-7.17-.92,5.85l-.77-9.78a14.84,14.84,0,0,0-.3,2.14c0-2.88-.1-5.85-.14-8.8.34-3.69.31-10.37,1.11-16.08.32-.42.43,5.71.58,9.22.45-8.85.26-16.75,0-21.85-.22,13.91-.72,6.48-1.59,9.52-.38-8.53-.16-22.44-.39-27.57.37-11.8,1.36-21.49,2.14-13.64-.42-7.54,0-15.46-.93-23.45,1,14.89-2.17.35-.82,19.31-.27,1.06-.47,1.15-.61.55V506.12c.09-2.35.19-4.55.3-6.35.23,5.12.71.81,1.1,2.05-.34-10.18-.94-10-1.4-5.44V473.76l.75-9.11.3,14.12c.91-5.85.14-15.64.16-22.92.64-8.16.83,18.77,2.24,27.68.61,7.08,0,21.53-.49,22.92,1.29,2.46.67,26.28,1.41,35.63C663.19,565.6,661.15,557.56,661.75,578.52Z"/><path class="cls-1" d="M661.55,506.23c.06.36.12.41.19.22S661.62,506.25,661.55,506.23Z"/><path class="cls-1" d="M2.52,260.23c0-.4,0-.8,0-1.2C2.5,259.46,2.51,259.86,2.52,260.23Z"/><path class="cls-1" d="M611.92,8.36l1.38.06Z"/><path class="cls-1" d="M665.43,434.07c0,.42,0,.87,0,1.35C665.47,434.92,665.45,434.47,665.43,434.07Z"/><path class="cls-1" d="M508.25,1.94l-.6,0Z"/><path class="cls-1" d="M152.74,6.92a150.64,150.64,0,0,1-19.93.94c-3.66-2.08,16-.58,20.41-2.52-17.89-.19-23.38,1.62-38.1,1.8C122.41,8,152.2,8.5,152.74,6.92Z"/><polygon class="cls-1" points="161.67 4.42 160.69 4.3 150.73 4.77 151.72 4.89 161.67 4.42"/><polygon class="cls-1" points="534.72 2.43 529.75 2.66 528.54 3.07 534.72 2.43"/><polygon class="cls-1" points="527.3 0.18 522.75 0.74 536.48 0.44 527.3 0.18"/><path class="cls-1" d="M617.56,7l-8.22.39C611,7.32,622.21,7.83,617.56,7Z"/><path class="cls-1" d="M666.2,33.82c.57-.66.1,16.6.83,5.8C666.91,30.8,666.56,32.21,666.2,33.82Z"/><path class="cls-1" d="M666,34.77c.08-.26.15-.61.23-1A3,3,0,0,0,666,34.77Z"/><path class="cls-1" d="M659.77,158.81c0,1.39,0,2.85.13,4.26C659.85,161.39,659.8,160,659.77,158.81Z"/><path class="cls-1" d="M659.85,146.79a82.39,82.39,0,0,0-.08,12C659.77,154.34,660.12,149.86,659.85,146.79Z"/><path class="cls-1" d="M660,210.1,660,206c.46,4.15.39,2.19,0-1.52,0-4.3-.32-4.06-.52-4.57l-.36-2.64c.13,1.32.24,2.51.33,3.52C659.52,207.5,659.56,211.56,660,210.1Z"/><polygon class="cls-1" points="668.83 159.47 668.68 156.05 667.74 150.15 668.83 159.47"/><path class="cls-1" d="M668.49,355.88c-.85-11.54-2,18.3-2.76-1.57-.89,25.63,1.2-2,1.06,16.94C667.08,360.18,668.15,354.75,668.49,355.88Z"/><path class="cls-1" d="M666.79,371.25c0,1.61-.07,3.35-.07,5.25C666.75,374.4,666.77,372.71,666.79,371.25Z"/><path class="cls-1" d="M661.14,529.77c.07,1.32.16,2.58.29,3.88C661.34,532,661.24,530.83,661.14,529.77Z"/><path class="cls-1" d="M667.49,431.65l-1.27-17.3c.84,11.55.79,40.62,2.06,38.8a227.19,227.19,0,0,0-.63-25.38Z"/><path class="cls-1" d="M660.81,500.94c.09-5.59.06-10.06-.17-15.15C660.4,487.9,660.18,501.82,660.81,500.94Z"/><path class="cls-1" d="M669.14,665.06c.13-8.36-1-14.89-1.25-12.7l.05,16.21c1-4.12,0-4.5.22-13.9Z"/><polygon class="cls-1" points="279.69 708.34 290.7 707.99 286.32 708.02 279.69 708.34"/><path class="cls-1" d="M222.2,706.2c5.23.62,15.15.15,18.47,0C229.24,706.21,234.19,706,222.2,706.2Z"/><polygon class="cls-1" points="236.33 712.8 225.31 713.15 226.34 713.27 236.33 712.8"/><polygon class="cls-1" points="157.19 711.68 156.15 711.56 146.19 712.02 147.24 712.15 157.19 711.68"/><path class="cls-1" d="M92.67,711.26a51.12,51.12,0,0,0,6-.46C96.23,711,94.36,711.1,92.67,711.26Z"/><path class="cls-1" d="M72.24,713.44c11.41-.69,12.68-1.47,20.43-2.18-13.8.48-42.76-.65-60.27.76-9.65,1.32-3.8,3.12-3.84,5,1.46.45,26.47.66,27.41-.6-11.71-.84,16.16-1.1-5.53-1.47-1.91-.77,8.26-1.77,18.47-1.39-.81.73-9.95.47-3.67,1.21C72,714,74.6,714.53,72.24,713.44Z"/><path class="cls-1" d="M74.41,718.35c5.42.09,7.07,0,10.4-.14C83.91,717.56,78.79,718.32,74.41,718.35Z"/><path class="cls-1" d="M1.33,637l.33,15.29a23.94,23.94,0,0,1,.71-6.3C2.11,645,1.78,634.88,1.33,637Z"/><path class="cls-1" d="M1.8,659l-.14-6.71C1.64,654,1.68,656.08,1.8,659Z"/><path class="cls-1" d="M2.54,645.3c-.06.24-.1.46-.17.73S2.49,646.2,2.54,645.3Z"/><path class="cls-1" d="M.85,70.92A4.91,4.91,0,0,1,.59,69.7,4,4,0,0,0,.85,70.92Z"/><path class="cls-1" d="M.19,48.33l.19.58L0,40.41c.06,8,0,24.68.59,29.29C.17,65.59.83,52.89.19,48.33Z"/></g></g></svg>