<svg xmlns="http://www.w3.org/2000/svg" viewBox="0 0 511.74 428.15"><defs><style>.cls-1{fill:#008fbd;}.cls-2{fill:#8590b0;}.cls-3{fill:#fff;}.cls-4{fill:#142b54;}</style></defs><g id="Capa_2" data-name="Capa 2"><g id="Capa_1-2" data-name="Capa 1"><path class="cls-1" d="M183.46,419.49q-5-1-9.9-2.07a3.48,3.48,0,0,1-2.52-4.21,3.39,3.39,0,0,1,4-2.75c3.24.72,6.49,1.4,9.73,2a3.57,3.57,0,0,1-1.31,7Zm13.81-1.16a3.48,3.48,0,0,1,3.87-3c1.73.26,3.46.51,5.2.75,1.55.22,3.1.42,4.66.62a3.42,3.42,0,0,1,2.86,3.95,3.49,3.49,0,0,1-3.8,3.11l-4.74-.63q-2.62-.36-5.26-.76H200A3.47,3.47,0,0,1,197.27,418.33Zm-40.08-5q-4.89-1.33-9.73-2.83a3.52,3.52,0,0,1-2.22-4.4,3.4,3.4,0,0,1,4.22-2.43q4.75,1.45,9.55,2.78a3.5,3.5,0,0,1,2.33,4.33,3.44,3.44,0,0,1-3.87,2.62Zm66.6,8.39a3.52,3.52,0,0,1,3.72-3.22c3.31.32,6.62.6,9.93.86a3.41,3.41,0,0,1,3,3.8,3.51,3.51,0,0,1-3.66,3.29c-3.36-.26-6.7-.55-10-.86l-.27,0A3.46,3.46,0,0,1,223.79,421.73Zm26.67,2.06A3.52,3.52,0,0,1,254,420.4c3.33.15,6.65.28,10,.37a3.39,3.39,0,0,1,3.2,3.66,3.52,3.52,0,0,1-3.52,3.45q-5-.13-10.08-.38a2.68,2.68,0,0,1-.42-.05A3.41,3.41,0,0,1,250.46,423.79Zm-119-18.66q-4.78-1.75-9.49-3.67a3.56,3.56,0,0,1-1.85-4.59,3.35,3.35,0,0,1,4.39-2.05q4.59,1.88,9.27,3.59a3.53,3.53,0,0,1,2,4.51,3.43,3.43,0,0,1-3.79,2.35A3.18,3.18,0,0,1,131.43,405.13Zm145.78,19.46a3.55,3.55,0,0,1,3.44-3.56q5,0,10,0a3.36,3.36,0,0,1,3.34,3.51,3.55,3.55,0,0,1-3.39,3.6c-3.36,0-6.73.07-10.09.06a3.31,3.31,0,0,1-3.29-3.56Zm-170.79-30q-4.61-2.22-9.11-4.62a3.6,3.6,0,0,1-1.41-4.77,3.33,3.33,0,0,1,4.54-1.59c2.92,1.55,5.88,3.06,8.88,4.5a3.59,3.59,0,0,1,1.59,4.71,3.41,3.41,0,0,1-3.67,2A3.15,3.15,0,0,1,106.42,394.58ZM304,424.21a3.57,3.57,0,0,1,3.31-3.69q5-.19,10-.47a3.37,3.37,0,0,1,3.47,3.36,3.57,3.57,0,0,1-3.25,3.74c-3.37.18-6.73.34-10.1.48a3.16,3.16,0,0,1-.69-.05A3.42,3.42,0,0,1,304,424.21ZM82.55,381.39c-2.91-1.84-5.79-3.76-8.55-5.7a3.65,3.65,0,0,1-.88-4.93,3.29,3.29,0,0,1,4.68-1c2.68,1.88,5.47,3.74,8.3,5.53a3.64,3.64,0,0,1,1.09,4.87,3.38,3.38,0,0,1-3.5,1.69A3.33,3.33,0,0,1,82.55,381.39Zm248.23,41.35a3.58,3.58,0,0,1,3.18-3.81c3.33-.26,6.66-.55,10-.85a3.36,3.36,0,0,1,3.58,3.23,3.58,3.58,0,0,1-3.13,3.85q-5,.46-10.08.86a3.1,3.1,0,0,1-.81,0A3.4,3.4,0,0,1,330.78,422.74Zm26.74-2.46a3.58,3.58,0,0,1,3.05-3.92q5-.58,10-1.21a3.32,3.32,0,0,1,3.68,3.11,3.58,3.58,0,0,1-3,3.95c-3.35.43-6.7.83-10,1.22a3.26,3.26,0,0,1-.94,0A3.39,3.39,0,0,1,357.52,420.28ZM60.35,365.19c-2.67-2.26-5.28-4.58-7.74-6.91a3.69,3.69,0,0,1-.2-5,3.24,3.24,0,0,1,4.75-.32c2.37,2.24,4.88,4.48,7.46,6.66a3.68,3.68,0,0,1,.47,5,3.34,3.34,0,0,1-3.24,1.3A3.15,3.15,0,0,1,60.35,365.19ZM384.18,416.9a3.62,3.62,0,0,1,2.94-4c3.32-.49,6.63-1,9.95-1.52a3.32,3.32,0,0,1,3.76,3,3.62,3.62,0,0,1-2.9,4c-3.34.52-6.67,1-10,1.53a3.23,3.23,0,0,1-1,0A3.39,3.39,0,0,1,384.18,416.9Zm26.58-4.2a3.62,3.62,0,0,1,2.84-4.1c3.3-.59,6.6-1.18,9.9-1.8a3.31,3.31,0,0,1,3.85,2.88,3.62,3.62,0,0,1-2.81,4.12q-5,.93-10,1.81a3,3,0,0,1-1.12,0A3.37,3.37,0,0,1,410.76,412.7Zm-370.15-67c-2.28-2.65-4.49-5.41-6.58-8.18a3.72,3.72,0,0,1,.58-5,3.22,3.22,0,0,1,4.73.51c2,2.66,4.11,5.29,6.29,7.83a3.71,3.71,0,0,1-.27,5,3.29,3.29,0,0,1-2.87.9A3.23,3.23,0,0,1,40.61,345.71Zm396.62,62a3.63,3.63,0,0,1,2.75-4.17q4.93-1,9.87-2.05a3.31,3.31,0,0,1,3.91,2.79,3.64,3.64,0,0,1-2.72,4.19q-4.95,1-9.92,2.05a3,3,0,0,1-1.2,0A3.37,3.37,0,0,1,437.23,407.75ZM24.28,322.9q-2.62-4.48-5-9.25l2.94-1.8,3.08-1.51c1.46,2.94,3.05,5.88,4.72,8.73A3.71,3.71,0,0,1,28.91,324a3.24,3.24,0,0,1-2.39.51A3.29,3.29,0,0,1,24.28,322.9ZM12.16,297.28c-1.26-3.31-2.43-6.71-3.49-10.11a3.68,3.68,0,0,1,2.15-4.53,3.26,3.26,0,0,1,4.25,2.18c1,3.26,2.14,6.53,3.35,9.71a3.7,3.7,0,0,1-1.89,4.65,3.23,3.23,0,0,1-1.87.23A3.3,3.3,0,0,1,12.16,297.28Zm-8-27.41c-.73-3.48-1.38-7.05-1.92-10.59a3.63,3.63,0,0,1,2.8-4.13A3.32,3.32,0,0,1,8.9,258c.52,3.4,1.14,6.83,1.84,10.18a3.64,3.64,0,0,1-2.56,4.29,3.14,3.14,0,0,1-1.36.05A3.35,3.35,0,0,1,4.17,269.87ZM.37,241.41c-.22-3.57-.34-7.2-.37-10.8A3.55,3.55,0,0,1,3.34,227a3.34,3.34,0,0,1,3.39,3.45c0,3.47.15,7,.35,10.4a3.58,3.58,0,0,1-3.14,3.84,3,3,0,0,1-.85,0A3.41,3.41,0,0,1,.37,241.41Zm.25-28.79c.27-3.56.63-7.18,1.08-10.76a3.49,3.49,0,0,1,3.78-3.13,3.46,3.46,0,0,1,2.9,3.93c-.44,3.45-.79,7-1.05,10.39a3.51,3.51,0,0,1-3.63,3.33,2.2,2.2,0,0,1-.36,0A3.44,3.44,0,0,1,.62,212.62Zm6.59-24.35a3.49,3.49,0,0,1-2.57-4.18c.72-3.5,1.53-7,2.41-10.53a3.43,3.43,0,0,1,4.13-2.6,3.5,3.5,0,0,1,2.37,4.31c-.85,3.37-1.64,6.81-2.33,10.19a3.45,3.45,0,0,1-3.92,2.82Zm6.94-27.47a3.55,3.55,0,0,1-2.05-4.5c1.13-3.37,2.34-6.79,3.62-10.15a3.37,3.37,0,0,1,4.39-2.05A3.56,3.56,0,0,1,22,148.69c-1.24,3.26-2.42,6.57-3.51,9.85a3.43,3.43,0,0,1-3.8,2.39A4.6,4.6,0,0,1,14.15,160.8Zm10.07-26.44a3.58,3.58,0,0,1-1.52-4.73Q25,124.76,27.42,120A3.32,3.32,0,0,1,32,118.49a3.6,3.6,0,0,1,1.32,4.8q-2.39,4.62-4.58,9.37a3.41,3.41,0,0,1-3.65,2A3.12,3.12,0,0,1,24.22,134.36ZM37.14,109.3a3.63,3.63,0,0,1-1-4.89q2.79-4.57,5.74-9a3.29,3.29,0,0,1,4.7-.93,3.67,3.67,0,0,1,.78,5q-2.88,4.32-5.57,8.76a3.36,3.36,0,0,1-3.46,1.63A3,3,0,0,1,37.14,109.3ZM52.7,85.94a3.68,3.68,0,0,1-.44-5c2.17-2.8,4.43-5.58,6.74-8.26a3.24,3.24,0,0,1,4.76-.3,3.7,3.7,0,0,1,.19,5c-2.23,2.59-4.42,5.28-6.51,8a3.33,3.33,0,0,1-3.22,1.29A3.24,3.24,0,0,1,52.7,85.94ZM70.88,64.78a3.69,3.69,0,0,1,.24-5c2.53-2.48,5.14-4.91,7.77-7.21a3.22,3.22,0,0,1,4.73.41,3.72,3.72,0,0,1-.49,5c-2.53,2.23-5,4.57-7.5,7a3.22,3.22,0,0,1-4.75-.15Zm20.78-18.3a3.72,3.72,0,0,1,.9-5c2.8-2.06,5.7-4.08,8.61-6a3.22,3.22,0,0,1,4.62,1.1,3.7,3.7,0,0,1-1.14,4.91c-2.81,1.85-5.61,3.81-8.31,5.8a3.21,3.21,0,0,1-2.52.6A3.25,3.25,0,0,1,91.66,46.48Zm22.92-15.13a3.7,3.7,0,0,1,1.52-4.79c3.05-1.66,6.17-3.26,9.26-4.75a3.25,3.25,0,0,1,4.43,1.76A3.69,3.69,0,0,1,128,28.28c-3,1.44-6,3-9,4.58a3.2,3.2,0,0,1-4.5-1.51Zm24.54-11.82A3.69,3.69,0,0,1,141.21,15c3.2-1.22,6.47-2.39,9.72-3.47a3.28,3.28,0,0,1,4.18,2.33,3.67,3.67,0,0,1-2.29,4.46c-3.16,1-6.33,2.17-9.42,3.36a3.21,3.21,0,0,1-1.72.17A3.34,3.34,0,0,1,139.12,19.53ZM164.82,11a3.65,3.65,0,0,1,2.59-4.28c3.31-.81,6.65-1.56,10-2.22a3.31,3.31,0,0,1,3.88,2.83,3.62,3.62,0,0,1-2.76,4.15q-4.89,1-9.72,2.17a3.16,3.16,0,0,1-1.33,0A3.34,3.34,0,0,1,164.82,11Zm26.39-5.27a3.6,3.6,0,0,1,3-3.94q5.06-.63,10.14-1a3.34,3.34,0,0,1,3.55,3.27,3.57,3.57,0,0,1-3.17,3.82c-3.3.27-6.6.6-9.88,1a3,3,0,0,1-.95,0A3.38,3.38,0,0,1,191.21,5.77ZM333.73,31.28q-4.64-1.84-9.32-3.62a3.56,3.56,0,0,1-2-4.54A3.41,3.41,0,0,1,326.79,21c3.16,1.2,6.3,2.41,9.43,3.66a3.55,3.55,0,0,1,1.88,4.57,3.4,3.4,0,0,1-3.76,2.26A2.78,2.78,0,0,1,333.73,31.28ZM217.94,3.61a3.57,3.57,0,0,1,3.4-3.6q5.07,0,10.17.1a3.42,3.42,0,0,1,3.19,3.66,3.53,3.53,0,0,1-3.53,3.45q-4.95-.15-9.9-.09a4,4,0,0,1-.6,0A3.43,3.43,0,0,1,217.94,3.61ZM308.76,22l-3.55-1.22q-2.94-1-5.89-1.93a3.52,3.52,0,0,1-2.19-4.42,3.41,3.41,0,0,1,4.22-2.4q3,.95,6,2L311,15.21A3.54,3.54,0,0,1,313,19.69a3.43,3.43,0,0,1-3.81,2.41ZM244.68,4.41A3.5,3.5,0,0,1,248.4,1.2c3.36.32,6.72.72,10.07,1.18a3.41,3.41,0,0,1,2.83,4,3.48,3.48,0,0,1-3.83,3.07c-3.27-.44-6.55-.83-9.82-1.15l-.26,0A3.44,3.44,0,0,1,244.68,4.41Zm38.73,10c-3.21-.79-6.44-1.51-9.66-2.17a3.48,3.48,0,0,1-2.59-4.17,3.48,3.48,0,0,1,4-2.82q5,1,9.91,2.23a3.5,3.5,0,0,1,2.44,4.27,3.46,3.46,0,0,1-3.9,2.7Z"/><path class="cls-2" d="M349.15,42.86q3.06,20.91,6.1,41.81a362.52,362.52,0,0,1,155.86,4.5A558.78,558.78,0,0,0,378.58,41.38Z"/><path class="cls-3" d="M301.79,79.84c70.2-7.87,143-13,210,9.53-38.4-28.14-77.13-56.47-120.36-76.43Z"/><path class="cls-4" d="M349.34,44.33l14.6-10.9c43.46,11.87,88.89,21.33,128,48C445.76,58.75,398.38,49.55,349.34,44.33Z"/></g></g></svg>