<svg xmlns="http://www.w3.org/2000/svg" viewBox="0 0 1167.41 496.41"><defs><style>.cls-1{fill:#fff;}</style></defs><title>Recurso 10</title><g id="Capa_2" data-name="Capa 2"><g id="Capa_1-2" data-name="Capa 1"><path class="cls-1" d="M696.52,488.44a82.29,82.29,0,0,0-10.81.44l84.6,0c-2.65-.31-27-.69-10.74-.88-6.45-.3-24.61-.11-30.84.23l4.39-.33c-19.49.6-32.8-.59-20.1-.94h-1.64l-54,2.33C677.22,489.41,672.66,488.47,696.52,488.44Z"/><path class="cls-1" d="M3,62.49A39.36,39.36,0,0,0,2.21,58C2.47,62.45,2.74,63,3,62.49Z"/><path class="cls-1" d="M644.78,489.82l-16.91.73C634.64,490.35,640.59,490.09,644.78,489.82Z"/><path class="cls-1" d="M261,492.55l-5.55.06C257.42,492.6,259.25,492.58,261,492.55Z"/><path class="cls-1" d="M644.78,489.82l12.62-.55-6.41-.08A44.32,44.32,0,0,1,644.78,489.82Z"/><path class="cls-1" d="M711.38,486.94l11.68-.5c-12.13.19-26.31.32-43.36.64Z"/><path class="cls-1" d="M163.07,496.2c1,.09,2.63.16,3.69.21C165.83,496.33,164.56,496.26,163.07,496.2Z"/><path class="cls-1" d="M616.17,489.22c-18.41.47-11.37,1.17-39,1.21,10.85-.44,13.59-1.45-12.9-1.55-66.22.87-110.11,3.37-172,4.64-2.28-.67-50.84-.49-74.44-.64,9-.73,26.53-.94,44.7-1.08l-45.61-.1L311,493.12c-65.63.15,16.12-1.13-14-1.41-18.23.14-24.65.67-36,.84,52.05-.46-7.06,1.78,45.44,1.5-7.47,1-37.86,1.06-55.67.8-20.17-.94,17.61-.69,22.18-1.61-21.07.15-17.35.32-26.3.84-33.07-.21-68.43,1.16-88.18-.14-23.95.2-22.37.65-36.14,1.15-2.45.9,28,.61,40.79,1.11-.74-.06-1.13-.12-.69-.18l20.7.21c-19.65-.35,2.73-1,13.23-1.09,7.64,0,22.82-.06,20.73.22l-11.56.21c14.89.32,32.85-.73,48.57-.19.82.23-5.13.34-6,.48,17.62-.69,34.61-.65,60.69-1.14l-15.12,1c20.86-1.11,68.09-.79,100.83-.21-3.63-.17-10.18-.29-6.25-.48,19.23-.24,33.75.45,24.85,1,18.78-.83,71.56.7,97.16-.37l117.69-5.08c-4.4.12-9.12.23-14,.27C603.19,489.94,597.42,490.05,616.17,489.22Z"/><path class="cls-1" d="M459.63,490.72c.94.06,2.47.1,5.13.13C463.1,490.79,461.39,490.76,459.63,490.72Z"/><path class="cls-1" d="M368.3,491.74l-5.76.06,5.54,0C368.3,491.79,368.23,491.77,368.3,491.74Z"/><path class="cls-1" d="M635.48,487.67c3.92-.2,6.83-.25,10.76-.45-2.42.07-5.46.12-8.38.18S633.75,487.58,635.48,487.67Z"/><path class="cls-1" d="M648.72,488.85l-2.1.28,4.37.06C651.45,489,651,488.92,648.72,488.85Z"/><path class="cls-1" d="M60.2,487l-6.29.15C57.7,487.15,59.33,487.09,60.2,487Z"/><path class="cls-1" d="M459.63,490.72c-6.25-.37,21.11-1.27-15-.81,2.92-.05,1.09-.14,4-.19-23.24-.53-32.55.37-52.57.38-12-.37,19.57-.6,8.28-.75-25,.34-78.43-.45-76.77.95-18.19.1-20.7-.21-26.13-.47-28.77,1.5-106.77-.64-106.51,1.27,10.5-.07,27.62,0,43-.44l-.08,1.31c22.82-.06,2.73-1,35-1l-9.48-.06c23.17-.43,63.88-.23,91.41-.27-3.1.4,16.7.49,13.47,1.11,18.82-.14,37.46-.28,47.15-.93C427.1,491,444.81,490.46,459.63,490.72Z"/><path class="cls-1" d="M597.15,487.76h0Z"/><path class="cls-1" d="M593.84,487.75h0Z"/><path class="cls-1" d="M613.53,493.53a9.55,9.55,0,0,0-1.07.07Z"/><path class="cls-1" d="M388.14,2.15c-2.15.16-4.84.28-7.53.4C385.62,2.38,390,2.24,388.14,2.15Z"/><path class="cls-1" d="M373.27,2.81c2.58-.07,5.06-.16,7.34-.26Z"/><path class="cls-1" d="M1160.34,12.51a9.26,9.26,0,0,0-.41,2.43C1160.32,14.59,1160.41,13.71,1160.34,12.51Z"/><path class="cls-1" d="M300.73,4.5l-.82,0c-.72,0-1.61,0-2.07.07Z"/><path class="cls-1" d="M1089.51,492.14l-4.22.29C1088.81,492.3,1089.89,492.21,1089.51,492.14Z"/><path class="cls-1" d="M1166.29,466.59a1.27,1.27,0,0,1,.16.23C1166.39,466.67,1166.34,466.67,1166.29,466.59Z"/><path class="cls-1" d="M1166.29,466.59c-.06,0-.12-.1-.17,0S1166.23,466.53,1166.29,466.59Z"/><path class="cls-1" d="M1159.34,258.92a11.39,11.39,0,0,0-.62,1.68C1158.89,261,1159.09,260.6,1159.34,258.92Z"/><path class="cls-1" d="M1156.61,299.9l-.2.75Z"/><path class="cls-1" d="M1166.45,466.82a11.94,11.94,0,0,1,.64,2A10.28,10.28,0,0,0,1166.45,466.82Z"/><path class="cls-1" d="M1150,196.42c.07.44.14.85.2,1.26,0-.25.07-.5.1-.75Z"/><path class="cls-1" d="M1152,176.5a20.29,20.29,0,0,0,.46,2.94A7,7,0,0,0,1152,176.5Z"/><path class="cls-1" d="M1155.11,101.77c-.06-.93-.15-2-.3-3.23C1154.87,99.15,1155,100.56,1155.11,101.77Z"/><path class="cls-1" d="M772.05,486.67l-23.44-.19-3,.09C746.36,486.79,772.52,487.26,772.05,486.67Z"/><path class="cls-1" d="M848.07,6.87c8.73-.08,18.82,0,30.62.24-3.72-.17-9.18-.43-10-.65C861.14,6.45,855.8,6.76,848.07,6.87Z"/><path class="cls-1" d="M421.5,486.77a4.23,4.23,0,0,0-.89.12Z"/><path class="cls-1" d="M1156.86,213.31c0-.22-.07-.28-.13-.19S1156.81,213.34,1156.86,213.31Z"/><path class="cls-1" d="M1167.41,411.67l-3-15.9c.3-7.68.48-16.56-.32-23.63a62.42,62.42,0,0,1,.17,9.3c-3-10.84,1-19.94-.26-33.67l1,6.32c.59-10.36-.33-18.61-1.26-26.86l1.79.24c-2.47-1.1-3-19-3.75-23,1.67,25.38-2,21.82-.07,46.41-2.51-9.24-3-15.89-5.26-25.91.16-3.81.58-5.31,1.13-5.61-1-3.24-2.53-4.2-3.19-10.13l1-1.8c1-16.86-4.06-15.24-3.23-31.37,2.28-3.19,3,13.92,4.43,23.79,2.1-7.62,1.06,16.1,4,7.17l-1.43-4.84c0-4.48,1-4.53,1.25-2.29-.35-5.55,0-4.23-1.07-6.58-.24-25.57,2.94,2.72,3.95-22.3.61,2.84.51,9.76,1.83,8.4l-.55,13.45,1.79.26c.15-17-2.15-27-5.09-34.76,1.73,15.34-1.86,1.68-2.72,9.7a13.5,13.5,0,0,1,.11-7.51c-.52-1.12-.85-8.85-1.83-7.83,4.29-3.66,4.37-36.93,8.74-29.35,1.28-9.47-1.14-38.8-1.4-59.37l1.22,5.58c3.74-21.51-3-19-4.13-31.52,1.53,11,1.83-9.79,3.09-14.26-1.4-9.87-3.78-17.9-3.57-31.81,1.73-2.88,4.62-3.26,4.8-12.13l-1.55-6c.17-8.86-1.16-20.65,0-26.32l.13,1.2c.94-9.94-1.74-10.32-2.06-2.6l-1.06-9.44.56-.32c-.4-4.47-1-8.82-1.65-13.48-.16-1.16-.32-2.35-.48-3.56-.16-1.6-.32-3.23-.48-4.91-.27-3.35-.56-6.87-.87-10.63l-23.5.22-22.88.13c12.94-.72-36.86-1.34,7-1.56-6.31.18-4.57.35-.92.52l3,.13,4.21.12c2.72.09,5,.17,5.79.24,9.92.08,19.53-.05,28.33-.22.47,3.75,1.07,7,1.17,9.09.5-1.57,1.34-1.87,2.24-1.09s1.83,2.67,2.51,5.35c-.58-4-.94-9.29-1.17-15.28l-78.72.33c-20,.14-36,.43-38.9,1.2-38.85-.11-89.54.36-133.88,0,1.84.09,5.43.26,4.39.4l-38.23-.84,8.8-.17-25.19-.6c-2.62-.32,7.18-.62,17.58-.69,5.54-.1,10.57.11,6.58.23,24.75-.59-23.33-.29-6-1,6.64.11,15.26,0,20,0-30.91-.49-45.27.73-64.31-.35-14.74.63-44.74,1.31-72.81.76C774.19.33,732.88.86,746.92,0,736.11.44,711-.17,706.71.39c4-.19,16.22-.18,24.68,0-11.6.21-13,.72-27.13.62-1.83-.08-.79-.22-.79-.22-18.4.46-6.24,1.79-38.49,1.8-84.82.38,12-1.9,0-2.28-3.15.42-40.51.76-57.31.35l4-.19C603,.65,590.31,1,581.18.58c-5.28.7-15.34,1.36-21.37,1.84l-38.08.11,7.89-.39c-8.68.16-16.32.19-24,.21-3.3-.54,7.92-.39,19.53-.6a172,172,0,0,0-22.83.06l4.75,0c-9.76.31-45.57,1.09-17.23,1.28-21.3.52-28-.55-42.52-.28-1.49-.45,11.9-.58,4.57-.92-14.13-.1-23.53-.16-35.13.05,11.27.15-3.22.42,14.59.69-6.84.25-24.91.34-24.19.57,5.79-.11,9.79-.3,19.92,0-19.15.24-39.09.25-58.73-.1.71-.11,2.66-.21,4.9-.31-25.51.78-63.83.58-80.92,1.49l7.56.18c6.16-.25,18.67-.28,23.63-.05-19.16.24,13.59.83-6.66,1.2-27.86.4-52.63-.57-67.83.43,26.49.1,62.23.64,73,.19l-17.1,0L344,5c1.5.45,34.43-.29,33.78.44-13.43.13-25.71.12-36.21.2,2.5.31,35.95.17,50.09.26l-17.8-.26c31.8-.6,72.42-.4,103.25-.85-24.24.57,30.83.5,11.38,1.1-7.9.39-20.69-.21-17,0-2.43.64,18.85.13,25.09.61,3.26-.42,34.77-.65,16.19-1.14,10.2.29,32.57-.37,46.45.09-4.12-.76,25.93-.49,31.05-.82,6,0,11.33.19,15.45.36l-45,.91h0c-6.58-.12-18.86-.13-15.22,0l-.27.29L477.69,7.62h-8.26L471,7.54l-2.32.08H7.48V29.39L6,36.46,1.54,7.62C.4,31.44,6.62,42.36,4.4,61.8c-.52-3.07-1-.06-1.37.69.82,6.18.81,13.57,1.91,17.36l0,9.84c-.9-.11-3.09-3.9-3.05-14-.15,35.17,4.35,62.11,2.74,97.47-.42,1.49-.53-4.71-.82-2.05.46,4.07,1,10.42,1.44,11.92a6.75,6.75,0,0,1-.82-3.26c.77,17.77-1.85,27.32-.55,38.94-1.1.64-.72-9-1.13-7.52-.91,18,2.49,27.43,2.48,45.61-1.56-6-1.6,4-2.52,8.93C4.05,280.7,4.39,312.43,5.47,335c-3.9-5.94-.12,25.14-3.43,27,0,5,.56,12.85,1.8,13.4-.61-2.79.39-9.6,1.07-8.7.24,7.35.33,18.56,1.91,19.57L5.2,395.36c.82.36,1.75,1.77,2.28,4.13v5.94c-.94,3.64-.57,3.72,0,3.92v6.56a22.54,22.54,0,0,0-2.35-5.52c-.31,7.71.45,6.66.78,12.12-1,1.79-2.66-5.4-3.33-11.29l-.94,9.93c2,9.56,4.71,26.17,4.09,41.56-1.16-2.5-1.14-7.49-2.74-3.45.23,3.3.88,7.16,1.35,11.29.1,1,.2,2.08.3,3.14s.14,2.34.17,3.52a54.36,54.36,0,0,1-.28,7.26c-.13-1.29-.34-.39-.47-1.68.14,1.39.26,2.63.35,3.57,16.13-.21,22.08-.13,29,0l5,.12,5.77.12c4.35.07,9.89.13,17.71.15a15.65,15.65,0,0,1-1.66.24l20.85-.48c43.7-1.17,48.71.77,74.94,1.23l-5.8.11c16.43.77,69.21,0,84.21.34-18.59-.49-6.21-.48-19.82-1.3-16.35.18-11.38,1.17-38.7.84,3.52-.78,38-1.07,45.08-1.68,15.28,0,25.64,1.2,27.14,1.65,38.08-.11,59.52.32,106.21,0,16.68-.55,29.44-2.23,68.44-1.16l-1.25.16c3.88-.27,18.79.21,25.9-.14-13.51-.82,16.64-.55.18-1.32,22.83-.06,26.65,1.06,28.92,1.74,16.13-1.14,45.08.59,79.88-.06-6.22.47-44.23.58-28.55,1.13l44.75-1.31h-19.9c33.93-.87,43.48.14,63.14.49,3.87.34-9,.47-18.67.45,10.44.05,27.1-.1,40.71-.36,10.29-.36,45.95-.81,60.27-1.42l5.77.07c-.56.06-1.46.13-2.62.15,2.89,0,5.23-.06,7.4-.1l18,.18-3.62.16,7-.12,18.6.16,9.57-.27-4.7,0c.87-.43,6.88-.81,16-1.07h65.81c27.41.5,64.19-.57,76.27.51-42.63,1-63,.46-108,.82-23-.89,28.91-.54,30.33-1l-25.45-.24c3.42.53-49.55.32-36.41,1.51,55.8.41,111.32.57,159.51.56l-46.39,6.07a13.07,13.07,0,0,1-3.12.4l3.12-.4c0-.26-9.86,0-20.84.14,2.28-.27,4.72-.6-8.27-.56-26.12-.47-40.45.75-59.38.63l5.84-.11c-17.8-.27-40.63-.2-54.32.3-14.37-1.05,51.45-.25,23.75-1.16,19.65.34,47.78-.42,63-.46-25.44-.25-47.36-1.27-40.17-1.89-54.66.67,0,2.28-47.82,2.69l-33-.22-11.46,1.17c-19.86,0,12.21-.94-18.21-.85-8.28.54-28,0-33.94.4.83-.26,1.24-.55-14.4-.58-1,.14.38.59-11.9.58-8.46-1.16,31.54-.23,17.21-1.28-35,0-22.43,1-27.7,1.43,1.2,0,3.1,0,6.56,0-.34.37-15.22.05-13.65.5,5.95,0,11.86-.07,17-.18-10.56.37,17.34.76,28,.77,24.32-.57,74.3-.31,107.71-.45-2.92.05-8.69.16-5.06.33,47.52-.05,67.17.3,121.52,0l6.38-.84c47.52,0,22.87-2.34,34.44-2.56,10.52-.07,19.5-.6,28.59-.17l-5,.33c29.73-.31,9.28-.89,35.77-.79,21.36-.51-18.83-.12-5.17-.62,28.33.19,17.48-1.64,61.51-.91-2.13.28,4.91,1-20.88,1.11l25.18.61c-29.74.31-11.59.21-42,.3-14,.86-10.7,1.4-23.63,2.12,11.48-.22,9.2-.89,26.33-.85,20.69.21-3.26.42-5.31.7,27.42-1,30.56.86,55-.08-4.78-1,0-.95-17.62-1.58,17.4-.32,39.54.34,37.9,1.2l3.56-.78c4.08.19,17.92.2,18.81.4l5.87-.38c-12.78-.6-23-.89-45.07-.59,8.94-.53-12.2-1.33,16.42-1.51,12.35,0,1.49.45,2.28.68,22.34-.21,36.93-.12,48.63.08l22.24.34c7.62.12,15.24.23,23.67.33.19-2.76.34-5.83.39-9.42,0-3.42,0-8.44-.16-10.9a22,22,0,0,1,.26,2.65c0,1.52,0,3.22.09,5.06,0,3.82,0,8.22,0,12.83-8.29,0-16.85,0-25.34.06l-12.66.09-3.13,0-2.68,0-3.91.08c1.29.06,2.59.11,3.91.14l1.12,0,1.58,0,3.2,0c4.29,0,8.66,0,13,0,8.72,0,17.34-.17,25.57-.26-.2-3-.35-5.86-.28-8.51.87,8.21,1.56,10.18,2.35.42l-1.17-4.25c0-2.39,0-5.73,0-8.55,0-2.15.14-3.9.42-4.14-.44-.17-.75,1.43-1.11,4.73-1.61-9.12-2.36-26.24-1.53-42.39,2.47,1.15,1.42,23,3.32,11.31-.44-6.62-3.11-12-1.75-23.46C1166.47,421.61,1166.52,411.53,1167.41,411.67ZM839.52,493.43l17.37.11C850.11,493.61,843.64,493.62,839.52,493.43ZM1153,90.17c.61,2.78,3.5,2.4,2.7,13.52-.27.14-.45-.81-.58-1.92.36,5.06-.33,5.89-.7,11.38-1.87,1.68-1.35-6.75-2.64-10.39.39,3.53,1.13,7.5,1,11.37l-.69-.9.43,11.69c1.43,4.82.18-8.87,1.28-9.51l1.14,7.5c.38,8.57.9,31.45-1.75,39.21-.94,9.94,1.21,5.58,2.37,8.08,1.56,6-.46,11.55.2,17.43,1.45-.19,1.35,6.77,3.14,7l-.39,9.61c2.66,5.4.47-11.53,1.64-14.08,2.37-5.12.8,7.09,2.2,3.78-.25-7.38-1.48-7.93-1.88-11.51-.19-4.24.43-6.49,1.33-6.35-1,11.83,1.9,6.43,1.52,16.06l-.55.32c1.78.25.69,14,1.56,19.15-2,10.53-2.72-8.53-3.27-8.19l.56,12.85c-1.21-5.59-2.33.06-3.47-7.45.58,7.84-1.08,8.77.06,16.26-2.71-8.5-2,10.55-3.7,11.48-.65-8.19,1.62-22.63,2.25-23.46-.38-1.46-.11-10.68.53-14.45l-2.45-6.13c-.1,6.94,1,16.37-1.09,13.75l1.07,9.45c-3.27-9.72-3.14-9.25-4.57-18.06-2.64,18.16,2.89,32.33.51,47.26l-.26-2.34c.33,14.92-.35,24.09-1.6,30.34V194.42l1.15,2c-.06-.4-.11-.67-.18-1.1-.88-18.29,2.77-1.56,1.54-20.29a7.58,7.58,0,0,0,.62,1.47c-.77-7.63.06-21.65-1.9-23.32a83.91,83.91,0,0,1-1.23,12.16v-24a34.91,34.91,0,0,0,.71-5h0a32,32,0,0,0-.34-6.47,13.58,13.58,0,0,0-.37-1.4V100C1150.74,101,1150.59,79.1,1153,90.17Zm-4.12,91.38c.25,1.77.49,4.2.73,6.38-.2,1.91-.46,2.33-.73,2.28Zm0,144a4.77,4.77,0,0,1,0,1.71Zm2.25-265.08c.1,11.24-.49,3.42-1.35,11.42-.33.44-.62.19-.9-.45v-25C1149.27,53.67,1149.31,61.07,1151.12,60.5Zm-.6-34.13c-.15,3.87.48,14.76-1.17,15.69,0-5.31-.12-6.82-.48-6.18V19.4a3.7,3.7,0,0,0,.63-1.54C1149.86,20.33,1150.11,24.12,1150.52,26.37ZM848.75,4.2c23.61.16-1.3.5,10.7.87,18-1.05,23,.89,42-.3,22.83-.07,15.7.54,23,.89-22.78.06,10.69.88-17.94,1,23.29.52,16.93-.91,36.54-.56l3,.9c17.87.26,56.38.74,80.59.17-20.43-.58,11.87-.58,8.54-1.12-3.53.79-31.55.23-31.23-.13,15-.17,51.24-.33,63.18-.19l-28.48-.46c10.81-.44,49.49-1.28,50.55-1.42,6,.18,13.57.25,20.38.33,3.41,0,6.63.09,9.39.15l4.23.12c1.42,0,2.63.09,3.6.15l-6.79.17-5.6.16-11.18.33-8-.57-12.9.72c7.28.13,18.57.32,28.88.56,5.19.11,9.87.24,14.54.38,4.41.14,7.69.29,9.27.45h-14.52l-15.24.06c-10.69.06-22.39.16-35,.31-8.65.11-17.77.24-27.25.4H823.41l2.71-.13c6-.3,13-.52,21.33-.61-4.72.06-10.33,0-17.93-.17l41.2-1.49C850,5,846.88,6.39,821.55,6.14,823.23,5.27,821.67,4.82,848.75,4.2Zm93.62,481.61a51.58,51.58,0,0,1-8.76-.7l13.51.07Zm168.06.41c-1.68.87-29.26.9-37.49,1.65-6.84.25-39.13.25-32-.36,22.57.3,20.4-1.69,41.27-.53,3.29-.53-2.14-.75-10.26-.86a29.54,29.54,0,0,0,4.65-.36l23.23.08C1106.39,485.91,1112.19,486,1110.43,486.22Zm41-.07c-4.16,0-7.75-.06-10.85-.11l7-.12h3.31c0-2.61,0-5,0-7.14s-.07-4.07-.1-5.79c-.09-3.25-.22-5.75-.39-7.58-.34-3.66-.84-4.65-1.46-3.69h0v-7.62c1.09,4.59,2.06,8.88,2.57,11.32,0,1.74.09,3.51.14,5.26s0,3.63.05,5.39C1151.63,479.79,1151.56,483.27,1151.43,486.15Zm.32-51.89c-.48-.61-.77-.08-1,1-.1-2.84-.21-5.7-.31-8.57C1151.29,428,1152.22,426.11,1151.75,434.26Zm2.29-34.5,1.47-5.21c.56,12.84.88,18.29.13,32.49-1.87,1.69.44-6.5-.5-9.73l-1.89,6.69c-.06-3.08-1.62-9.11.17-8.87-.89-.12-2.32-5-1.6,4l-1.35-6.75a5,5,0,0,0-.52,1.48c-.08-2-.17-4-.25-6.09.6-2.54.54-7.16,2-11.11.55-.29.74,3.95,1,6.37a64.13,64.13,0,0,0,.07-15.09c-.39,9.61-1.26,4.47-2.79,6.57-.66-5.9-.28-15.5-.68-19.05.65-8.16,2.37-14.85,3.74-9.42-.73-5.22,0-10.69-1.62-16.21,1.75,10.29-3.79.25-1.43,13.34-.47.74-.82.8-1.07.38V349.73c.16-1.62.34-3.14.52-4.39.4,3.54,1.24.57,1.92,1.42-.58-7-1.63-6.91-2.44-3.76V327.37l1.32-6.29.51,9.75c1.6-4,.25-10.81.28-15.84,1.12-5.63,1.45,13,3.9,19.13,1.07,4.9,0,14.88-.85,15.84,2.26,1.7,1.18,18.16,2.46,24.62C1156.56,390.83,1153,385.28,1154,399.76Z"/><path class="cls-1" d="M1153.71,349.81c.1.25.21.28.32.15A.59.59,0,0,0,1153.71,349.81Z"/><path class="cls-1" d="M4.39,179.82l0-.83C4.36,179.29,4.38,179.56,4.39,179.82Z"/><path class="cls-1" d="M1067.14,5.78l2.42,0Z"/><path class="cls-1" d="M1160.47,299.94c0,.3,0,.61.07.94A8.42,8.42,0,0,0,1160.47,299.94Z"/><path class="cls-1" d="M886.35,1.34l-1,0Z"/><path class="cls-1" d="M266.36,4.78c-10.84.44-17.72.69-34.74.65C225.23,4,259.49,5,267.21,3.69c-31.2-.13-40.79,1.12-66.45,1.24C213.48,5.53,265.43,5.88,266.36,4.78Z"/><polygon class="cls-1" points="281.95 3.05 280.22 2.97 262.87 3.29 264.58 3.38 281.95 3.05"/><polygon class="cls-1" points="932.52 1.68 923.85 1.84 921.74 2.12 932.52 1.68"/><polygon class="cls-1" points="919.58 0.13 911.65 0.51 935.59 0.3 919.58 0.13"/><path class="cls-1" d="M1077,4.84l-14.33.27C1065.49,5.06,1085.1,5.41,1077,4.84Z"/><path class="cls-1" d="M1161.81,23.37c1-.46.17,11.47,1.44,4C1163.05,21.28,1162.44,22.26,1161.81,23.37Z"/><path class="cls-1" d="M1161.41,24a6.37,6.37,0,0,0,.4-.66C1161.7,23.42,1161.57,23.62,1161.41,24Z"/><path class="cls-1" d="M1150.59,109.74a16.27,16.27,0,0,0,.24,2.94C1150.73,111.52,1150.66,110.55,1150.59,109.74Z"/><path class="cls-1" d="M1150.74,101.43a23,23,0,0,0-.15,8.31C1150.59,106.65,1151.2,103.55,1150.74,101.43Z"/><path class="cls-1" d="M1151,145.18l.12-2.8c.78,2.86.67,1.51,0-1,0-3-.55-2.81-.9-3.16l-.62-1.83c.22.92.41,1.74.58,2.44C1150.15,143.38,1150.23,146.19,1151,145.18Z"/><polygon class="cls-1" points="1166.4 110.19 1166.13 107.83 1164.5 103.76 1166.4 110.19"/><path class="cls-1" d="M1165.8,245.91c-1.47-8-3.56,12.65-4.81-1.08-1.55,17.71,2.09-1.36,1.85,11.71C1163.34,248.89,1165.21,245.14,1165.8,245.91Z"/><path class="cls-1" d="M1162.84,256.54c-.08,1.11-.12,2.31-.13,3.62C1162.76,258.72,1162.8,257.55,1162.84,256.54Z"/><path class="cls-1" d="M1153,366.08a22.55,22.55,0,0,0,.5,2.68C1153.33,367.6,1153.16,366.81,1153,366.08Z"/><path class="cls-1" d="M1164.06,298.27l-2.22-11.95c1.48,8,1.39,28.06,3.6,26.81.45-6.5-.14-14.32-1.1-17.54Z"/><path class="cls-1" d="M1152.42,346.15a66.62,66.62,0,0,0-.3-10.47C1151.7,337.14,1151.31,346.76,1152.42,346.15Z"/><path class="cls-1" d="M1166.93,459.56c.23-5.77-1.75-10.29-2.17-8.78l.09,11.21c1.73-2.85,0-3.11.39-9.6Z"/><polygon class="cls-1" points="487.77 489.47 506.96 489.23 499.32 489.25 487.77 489.47"/><path class="cls-1" d="M387.5,488c9.12.43,26.43.1,32.22,0C399.77,488,408.42,487.84,387.5,488Z"/><polygon class="cls-1" points="412.15 492.55 392.92 492.79 394.71 492.88 412.15 492.55"/><polygon class="cls-1" points="274.13 491.78 272.31 491.69 254.94 492.01 256.78 492.1 274.13 491.78"/><path class="cls-1" d="M161.6,491.48c4.52-.06,8.12-.15,10.51-.31C167.81,491.27,164.56,491.38,161.6,491.48Z"/><path class="cls-1" d="M126,493c19.9-.47,22.12-1,35.62-1.51-24,.34-74.57-.44-105.1.53-16.83.91-6.62,2.16-6.69,3.48,2.54.31,46.17.45,47.81-.42-20.43-.57,28.18-.76-9.65-1-3.34-.54,14.4-1.23,32.21-1-1.42.5-17.35.32-6.41.83C125.6,493.35,130.1,493.75,126,493Z"/><path class="cls-1" d="M129.76,496.38c9.45.07,12.34,0,18.14-.09C146.34,495.84,137.4,496.36,129.76,496.38Z"/><path class="cls-1" d="M2.32,440.2l.58,10.57a7.34,7.34,0,0,1,1.24-4.36C3.68,445.67,3.11,438.7,2.32,440.2Z"/><path class="cls-1" d="M3.15,455.4l-.25-4.63A31.69,31.69,0,0,0,3.15,455.4Z"/><path class="cls-1" d="M4.43,445.91c-.1.16-.18.31-.29.5C4.24,446.56,4.34,446.53,4.43,445.91Z"/><path class="cls-1" d="M1.49,49A1.73,1.73,0,0,1,1,48.17,1.47,1.47,0,0,0,1.49,49Z"/><path class="cls-1" d="M.32,33.4l.35.4L0,27.93c.1,5.5,0,17,1,20.24C.3,45.32,1.45,36.55.32,33.4Z"/></g></g></svg>