<svg xmlns="http://www.w3.org/2000/svg" viewBox="0 0 2200 1064.96"><defs><style>.cls-1{fill:#008fbd;}.cls-2{fill:#05a0c4;}.cls-3{fill:#fff;}</style></defs><g id="Capa_2" data-name="Capa 2"><g id="Capa_1-2" data-name="Capa 1"><rect class="cls-1" width="2200" height="1060"/><path class="cls-2" d="M380,976.38c0,45-51.39,68.61-105.61,80.13H79.18A665.16,665.16,0,0,1,0,1036.23V673.5C54,679.05,98.75,724,101,779.67c10.5-13.37,25.79-18.11,41.44-18.11,50.64,0,85,36.11,85,79.54,0,22.54-8.73,5.5,36,5.5C337.28,846.6,380,931.54,380,976.38Z"/><path class="cls-3" d="M576,1065H0V784.64A99.46,99.46,0,0,1,17.51,783c21.61,0,43.35,6.33,63.48,18,36.22,20.92,44.19,63.83,52.38,101.47,14-14,31.52-25.63,51.6-25.63,35.41,0,75,36.95,75,78,0,3.48-.11,6.33-.27,8.62,3.62-10.31,14.6-29,43.86-42.95a140.11,140.11,0,0,1,59.79-13.59c55.76,0,96.75,36.5,96.75,74.6a60.78,60.78,0,0,1-4.33,22.46c4-7.38,10-10.16,16.4-10.16,13.15,0,34.78,12.55,34.78,39.27a42.34,42.34,0,0,1-.24,5.22,4.14,4.14,0,0,1,4-2.36c2.17,0,4.56.77,5.48.77,0,0,2.34-.23,5-.23C536.93,1036.45,564,1044.82,576,1065Z"/></g></g></svg>