<svg xmlns="http://www.w3.org/2000/svg" viewBox="0 0 378 378"><defs><style>.cls-1{isolation:isolate;}.cls-2{opacity:0.8;mix-blend-mode:screen;}.cls-3{fill:#323639;}</style></defs><g class="cls-1"><g id="Capa_2" data-name="Capa 2"><g id="Capa_1-2" data-name="Capa 1"><g class="cls-2"><path class="cls-3" d="M190.57,0C84.9-.94-.94,84.9,0,190.57,1,293.26,84.74,377.05,187.43,378,293.1,378.94,378.94,293.1,378,187.43,377.05,84.74,293.26,1,190.57,0Zm-48,92.92A2.65,2.65,0,0,1,146,91c3.47.79,31.35,6.77,31.35,6.77s58-8.82,60-9.29a2.68,2.68,0,0,1,3.31,2.2c.16.63,9.92,33.55,18.42,62.21H123.33C132.14,125.37,141.91,94.5,142.54,92.93ZM277.83,255.62a38.63,38.63,0,0,1-77.18-2.52,22.94,22.94,0,0,1,.16-3.31,30.74,30.74,0,0,0-10.08-1.57A34.54,34.54,0,0,0,180.18,250a20.78,20.78,0,0,1,.16,3.15,38.44,38.44,0,1,1-2.84-14.65,46.51,46.51,0,0,1,13.23-2,43.17,43.17,0,0,1,12.76,1.89,38.7,38.7,0,0,1,74.34,17.32Zm36.85-54H66.79a.34.34,0,0,1-.16-.63c8.19-4.25,55.75-27.72,124.42-27.72S306.81,196.56,314.84,201A.34.34,0,0,1,314.68,201.6Z"/><circle class="cls-3" cx="239.24" cy="253.26" r="27.4"/><circle class="cls-3" cx="141.91" cy="253.26" r="27.4"/></g></g></g></g></svg>