<svg version="1.2" xmlns="http://www.w3.org/2000/svg" viewBox="0 0 422 256" width="1000" height="607">
	<title>Origina Vector File-ai</title>
	<defs>
		<linearGradient id="g1" x1="122.4" y1=".1" x2="292" y2=".1" gradientUnits="userSpaceOnUse">
			<stop offset="0" stop-color="#b36b28"/>
			<stop offset=".3" stop-color="#d58e29"/>
			<stop offset=".7" stop-color="#e5ac22"/>
			<stop offset="1" stop-color="#f9c73b"/>
		</linearGradient>
		<linearGradient id="g2" x1="122.4" y1="27.8" x2="292" y2="27.8" gradientUnits="userSpaceOnUse">
			<stop offset="0" stop-color="#b36b28"/>
			<stop offset=".3" stop-color="#d58e29"/>
			<stop offset=".7" stop-color="#e5ac22"/>
			<stop offset="1" stop-color="#f9c73b"/>
		</linearGradient>
		<linearGradient id="g3" x1="122.4" y1="106" x2="292" y2="106" gradientUnits="userSpaceOnUse">
			<stop offset="0" stop-color="#b36b28"/>
			<stop offset=".3" stop-color="#d58e29"/>
			<stop offset=".7" stop-color="#e5ac22"/>
			<stop offset="1" stop-color="#f9c73b"/>
		</linearGradient>
	</defs>
	<style>
		.s0 { display: none;fill: #000000 } 
		.s1 { fill: #000000 } 
		.s2 { fill: url(#g1) } 
		.s3 { fill: url(#g2) } 
		.s4 { fill: url(#g3) } 
		.s5 { fill: #ffffff } 
	</style>
	<g id="Layer 1">
		<path id="&lt;Path&gt;" class="s0" d="m711 460.5h-1000v-665h1000z"/>
		<path id="Super Kool Autos LLC
" class="s1" aria-label="Super Kool Autos LLC"  d="m-73.7-617.3q0-2.5-1.5-4-1.4-1.6-3.7-2.7-2.1-1.2-4.7-2.3-2.5-1-4.7-2.5-2.2-1.5-3.6-3.6-1.5-2.2-1.5-5.6 0-4.8 3.3-7.6 3.4-2.7 9.4-2.7 3.6 0 6.5 0.5 2.9 0.5 4.5 1.3l-1.4 4.3q-1.4-0.7-4-1.3-2.5-0.5-5.8-0.5-3.8 0-5.7 1.7-1.9 1.7-1.9 4 0 2.3 1.4 3.8 1.5 1.5 3.6 2.7 2.2 1.2 4.8 2.3 2.5 1.2 4.7 2.8 2.2 1.5 3.6 3.6 1.5 2.2 1.5 5.4 0 2.6-1 4.7-0.9 2.1-2.7 3.6-1.8 1.5-4.3 2.3-2.6 0.8-5.8 0.8-4.4 0-7.2-0.6-2.9-0.7-4.5-1.6l1.7-4.3q1.3 0.7 3.9 1.5 2.6 0.7 5.9 0.7 1.9 0 3.6-0.3 1.7-0.5 2.9-1.3 1.2-0.8 1.9-2.1 0.8-1.3 0.8-3zm11.5-18.7h4.7v16.5q0 2.3 0.2 4 0.3 1.7 0.9 2.9 0.7 1.1 1.8 1.7 1.1 0.5 2.7 0.5 1.6 0 2.8-0.4 1.3-0.6 2.2-1.4 1-0.9 1.7-2 0.7-1.2 1.2-2.4v-19.4h4.6v20.8q0 2 0.1 4.3 0.2 2.2 0.6 3.9h-3.2l-1.2-4.6h-0.3q-1.3 2.3-3.6 3.8-2.2 1.5-5.7 1.5-2.3 0-4.1-0.5-1.8-0.6-3-2-1.2-1.4-1.8-3.7-0.6-2.4-0.6-6zm31.8 40.6v-40.6h3.2l0.8 3.5h0.3q1.3-2 3.4-3.1 2.1-1.1 4.9-1.1 5.8 0 8.6 3.4 2.9 3.5 2.9 11.2 0 3.7-1 6.7-0.9 2.9-2.7 4.9-1.7 2-4.2 3.1-2.5 1.1-5.5 1.1-2.1 0-3.4-0.2-1.2-0.3-2.7-0.9v12zm11.7-37.2q-2.9 0-4.7 1.5-1.6 1.5-2.3 4.7v14.4q1 0.8 2.3 1.3 1.4 0.4 3.6 0.4 4 0 6.3-3 2.4-3 2.4-8.8 0-2.4-0.4-4.3-0.4-2-1.3-3.3-0.9-1.4-2.4-2.2-1.4-0.7-3.5-0.7zm39.2 19.9l1.7 3.4q-1.7 1.4-4.4 2.2-2.6 0.8-5.6 0.8-3.3 0-5.7-1-2.5-1.1-4-3.1-1.6-2-2.3-4.8-0.8-2.8-0.8-6.3 0-7.4 3.3-11.3 3.3-3.9 9.5-3.9 1.9 0 3.9 0.5 2 0.4 3.6 1.6 1.5 1.2 2.5 3.5 1 2.2 1 5.8 0 2-0.3 4.3h-18.7q0 2.5 0.5 4.5 0.6 2 1.7 3.4 1.1 1.3 2.8 2.1 1.8 0.7 4.4 0.7 1.9 0 3.9-0.7 2-0.7 3-1.7zm-8.3-19.9q-3.4 0-5.5 1.8-2 1.8-2.4 6.1h14.4q0-4.4-1.7-6.1-1.7-1.8-4.8-1.8zm33-3.4l-1 4.5q-1.7-0.6-3.3-0.6-2.5 0-3.9 1.4-1.5 1.3-1.8 3.4v20.3h-4.7v-29h3.3l0.8 3.5h0.3q1.1-1.9 2.6-3 1.6-1.1 3.9-1.1 1.7 0 3.8 0.6zm43.4 29l-14.8-18.8h-2.8v18.8h-4.8v-40.6h4.8v18.9l2.7-0.8 13.6-18.1h5.6l-13.6 17.5-2.4 1.9 2.9 2.3 14.9 18.9zm8.2-14.5q0-7.4 3.2-11.2 3.3-4 9.5-4 3.2 0 5.6 1.1 2.4 1.1 4 3.1 1.6 2 2.3 4.8 0.8 2.8 0.8 6.2 0 7.4-3.3 11.3-3.3 3.9-9.4 3.9-3.3 0-5.7-1-2.4-1.1-4-3.1-1.5-2-2.3-4.8-0.7-2.9-0.7-6.3zm4.8 0q0 2.2 0.4 4.3 0.5 2 1.4 3.5 0.9 1.5 2.4 2.4 1.5 1 3.7 1 7.9 0 7.9-11.2 0-2.2-0.5-4.3-0.4-2-1.3-3.5-1-1.5-2.5-2.4-1.5-0.9-3.6-0.9-7.9-0.1-7.9 11.1zm26.3 0q0-7.4 3.2-11.2 3.3-4 9.5-4 3.3 0 5.6 1.1 2.5 1.1 4 3.1 1.6 2 2.4 4.8 0.7 2.8 0.7 6.2 0 7.4-3.3 11.3-3.2 3.9-9.4 3.9-3.3 0-5.7-1-2.4-1.1-3.9-3.1-1.6-2-2.4-4.8-0.7-2.9-0.7-6.3zm4.8 0q0 2.2 0.4 4.3 0.5 2 1.4 3.5 0.9 1.5 2.4 2.4 1.6 1 3.7 1 7.9 0 7.9-11.2 0-2.2-0.5-4.3-0.4-2-1.3-3.5-0.9-1.5-2.4-2.4-1.6-0.9-3.7-0.9-7.9-0.1-7.9 11.1zm33.1-26.1v33.5q0 2 0.7 2.9 0.7 0.9 2 0.9 0.7 0 1.6-0.1 0.9-0.2 2-0.6l0.5 3.7q-0.9 0.5-2.6 0.7-1.6 0.3-2.9 0.3-2.6 0-4.3-1.4-1.6-1.5-1.6-5.1v-34.8zm49.4 40.6l-4.2-11.2h-15l-4.1 11.2h-4.7l15.4-41.2h2.2l15.4 41.2zm-13.1-27.7l-4.5 12.3h12l-4.5-12.4-1.5-6.1h-0.1zm22.7-1.4h4.6v16.6q0 2.2 0.3 4 0.3 1.7 0.9 2.8 0.6 1.1 1.7 1.7 1.1 0.6 2.8 0.6 1.6 0 2.8-0.5 1.2-0.5 2.2-1.4 0.9-0.8 1.6-1.9 0.8-1.2 1.3-2.5v-19.4h4.6v20.8q0 2.1 0.1 4.4 0.2 2.2 0.5 3.9h-3.2l-1.1-4.6h-0.3q-1.3 2.2-3.6 3.8-2.3 1.5-5.7 1.5-2.4 0-4.2-0.6-1.7-0.5-2.9-1.9-1.2-1.4-1.8-3.8-0.6-2.3-0.6-5.9zm27.9 4v-4h4.5v-5.8l4.7-1.3v7.1h7.9v4h-7.9v16.1q0 3 0.7 4.3 0.8 1.2 2.6 1.2 1.5 0 2.6-0.3 1-0.3 2.3-0.8l1 3.5q-1.5 0.8-3.4 1.2-1.9 0.5-4 0.5-3.6 0-5-2-1.5-2-1.5-6.7v-17zm21.3 10.5q0-7.4 3.2-11.3 3.4-3.9 9.5-3.9 3.3 0 5.6 1.1 2.5 1 4 3.1 1.6 1.9 2.4 4.8 0.7 2.8 0.7 6.2 0 7.4-3.3 11.3-3.2 3.9-9.4 3.9-3.2 0-5.7-1.1-2.4-1.1-3.9-3-1.6-2.1-2.4-4.8-0.7-2.9-0.7-6.3zm4.8 0q0 2.2 0.4 4.2 0.5 2.1 1.4 3.6 0.9 1.5 2.4 2.4 1.6 0.9 3.7 0.9 7.9 0.1 7.9-11.1 0-2.3-0.5-4.3-0.4-2-1.3-3.6-0.9-1.5-2.4-2.3-1.5-1-3.7-1-7.9 0-7.9 11.2zm40.7 6.6q0-1.7-1-2.7-1.1-1-2.6-1.7-1.6-0.6-3.4-1.2-1.8-0.7-3.4-1.6-1.5-1-2.5-2.5-1.1-1.5-1.1-4.1 0-4.1 2.4-6.1 2.4-1.9 6.6-1.9 3.2 0 5.2 0.6 2.2 0.5 3.8 1.2l-1.1 3.9q-1.4-0.7-3.3-1.1-1.9-0.6-4-0.6-2.6 0-3.8 0.9-1.1 0.9-1.1 3 0 1.5 1 2.4 1.1 0.8 2.6 1.5 1.5 0.7 3.3 1.3 1.9 0.6 3.4 1.7 1.6 1 2.6 2.6 1.1 1.6 1.1 4.2 0 1.9-0.7 3.5-0.6 1.6-1.8 2.8-1.3 1.2-3.2 1.9-1.9 0.6-4.4 0.6-3.4 0-5.7-0.6-2.3-0.7-3.9-1.6l1.4-3.9q1.4 0.8 3.5 1.4 2.2 0.6 4.4 0.6 2.5 0 4.1-1 1.6-0.9 1.6-3.5zm51.7 3.6v4.3h-24.1v-40.6h4.9v36.3zm30 0v4.3h-24.1v-40.6h4.9v36.3zm27-1.2l1.1 3.8q-1.7 1.3-4.4 1.9-2.7 0.5-5.7 0.5-3.6 0-6.8-1.2-3.2-1.3-5.6-3.9-2.4-2.5-3.8-6.5-1.4-4-1.4-9.4 0-5.7 1.5-9.7 1.6-4 4.1-6.5 2.6-2.5 5.7-3.7 3.1-1.1 6.4-1.1 3.5 0 5.7 0.4 2.2 0.3 3.7 1l-1.1 4.2q-2.8-1.3-8-1.3-2.4 0-4.7 0.8-2.3 0.9-4.2 2.9-1.8 1.9-2.9 5.1-1.1 3.2-1.1 7.9 0 4.2 1.1 7.3 1 3.1 2.8 5.2 1.9 2.1 4.3 3.2 2.5 1 5.4 1 2.6 0 4.6-0.5 1.9-0.5 3.3-1.4z"/>
		<path id="Super Kool Autos LLC
" class="s1" aria-label="Super Kool Autos LLC"  d="m-0.8-424.3q0-2.5-1.4-4-1.5-1.6-3.7-2.7-2.1-1.2-4.7-2.3-2.5-1-4.7-2.5-2.2-1.5-3.6-3.6-1.5-2.2-1.5-5.6 0-4.8 3.3-7.6 3.3-2.7 9.4-2.7 3.6 0 6.5 0.5 2.9 0.5 4.5 1.3l-1.5 4.3q-1.3-0.7-3.9-1.3-2.6-0.5-5.8-0.5-3.8 0-5.8 1.7-1.9 1.7-1.9 4 0 2.3 1.5 3.8 1.4 1.5 3.6 2.7 2.2 1.2 4.7 2.3 2.6 1.2 4.7 2.8 2.2 1.5 3.7 3.6 1.4 2.2 1.4 5.4 0 2.6-0.9 4.7-0.9 2.1-2.7 3.6-1.8 1.5-4.4 2.3-2.5 0.8-5.8 0.8-4.3 0-7.2-0.6-2.8-0.7-4.4-1.6l1.6-4.3q1.4 0.7 4 1.5 2.6 0.7 5.9 0.7 1.9 0 3.6-0.3 1.6-0.5 2.9-1.3 1.2-0.8 1.9-2.1 0.7-1.3 0.7-3zm11.6-18.7h4.6v16.5q0 2.3 0.3 4 0.2 1.7 0.9 2.9 0.6 1.1 1.7 1.7 1.1 0.5 2.8 0.5 1.6 0 2.8-0.4 1.2-0.6 2.2-1.4 0.9-0.9 1.6-2 0.8-1.2 1.3-2.4v-19.4h4.6v20.8q0 2 0.1 4.3 0.2 2.2 0.5 3.9h-3.2l-1.1-4.6h-0.3q-1.3 2.3-3.6 3.8-2.3 1.5-5.8 1.5-2.3 0-4.1-0.5-1.7-0.6-2.9-2-1.2-1.4-1.8-3.7-0.6-2.4-0.6-6zm31.7 40.6v-40.6h3.2l0.9 3.5h0.2q1.4-2 3.5-3.1 2.1-1.1 4.8-1.1 5.8 0 8.7 3.4 2.8 3.5 2.8 11.2 0 3.7-1 6.7-0.9 2.9-2.6 4.9-1.8 2-4.3 3.1-2.4 1.1-5.4 1.1-2.2 0-3.4-0.2-1.3-0.3-2.7-0.9v12zm11.7-37.2q-2.9 0-4.7 1.5-1.7 1.5-2.4 4.7v14.4q1.1 0.8 2.4 1.3 1.3 0.4 3.6 0.4 4 0 6.3-3 2.4-3 2.4-8.8 0-2.4-0.4-4.3-0.5-2-1.4-3.3-0.9-1.4-2.3-2.2-1.4-0.7-3.5-0.7zm39.1 19.9l1.8 3.4q-1.8 1.4-4.4 2.2-2.6 0.8-5.6 0.8-3.3 0-5.7-1-2.5-1.1-4.1-3.1-1.5-2-2.3-4.8-0.7-2.8-0.7-6.3 0-7.4 3.3-11.3 3.3-3.9 9.4-3.9 2 0 4 0.5 2 0.4 3.5 1.6 1.6 1.2 2.6 3.5 1 2.2 1 5.8 0 2-0.4 4.3h-18.6q0 2.5 0.5 4.5 0.5 2 1.6 3.4 1.1 1.3 2.9 2.1 1.8 0.7 4.3 0.7 2 0 4-0.7 2-0.7 2.9-1.7zm-8.2-19.9q-3.4 0-5.5 1.8-2 1.8-2.5 6.1h14.4q0-4.4-1.6-6.1-1.7-1.8-4.8-1.8zm33-3.4l-1 4.5q-1.8-0.6-3.3-0.6-2.5 0-4 1.4-1.4 1.3-1.8 3.4v20.3h-4.6v-29h3.2l0.9 3.5h0.2q1.1-1.9 2.7-3 1.5-1.1 3.9-1.1 1.7 0 3.8 0.6zm43.3 29l-14.8-18.8h-2.7v18.8h-4.8v-40.6h4.8v18.9l2.6-0.8 13.7-18.1h5.5l-13.5 17.5-2.5 1.9 3 2.3 14.8 18.9zm8.2-14.5q0-7.4 3.3-11.2 3.3-4 9.4-4 3.3 0 5.7 1.1 2.4 1.1 4 3.1 1.6 2 2.3 4.8 0.8 2.8 0.8 6.2 0 7.4-3.3 11.3-3.3 3.9-9.5 3.9-3.2 0-5.6-1-2.4-1.1-4-3.1-1.6-2-2.3-4.8-0.8-2.9-0.8-6.3zm4.9 0q0 2.2 0.4 4.3 0.4 2 1.4 3.5 0.9 1.5 2.4 2.4 1.5 1 3.6 1 7.9 0 7.9-11.2 0-2.2-0.4-4.3-0.4-2-1.4-3.5-0.9-1.5-2.4-2.4-1.5-0.9-3.7-0.9-7.8-0.1-7.8 11.1zm26.3 0q0-7.4 3.2-11.2 3.3-4 9.5-4 3.2 0 5.6 1.1 2.4 1.1 4 3.1 1.6 2 2.3 4.8 0.8 2.8 0.8 6.2 0 7.4-3.3 11.3-3.3 3.9-9.4 3.9-3.3 0-5.7-1-2.4-1.1-4-3.1-1.5-2-2.3-4.8-0.7-2.9-0.7-6.3zm4.8 0q0 2.2 0.4 4.3 0.4 2 1.4 3.5 0.9 1.5 2.4 2.4 1.5 1 3.7 1 7.9 0 7.9-11.2 0-2.2-0.5-4.3-0.4-2-1.3-3.5-1-1.5-2.5-2.4-1.5-0.9-3.6-0.9-7.9-0.1-7.9 11.1zm33.1-26.1v33.5q0 2 0.7 2.9 0.7 0.9 1.9 0.9 0.8 0 1.7-0.1 0.8-0.2 1.9-0.6l0.6 3.7q-1 0.5-2.7 0.7-1.6 0.3-2.8 0.3-2.6 0-4.3-1.4-1.7-1.5-1.7-5.1v-34.8zm49.4 40.6l-4.2-11.2h-14.9l-4.1 11.2h-4.8l15.4-41.2h2.2l15.5 41.2zm-13.1-27.7l-4.5 12.3h11.9l-4.5-12.4-1.4-6.1h-0.1zm22.7-1.4h4.6v16.6q0 2.2 0.2 4 0.3 1.7 1 2.8 0.6 1.1 1.7 1.7 1.1 0.6 2.8 0.6 1.6 0 2.8-0.5 1.2-0.5 2.1-1.4 1-0.8 1.7-1.9 0.8-1.2 1.2-2.5v-19.4h4.7v20.8q0 2.1 0.1 4.4 0.2 2.2 0.5 3.9h-3.2l-1.1-4.6h-0.3q-1.4 2.2-3.6 3.8-2.3 1.5-5.8 1.5-2.3 0-4.1-0.6-1.7-0.5-3-1.9-1.1-1.4-1.8-3.8-0.5-2.3-0.5-5.9zm27.9 4v-4h4.5v-5.8l4.7-1.3v7.1h7.9v4h-7.9v16.1q0 3 0.7 4.3 0.8 1.2 2.6 1.2 1.5 0 2.5-0.3 1.1-0.3 2.3-0.8l1.1 3.5q-1.6 0.8-3.4 1.2-1.9 0.5-4 0.5-3.6 0-5-2-1.5-2-1.5-6.7v-17zm21.3 10.5q0-7.4 3.2-11.3 3.3-3.9 9.5-3.9 3.2 0 5.6 1.1 2.4 1 4 3.1 1.6 1.9 2.3 4.8 0.8 2.8 0.8 6.2 0 7.4-3.3 11.3-3.3 3.9-9.4 3.9-3.3 0-5.7-1.1-2.4-1.1-4-3-1.5-2.1-2.3-4.8-0.7-2.9-0.7-6.3zm4.8 0q0 2.2 0.4 4.2 0.4 2.1 1.4 3.6 0.9 1.5 2.4 2.4 1.5 0.9 3.7 0.9 7.9 0.1 7.9-11.1 0-2.3-0.5-4.3-0.4-2-1.3-3.6-1-1.5-2.5-2.3-1.5-1-3.6-1-7.9 0-7.9 11.2zm40.7 6.6q0-1.7-1.1-2.7-1-1-2.6-1.7-1.5-0.6-3.3-1.2-1.8-0.7-3.4-1.6-1.5-1-2.6-2.5-1-1.5-1-4.1 0-4.1 2.4-6.1 2.3-1.9 6.6-1.9 3.1 0 5.2 0.6 2.2 0.5 3.7 1.2l-1.1 3.9q-1.3-0.7-3.2-1.1-1.9-0.6-4-0.6-2.6 0-3.8 0.9-1.2 0.9-1.2 3 0 1.5 1.1 2.4 1 0.8 2.5 1.5 1.6 0.7 3.4 1.3 1.9 0.6 3.4 1.7 1.5 1 2.6 2.6 1 1.6 1 4.2 0 1.9-0.6 3.5-0.6 1.6-1.9 2.8-1.3 1.2-3.2 1.9-1.8 0.6-4.4 0.6-3.3 0-5.6-0.6-2.3-0.7-3.9-1.6l1.4-3.9q1.3 0.8 3.5 1.4 2.1 0.6 4.3 0.6 2.5 0 4.2-1 1.6-0.9 1.6-3.5zm51.7 3.6v4.3h-24.1v-40.6h4.8v36.3zm30.1 0v4.3h-24.1v-40.6h4.8v36.3zm27-1.2l1.2 3.8q-1.7 1.3-4.4 1.9-2.7 0.5-5.7 0.5-3.7 0-6.9-1.2-3.2-1.3-5.5-3.9-2.4-2.5-3.8-6.5-1.4-4-1.4-9.4 0-5.7 1.5-9.7 1.6-4 4.1-6.5 2.5-2.5 5.7-3.7 3.1-1.1 6.3-1.1 3.5 0 5.7 0.4 2.2 0.3 3.8 1l-1.1 4.2q-2.8-1.3-8-1.3-2.4 0-4.7 0.8-2.3 0.9-4.2 2.9-1.8 1.9-2.9 5.1-1.1 3.2-1.1 7.9 0 4.2 1.1 7.3 1 3.1 2.8 5.2 1.9 2.1 4.3 3.2 2.5 1 5.4 1 2.6 0 4.5-0.5 2-0.5 3.3-1.4z"/>
		<g id="&lt;Group&gt;">
			<path id="&lt;Path&gt;" class="s2" d="m209.5 86.5l8.1 8.1 6.1-6.1 3.1-3.1-13.5-13.5-27.2-27.2 1.5-1.6 24.6-24.6 23.2 23.2 9.8 9.8q0.1 0 0.1 0l9.4-9.5-12.7-12.2-8-7.9-11.3-11.3-1.2-1.3-9.3-9.2-9 9q-0.1 0.1-0.3 0.1l0.1 0.1-16 16-10.1 10.1-1.1 1.1-2.7 2.7-4.6 4.6 14.5 14.4z"/>
			<path id="&lt;Path&gt;" class="s3" d="m277.5 94.1l-9.2-9.2-27.2-27.2-9.3-9.3-11.3-11.3-9.2-9.3-9.2 9.3-5.9 5.8 9.2 9.3 5.9-5.9 10.4 10.3 9.6 9.7 13.3 13.3-12.8 12.8-9.6 9.6-10.5 10.4-10.8-10.7-9.6-9.7-12.9-12.8 6.1-6.1-9.3-9.2-20.8 20.8-9.2 9.3-24 23.3h18.5l14.7-14.1 9.2-9.2 5.6-5.6 12.2 12.2 9.3 9.3 11.8 11.8 9.2 9.2 9.2-9.2 11.3-11.3 9.3-9.3 12.3-12.3 5.3 5.3 9.2 9.2 14 14h18.5z"/>
			<path id="&lt;Path&gt;" class="s4" d="m247.1 106l-9.6 9.7-1.9 1.9-9.4 9.4-9.2 9.2-5.6 5.6-24.5-24.6-9.9-9.9q-0.1 0.1-0.1 0.1v-0.1l-9.4 9.5 12.7 12.2 9.1 9.1 8.9 8.8 4 4.1 9.2 9.2 9.2-9.2 4.8-4.8 7-7 12.4-12.4 4.9-4.8q-0.1-0.1-0.1-0.2l6.6-6.7z"/>
		</g>
		<g id="&lt;Group&gt;">
			<path id="&lt;Path&gt;" class="s5" d="m154.7 242.3h-154.6v-2h154.6z"/>
			<path id="&lt;Path&gt;" class="s5" d="m421.9 242.3h-154.6v-2h154.6z"/>
		</g>
		<g id="&lt;Group&gt;">
			<path id="&lt;Compound Path&gt;" class="s5" d="m23.7 189.4c-1.2-2-4.5-3.9-8.3-3.9-4.9 0-7.2 2-7.2 4.6 0 3.1 3.6 3.9 7.8 4.4 7.3 0.9 14.1 2.8 14.1 11.2 0 7.8-6.9 11.1-14.7 11.1-7.2 0-12.7-2.2-15.3-8.6l5.5-2.8c1.6 3.8 5.6 5.5 9.9 5.5 4.1 0 8-1.4 8-5.2 0-3.3-3.4-4.7-8.1-5.2-7.1-0.8-13.7-2.7-13.7-10.6 0-7.2 7.1-10.1 13.5-10.2 5.5 0 11.1 1.6 13.8 7z"/>
			<path id="&lt;Compound Path&gt;" class="s5" d="m43.3 191.3v12.9c0 3.7 2 6.6 5.9 6.6 3.8 0 6.3-3.2 6.3-6.9v-12.6h6.1v24.7h-5.5l-0.4-3.4c-2.5 2.5-4.9 3.7-8.3 3.7-5.9 0-10.2-4.4-10.2-12.1v-12.9z"/>
			<path id="&lt;Compound Path&gt;" fill-rule="evenodd" class="s5" d="m68.2 226.2v-34.9h5.7l0.4 3.4c1.9-2.8 5.2-4 8-4 7.6 0 12.7 5.7 12.7 12.9 0 7.2-4.6 12.9-12.5 12.9-2.6 0-6.4-0.8-8.2-3.5v13.2zm20.7-22.6c0-3.8-2.6-7-7-7-4.4 0-7 3.2-7 7 0 3.9 2.8 7 7 7 4.1 0 7-3.1 7-7z"/>
			<path id="&lt;Compound Path&gt;" fill-rule="evenodd" class="s5" d="m105.9 205.8c0.4 3 3.1 5.2 7.4 5.2 2.2 0 5.2-0.8 6.6-2.3l3.9 3.9c-2.6 2.7-6.9 4-10.6 4-8.5 0-13.6-5.3-13.6-13.2 0-7.5 5.1-12.9 13.1-12.9 8.3 0 13.4 5.1 12.5 15.3zm13.4-5.1c-0.4-3.2-2.9-4.8-6.4-4.8-3.3 0-6 1.6-6.9 4.8z"/>
			<path id="&lt;Compound Path&gt;" class="s5" d="m136.8 191.3l0.4 2.8c1.9-3 4.5-3.5 7-3.5 2.5 0 5 1 6.3 2.4l-2.7 5.3c-1.3-1.1-2.4-1.6-4.4-1.6-3.2 0-6.2 1.7-6.2 6.2v13h-6.1v-24.6z"/>
			<path id="&lt;Compound Path&gt;" class="s5" d="m194 181.1l-15.6 16.8 16.9 17.6v0.4h-8.2l-14.6-15.5v15.5h-6.7v-35h6.7v14.8l13.3-14.8h8.2z"/>
			<path id="&lt;Compound Path&gt;" fill-rule="evenodd" class="s5" d="m221.8 203.6c0 7.1-4.8 12.9-12.8 12.9-8 0-12.9-5.8-12.9-12.9 0-7 5-12.8 12.8-12.8 7.9 0 12.9 5.8 12.9 12.8zm-19.5 0c0 3.8 2.2 7.3 6.7 7.3 4.4 0 6.7-3.5 6.7-7.3 0-3.7-2.6-7.3-6.7-7.3-4.4 0-6.7 3.6-6.7 7.3z"/>
			<path id="&lt;Compound Path&gt;" fill-rule="evenodd" class="s5" d="m251.8 203.6c0 7.1-4.9 12.9-12.9 12.9-8 0-12.8-5.8-12.8-12.9 0-7 4.9-12.8 12.8-12.8 7.8 0 12.9 5.8 12.9 12.8zm-19.6 0c0 3.8 2.2 7.3 6.7 7.3 4.5 0 6.7-3.5 6.7-7.3 0-3.7-2.6-7.3-6.7-7.3-4.4 0-6.7 3.6-6.7 7.3z"/>
			<path id="&lt;Compound Path&gt;" class="s5" d="m263.2 181v34.9h-6v-34.9z"/>
			<path id="&lt;Compound Path&gt;" fill-rule="evenodd" class="s5" d="m306.5 209.3h-18.3l-3 6.6h-7.2l15.7-35h7.2l15.8 35h-7.3zm-9.1-21l-6.5 14.9h13z"/>
			<path id="&lt;Compound Path&gt;" class="s5" d="m325.1 191.3v12.9c0 3.7 2.1 6.6 6 6.6 3.7 0 6.3-3.2 6.3-6.9v-12.6h6v24.7h-5.4l-0.4-3.4c-2.6 2.5-4.9 3.7-8.4 3.7-5.9 0-10.2-4.4-10.2-12.1v-12.9z"/>
			<path id="&lt;Compound Path&gt;" class="s5" d="m358.7 184.3v7h6.8v5.3h-6.9v10.6c0 2.4 1.3 3.5 3.2 3.5 1 0 2.1-0.3 3-0.7l1.7 5.2c-1.8 0.7-3.2 1-5.1 1-5.3 0.2-8.8-2.8-8.8-9v-10.6h-4.6v-5.3h4.6v-6.3z"/>
			<path id="&lt;Compound Path&gt;" fill-rule="evenodd" class="s5" d="m395.8 203.6c0 7.1-4.9 12.9-12.9 12.9-8 0-12.8-5.8-12.8-12.9 0-7 4.9-12.8 12.8-12.8 7.8 0 12.9 5.8 12.9 12.8zm-19.6 0c0 3.8 2.3 7.3 6.7 7.3 4.5 0 6.7-3.5 6.7-7.3 0-3.7-2.6-7.3-6.7-7.3-4.4 0-6.7 3.6-6.7 7.3z"/>
			<path id="&lt;Compound Path&gt;" class="s5" d="m417.3 197.8c-1.7-1.6-3.7-2.2-6.1-2.2-2.9 0-4.5 0.9-4.5 2.5 0 1.6 1.5 2.5 4.6 2.7 4.7 0.3 10.6 1.3 10.6 7.9 0 4.3-3.6 8.1-10.6 8.1-3.9 0-7.8-0.7-11.4-4.4l3-4.4c1.7 2 5.7 3.4 8.5 3.5 2.3 0 4.4-1.2 4.4-3 0-1.7-1.4-2.4-4.9-2.6-4.6-0.3-10.2-2-10.2-7.6 0-5.7 5.9-7.7 10.4-7.7 3.9 0 6.8 0.7 9.6 3.2z"/>
		</g>
		<g id="&lt;Group&gt;">
			<path id="&lt;Compound Path&gt;" class="s5" d="m178.5 227.3v23.1h14.4v4.9h-19.6v-28z"/>
			<path id="&lt;Compound Path&gt;" class="s5" d="m203.9 227.3v23.1h14.4v4.9h-19.6v-28z"/>
			<path id="&lt;Compound Path&gt;" class="s5" d="m248.7 251.8c-2.8 2.8-6.6 4.1-10.6 4.1-10.4 0-14.8-7.1-14.8-14.4-0.1-7.3 4.7-14.8 14.8-14.8 3.8 0 7.4 1.5 10.3 4.3l-3.5 3.4c-1.9-1.8-4.4-2.6-6.8-2.6-6.8 0-9.7 5-9.6 9.7 0 4.6 2.7 9.5 9.6 9.5 2.4 0 5.2-1 7-2.9z"/>
		</g>
	</g>
</svg>