<svg xmlns="http://www.w3.org/2000/svg" viewBox="0 0 525 138.92"><defs><style>.cls-1{fill:#fff;}</style></defs><title>Barra Gracias</title><g id="Capa_2" data-name="Capa 2"><g id="Capa_1-2" data-name="Capa 1"><path class="cls-1" d="M7.43,119c-.71-.44-1.07.47-1.21.93-.76,2.35,2.28,1.53,3,2.71C10,120.8,8.7,119.81,7.43,119Z"/><path class="cls-1" d="M0,124.76a3.49,3.49,0,0,0,3.44,3.4C4.57,125.23,1.79,125.56,0,124.76Z"/><path class="cls-1" d="M517,54.64c-.62-.09-1.26-.1-1.89-.17-9.22-1-18.45-1.86-27.64-3-5.18-.64-9.3-4.66-15.29-3-.09,0-.27-.18-.42-.28.07-1.12,1.28-1.79,1.83-2.72.88-1.51-.46-3.75-2.58-3.72-4.06,0-7.63-1.49-12.09-1.66,1.14-.44,1.53-1,2.45-.65,2.16.84,4.66.54,6.85,1,3.13.7,2.44-.47,1.64-2.08,2.63.18,3.7-1.49,5.69-2-.37-.86,0-1.74-1.17-2.06-2.51-.68-5.3-1.76-7.57-1.75-5.78,0-11.33-1.51-17.07-1.17a9.65,9.65,0,0,1-6.07-1.81,9.23,9.23,0,0,1,3,0c2.91.39,5.87,1.14,8.73-.21,3.17-1.49,7.15-.63,10.41-2.23,1.51-.74,3.87-.41,5.82-.67s3.49-1.07,3.68-2.5c.21-1.62-1.82-1.68-3.33-1.88-.82-.11-1.37-.35-1.56-1,2.71-2.17,4.38-2.46,8.55-1.36,1.86.5,3.66,1,4.15-1.29a43.07,43.07,0,0,1-10.3-4.41l3.95-1.77c1.24-.56,3.08-.84,3-2.18s-1.89-1.7-3.3-2.22c-5.77-2.14-12.2-2.68-18.24-2.74-11.41-.09-22.65-1.44-34-1.74-4.73-.13-9.48-.29-14.21-.47C399.66,2.6,389.31,2,379,1.6c-6.26-.25-12.51,0-18.82-.35-10-.58-20-.82-30-1.12-3.81-.11-7.52.64-11.45.38-4.95-.33-10-1-15,.06a42.45,42.45,0,0,1-11.05.54c-3-.18-6.2-1.2-9.06-.42C278,2.21,272.4,1,266.82,1.45c-6.43.58-13-.19-19.44,1.11-3.33.67-6.86.95-9.55,2.77.51,1.12,1.57,1.49,2.78,1.81-7-.45-13.93-1.17-20.92-1.38q-6.24-.2-12.49-.46c-9.12-.4-18.23-1-27.35-1.4-5.5-.25-11,0-16.54-.34-8.76-.58-17.58-.82-26.37-1.12-3.35-.12-6.62.63-10.07.37-4.35-.33-8.81-1-13.23.06a32.27,32.27,0,0,1-9.72.54c-2.66-.18-5.46-1.2-8-.41-4.87,1.51-9.81.25-14.71.75-5.65.58-11.47-.19-17.1,1.11-2.93.67-6,.95-8.4,2.78.49,1.24,1.58,1.56,2.79,1.9-2.1,2-4.84,2-7.22,2.63s-4.74,2.09-5.15,3.29c5.76,4.95,13.4,2.13,20.3,3.6-1.52,1.83-3.32,2-5.19,2-3.53,0-7.08-.24-10.05,1.81,1,.63.54,2.54,2,2.33-.54,1.12-1.14,2.32-1.7,3.46,4.47,0,8.62,2.27,12.5.31,1.28.05.33,1.54,1.43,1.27,1.38-.34.06-.75,0-1.18-.16-.85.8-.9,1.47-.87.45,0,.66.51,1.41.36,5.47-1.09,11,.36,16.49.06,2.92-.16,5.62-.79,8.81-.86.65,1.64,2.79,1.11,3.8.42,1.92-1.31,2.58,0,4,.67-2.9,2.76-6.37.89-9,1.53-1-.39.26-1.26-.92-1.41-1.11.13-1.42,2-2.12,1.52-1.91-1.43-3.75,1-5.46-.23-.76-.58-1.46-.2-2.3,0a17.54,17.54,0,0,1-6,.86A22.23,22.23,0,0,0,70.11,31c-3.06.54-5.74,1.81-8.77,2.51l1.13,2.56c-4.62,1.39-10.66-.57-14.42,4.52,5.05.75,9.55-.6,14,.35.7.15,1.47-.15,1.51.71a1.55,1.55,0,0,1-1.31,1.83c-1.35.23-2.72.37-4.08.52C54,44.5,50.36,45.55,49,49.75a7.07,7.07,0,0,1,2.68,2.15,15.35,15.35,0,0,1-4.06,1c-4,.54-5.57,2.45-4.82,5.61-1.28.4-2.59.75-3.85,1.2-5.23,1.86-11,1.35-16.36,2.84-2.51.7-4.67,2.63-7.23,2.38-2.38-.23-3.89.63-5.72,1.44s-1.84,1.58-1,2.82c7,0,13.73-3.55,20.91-.89-.54.9-1,1.69-1.89,1.59-2.73-.31-5.13.83-7.72,1.1-2.32.24-4.57,3-4,5a99.38,99.38,0,0,1,34-2.19l-2.52,1.51c.27.78,1.51.58,1.43,1.46-.74.9-1.76.58-2.82.46.57-.49,1.19-.93.69-1.53a30.59,30.59,0,0,1-8.81,0c-2.45-.31-5.06-1-7,.94.25,1.06,1.69.36,2,1.43-1.91-.31-3.5.75-5.55.92,0,.35-.21.95,0,1.31,1.57,2.35,6.1,4.53,9.29,3.82,2.41-.53,3.41.19,3.22,1.83-3.54.69-7.07,1.29-10.53,2.08-7.9,1.79-8.2,2-8.93,3.5,6-.54,9.94,3.75,15.32,4.73a5.82,5.82,0,0,1-5.08,1.12c-4.51-1.31-6.38-.13-9,5.32,6.25,2.16,13.08-.83,19.29,1.49A38.41,38.41,0,0,1,34,105.79c-2.67.28-5.48.45-7.86,1.65-1.47.74-2.69,1.83-5.12,1.93,1.53.9,1.37,2.55,2.9,2.63,4.81.24,9.53,1.46,14.4,1,2.23-.2,4,1.65,6.28,1.11-2.75.89-5.36,2.23-8.25,2.28-3.68.07-6.62,1-8.68,3.79-.45.6-1.33,1-.95,1.86s1.31.69,2.14.81c1.93.28,3.72-1,5.69-.36-.92.89-2.41.56-3.62,1.3,1.06,2.41,3.25,1.33,4.94,1.34,2.59,0,4.89-1.16,7.65-1.07,2.28.09,4.63.75,7,.11a7,7,0,0,1,4.31-.14c-10.57,4-21.84,2.7-33.12,1.62.5,2.93,4.34,4.78,9.24,4.74.17,2.33-1.23,3.21-3.88,2.93-2.94-.31-6.14-1.55-8.71,1,1.75,2.11.61,1.65,6.44,2.79,5.37,1.06,10.76,2.38,16.46,1.45,2.41-.39,4.92-.94,7.42-.52,1.27.22,2.54.73,3.8.39,5.85-1.57,12-1.85,17.94-2.22,6.44-.4,12.87-1.39,19.25-1.46,10.88-.11,21.62-1.59,32.47-1.65,6.78,0,13.56-.16,20.33-.27,2.45,0,4.72.84,7.24.71a92.07,92.07,0,0,1,10.21-.23c4.3.27,8.77,1.08,13,1.05,10.79-.07,21.43,1.25,32.15,1.68,1.89.07,3.79.08,5.69.1a42.56,42.56,0,0,0,8.54.34l1.42.16a257.56,257.56,0,0,0,31.16,1.8c3.13,0,6.41-.32,8.08-3.06-.41-1.44-2.34-.15-2.72-1.61,2.69,0,5.48-.51,7.92.1,6.37,1.59,12.7.93,19.07.5,1.67-.11,1.84-1.25,2.15-2.25,9-.48,18-1.28,27-1.32,7.7-.05,15.41-.17,23.12-.27,2.77,0,5.36.83,8.23.71,3.86-.17,7.84-.44,11.6-.23,4.89.27,10,1.07,14.74,1,12.27-.07,24.36,1.24,36.54,1.67,5.94.21,12-.08,17.8.61a330.05,330.05,0,0,0,35.43,1.79c3.56,0,7.29-.32,9.18-3-.46-1.45-2.65-.16-3.09-1.62,3.06,0,6.24-.51,9,.1,7.25,1.6,14.45.93,21.69.51,2.12-.12,2.11-1.54,2.58-2.61s-.25-1.71-1.57-2.26c-2.65-1.11-5.55-1.66-8.32-2.52.83-1.11,2.13-.61,3.22-.74,2-.22,3.81-.86,4.14-2.51,1-5.1,3.52-9.85,5.95-14.59,7.24-14.1,14.49-28.21,20.3-42.7C526.46,57.69,524.77,55.78,517,54.64Zm-347.1-24.4a124.34,124.34,0,0,0-15.32-.33,35.81,35.81,0,0,1-6.42-.45c-2.75-.42-5.64-.11-8.47-.12-2.58,0-5.16,0-7.76-.2A18.63,18.63,0,0,1,141.68,28a75.35,75.35,0,0,0,17.44,0,12.85,12.85,0,0,1,2.77-.09c2.91.29,5.73,1.58,8.79.76l-1.18.65c1.92-.06,3.4.43,5.17-.2C173.36,31.1,171.34,30.38,169.87,30.24Zm72.22,3.54A7.87,7.87,0,0,1,236.75,32a7.17,7.17,0,0,1,2.65,0,20.26,20.26,0,0,0,5.41.5l.68,1.35h0A25.4,25.4,0,0,0,242.09,33.78Zm38.78-8.37c.75,1.64,3.18,1.11,4.33.42,2.18-1.31,2.94,0,4.6.66-3.3,2.77-7.24.9-10.19,1.54-1.12-.39.3-1.27-1-1.41-1.26.13-1.62,2-2.41,1.51-2.17-1.42-4.26,1.05-6.2-.23-.88-.57-1.67-.19-2.62,0a25.53,25.53,0,0,1-5.92.89c1.6-.26,3-1.07,3.17-2.48a1.34,1.34,0,0,0,0-.2,57,57,0,0,0,6.27.13C274.18,26.11,277.25,25.48,280.87,25.41Zm86.72,2.53a163.31,163.31,0,0,0-17.42-.34,46.1,46.1,0,0,1-7.29-.44c-3.13-.42-6.42-.12-9.63-.12-2.94,0-5.87,0-8.83-.2a23.89,23.89,0,0,1,11.12-1.16,95.93,95.93,0,0,0,19.83,0,15.82,15.82,0,0,1,3.15-.08c3.31.29,6.52,1.58,10,.76l-1.35.65c2.19-.06,3.87.43,5.88-.2C371.56,28.8,369.27,28.08,367.59,27.94Zm149.89,38.9c-1.46-2.7.92-4,1.32-5.72C520,63,518.61,64.56,517.48,66.84Z"/></g></g></svg>