<?xml version="1.0" encoding="utf-8"?>
<!-- Generator: Adobe Illustrator 24.1.3, SVG Export Plug-In . SVG Version: 6.00 Build 0)  -->
<svg version="1.1" id="Layer_1" xmlns="http://www.w3.org/2000/svg" xmlns:xlink="http://www.w3.org/1999/xlink" x="0px" y="0px"
	 viewBox="0 0 32 32" style="enable-background:new 0 0 32 32;" xml:space="preserve">
<style type="text/css">
	.st0{opacity:0.1;fill-rule:evenodd;clip-rule:evenodd;fill:none;stroke:#FFFFFF;stroke-miterlimit:10;enable-background:new    ;}
	.st1{fill-rule:evenodd;clip-rule:evenodd;fill:#FFFFFF;}
</style>
<path class="st0" d="M0,16C0,7.2,7.2,0,16,0c8.8,0,16,7.2,16,16c0,8.8-7.2,16-16,16C7.2,32,0,24.8,0,16z"/>
<path class="st1" d="M16,7.5c-2.3,0-2.6,0-3.5,0.1c-0.9,0-1.5,0.2-2.1,0.4c-0.6,0.2-1,0.5-1.5,1c-0.5,0.5-0.8,1-1,1.5
	c-0.2,0.5-0.4,1.2-0.4,2.1c0,0.9-0.1,1.2-0.1,3.5c0,2.3,0,2.6,0.1,3.5c0,0.9,0.2,1.5,0.4,2.1c0.2,0.6,0.5,1,1,1.5
	c0.5,0.5,1,0.8,1.5,1c0.5,0.2,1.2,0.4,2.1,0.4c0.9,0,1.2,0.1,3.5,0.1c2.3,0,2.6,0,3.5-0.1c0.9,0,1.5-0.2,2.1-0.4
	c0.6-0.2,1-0.5,1.5-1c0.5-0.5,0.8-1,1-1.5c0.2-0.5,0.4-1.2,0.4-2.1c0-0.9,0.1-1.2,0.1-3.5c0-2.3,0-2.6-0.1-3.5
	c0-0.9-0.2-1.5-0.4-2.1c-0.2-0.6-0.5-1-1-1.5c-0.5-0.5-0.9-0.8-1.5-1c-0.5-0.2-1.2-0.4-2.1-0.4C18.6,7.5,18.3,7.5,16,7.5L16,7.5z
	 M15.2,9c0.2,0,0.5,0,0.8,0c2.3,0,2.5,0,3.4,0c0.8,0,1.3,0.2,1.6,0.3c0.4,0.2,0.7,0.3,1,0.6c0.3,0.3,0.5,0.6,0.6,1
	c0.1,0.3,0.3,0.8,0.3,1.6c0,0.9,0,1.2,0,3.4s0,2.5,0,3.4c0,0.8-0.2,1.3-0.3,1.6c-0.2,0.4-0.3,0.7-0.6,1c-0.3,0.3-0.6,0.5-1,0.6
	c-0.3,0.1-0.8,0.3-1.6,0.3c-0.9,0-1.2,0-3.4,0c-2.3,0-2.5,0-3.4,0c-0.8,0-1.3-0.2-1.6-0.3c-0.4-0.2-0.7-0.3-1-0.6
	c-0.3-0.3-0.5-0.6-0.6-1c-0.1-0.3-0.3-0.8-0.3-1.6c0-0.9,0-1.2,0-3.4c0-2.3,0-2.5,0-3.4c0-0.8,0.2-1.3,0.3-1.6
	c0.2-0.4,0.3-0.7,0.6-1c0.3-0.3,0.6-0.5,1-0.6c0.3-0.1,0.8-0.3,1.6-0.3C13.3,9,13.6,9,15.2,9L15.2,9z M20.6,10.4c-0.6,0-1,0.5-1,1
	c0,0.6,0.5,1,1,1c0.6,0,1-0.5,1-1C21.6,10.9,21.1,10.4,20.6,10.4z M16,11.6c-2.4,0-4.4,2-4.4,4.4c0,2.4,2,4.4,4.4,4.4s4.4-2,4.4-4.4
	C20.4,13.6,18.4,11.6,16,11.6z M16,13.2c1.6,0,2.8,1.3,2.8,2.8c0,1.6-1.3,2.8-2.8,2.8c-1.6,0-2.8-1.3-2.8-2.8
	C13.2,14.4,14.4,13.2,16,13.2z"/>
</svg>
