<svg width="20" height="18" viewBox="0 0 20 18" fill="none" xmlns="http://www.w3.org/2000/svg">
<path fill-rule="evenodd" clip-rule="evenodd" d="M18.9226 0.969691C19.1489 1.17342 19.2256 1.47584 19.1199 1.74778L13.2865 16.7478C13.1737 17.038 12.8754 17.2369 12.534 17.2494C12.1926 17.2619 11.8772 17.0856 11.7385 16.8046L8.53531 10.3182L1.3282 7.43538C1.01597 7.31049 0.820082 7.02671 0.83401 6.71945C0.847938 6.41219 1.06886 6.14371 1.39136 6.04213L18.058 0.792127C18.3602 0.696948 18.6962 0.765962 18.9226 0.969691ZM10.1606 9.91612L12.4078 14.4667L16.3404 4.35429L10.1606 9.91612ZM15.1619 3.29362L3.92588 6.83297L8.98209 8.85546L15.1619 3.29362Z" fill="white"/>
</svg>
