<?xml version="1.0" encoding="utf-8"?>
<!-- Generator: Adobe Illustrator 24.1.3, SVG Export Plug-In . SVG Version: 6.00 Build 0)  -->
<svg version="1.1" id="Layer_1" xmlns="http://www.w3.org/2000/svg" xmlns:xlink="http://www.w3.org/1999/xlink" x="0px" y="0px"
	 viewBox="0 0 32 32" style="enable-background:new 0 0 32 32;" xml:space="preserve">
<style type="text/css">
	.st0{opacity:0.1;fill-rule:evenodd;clip-rule:evenodd;fill:none;stroke:#FFFFFF;stroke-miterlimit:10;enable-background:new    ;}
	.st1{fill-rule:evenodd;clip-rule:evenodd;fill:#FFFFFF;}
</style>
<path class="st0" d="M0,16C0,7.2,7.2,0,16,0c8.8,0,16,7.2,16,16c0,8.8-7.2,16-16,16C7.2,32,0,24.8,0,16z"/>
<path class="st1" d="M15.5,13l0,0.6L15,13.5c-2-0.3-3.8-1.1-5.3-2.6l-0.7-0.7l-0.2,0.5c-0.4,1.2-0.1,2.5,0.7,3.3
	c0.4,0.5,0.3,0.5-0.4,0.3c-0.3-0.1-0.5-0.2-0.5-0.1c-0.1,0.1,0.2,1.1,0.4,1.5c0.3,0.6,0.9,1.1,1.5,1.4l0.5,0.3l-0.6,0
	c-0.6,0-0.6,0-0.6,0.2c0.2,0.7,1.1,1.5,2.1,1.9l0.7,0.2l-0.6,0.4c-0.9,0.5-1.9,0.8-3,0.8C8.4,20.9,8,21,8,21c0,0.1,1.4,0.7,2.2,1
	c2.4,0.7,5.2,0.4,7.3-0.8c1.5-0.9,3-2.7,3.7-4.4c0.4-0.9,0.8-2.6,0.8-3.4c0-0.5,0-0.6,0.7-1.2c0.4-0.4,0.7-0.8,0.8-0.9
	c0.1-0.2,0.1-0.2-0.5,0c-1,0.3-1.1,0.3-0.6-0.2c0.3-0.4,0.8-1,0.8-1.2c0,0-0.2,0-0.4,0.1c-0.2,0.1-0.6,0.3-1,0.4l-0.6,0.2l-0.5-0.4
	c-0.3-0.2-0.7-0.4-1-0.5c-0.6-0.2-1.4-0.1-2,0C16.3,10.3,15.4,11.6,15.5,13z"/>
</svg>
