<svg width="40" height="40" viewBox="0 0 40 40" fill="none" xmlns="http://www.w3.org/2000/svg">
<path fill-rule="evenodd" clip-rule="evenodd" d="M21.0784 0.0245074C26.0315 0.266894 30.6469 2.30067 34.1721 5.81307C37.9323 9.55947 40.002 14.5394 40 19.8354C39.9955 30.7642 31.0603 39.6563 20.0838 39.6563H20.0755C16.7422 39.6551 13.467 38.8229 10.558 37.2437L0 40L2.82556 29.7288C1.08266 26.7229 0.165559 23.3132 0.166997 19.8197C0.171404 8.89124 9.10587 0 20.0835 0L21.0784 0.0245074ZM11.0471 33.6554L11.6517 34.0124C14.1932 35.5135 17.1066 36.3077 20.077 36.3088H20.0837C29.2077 36.3088 36.6336 28.9182 36.6372 19.8343C36.6389 15.4323 34.9188 11.2932 31.7934 8.17925C28.668 5.06513 24.5118 3.34916 20.0903 3.34773C10.9593 3.34773 3.53331 10.7375 3.52967 19.8208C3.52843 22.9338 4.40356 25.9654 6.06061 28.5883L6.4542 29.2117L4.78192 35.291L11.0471 33.6554ZM30.1174 24.5488C29.993 24.3421 29.6613 24.2182 29.1637 23.9703C28.666 23.7224 26.2194 22.5243 25.7633 22.3588C25.3071 22.1938 24.9753 22.1112 24.6436 22.6068C24.3119 23.1026 23.3582 24.2182 23.0678 24.5488C22.7776 24.8793 22.4873 24.9207 21.9898 24.6728C21.4921 24.4249 19.8886 23.9018 17.9878 22.2146C16.5084 20.9013 15.5097 19.2795 15.2194 18.7837C14.9292 18.2879 15.1884 18.0198 15.4375 17.7729C15.6614 17.551 15.9353 17.1944 16.1841 16.9052C16.4329 16.6161 16.5158 16.4094 16.6817 16.079C16.8476 15.7484 16.7646 15.4593 16.6402 15.2114C16.5158 14.9634 15.5206 12.5256 15.1059 11.5339C14.7019 10.5683 14.2916 10.699 13.9862 10.6838C13.6963 10.6695 13.3642 10.6663 13.0325 10.6663C12.7007 10.6663 12.1616 10.7902 11.7054 11.2861C11.2493 11.7819 9.96367 12.9801 9.96367 15.4177C9.96367 17.8556 11.7469 20.2104 11.9957 20.541C12.2445 20.8717 15.5048 25.8739 20.4968 28.0193C21.6841 28.5297 22.6111 28.8343 23.3338 29.0626C24.526 29.4395 25.6107 29.3864 26.4682 29.2588C27.4243 29.1167 29.4125 28.0607 29.8272 26.904C30.2418 25.7469 30.2419 24.7553 30.1174 24.5488Z" fill="white"/>
</svg>
