<?xml version="1.0" encoding="utf-8"?>
<!-- Generator: Adobe Illustrator 24.1.3, SVG Export Plug-In . SVG Version: 6.00 Build 0)  -->
<svg version="1.1" id="Layer_1" xmlns="http://www.w3.org/2000/svg" xmlns:xlink="http://www.w3.org/1999/xlink" x="0px" y="0px"
	 viewBox="0 0 32 32" style="enable-background:new 0 0 32 32;" xml:space="preserve">
<style type="text/css">
	.st0{opacity:0.1;fill-rule:evenodd;clip-rule:evenodd;fill:none;stroke:#FFFFFF;stroke-miterlimit:10;enable-background:new    ;}
	.st1{fill-rule:evenodd;clip-rule:evenodd;fill:#FFFFFF;}
</style>
<path class="st0" d="M0,16C0,7.2,7.2,0,16,0c8.8,0,16,7.2,16,16c0,8.8-7.2,16-16,16C7.2,32,0,24.8,0,16z"/>
<path class="st1" d="M22.7,10.5c0.7,0.2,1.3,0.8,1.5,1.5c0.4,1.4,0.4,4.2,0.4,4.2s0,2.9-0.4,4.2c-0.2,0.8-0.8,1.3-1.5,1.5
	c-1.3,0.4-6.7,0.4-6.7,0.4s-5.3,0-6.7-0.4c-0.7-0.2-1.3-0.8-1.5-1.5c-0.4-1.4-0.4-4.2-0.4-4.2s0-2.9,0.4-4.2
	c0.2-0.8,0.8-1.3,1.5-1.5c1.3-0.4,6.7-0.4,6.7-0.4S21.3,10.1,22.7,10.5z M14.4,13.9v5.3l4.3-2.7L14.4,13.9z"/>
</svg>
