<svg xmlns="http://www.w3.org/2000/svg" viewBox="0 0 1166.5 129.13"><defs><style>.cls-1{fill:#59d4ff;}</style></defs><title>boton agendar cita</title><g id="Capa_2" data-name="Capa 2"><g id="Capa_1-2" data-name="Capa 1"><path class="cls-1" d="M1155.35,90.05c.23,2.41-1,4.52-1.6,3.61,1.53,4.92-.21,5,2.75,5.66,1.45,3.16-.56,6.52-1.76,2.93l1.81,9.1.46-5.44c2.46,1.48-.73,8.7,2.13,10.42l-.24-9.85.82.49c-.88-2.24-.51-6.6-.17-8.12.4.24,1.06.09,1.13,1.83.19-11.9-4.29-3.21-5.11-13.08A7.67,7.67,0,0,1,1155.35,90.05Z"/><path class="cls-1" d="M1161.36,79.94l-3.08-4.15.8-7c-1.06-.08-1.92-5.15-2.86-1.72a10.33,10.33,0,0,1,.39,3.07c-2.3-.77-1.15-9.26-3.48-7.21.61,5.51.11,6.35,2,9.74-.21,5.05-.74,8.72-1.58,11.08.35,1.5,1.76,1.71,2,3.61,0-.42,0-.81-.09-1.29l3.46-.21c-.73-1.58-.38-3.08-.46-4.85l4,8.15c3.24-2.63,1.34-10.63,2.68-13.83C1162.28,79.34,1163.74,72.21,1161.36,79.94Z"/><path class="cls-1" d="M14.63,101.53a.47.47,0,0,0-.37,0l1.1,1.76v0C15.11,102.65,14.87,102.07,14.63,101.53Z"/><path class="cls-1" d="M2.42,48.69l2.06,8.67c-1-1.16-.68,3-1.82,1.2.16.66.54,3.76,1,2.91L3.64,59.7c2.83,4.58,3.92,1.81,6.08,9.39,1.68-4.71.14-6.77-1.15-9.26-.19-.85-.28-1.56-.39-2.27l-4-7.22Z"/><path class="cls-1" d="M758.48,120.11l-.24.09C758.46,120.17,758.5,120.14,758.48,120.11Z"/><path class="cls-1" d="M757.25,120.55l1-.35C757,120.37,752.41,120.54,757.25,120.55Z"/><path class="cls-1" d="M1160.92,23.36c-.09.59-.2,1.26-.28,1.79A6.7,6.7,0,0,0,1160.92,23.36Z"/><path class="cls-1" d="M255,5.73l6,0C258.63,5.73,256.71,5.72,255,5.73Z"/><path class="cls-1" d="M389.78,1.35,398.55,1C395.09,1.06,392.37,1.18,389.78,1.35Z"/><path class="cls-1" d="M1103.72,6.15h-.29l-1.39.07Z"/><path class="cls-1" d="M660.14,4.45c1.34.12,2.84.22,4.89.3A29.73,29.73,0,0,0,660.14,4.45Z"/><path class="cls-1" d="M388.16,1.41l.53,0,1.09-.08Z"/><path class="cls-1" d="M195.59,1.86,191.75,2C193.56,2,194.67,1.92,195.59,1.86Z"/><path class="cls-1" d="M204.06,5.62c-1.38,0-2.71.08-3.74.13Z"/><path class="cls-1" d="M9.34,26.57l.49,3.12A9.68,9.68,0,0,0,9.34,26.57Z"/><path class="cls-1" d="M182.66,4.76c-.47.06-.94.12-1.26.18C182.52,4.89,183.06,4.82,182.66,4.76Z"/><path class="cls-1" d="M1150.69,43.77l0-.19-.4-.07Z"/><path class="cls-1" d="M1156,54.11a10.6,10.6,0,0,0-.28-2.74C1155.78,52.26,1155.87,53.19,1156,54.11Z"/><path class="cls-1" d="M777.6,6.59c2.15.19,7.17.42,4.82.64C786.52,7,786.25,6.28,777.6,6.59Z"/><path class="cls-1" d="M1161,44.21c.62,5.52,1.38,11.7.35,16.23l-2.2-1.9c1.94-5.12.49-8.28.69-13.32l-1.16,11.31c-1.84,5.3-2.26,1.76-2.66-2.42,0,1-.16,2-.55,2.22.82.49,2.6,12.42,3,2.39,2.54.38,1.17,6.43,1.8,9.11.6-1.94,1.64,1,2.55.38a14.18,14.18,0,0,1-.86-5.1c1.16-1,2,2.32,1.52,4.92,1.35-3.21,2,4.06,3-.47C1165.6,57.87,1164.68,51,1161,44.21Z"/><path class="cls-1" d="M1146.76,42h0C1146.73,41.88,1146.73,41.89,1146.76,42Z"/><path class="cls-1" d="M77.17,2a1.67,1.67,0,0,0-.43-.11C75.41,1.92,76.05,2,77.17,2Z"/><path class="cls-1" d="M763.4,2.75c-3,0-5.2,0-7.09,0C758.48,2.82,760.83,2.82,763.4,2.75Z"/><path class="cls-1" d="M893.42,11.29c-1.74,0-3.49,0-5.23,0l-1,.1C888.23,11.47,891.68,11.35,893.42,11.29Z"/><path class="cls-1" d="M499.61,11.83c1.86-.06,3.57-.14,4.83-.32A45.22,45.22,0,0,0,499.61,11.83Z"/><path class="cls-1" d="M358.16,5.18h0Z"/><path class="cls-1" d="M1159.42,27.55l.13.38A2.84,2.84,0,0,0,1159.42,27.55Z"/><path class="cls-1" d="M1157.74,36.54c.69-3,2.7,1.08,4,.72-.45-4.84-2.83-4.56-3.28-9.4.28-1.25.7-.86.94-.31l-.47-1.41-.3-.89-.3-1.2c.33-.13.61-3.12,1-5.29s.89-3.54,1.65,0c0,1.08-.06,3.08-.09,4.63.72-5.22,1.69-12.32,2.48-18.08-14.13-.36-25.65-.76-24.31-1.22-7.74-.11-10.68,0-14.69,0-2,0-4.31,0-7.65,0l-5.45,0L1106.38,4c-7.06.66.56,1.34-16.06,1.79l13.11.33c2.7-.13,4.94-.29,7.89-.39l-13.65.07c8.62-.3,7.09-.66,9.62-1.29h3.77l4.93,0c3.5,0,6.67.07,9.55.12,5.77.1,10.39.25,14.38.41,8,.31,13.46.68,21,.83-11,.5-26.88.35-22,1.15a156.38,156.38,0,0,0-15.87,0c-2.26.09-4.55.18-7.31.21h-2.18l-2.17,0c-1.22,0-2.57-.07-4.1-.16l2.35-.21c-9.89.62-11.26-.15-19.43.42.62-.16-.47-.26-1.52-.36-17.77.36,5.38.49-12.44,1.26-15.82-.12-5.14-1.31-9.5-1.7,26.54-1.08-.54-1.34,28.17-2.22-.1-1.08-11.37-1.22-26.72-1.08,10,.46-6.37,1.58,6.93,2.33-23,.54-21,2.64-46.67,1.65l.62-.16-10.54.78L1004,7.38c9-1.14,20.08-.58,27.16-1.24-17.67-1.13-23.72,1.12-44.11,1-17-1.29,20.75-.73,20.66-1.81-4.09.28-15.22-.28-13.9-.59,19.08.4,11.62-.68,32.89-.08-10.37.36,1.58.35-.36.82,3-.38,22.94-.54,37-.36,3.21-.79-12.21-.65-21.09-1-16.83.86-34.27-.69-47.21.31-18.16.1-1.36-.76-2.46-.86-16.3-.37-7.07.66-12.26.84-24.63.6-27.39-.93-44.94-1-14.61,1.06-50.18.69-75.08.62,3-.37-.3-.66-1.8-1-14.83,1.48-9.49.88-28,1.81l15.68.53c-12.58.17-22.7,1.21-34.23.4,15.31,1.35-20.26,1-29.54,1.45-12.84-.49-25.72.5-32.74-.33l1.74-.06-18.65-.16L735,5.39c-12.81-.5-28.57.46-24.16.85-13.46-.33-5.52-.49-7.47-1.09,7.59-.4,23.92-1.52,28.59-.47a26.49,26.49,0,0,0-4.58,0c35,.59,11.42-1.58,28.9-1.91-9.11-.09-15.9-.72-25.64-.38-4.51,0-22.9.54-32.17,1,12.74-.59,19.28,0,29.27.45-8.47-.11-9.85.62-17.11.2L713,3.86l-9.25.46C702.39,3.56,678.4,4,692.45,3.1c-12.58.17-4.33.69-15.77,1l22.58.29-.38.82c-8.24.56-10.23,0-19.33,0l.78.92-16.12-.78c2,.6-10.39.36-13.84.49-8.9-.37-3.14-1.79-18.26-1l1.09.1c-8.66.3-13.78.49-26.18.24.67-.15,4.09-.28,5.78-.34-17.33-.47-45.14.92-53-.42,1.4-.73,8.63-.31,9-1.13,26.72,1.08,18.72-1.34,50.2-.69,1.45,1.84,26.54-1.08,32.52.74-12.35-.24-28.74.88-26.56,1.08,11.37-.11,27.31-.15,35.23,0-7-.6-4.73-1.62.34-2.25-18.39.51-51.81-.74-77.83-.9l2.92,1.11c-22.47.8,2.73-1-14.81-1.1L563,2.13l-1.1-.1L549,3c9.09,0,4.91-.85,14.91-.39,8.9.36-.37.82-2.91,1.46-6.09-.33-27.73-.11-14.37-.85L522.92,4.36c.17-.41,5.35-.6,7.77-.81l-17.14.19.62-.16c-13.8.49-33.08.5-43.63,1.28,23.49.79-11.2.93-9.19,1.54-8.45-.11-11-2.05,6.9-2.82,4.82.65,17.13-.19,26.19-.24-11.69-.4-15.33.13-24.48.18,6.47-.49-12.16-.65-12-1.06,1.23-.32,5.05-1.27,16.8-.87,17.54.06,1.83,1,7,.84,4.65,1,24.46-.19,35.09.11,1.12.1-2.36.22-4.09.28,9.14,0,28.4,0,29.81-.78l-22.88.54c-5-.23,7.06-.66-.09-1.08-5.2.18-11.44.27-18.21.1l1.27-.32c-13.87-.59-35.56-.37-51.53-.07-3.58,1.61-11.91,2.59-18.93,4.32-23.77,0-48.67,0-74-.35.41.34.1.68-1.11,1-7.17-.42-20.37-.09-20-.92-7.71.82-29.56,1.46-25.38,2.26l-2.9,0c-9.18-.89-23-1.59-47.9-1.77-4.87,0-5.56.53-4.46,1.31-5.26-.24-10.2-.45-15.19-.48A112.35,112.35,0,0,1,255,5.73L216.3,5.46l3-.38-15.24.54c8.6-.21,21.88,0,18.63.83-17.3.61-27.1-.26-41.76.8.09-1.49-4.91-1.72,0-2.57a14.45,14.45,0,0,1,1.73.08A262.52,262.52,0,0,1,209,2.88c-32.12-.49-23.84,0-52-.33-2.46-.86,25.94-.92,19.39-1.5l26.45.42c-4.48.06-5.05.26-7.19.39,18.23-.62,24.85.17,38.56-.82,8.69.4-13.52.66-4,.8a146.14,146.14,0,0,0-19.85,1.8c20.83.34,11.83-1.09,29.56-1.45l13.26.75c8-.15-2.62-.45-3.09-.7,9.74-.21,13.45.33,20.82.34-2.17-.19-7.14-.42-5.9-.74,12.23.66,24.27.23,35.61,1.45C294,2.71,308,1.81,313.26,1.62L289.93.42c-29.62.37-48.07-.2-80.06.39l1.89-.47c-50.38-1.47-41.82,2.29-84.91,2.33-1.19-1.18-19.93.16-18.3-1,13,.08,10.37-.37,6.66-.91-7.55.4-12.47,1.25-27,.82C93.55,1,80.74.51,95,.28,85.15.15,77.51.12,71.08.24c-1.63,0-3.09.07-4.67.13-2.84,0-5.55.11-8.15.19-5.2.15-9.95.35-14.41.61-15.14.26-23.48.3-29,.23S6.73,1.14,3.92,1A6.45,6.45,0,0,0,2.67,4.4a62.37,62.37,0,0,0,0,11.32L1.55,12,2,26.11l.37-.63.19-.32c.06-.14.13-.39.19-.58l.75-2.39.23,2.16,0,.54,0,.25,0,.15.11.56.45,2.28.91,4.55C7,38.26,7.2,30.4,8.43,31.12L6.22,29.24a13.78,13.78,0,0,0,0-2.95c-.11-1.52-.23-3-.33-4.43-.22-3.39-.31-6.16.47-6.72.17,5.47.69,7.55,1.27,8.78.15.31.3.56.45.81l.23.36a1.61,1.61,0,0,0,.22.23,3.24,3.24,0,0,1,.78,1.25l-.22-1.43-.23-2.48-.45-5,1.66-3c0-4.2.11-7.94,0-11.34,11.43,0,20.9-.16,29.05-.57-5.52-.16-9.68,0-13.57.13s-7.58.25-12.85,0c4.94-.53,15.78-.83,29.48-1,6.85-.1,14.4-.18,22.29-.26l4.16,0L72,1.52l6.64-.13c.47.26,6.1.33,3.71.55C82,2,78.89,2,77.17,2c1.33.48-8.56.79,8.11,1.07-6,.76-18.45,2-18,2.27l-2.47,0-3,0-6.23.05c-4.23,0-8.58.06-12.86.06-8.55,0-16.8,0-23.13-.17l.59-.15c-1.61,0-3.41,0-5.34,0,.08,2.77.45,6.33.59,9.19s0,5.1-.84,5.39c.1.79.25,1.92.39,3,.08.55.15,1.1.22,1.6,0,.25.08.49.12.71l.13.4c.18.46.37.69.59.45a2.34,2.34,0,0,0,.36-.75c.12-.51.25-1.35.39-2.38.19,2.66.39,3.77.58,5.4L18,32.85c-3.53-1.54-4.25,7.18-7.14-2,.08.31.5,3.69,1.14,9.09-.12-.09-.23-.15-.35-.25A1.58,1.58,0,0,0,11,39c.1-1.09-.06-1.76.6-1.94C9.07,33.8,8.43,38.56,8.23,43.6l2,1.2c-1.12,4.35-2.9,7-2,12.76l7.44,13.57c.15,1.31.31,2.65.47,4-1.16,1.77-.29,7.74-2.61,5.39-.91.61-1.39-1.39-1-4,.25-.4.41.25.66-.17-1.23-.74-2.71-1-4,2.12.27-3.24.51-3.66-.37-5.91L8.51,75.8c-.45-4.84-3.26-12.26-5-12.15,2.45,1.48,0,4.59-.4,7.2-.47-2-1.83-6.25-2.11-3,1,1.15,2.38,10,3.34,3.73C5,74.25,6.19,77.83,5.5,80.85c-1.2-3.55-2-1.22-3.68-2.21,1.45,3.16,3.17,3.06,4,3.57-1,4.51-2.64,7.69-3.78,11A23.47,23.47,0,0,0,.81,98.48a20.37,20.37,0,0,0-.1,3.07c.11,1.56.23,3.23.37,5.06.08.65.07.22,0-.76,0-.78-.06-2-.1-3.23,0-1.59.11-3.23.93-2.74a11.93,11.93,0,0,1,.68,2.56l.07.58,0,.61c0,.7,0,1.38,0,2a46.85,46.85,0,0,1-1,7.22c-.95,4.58-2.1,9.32-1.51,15.57L2.89,124c.11.88.22,2.08.33,4,10.44-.13,26.52-.25,35.46-.31,1.27.17,10.21.44,15.92.71s8,.53-5.21.69l10,.08h8c2.71,0,5.06-.08,7.17-.17,4.23-.17,7.53-.46,11-.76a271.39,271.39,0,0,1,30.64-1.07c-15.18-.27-16.93-.21-28.86-.2,12.74-.58,2-.47,3.36-1.2,7.64.68,32.3.08,15.5.94,10.17,0,30.54.14,35.25-.3l-8.91-.36c14.72,0,29.2-.62,35.21-1.38-18.25.1-17.65,1.44-40.86,1.31-25.16-.73,6-.75-10.52-1.79l-17.92.77,8.45.1c-2.73,1-27.73-.1-25.47,1.18-4.55-.25-8.31-.4-11.68-.49l-2.48-.07H65.5l-2,0-7.9-.08c-10.4-.09-21.44-.17-37.18-.62-9,.43,3.37.45,12.94.52-10.17,0-15.6.39-23.06.59a19.22,19.22,0,0,1,.38-7.81c.22-2.31-.35-2.55-1-1.18a23.19,23.19,0,0,0-1.27,8.62c.06-3.58,0-7-.12-10.59s-.12-7.26.07-11.2l-2.1,8.34,0-8.61L3,111c0-2.09,0-4.23-.08-6.38v-3.89c0-2.25.15-4.47.35-6.57C3.71,89.93,4.51,86.26,5.88,84,7,87.74,7.28,92.8,7.77,97.45c.14,1.17.28,2.31.42,3.39s.38,2.35.56,3.41A26.07,26.07,0,0,0,10.67,112c.5-1.49-.12-3.93-.5-6.61l-.13-1-.08-1a5,5,0,0,1,0-1.16,2.88,2.88,0,0,1,1.2-2L9.21,98c-.64-2.68-1.41-8.85.57-9.39,1.43,7.32,3.16,9.23,4.85,13,.42,0,.63.7.73,1.76l0,.11,0-.06c0,.8.05,1.74.08,2.74s0,2.12,0,3.21a45.05,45.05,0,0,0,.34,5.8c-.43,4-1.57,1.64-2,1.28a41.19,41.19,0,0,0-.57,7.7c13.66,0,26.75-.44,39.4-.77l9.52-.22,7.86-.16c4.34-.07,8.89-.07,13.79.06.24.67,18.9.82,13.09,1.16,14.07.18,21.83-.63,31.07-1.1,2,.61,21.47.19,14.39.85l12.89-1c8.89.36,27.29-.15,30.38.55,9.74-.21,2.72-1,16.19-.71-.62.16.45.25-2.36.22,6.07.33,20.86.35,27.28-.15-9.51-.21-2.19-.2-13.48-.34.26-.41,12.92-1,25.74-.5-17.44,1,13.75,1,5.57,1.56,27.71.1,43.62-1.27,66.72-2.23,27.28-.15,61.12.28,82.48-.61l-2.81,0,12.73-.58c7.36,0,.11,1.08,11.52.81-3.83.94-19.9.16-31.54.84,20,.92-18.54.93-5.26,1.68,7.63-1.9,42.68-.29,60.11-1.31,16.93.21-7.75.81.66.92l5.41-.6c6.7.17,8.92.36,8.74.78,18,.31,38.57,0,53.65-.82-19.47.42,6.6-.91-12.63-.91,5.82-.34,18.35-.51,30.24-.53-11.43.27,15.31,1.36-10.07,1,3.54,1,12.54-.18,23.85,0-5.81.34-18.63.93-17.48,1,17-1.28,54.66.77,61.25-.14,12.33-.84,31.32-1.51,46.39-2.31,15,.68,31.67.23,48.57.45l-3,.37c9.56.21,24.44-.19,38.53,0l3.15.7c9.7-.2,27.86-.31,42.65-.29.16-.41-13.5-.33-7-.83-7.38,0-13.63.08-11,.52-7.37,0-7.66-.67-13.72-1l28.53-.47a21.45,21.45,0,0,1,3.24.17l2.1-.76c7.4,0,9.54.2,8.29.51,16-.29,21.6-1.3,38.51-1.09a212.13,212.13,0,0,1-23.79,1.11h19.3c-8.82.72-42.2.54-36.48,1.7,21.2-.48,52.12-1.17,70.66-2.1,9.86.88,24.47-.19,40.73.19,2.2.19,7.2.42,4.18.79l-4.54,0c21.52.19,46.11-.41,65.12-1.09l9.79.88c32.75.33-6.17-1.41,27.38-1.65,8.09.93,41.2.44,42.56,1.2,6.28-.08,9.12,0,9.9-.62-5.64-.07-18.17.11-11.06-.55,11.44-.27,16.89.21,26,.16-.62.16-7.13.66-3.62.54,22.27-.39,63.65-.36,84.76-1.92-8,.15-8.85.72-19.5.42.18-.41,5.82-.34,8.17-.56-1.33-.77-11,.53-22.09,0l18.59-.93h31.81V12.3h-6c2.26-.12,4.5-.22,6.69-.28a31.05,31.05,0,0,1,.22,7.25,32.6,32.6,0,0,0,0,3.7,14,14,0,0,0,.76,3.69c-.41-.24-.57-.91-.66.18-.4,7.2,3.44,10.07,1.66,15.85l-1.22-.72c.14.49,1.15,3.91,2.51,3.23-.45-4.85-1-5.77-.65-10.1a19.1,19.1,0,0,1,2.05,8.48l2.15.31c2.27,3.66-1.06,7.38,1.21,11l1.44-4.27a3.61,3.61,0,0,1,.22.73c-.22-1.94-.51-3.6-1-4.06C1153.51,40.88,1156.58,37.58,1157.74,36.54ZM831.24,10.91a13.29,13.29,0,0,1-2.37.23c19.31,0,21-.07,36.38-.21l-4.74.44c2.72.62,15.19,0,27.68-.1A116,116,0,0,1,904.88,11l-1.93.48c2.19.42,14.57.44,28.51.45l-4.11.36H796.3C807.14,12,818.82,11.51,831.24,10.91Zm-274.17.82,28-1.85-.65.15,24.48-.18-3,.37,14.39-.64c-.34.82,4.42.38,3.58.95,9,1.45,32-.59,51.55.07l-3,.38c10.58-.78,36.83,0,53.72.26l-.6.16c-7.83.25-10.87.59-9.8.9H691.64c-.49-.09-1.83-.21-3.71-.37-3.36.19-7.56.3-11.83.37H639.49c1.28-.18,3.64-.34,6-.5l-47.81.48s0,0,0,0H556C557.47,12.14,557.05,12,557.07,11.73Zm-212.81-2,1.28.77c30,.29,51.26-1.68,82.24-1.29-4.28.7-16,.3-14.42.65,18.63.15,16.08-1.79,34.36-.81-26.19.25,16.3.37-7.28,1.07,32.83-1.16,67.84.44,89.46.22-5.44-.49,8.85-.72,9.47-.88,5.65.07,3.74.55-.82.57,11.15.43,13.09,1.07,11.23,1.68L527,11.8c4.07.11,7.11.32,10,.5H501.92c-2.19-.15-3.34-.31-2.31-.47-7.8.22-19.33-.41-23.53-.26,8.08.31,6.52.53,2.09.73H465.48c.11-.22,2.41-.45-1.94-.56l-18.19.1,15.84.12-1.88.34H344.23a135.16,135.16,0,0,1-18.49-2.25Zm-93.64,1.56-1.73,0L266.45,11c1.64.67,2.32,1.17.65,1.3H241.56c-2.06-.17-5-.31-8.27-.4Zm-18.92,1H211.39C213.45,11.92,223.5,12.05,231.7,12.3Zm-204.77-1c0-.45,0-.91.05-1.4l35.15.25,30.7.26-2.66-.45c6.75.17,12.15-.43,15.86.12.09.05-2,.25-5.23.53s-7.8.64-12.65,1l-9.51.71H67.55C64.8,11.73,50.1,10.92,27.36,10Zm6,58a9.66,9.66,0,0,1-.29,2.85c.08-1.14.16-2.24.23-3.33ZM31.47,100l-.84-1.53q.78-10.26,1.46-19.27a22.68,22.68,0,0,1,.66,7.15,10.84,10.84,0,0,0,.55-1.81V99.79a21.07,21.07,0,0,1-1-8C32.16,92.23,31.86,95.42,31.47,100ZM543,116.76l3.9-.43h9.61C556.1,116.68,555.44,117.18,543,116.76Zm21.6-.23-2.34-.2h8.64C569.12,116.46,567,116.54,564.57,116.53ZM1138.79,12.3h-5.47l10.11-.35Z"/><path class="cls-1" d="M397.7,4.18l-7.53.41c14.11.18,19.46-.42,25.29-.76-.66.16.43.25,2.61.45,12.56-.18,19.17-1.09,12.69-1.67l-4.15.28-8.7-.78c-3.3,1.51-28.92.65-43,1.32,9.66-.66,18-2.05,30.41-1.14L404,1.52c10.8-.1,19.54.67,25.53-.09L417,1.61l.22-.42c-8.92.06-20.27.7-28.49.24a309.1,309.1,0,0,1-33.34,1.14l.64-.16c-13.1,1.41-36.5-.87-46.4-.25-5.72,1.42,21.25.6,27.79,1.18-8.15.56-16.88-.21-9.88.62-19,.67-11.37-1.22-27.09-.26l8.91.36c-7.06.66-18.81.26-25.93.92-1,1,11.95,0,25.42.32l-6,.75,27-.82c8-1.23.55-1.23,17.38-2.1,5.93.53,10.18,1.3,11.1,2C364.32,4.42,380.21,4.13,397.7,4.18Z"/><path class="cls-1" d="M1150.4,47c.73,1.59.61,5.51,2.18,4.74C1150.85,51.86,1152.32,44.75,1150.4,47Z"/><path class="cls-1" d="M1149.79,53l.06.61A4.84,4.84,0,0,0,1149.79,53Z"/><path class="cls-1" d="M1148.71,51.71c.36.24.91.13,1.08,1.24l-.38-4.24Z"/><path class="cls-1" d="M1027.32,3.44c-.94-.51-7.39,0-10.85.11C1019.28,3.58,1023.22,3.72,1027.32,3.44Z"/><path class="cls-1" d="M885,125.23c-22.75.13-43.75.2-79,.49Z"/><path class="cls-1" d="M755.87,5.73l9.16,1c21.22-.48,30.65-1.36,52.27-1.58C788.87,4.16,779.75,6.78,755.87,5.73Z"/><path class="cls-1" d="M759.22,4.53c14.3-.24,6.66-.91,19.64-.83l-6.35-1C776,3.66,756.14,3.83,759.22,4.53Z"/><polygon class="cls-1" points="678.13 3.34 667.49 3.03 675.78 3.55 678.13 3.34"/><polygon class="cls-1" points="601.45 3.61 611.82 3.24 610.79 3.15 600.38 3.52 601.45 3.61"/><path class="cls-1" d="M356.79,1.84C371.21,2,369,1,377.66.81,361.35.92,358,.66,338.51.87,353.69,1.14,357.62,1.27,356.79,1.84Z"/><path class="cls-1" d="M377.66.81l5.69,0C381,.75,379.22.77,377.66.81Z"/><path class="cls-1" d="M316,.58c2.81,0,7.32,0,9.54.2C326.33.21,313.17.54,316,.58Z"/><path class="cls-1" d="M388.66,12l1.08,0Z"/><path class="cls-1" d="M374.53,11.78c1.42.32,9.73.17,14.13.25C383.48,11.85,379.13,11,374.53,11.78Z"/><path class="cls-1" d="M277.69,3.83c4.09-.28,9.62-1.29-5.27-.9C275.23,3,279.56,3.35,277.69,3.83Z"/><polygon class="cls-1" points="359.34 11.5 346.79 11.68 348.95 11.87 359.34 11.5"/><path class="cls-1" d="M106.08.83l7.57-.4L104.2.31C106.9.46,102,1.21,106.08.83Z"/><path class="cls-1" d="M102.37.28l1.83,0C103.79.28,103.21.27,102.37.28Z"/><polygon class="cls-1" points="39.96 2.21 42.1 2.31 64.3 2.14 39.96 2.21"/><polygon class="cls-1" points="2.95 27.28 2.46 28.11 3.4 32.11 3.9 31.27 2.95 27.28"/><path class="cls-1" d="M269.78,124.26l3.46-.13C271.78,124.16,270.66,124.2,269.78,124.26Z"/><path class="cls-1" d="M428.25,126.1c5.8-.35,14.28-.24,19.33,0,1.88-.48-5.32-.9-4.48-1.47-21.3-.6-24.56,1.68-45.38,1.34.82-.57,7.26-1.07-6.37-1l3.46-.12c-21.82.64-17-1.29-30.73.28l.36-.83c-9.9.62-29.16.63-40,.74l.65-.16c-30.45.94-17.09.2-51.28.6l15.73-1c-11.79-.39-14.45.65-22.92.55.5-.13-.71-.56,3.18-.79l-38,1.34c-9.9.62,2,.61,3.55,1-3.67.53-21.62.22-22.56-.29,2.41-.22,12.14-.43,6-.75l-14.21,1.31c-18.9-.82,14.37-1.72,23.7-2.19-19.25-.17-25,.7-45.44.69,6,.12,9.86.45,13,.73.7.92-18.39.51-32,.59,8.68.4,3.66.74-2.67,1.1-1.13,0-1.89.08-2.43.14l-2.15.13h1.64c-.12.11.25.23,1.42.4,11.45-.27,20.21.5,27.57.52-7.28-1.51,25.1-.35,34.37-.81l10.69-.15h4c.81.17-.33.38-6.43.67,5.09-.29,22.07-.19,20.5-.67l38.76,0c1.21.06,2.42.13,3.31.24,1.34-.09,1.57-.17,1.39-.25l168.86-.09c-8.33-.12-15.53-.46-24.12-.63C451.45,126.22,424.47,127,428.25,126.1Z"/><path class="cls-1" d="M175.2,125.3c2.84,0,5.28,0,7.63,0C180.64,125.29,178.14,125.27,175.2,125.3Z"/><path class="cls-1" d="M474.55,127.84H462.68C466.36,127.9,470.19,127.91,474.55,127.84Z"/><path class="cls-1" d="M144.41,127.07l-21,.06c7.19.43-5.39.6-6.64.91h25.76C142.38,127.71,144.93,127.36,144.41,127.07Z"/><path class="cls-1" d="M150,128.63a61.11,61.11,0,0,1,6.65-.61H142.49C142.58,128.27,144.16,128.49,150,128.63Z"/><path class="cls-1" d="M562.23,124.59l5.61,0C565.27,124.54,563.59,124.56,562.23,124.59Z"/><path class="cls-1" d="M629.38,125.07c-18,0-44.29-.53-48.91.34.28-.15,0-.32-2.63-.41l-11.14.94,10.63.3c-11.21.93-47.4.72-54,.14,20.58-.32,10.25-1.44,38.93-.83-1.29-.29-6.54-.8-.08-1-33.6.34-63.71-.18-98.52.79,27.39.93-17.94.77-9.34,2l14.91-.4-1.27.32,18.17-.1c-3.73-.55-6.53-.58-5.72-1.15,24.27.22,7.65.68,25.45,1.4L533,127.3l-2.19.17a36.27,36.27,0,0,0,4.08-.17l91.39-.36C642.94,126.49,617.11,125.91,629.38,125.07Z"/><path class="cls-1" d="M800.72,124.83l-.26.1C801.06,124.88,801.26,124.84,800.72,124.83Z"/><path class="cls-1" d="M785.78,125.22l3.67-.53-16.38,1.12,25.53-.09,1.86-.79A134.22,134.22,0,0,1,785.78,125.22Z"/><path class="cls-1" d="M774.06,124.82c-.27-.66-15.19-.27-18.62-.15l-1.38,1.81c13.18-.33,12.47-1.25,5.27-1.67C771.44,124.38,765.72,125.8,774.06,124.82Z"/><polygon class="cls-1" points="656.77 126 660.48 125.62 651.34 125.51 656.77 126"/><path class="cls-1" d="M666.82,125l-6.34.66,9.07.1A8.2,8.2,0,0,0,666.82,125Z"/><path class="cls-1" d="M706.59,126.13,693.34,126C697.18,126.05,701.43,126.1,706.59,126.13Z"/><path class="cls-1" d="M683.28,125.87l10.06.11L683,125.75Z"/><path class="cls-1" d="M685.86,126.86l-2.58-1-13.73-.15C671,126.36,672.75,127,685.86,126.86Z"/><path class="cls-1" d="M730.91,126.36c-.22.4,6.68.16,10.15,0C738.24,126.36,734.29,126.23,730.91,126.36Z"/><path class="cls-1" d="M996.74,125.07c-2.16-.19-3.26-.29-6.1-.32Z"/></g></g></svg>