<svg xmlns="http://www.w3.org/2000/svg" viewBox="0 0 312.81 91.18"><defs><style>.cls-1{fill:#fff;}</style></defs><title>barra 10 trucos</title><g id="Capa_2" data-name="Capa 2"><g id="Capa_1-2" data-name="Capa 1"><path class="cls-1" d="M250.62,86.65c1.34,1.44,3.58,1.71,5.53,1.94a6.79,6.79,0,0,1,3.45,1.57c-2.91,1.64-6.2.86-8.93.63-8.34-.7-16.56-2-24.95-2.59-5-.34-9.86-1.32-14.84-1.6-4.72-.26-9.4-.69-14.09-1.09-8.09-.7-16.2-1.23-24.3-1.83-.6,0-1.22,0-1.83,0-10,0-19.94-1.06-29.93-1.35-5.94-.17-11.89,0-17.84,0-8.93,0-17.88-.22-26.8.06-9.77.3-19.56.09-29.3.48-8.76.36-17.5.14-26.24.41a125.84,125.84,0,0,1-18.43-.51c-1.33-.16-2.8-.24-3.88-1.37,2.49-2.47,6.49-.8,9.27-2.12-3.38-.68-5.83-2.79-9.24-3.93,3-1.58,6.52-1.47,10.08-3.13-2.35,0-3.91-.07-5.44,0s-1.84-.64-2-1.33.75-1,1.66-1h5.26c-2.6-1.43-7.66-.29-6.42-4.53.4-.19,1.44-.13,2.14-1-1.82.32-3.36.69-4.95.86s-3.23.26-3.17-1.67c-.63-.36-1.87.34-2.7-.65A14,14,0,0,1,17.22,62c-.91-1.42-2.5-1.24-4.27-1.36,1.59-1.81-.55-3.49-.26-5.24C9.62,54.2,9,52.08,9.52,49.58c-4.27-1.66,1.49-4.35-1-6.19C7,43,5.92,44.74,4.19,43.77l3.23-2.16C6,41.28,4.6,41.42,3.71,40.47c-.13-.46.82-.66,1-1.19-.85-.41-1.49.25-2.22.35-1,.14-1.88.21-2.3-.39s.3-1.11,1.11-1.57C5.88,35,11.42,33.86,16.65,32.24c8.28-2.56,16.63-5,25-7.38,6.7-1.91,13.47-3.68,20.22-5.5,9.07-2.44,18.1-5,27.24-7.27,14.92-3.73,29.8-7.56,45-10.47,3.66-.7,7.44-1.09,11.18-1.55,1-.12,2.07-.2,2.67.77,0,1-1.85,1.28-2.1,2.36,7-1,13.48-4.42,21.11-2.16-3.22.71-7.32-.3-9.56,2.58l3.72.27c-1.45,1.41-3.68,1.48-5.37,2.72,1.9-.1,3.58-.42,4.89.55-.86,1.9-3.12,2.87-5.45,4.3,3.83.17,6.83-2.29,10.3-.91-.05,1-1.57,1.25-1.81,2.25,3.15.41,6.16-.37,9.2-.52a64.72,64.72,0,0,1,17.23,1.12,23.52,23.52,0,0,1,7.88,2.93c1.86,1.2,5,.05,7.33-.34a115,115,0,0,1,14.67-1.11c7.08-.26,14.19-.6,21.29-.54,5.68,0,11.4-.31,17,.41,1.15.15,2.29.4,3.5.61-.78,2.36-4,.95-5.69,2.06,3.39,1.19,6.43,2.65,10,1.44s-.81-3,2.72-3.46c3.87-.53,15.92,2.14,19.67,2.34,5.77.3,11.64-.69,17.35.64,1,.22-5.37.5-4.74,1.1-.63,1.35,4.86,1.2,3.37,1.26-1,0-2.27-.5-2.55,1.09s.83,1.82,2,2a3.69,3.69,0,0,1,2.3,1.13c-1.8,1.53-4.71.07-6.52,1.45,1.63.81.11,1.06-.68,1.43,2.31.84,5.18.23,7.32,1.64-1.74,1-3.68.77-5.55.93,1.23,1.46,3.93.23,5.09,1.79,0,1.48-2.3,2.36-2.07,4,1.76.64,2.06-1.32,3.58-1.16-.74,2.05-1.06,2.22-10.2,5.58,2.1,1,2.1,1,11.2.14a9.34,9.34,0,0,1-4,2.92c.79,3,.74,3,4.76,1.6.95-.33,2.5-1.42,3.57.39-5.15,3.87-11.93,5.08-19.2,6.49,3.54.8,7.11-.22,9.68,1.79-.57.59-1.58.66-2.43,1,1.53,1.15,3.87-.64,5.24,1-1.16,1-3.38.63-4.86,1.76,2.22.74,4.81-.49,6.79,1.15a17.81,17.81,0,0,1-7.65,1.83c-9.62.47-19.13,1.55-28.64,2.66-4.41.51-8.77,1.14-13.39,1.56l3.34,2.79c-1.85,1.62-4.07,1.14-6.22.71a63.54,63.54,0,0,0-12.35-1.69,26.4,26.4,0,0,0-5.41.73c7.18,2.2,15.3,2,22.52,4.58-1.36,1.66-3.22,1.12-4.89.91-5.69-.72-11.27-2-17.14-2,7,1.36,14.4,1.74,21.26,3.79-2.81,3.2-3.55,3.51-7.58,2.4-2-.55-3.87-.18-5.8-.15,3.38.58,6.77,1.14,10.14,1.77a8.31,8.31,0,0,1,1.79.78c-1.23,1.29-2.58,1.23-4.53,1-9.19-1.17-18.32-2.66-27.78-2.44-4.57.1-9.17-.62-13.79-.37a6.24,6.24,0,0,0-1,.22c15.72,1.93,31.52,2.48,47,6.21-2.68.77-3.44,3.93-7.3,2.56a131.45,131.45,0,0,0-18.65-2.47,32.08,32.08,0,0,0,8.91,1.63C244.11,86.08,247.23,87.43,250.62,86.65ZM253,19.73c-20.15.93-39.88,4.2-60.57,6.46C195.52,27.37,245.24,22,253,19.73ZM161.4,17.65c3.87-.66,7.18.31,10.47.25,3.46-.07,6.9-1.12,10.43-.64a32.21,32.21,0,0,0,10.85-.47C188.66,14.31,165.65,14.76,161.4,17.65ZM241.9,17c-5.06-.79-34.91.8-39.14,2.12,7,.13,13.3-1.22,19.72-1.1S235.41,17.23,241.9,17Zm28.55,41.46,20-2.27c-.05-.2-.09-.4-.14-.6A50.87,50.87,0,0,0,270.45,58.42ZM14.85,47.49c5.57-2.24,12-2.85,17.47-5.17a1.76,1.76,0,0,0-2.82-.74c-2.38,1.59-5.4,2.12-8.21,3C19,45.3,16.57,46,14.85,47.49Zm128-37.13c4.24.48,10.26-1.41,12.29-3.92C151,7.84,146.36,8,142.82,10.36ZM136.43,15l-.28-.64-10.34,2.69.22.49ZM56.81,33.92c2.91-.49,5.8-1,8.14-2.56A21.71,21.71,0,0,0,56.81,33.92Z"/></g></g></svg>