<svg xmlns="http://www.w3.org/2000/svg" viewBox="0 0 697 138.92"><defs><style>.cls-1{fill:#fff;}</style></defs><title>barra felicidades</title><g id="Capa_2" data-name="Capa 2"><g id="Capa_1-2" data-name="Capa 1"><path class="cls-1" d="M9.87,119c-.95-.44-1.42.47-1.62.93-1,2.35,3,1.53,3.95,2.71C13.21,120.8,11.55,119.81,9.87,119Z"/><path class="cls-1" d="M0,124.76c.32,2.13,1.85,3.14,4.57,3.4C6.07,125.23,2.38,125.56,0,124.76Z"/><path class="cls-1" d="M686.35,54.64c-.83-.09-1.68-.1-2.52-.17-12.23-1-24.5-1.86-36.7-3-6.88-.64-12.34-4.66-20.3-3-.11,0-.36-.18-.55-.28.1-1.12,1.7-1.79,2.42-2.72,1.17-1.51-.61-3.75-3.41-3.72-5.4,0-10.14-1.49-16.06-1.66,1.52-.44,2-1,3.25-.65,2.87.84,6.19.54,9.1,1,4.15.7,3.23-.47,2.18-2.08,3.49.18,4.91-1.49,7.55-2-.49-.86,0-1.74-1.56-2.06-3.33-.68-7-1.76-10-1.75-7.68,0-15.05-1.51-22.67-1.17A15.94,15.94,0,0,1,589,29.66a16.25,16.25,0,0,1,4,0c3.87.39,7.79,1.14,11.6-.21,4.2-1.49,9.48-.63,13.81-2.23,2-.74,5.14-.41,7.73-.67,2.44-.25,4.63-1.07,4.88-2.5.29-1.62-2.41-1.68-4.42-1.88-1.08-.11-1.81-.35-2.07-1,3.6-2.17,5.82-2.46,11.35-1.36,2.47.5,4.86,1,5.51-1.29a68.23,68.23,0,0,1-13.67-4.41L633,12.34c1.64-.56,4.08-.84,4-2.18s-2.52-1.7-4.39-2.22c-7.66-2.14-16.19-2.68-24.21-2.74-15.15-.09-30.07-1.44-45.15-1.74Q553.8,3.27,544.36,3C530.6,2.6,516.86,2,503.1,1.6c-8.31-.25-16.61,0-25-.35C464.9.67,451.59.43,438.31.13c-5.05-.11-10,.64-15.19.38-6.57-.33-13.3-1-20,.06a74.44,74.44,0,0,1-14.66.54c-4-.18-8.24-1.2-12-.42-7.36,1.52-14.81.26-22.21.76-8.53.58-17.31-.19-25.82,1.11-4.41.67-9.1.95-12.67,2.77.67,1.12,2.08,1.49,3.69,1.81C310.17,6.69,301,6,291.66,5.76c-5.52-.13-11.06-.29-16.58-.46-12.11-.4-24.2-1-36.3-1.4-7.31-.25-14.61,0-22-.34-11.63-.58-23.33-.82-35-1.12-4.44-.12-8.78.63-13.37.37-5.77-.33-11.69-1-17.56.06a56.55,56.55,0,0,1-12.9.54c-3.54-.18-7.25-1.2-10.58-.41-6.47,1.51-13,.25-19.53.75-7.51.58-15.23-.19-22.71,1.11-3.89.67-8,.95-11.15,2.78.65,1.24,2.11,1.56,3.71,1.9-2.79,2-6.43,2-9.59,2.63s-6.3,2.09-6.84,3.29c7.65,4.95,17.8,2.13,27,3.6-2,1.83-4.41,2-6.89,2-4.68,0-9.4-.24-13.33,1.81,1.28.63.71,2.54,2.65,2.33L68.4,28.62c5.94,0,11.44,2.27,16.6.31,1.69.05.43,1.54,1.9,1.27,1.83-.34.07-.75,0-1.18-.22-.85,1.06-.9,2-.87.59,0,.87.51,1.86.36,7.26-1.09,14.55.36,21.9.06,3.88-.16,7.46-.79,11.69-.86.87,1.64,3.71,1.11,5.06.42,2.53-1.31,3.42,0,5.36.67-3.84,2.76-8.45.89-11.89,1.53-1.31-.39.34-1.26-1.22-1.41-1.47.13-1.89,2-2.81,1.52-2.54-1.43-5,1-7.25-.23-1-.58-1.94-.2-3.05,0a30.51,30.51,0,0,1-8,.86A39,39,0,0,0,93.08,31c-4.07.54-7.62,1.81-11.64,2.51l1.5,2.56c-6.14,1.39-14.15-.57-19.15,4.52,6.71.75,12.68-.6,18.57.35.92.15,2-.15,2,.71s-.28,1.64-1.75,1.83c-1.78.23-3.6.37-5.41.52-5.49.47-10.34,1.52-12.16,5.72A9.32,9.32,0,0,1,68.6,51.9a26,26,0,0,1-5.39,1c-5.32.54-7.4,2.45-6.4,5.61-1.7.4-3.44.75-5.11,1.2-7,1.86-14.6,1.35-21.72,2.84-3.33.7-6.21,2.63-9.6,2.38-3.16-.23-5.17.63-7.59,1.44-2.23.75-2.44,1.58-1.33,2.82,9.29,0,18.23-3.55,27.76-.89-.71.9-1.34,1.69-2.52,1.59-3.61-.31-6.81.83-10.25,1.1-3.07.24-6.06,3-5.36,5a174.08,174.08,0,0,1,45.15-2.19L62.9,75.28c.35.78,2,.58,1.89,1.46-1,.9-2.34.58-3.75.46.76-.49,1.59-.93.92-1.53a53.82,53.82,0,0,1-11.7,0c-3.25-.31-6.72-1-9.34.94.33,1.06,2.25.36,2.61,1.43-2.54-.31-4.64.75-7.36.92,0,.35-.28.95,0,1.31,2.09,2.35,8.1,4.53,12.34,3.82,3.2-.53,4.53.19,4.28,1.83-4.71.69-9.39,1.29-14,2.08C28.36,89.76,28,89.92,27,91.47c8-.54,13.2,3.75,20.35,4.73a9.8,9.8,0,0,1-6.76,1.12c-6-1.31-8.46-.13-11.92,5.32,8.3,2.16,17.37-.83,25.61,1.49a65.17,65.17,0,0,1-9.11,1.66c-3.55.28-7.28.45-10.45,1.65-1.94.74-3.57,1.83-6.79,1.93,2,.9,1.82,2.55,3.85,2.63,6.39.24,12.65,1.46,19.11,1,3-.2,5.26,1.65,8.35,1.11-3.66.89-7.11,2.23-11,2.28-4.88.07-8.79,1-11.53,3.79-.59.6-1.76,1-1.25,1.86s1.73.69,2.83.81c2.58.28,5-1,7.56-.36-1.22.89-3.2.56-4.8,1.3,1.4,2.41,4.31,1.33,6.56,1.34,3.43,0,6.49-1.16,10.15-1.07,3,.09,6.15.75,9.29.11a12.14,12.14,0,0,1,5.71-.14c-14,4-29,2.7-44,1.62.67,2.93,5.77,4.78,12.27,4.74.23,2.33-1.64,3.21-5.15,2.93-3.9-.31-8.16-1.55-11.56,1,2.32,2.11.8,1.65,8.54,2.79,7.13,1.06,14.29,2.38,21.86,1.45,3.19-.39,6.53-.94,9.85-.52,1.68.22,3.37.73,5,.39,7.77-1.57,15.88-1.85,23.82-2.22,8.55-.4,17.09-1.39,25.56-1.46,14.44-.11,28.7-1.59,43.11-1.65,9,0,18-.16,27-.27,3.24,0,6.26.84,9.61.71,4.52-.17,9.16-.44,13.55-.23,5.71.27,11.65,1.08,17.21,1.05,14.33-.07,28.45,1.25,42.68,1.68,2.51.07,5,.08,7.56.1a74.9,74.9,0,0,0,11.34.34l1.88.16c13.74,1.38,27.54,1.68,41.36,1.8,4.17,0,8.52-.32,10.73-3.06-.54-1.44-3.1-.15-3.61-1.61,3.57,0,7.29-.51,10.51.1,8.46,1.59,16.87.93,25.33.5,2.21-.11,2.44-1.25,2.85-2.25,12-.48,23.85-1.28,35.83-1.32,10.23-.05,20.46-.17,30.69-.27,3.69,0,7.12.83,10.93.71,5.13-.17,10.41-.44,15.41-.23,6.49.27,13.23,1.07,19.56,1,16.29-.07,32.34,1.24,48.52,1.67,7.88.21,15.88-.08,23.63.61,15.62,1.38,31.31,1.68,47,1.79,4.74,0,9.68-.32,12.2-3-.62-1.45-3.53-.16-4.11-1.62,4.06,0,8.28-.51,11.95.1,9.62,1.6,19.18.93,28.8.51,2.81-.12,2.8-1.54,3.42-2.61s-.33-1.71-2.09-2.26c-3.51-1.11-7.37-1.66-11-2.52,1.1-1.11,2.83-.61,4.28-.74,2.66-.22,5.05-.86,5.49-2.51,1.36-5.1,4.68-9.85,7.91-14.59,9.6-14.1,19.23-28.21,26.94-42.7C698.94,57.69,696.7,55.78,686.35,54.64ZM225.52,30.24c-6.79-.49-13.54-.47-20.34-.33a62.8,62.8,0,0,1-8.52-.45c-3.65-.42-7.49-.11-11.24-.12-3.43,0-6.86,0-10.31-.2a32.3,32.3,0,0,1,13-1.15,132.69,132.69,0,0,0,23.16,0,22.63,22.63,0,0,1,3.68-.09c3.86.29,7.61,1.58,11.67.76L225,29.3c2.55-.06,4.52.43,6.87-.2C230.15,31.1,227.47,30.38,225.52,30.24Zm95.89,3.54A12.72,12.72,0,0,1,314.32,32a12.6,12.6,0,0,1,3.52,0,35.32,35.32,0,0,0,7.17.5l.9,1.35h0A44.62,44.62,0,0,0,321.41,33.78Zm51.48-8.37c1,1.64,4.22,1.11,5.75.42,2.89-1.31,3.9,0,6.1.66-4.37,2.77-9.61.9-13.52,1.54-1.49-.39.39-1.27-1.38-1.41-1.68.13-2.15,2-3.2,1.51-2.89-1.42-5.66,1.05-8.24-.23-1.16-.57-2.21-.19-3.47,0a44.35,44.35,0,0,1-7.86.89c2.11-.26,4-1.07,4.21-2.48a1.34,1.34,0,0,0,0-.2c2.76.13,5.54.23,8.32.13C364,26.11,368.09,25.48,372.89,25.41ZM488,27.94c-7.71-.49-15.4-.47-23.12-.34a81,81,0,0,1-9.69-.44c-4.15-.42-8.51-.12-12.79-.12-3.89,0-7.79,0-11.71-.2a41.52,41.52,0,0,1,14.76-1.16,168.93,168.93,0,0,0,26.33,0,27.79,27.79,0,0,1,4.18-.08c4.39.29,8.65,1.58,13.27.76l-1.79.65c2.91-.06,5.14.43,7.81-.2C493.29,28.8,490.24,28.08,488,27.94Zm199,38.9c-1.93-2.7,1.23-4,1.76-5.72C690.35,63,688.51,64.56,687,66.84Z"/></g></g></svg>