<svg xmlns="http://www.w3.org/2000/svg" viewBox="0 0 550.57 91.74"><defs><style>.cls-1{fill:none;stroke:#fff;stroke-miterlimit:10;stroke-width:2px;}</style></defs><title>recuadro CTA</title><g id="Capa_2" data-name="Capa 2"><g id="Capa_1-2" data-name="Capa 1"><path class="cls-1" d="M544.34,61.61c.11,1.62-.48,3-.75,2.43.72,3.31-.1,3.38,1.29,3.81.68,2.12-.26,4.39-.82,2L544.9,76l.22-3.66c1.15,1-.35,5.85,1,7L546,72.67l.39.33a17.44,17.44,0,0,1-.08-5.47c.19.17.5.06.53,1.23.09-8-2-2.15-2.4-8.8A6.81,6.81,0,0,1,544.34,61.61Z"/><path class="cls-1" d="M547.16,54.8,545.72,52l.37-4.68c-.5-.06-.9-3.47-1.34-1.16a9.36,9.36,0,0,1,.18,2.07c-1.08-.53-.54-6.23-1.63-4.86.29,3.71.05,4.28.93,6.56a39.77,39.77,0,0,1-.74,7.46c.16,1,.82,1.15,1,2.43,0-.29,0-.55,0-.87l1.62-.14a11.7,11.7,0,0,1-.22-3.27L547.7,61c1.51-1.77.62-7.16,1.25-9.31C547.59,54.4,548.27,49.6,547.16,54.8Z"/><path class="cls-1" d="M10,69.34c-.05,0-.1,0-.17,0l.51,1.18v0C10.2,70.09,10.09,69.7,10,69.34Z"/><path class="cls-1" d="M4.26,33.77l1,5.84c-.46-.78-.32,2-.85.8.07.45.25,2.54.49,2l0-1.19c1.32,3.07,1.83,1.21,2.84,6.31a8.69,8.69,0,0,0-.53-6.23C7,40.7,7,40.22,7,39.74L5.1,34.89Z"/><path class="cls-1" d="M358.43,81.84l-.12.06C358.42,81.88,358.44,81.86,358.43,81.84Z"/><path class="cls-1" d="M357.85,82.14l.46-.24C357.75,82,355.58,82.13,357.85,82.14Z"/><path class="cls-1" d="M547,16.72c0,.4-.09.85-.13,1.2A6.31,6.31,0,0,0,547,16.72Z"/><path class="cls-1" d="M122.56,4.86l2.82,0C124.28,4.86,123.38,4.85,122.56,4.86Z"/><path class="cls-1" d="M185.71,1.91l4.11-.21C188.2,1.71,186.93,1.8,185.71,1.91Z"/><path class="cls-1" d="M520.16,5.14H520l-.65,0Z"/><path class="cls-1" d="M312.36,4c.63.07,1.33.14,2.29.19A10.68,10.68,0,0,0,312.36,4Z"/><path class="cls-1" d="M185,2l.25,0,.51-.06Z"/><path class="cls-1" d="M94.75,2.25l-1.81.09C93.79,2.33,94.31,2.29,94.75,2.25Z"/><path class="cls-1" d="M98.71,4.78c-.65,0-1.27,0-1.75.09Z"/><path class="cls-1" d="M7.5,18.88,7.73,21A10,10,0,0,0,7.5,18.88Z"/><path class="cls-1" d="M88.69,4.2l-.59.12C88.62,4.29,88.87,4.24,88.69,4.2Z"/><path class="cls-1" d="M542.16,30.46v-.12l-.19-.06Z"/><path class="cls-1" d="M544.63,37.42a10.11,10.11,0,0,0-.13-1.85C544.54,36.18,544.59,36.8,544.63,37.42Z"/><path class="cls-1" d="M367.39,5.43c1,.13,3.35.29,2.25.43C371.57,5.68,371.44,5.23,367.39,5.43Z"/><path class="cls-1" d="M547,30.76c.28,3.71.64,7.87.16,10.92l-1-1.28c.9-3.45.23-5.57.32-9l-.54,7.61c-.86,3.57-1.06,1.18-1.25-1.63a2.75,2.75,0,0,1-.26,1.49c.39.33,1.22,8.36,1.42,1.61,1.19.26.55,4.33.84,6.13.28-1.3.77.65,1.2.26a13.31,13.31,0,0,1-.41-3.43c.55-.68.92,1.56.72,3.31.63-2.16.94,2.73,1.42-.32C549.14,40,548.71,35.34,547,30.76Z"/><path class="cls-1" d="M540.32,29.25h0S540.3,29.2,540.32,29.25Z"/><path class="cls-1" d="M39.27,2.33a.62.62,0,0,0-.2-.07C38.44,2.29,38.75,2.32,39.27,2.33Z"/><path class="cls-1" d="M360.73,2.85c-1.39,0-2.43,0-3.32,0C358.43,2.9,359.53,2.9,360.73,2.85Z"/><path class="cls-1" d="M421.64,8.6c-.82,0-1.63,0-2.45,0l-.48.07A27.22,27.22,0,0,0,421.64,8.6Z"/><path class="cls-1" d="M237.16,9a16.16,16.16,0,0,0,2.26-.21A16.37,16.37,0,0,0,237.16,9Z"/><path class="cls-1" d="M170.9,4.49h0Z"/><path class="cls-1" d="M546.25,19.54l.06.26Z"/><path class="cls-1" d="M545.46,25.59c.32-2,1.27.73,1.89.49-.21-3.26-1.33-3.07-1.54-6.33.13-.84.33-.58.44-.21L546,18.6l-.14-.61-.15-.8a25.82,25.82,0,0,0,.48-3.56c.18-1.45.42-2.38.77,0,0,.72,0,2.07,0,3.11.34-3.51.79-8.29,1.16-12.17-6.62-.24-12-.51-11.39-.82-3.62-.07-5,0-6.88,0-.94,0-2,0-3.58,0h-2.55l-2.31,0c-3.31.44.26.9-7.52,1.2l6.14.22c1.26-.08,2.31-.19,3.69-.26l-6.39,0c4-.21,3.32-.44,4.51-.87h1.76l2.31,0c1.64,0,3.13,0,4.48.08,2.7.07,4.86.17,6.73.27,3.75.22,6.31.46,9.86.56-5.16.34-12.6.24-10.32.78a50.63,50.63,0,0,0-7.44,0c-1.06.06-2.13.12-3.43.14h-2c-.57,0-1.21,0-1.92-.11l1.1-.14c-4.64.41-5.28-.1-9.1.28.29-.11-.22-.18-.72-.24-8.32.24,2.52.33-5.82.84-7.41-.08-2.41-.88-4.45-1.14,12.43-.72-.26-.9,13.19-1.49,0-.73-5.32-.82-12.51-.73,4.68.31-3,1.06,3.24,1.57C496,5.09,496.91,6.5,484.9,5.84l.29-.11-4.94.53-6.8-.3c4.22-.76,9.41-.38,12.73-.83-8.28-.76-11.12.75-20.67.69-7.95-.87,9.72-.49,9.68-1.22-1.92.19-7.13-.19-6.51-.4,8.94.28,5.44-.46,15.4,0-4.85.24.74.23-.17.55,1.42-.25,10.75-.36,17.35-.24,1.5-.53-5.72-.44-9.88-.68-7.88.58-16.06-.46-22.12.21-8.5.07-.63-.51-1.15-.58-7.64-.25-3.31.44-5.74.57-11.54.4-12.83-.63-21.06-.67-6.84.72-23.5.47-35.17.43,1.41-.26-.13-.45-.84-.69-6.95,1-4.45.59-13.13,1.21l7.35.36c-5.9.12-10.64.81-16,.27,7.17.91-9.49.66-13.84,1-6-.33-12.05.34-15.33-.22l.81,0-8.73-.1,1.05-.88c-6-.33-13.38.32-11.31.58-6.31-.23-2.59-.33-3.51-.73,3.56-.28,11.21-1,13.4-.32a8.46,8.46,0,0,0-2.15,0c16.41.4,5.35-1.06,13.54-1.29-4.26-.06-7.45-.48-12-.25-2.11,0-10.73.37-15.07.68a84.66,84.66,0,0,1,13.71.3c-4-.07-4.61.42-8,.14l1.1-.15-4.33.31c-.65-.51-11.89-.22-5.3-.82-5.9.11-2,.46-7.39.65l10.58.19-.18.55c-3.86.38-4.79,0-9.05,0l.36.62-7.55-.53c.93.41-4.87.25-6.49.33-4.17-.25-1.47-1.2-8.55-.66l.51.07c-4.06.2-6.46.33-12.26.16a24,24,0,0,1,2.71-.23c-8.12-.31-21.15.62-24.86-.28.66-.49,4.05-.21,4.22-.76,12.52.73,8.77-.9,23.51-.47.68,1.24,12.44-.72,15.24.5-5.79-.16-13.47.59-12.44.73,5.33-.07,12.79-.1,16.5,0-3.26-.41-2.22-1.09.16-1.52-8.61.35-24.27-.5-36.46-.61l1.37.75c-10.53.54,1.28-.7-6.94-.74l-3.63.55-.52-.06-6,.67c4.26,0,2.3-.57,7-.26,4.17.24-.18.55-1.37,1-2.85-.22-13-.07-6.73-.57l-11.12.74c.08-.27,2.51-.4,3.64-.54l-8,.13.29-.11c-6.46.33-15.49.33-20.44.86,11,.53-5.24.63-4.3,1-4-.07-5.16-1.38,3.23-1.9,2.26.43,8-.13,12.27-.16-5.48-.27-7.18.09-11.47.12,3-.33-5.69-.44-5.6-.71.57-.22,2.36-.86,7.86-.59,8.22,0,.86.69,3.29.56,2.18.71,11.46-.12,16.44.08.53.07-1.11.15-1.91.19,4.28,0,13.3,0,14-.53l-10.72.36c-2.33-.15,3.31-.44,0-.72-2.44.12-5.36.18-8.53.07l.6-.22c-6.5-.39-16.66-.24-24.14,0-1.68,1.08-5.58,1.74-8.87,2.9-11.14,0-22.8,0-34.66-.23.19.23,0,.45-.52.66-3.36-.29-9.55-.06-9.37-.62-3.61.55-13.84,1-11.89,1.51l-1.36,0C143.51,5.48,137,5,125.38,4.89c-2.28,0-2.61.36-2.09.88-2.47-.16-4.78-.3-7.12-.32a36.86,36.86,0,0,1,6.39-.59l-18.12-.19,1.41-.25-7.14.36c4-.14,10.25,0,8.73.56-8.1.41-12.69-.17-19.56.54,0-1-2.3-1.16,0-1.73a6.58,6.58,0,0,1,.81,0A87.41,87.41,0,0,1,101,2.94c-15-.33-11.16,0-24.37-.22-1.15-.58,12.15-.62,9.08-1L98.11,2a26.47,26.47,0,0,0-3.36.26c8.54-.41,11.64.12,18.06-.55,4.07.27-6.33.44-1.88.54a48.53,48.53,0,0,0-9.29,1.21c9.75.23,5.54-.74,13.84-1l6.21.51c3.76-.1-1.22-.31-1.44-.47,4.56-.15,6.29.22,9.75.23-1-.13-3.35-.29-2.76-.5,5.72.44,11.36.15,16.68,1-3.07-.39,3.5-1,5.94-1.12l-10.92-.81c-13.88.25-22.52-.13-37.51.27l.89-.32c-23.6-1-19.59,1.54-39.78,1.56C62,2,53.21,2.91,54,2.14c6.1,0,4.86-.25,3.12-.62a73.32,73.32,0,0,1-12.66.56c2.52-.41-3.48-.74,3.2-.89-4.62-.09-8.2-.11-11.21,0-.77,0-1.45.05-2.19.09-1.33,0-2.6.07-3.82.13-2.43.1-4.66.23-6.75.41-7.09.17-11,.2-13.6.15S6.27,1.77,5,1.64A5.49,5.49,0,0,0,4.37,4a61.23,61.23,0,0,0,0,7.62l-.53-2.5.2,9.49.17-.42.09-.22c0-.09.06-.26.09-.38l.35-1.61.11,1.45,0,.36,0,.17V18l0,.38.21,1.53L5.6,23c.78,3.76.89-1.53,1.47-1L6,20.68a13,13,0,0,0,0-2c0-1-.11-2.05-.16-3-.1-2.28-.14-4.14.23-4.52.07,3.68.32,5.08.59,5.91.07.21.14.38.21.54l.11.25c0,.07.07.09.1.15a2.57,2.57,0,0,1,.37.84l-.11-1-.1-1.67-.21-3.38.77-2c0-2.83.05-5.34,0-7.63,5.36,0,9.79-.11,13.61-.39A63.53,63.53,0,0,0,15.12,3a47.86,47.86,0,0,1-6,0c2.32-.36,7.4-.56,13.81-.7,3.21-.07,6.75-.12,10.44-.17,1.12,0,1.39,0,1.95,0l1.55,0L40,1.94c.22.17,2.86.22,1.74.36a17.56,17.56,0,0,1-2.43,0c.62.33-4,.53,3.8.72-2.8.51-8.64,1.36-8.44,1.53l-1.15,0-1.4,0-2.92,0c-2,0-4,0-6,0-4,0-7.87,0-10.84-.11l.28-.11h-2.5c0,1.86.21,4.26.27,6.19s0,3.43-.39,3.63c0,.52.11,1.28.18,2l.11,1.08.05.47.06.28c.09.31.18.46.28.3a2.11,2.11,0,0,0,.17-.5c0-.35.12-.91.18-1.61.09,1.79.18,2.54.27,3.64l.27,3.12c-1.65-1-2,4.83-3.34-1.34,0,.2.23,2.48.53,6.11a1.29,1.29,0,0,1-.16-.17,1.16,1.16,0,0,0-.29-.48c0-.74,0-1.18.28-1.31C7.37,23.75,7.07,27,7,30.35l.93.8c-.53,2.93-1.36,4.69-1,8.59l3.49,9.13c.07.89.14,1.79.22,2.69-.54,1.19-.14,5.21-1.22,3.62-.43.41-.65-.94-.45-2.69.12-.27.19.16.31-.12-.58-.49-1.27-.7-1.89,1.43.12-2.18.24-2.46-.17-4L7.11,52c-.21-3.26-1.53-8.25-2.34-8.18,1.15,1,0,3.09-.19,4.85-.22-1.35-.85-4.21-1-2,.46.78,1.11,6.74,1.56,2.51.3,1.8.86,4.2.54,6.24-.57-2.4-1-.82-1.73-1.49a3.24,3.24,0,0,0,1.87,2.4c-.48,3-1.23,5.18-1.77,7.41a22.14,22.14,0,0,0-.57,3.55,19.54,19.54,0,0,0,0,2.06c.06,1.05.11,2.18.18,3.4,0,.44,0,.15,0-.51s0-1.34,0-2.17c0-1.07,0-2.17.43-1.85A10.33,10.33,0,0,1,4.35,70l0,.39,0,.41c0,.47,0,.93,0,1.36A44.19,44.19,0,0,1,3.9,77a46.34,46.34,0,0,0-.7,10.49l1.27-3c.06.6.11,1.4.16,2.69C9.52,87,17.05,87,21.24,86.91c.6.12,4.78.3,7.46.48s3.76.35-2.44.46l4.66.05h3.72c1.27,0,2.37-.06,3.36-.12,2-.12,3.53-.31,5.13-.51a89,89,0,0,1,14.35-.72c-7.11-.18-7.92-.14-13.51-.13,6-.4.91-.32,1.57-.81,3.58.45,15.13,0,7.26.63,4.76,0,14.3.1,16.51-.2l-4.17-.24a117.36,117.36,0,0,0,16.49-.93c-8.55.07-8.27,1-19.14.88-11.79-.49,2.82-.51-4.93-1.21l-8.39.52,4,.07c-1.28.7-13-.07-11.94.79-2.13-.16-3.88-.26-5.47-.33l-1.16,0h-1.7l-3.7,0c-4.87-.06-10-.12-17.42-.42-4.21.29,1.58.3,6.06.35-4.76,0-7.31.26-10.8.39a18.42,18.42,0,0,1,.18-5.25c.1-1.55-.17-1.72-.46-.79a21.76,21.76,0,0,0-.6,5.79c0-2.4,0-4.72,0-7.12s-.06-4.89,0-7.54l-1,5.61V70.71l-.56,5c0-1.41,0-2.84,0-4.29V68.77c0-1.51.07-3,.17-4.42A23.75,23.75,0,0,1,5.88,57.5a85.78,85.78,0,0,1,.88,9.09c.07.79.13,1.55.2,2.29l.26,2.28a24,24,0,0,0,.9,5.23,18.21,18.21,0,0,0-.23-4.45l-.06-.68,0-.65a4.07,4.07,0,0,1,0-.78,2.18,2.18,0,0,1,.56-1.33l-.92-1.56c-.29-1.8-.65-6,.27-6.32A35.92,35.92,0,0,0,10,69.34c.2,0,.3.47.34,1.18l0,.08,0,0,0,1.85c0,.69,0,1.43,0,2.16,0,1.46.05,2.89.16,3.9-.2,2.73-.73,1.11-.92.86a39.55,39.55,0,0,0-.27,5.18c6.4,0,12.53-.29,18.46-.51l4.46-.15,3.68-.11c2,0,4.16,0,6.46,0,.11.45,8.85.56,6.13.79a128.44,128.44,0,0,0,14.56-.74c1,.4,10,.12,6.74.56l6-.67c4.16.25,12.78-.1,14.23.37,4.56-.14,1.27-.7,7.58-.47-.29.1.21.17-1.1.14a97.39,97.39,0,0,0,12.77-.1c-4.45-.14-1-.13-6.31-.23.12-.27,6-.67,12.06-.33-8.17.68,6.44.67,2.61,1,13,.07,20.43-.86,31.25-1.5,12.78-.1,28.64.19,38.64-.42l-1.32,0,6-.39c3.45,0,.06.72,5.4.54-1.79.64-9.32.11-14.77.57,9.37.62-8.69.63-2.46,1.13,3.57-1.28,20-.2,28.15-.89,7.93.15-3.63.55.31.63l2.54-.41c3.14.12,4.17.25,4.09.52,8.42.21,18.07,0,25.13-.54-9.12.28,3.09-.62-5.92-.61,2.73-.23,8.6-.35,14.17-.36-5.35.18,7.17.91-4.72.7,1.66.64,5.88-.12,11.18,0-2.72.24-8.73.63-8.19.7,8-.87,25.6.51,28.69-.1,5.78-.56,14.67-1,21.73-1.56,7,.46,14.84.16,22.76.3l-1.42.26c4.48.13,11.45-.13,18,0l1.48.47c4.54-.14,13.05-.21,20-.19.07-.28-6.32-.23-3.3-.56-3.45,0-6.38,0-5.15.35-3.45,0-3.59-.46-6.42-.68l13.36-.31a7.07,7.07,0,0,1,1.52.11l1-.51c3.47,0,4.47.13,3.89.34,7.51-.19,10.11-.87,18-.73a70.39,70.39,0,0,1-11.15.75h9c-4.13.48-19.77.36-17.09,1.14,9.94-.32,24.42-.79,33.11-1.41,4.61.59,11.45-.13,19.07.12,1,.13,3.37.29,2,.54l-2.12,0c10.07.12,21.59-.28,30.5-.73l4.58.58c15.35.23-2.88-.94,12.83-1.1,3.79.62,19.3.29,19.94.81,2.94-.06,4.27,0,4.64-.42-2.65,0-8.51.07-5.19-.38,5.36-.18,7.92.15,12.18.11-.29.11-3.34.45-1.7.36,10.43-.25,29.82-.24,39.71-1.29-3.76.1-4.15.49-9.14.29.08-.28,2.73-.23,3.83-.38-.63-.52-5.15.35-10.35,0l8.71-.63h14.9v-70h-2.79c1.06-.09,2.1-.15,3.13-.19a29.1,29.1,0,0,1,.11,4.88c0,.83,0,1.66,0,2.49a12.89,12.89,0,0,0,.35,2.48c-.19-.16-.27-.61-.31.12-.19,4.85,1.61,6.78.78,10.68l-.57-.49c.06.33.54,2.63,1.17,2.17a42.35,42.35,0,0,1-.3-6.8,17.75,17.75,0,0,1,1,5.72l1,.2c1.06,2.47-.5,5,.56,7.42l.68-2.88a4.55,4.55,0,0,1,.1.49,7.8,7.8,0,0,0-.48-2.73C543.48,28.52,544.92,26.29,545.46,25.59Zm-153-17.24a4.66,4.66,0,0,1-1.11.14c9.05,0,9.85,0,17-.13l-2.22.29c1.28.42,7.12,0,13-.07A38.29,38.29,0,0,1,427,8.41l-.9.32c1,.29,6.82.3,13.35.31l-1.93.24H376.15C381.22,9.05,386.7,8.74,392.51,8.35ZM264.08,8.9l13.13-1.25-.3.1,11.47-.12L287,7.88l6.75-.43c-.16.55,2.07.25,1.68.64,4.22,1,15-.4,24.14.05l-1.4.25c5-.52,17.26,0,25.17.18l-.28.11c-3.67.16-5.09.39-4.59.6H327.12c-.23-.06-.86-.14-1.74-.25-1.57.13-3.54.2-5.54.25H302.69c.6-.12,1.7-.23,2.81-.34l-22.4.32v0H263.56C264.27,9.17,264.07,9.08,264.08,8.9ZM164.39,7.55l.6.51c14,.2,24-1.12,38.52-.86-2,.47-7.5.2-6.75.44,8.72.1,7.53-1.21,16.09-.55-12.26.17,7.64.25-3.41.72,15.38-.78,31.78.3,41.91.15-2.55-.33,4.15-.48,4.44-.59,2.64,0,1.75.37-.39.38,5.23.29,6.13.72,5.27,1.13L250,8.94c1.91.08,3.33.22,4.7.34H238.25c-1-.1-1.57-.21-1.09-.32-3.65.15-9-.27-11-.17,3.79.21,3.05.36,1,.49h-6c.05-.15,1.13-.31-.91-.38L211.74,9l7.42.08-.88.23h-53.9a44.55,44.55,0,0,1-8.67-1.52Zm-43.87,1-.81,0,8.23-.18c.77.45,1.09.79.3.88h-12c-1-.11-2.34-.21-3.88-.27Zm-8.86.68h-9.52C103.11,9,107.82,9.11,111.66,9.28Zm-95.92-.7,0-1,16.47.17L46.6,8l-1.24-.3c3.16.11,5.69-.29,7.43.08a22,22,0,0,1-2.45.36c-1.54.19-3.65.43-5.93.68L40,9.28H34.77c-1.3-.39-8.18-.93-18.83-1.55C15.87,8,15.81,8.29,15.74,8.58Zm2.79,39.06a9.21,9.21,0,0,1-.13,1.91c0-.76.07-1.5.11-2.23Zm-.67,20.68-.39-1q.36-6.9.68-13a21,21,0,0,1,.31,4.82,11.63,11.63,0,0,0,.26-1.23V68.17a19.92,19.92,0,0,1-.48-5.37C18.19,63.08,18.05,65.22,17.86,68.32ZM257.48,79.59l1.82-.29h4.5C263.63,79.53,263.32,79.87,257.48,79.59Zm10.11-.16-1.1-.13h4.05A27.53,27.53,0,0,1,267.59,79.43Zm269-70.15H534L538.76,9Z"/><path class="cls-1" d="M189.42,3.82l-3.52.27a85.41,85.41,0,0,0,11.84-.51c-.31.1.2.17,1.22.3,5.89-.12,9-.73,5.95-1.12L203,3l-4.07-.53c-1.55,1-13.55.44-20.13.89,4.52-.45,8.41-1.38,14.24-.77L192.37,2c5.06-.08,9.16.44,12-.06l-5.89.11.11-.28c-4.18,0-9.5.47-13.35.17a103.05,103.05,0,0,1-15.62.76l.3-.11c-6.13.95-17.1-.59-21.73-.17-2.68,1,9.95.41,13,.8-3.82.38-7.91-.15-4.63.42-8.92.45-5.33-.83-12.69-.18l4.17.25c-3.31.44-8.81.17-12.15.61-.46.66,5.6,0,11.91.22l-2.82.5,12.64-.55c3.72-.82.26-.83,8.14-1.41,2.78.35,4.77.87,5.2,1.37C173.78,4,181.23,3.78,189.42,3.82Z"/><path class="cls-1" d="M542,32.65c.35,1.06.29,3.71,1,3.19C542.23,35.9,542.92,31.12,542,32.65Z"/><path class="cls-1" d="M541.74,36.64l0,.41C541.76,36.89,541.75,36.76,541.74,36.64Z"/><path class="cls-1" d="M541.23,35.81c.17.16.42.08.51.83l-.18-2.86Z"/><path class="cls-1" d="M484.36,3.31c-.43-.34-3.46,0-5.08.08A42.58,42.58,0,0,0,484.36,3.31Z"/><path class="cls-1" d="M417.69,85.29c-10.65.09-20.49.13-37,.33Z"/><path class="cls-1" d="M357.21,4.86l4.29.69c9.94-.32,14.35-.91,24.48-1.06C372.66,3.8,368.39,5.56,357.21,4.86Z"/><path class="cls-1" d="M358.77,4.05c6.7-.16,3.12-.62,9.21-.56l-3-.67C366.65,3.46,357.33,3.57,358.77,4.05Z"/><polygon class="cls-1" points="320.79 3.25 315.8 3.04 319.69 3.39 320.79 3.25"/><polygon class="cls-1" points="284.87 3.43 289.73 3.18 289.25 3.12 284.37 3.37 284.87 3.43"/><path class="cls-1" d="M170.26,2.24c6.75.12,5.7-.54,9.78-.69-7.64.07-9.21-.11-18.35,0C168.81,1.77,170.65,1.86,170.26,2.24Z"/><path class="cls-1" d="M180,1.55l2.66,0C181.59,1.51,180.77,1.52,180,1.55Z"/><path class="cls-1" d="M151.14,1.39c1.32,0,3.43,0,4.47.14C156,1.14,149.82,1.37,151.14,1.39Z"/><path class="cls-1" d="M185.19,9.09l.5,0Z"/><path class="cls-1" d="M178.57,8.93c.66.21,4.55.11,6.62.16C182.76,9,180.72,8.39,178.57,8.93Z"/><path class="cls-1" d="M133.2,3.58c1.92-.19,4.51-.87-2.47-.6C132.05,3,134.08,3.26,133.2,3.58Z"/><polygon class="cls-1" points="171.45 8.74 165.57 8.86 166.59 8.99 171.45 8.74"/><path class="cls-1" d="M52.81,1.56l3.55-.27-4.43-.08C53.2,1.31,50.91,1.81,52.81,1.56Z"/><path class="cls-1" d="M51.08,1.19l.85,0A6.74,6.74,0,0,0,51.08,1.19Z"/><polygon class="cls-1" points="21.84 2.49 22.84 2.56 33.24 2.44 21.84 2.49"/><polygon class="cls-1" points="4.5 19.36 4.27 19.92 4.71 22.61 4.95 22.05 4.5 19.36"/><path class="cls-1" d="M129.5,84.63l1.62-.08C130.44,84.57,129.91,84.6,129.5,84.63Z"/><path class="cls-1" d="M203.74,85.87a70,70,0,0,1,9,0c.88-.32-2.49-.61-2.1-1-10-.41-11.51,1.13-21.26.9.39-.39,3.4-.72-3-.67l1.62-.08c-10.22.43-8-.87-14.4.18l.17-.55c-4.64.41-13.66.42-18.74.49l.3-.1c-14.26.63-8,.13-24,.4l7.37-.65c-5.53-.27-6.77.44-10.74.36.23-.08-.34-.37,1.49-.53l-17.81.91c-4.64.42.94.4,1.66.64-1.72.36-10.13.15-10.57-.19,1.13-.15,5.69-.29,2.83-.51L99,86.37c-8.85-.55,6.73-1.17,11.1-1.48-9-.11-11.69.47-21.28.47a57.08,57.08,0,0,1,6.11.48c.33.63-8.61.35-15,.4,4.06.27,1.71.5-1.25.74a9.31,9.31,0,0,0-1.14.1l-1,.09h.77c-.06.07.11.15.67.27,5.36-.19,9.46.33,12.91.34-3.41-1,11.76-.23,16.1-.54l5-.1h1.87c.38.11-.15.25-3,.45,2.38-.2,10.34-.13,9.6-.46h18.16c.56,0,1.13.09,1.55.16.63-.06.73-.11.65-.16l79.1-.07c-3.9-.08-7.28-.31-11.3-.42C214.6,86,202,86.51,203.74,85.87Z"/><path class="cls-1" d="M85.19,85.33l3.58,0C87.74,85.33,86.57,85.31,85.19,85.33Z"/><path class="cls-1" d="M225.42,87.05h-5.56C221.58,87.08,223.38,87.09,225.42,87.05Z"/><path class="cls-1" d="M70.77,86.52l-9.86,0c3.37.28-2.52.4-3.11.61H69.87C69.82,87,71,86.72,70.77,86.52Z"/><path class="cls-1" d="M73.36,87.58a19.16,19.16,0,0,1,3.12-.41H69.87C69.91,87.33,70.65,87.48,73.36,87.58Z"/><path class="cls-1" d="M266.49,84.86l2.63,0C267.92,84.82,267.13,84.84,266.49,84.86Z"/><path class="cls-1" d="M298,85.18c-8.45,0-20.75-.36-22.91.23.13-.1,0-.22-1.23-.28l-5.22.63,5,.21c-5.25.62-22.21.48-25.27.09,9.64-.21,4.8-1,18.23-.56-.6-.19-3.06-.53,0-.64-15.73.22-29.84-.13-46.14.53,12.82.62-8.41.52-4.38,1.32l7-.27-.59.22,8.51-.07c-1.75-.37-3.06-.39-2.68-.78,11.37.15,3.59.46,11.92.94l12.71-.07-1,.12a12.07,12.07,0,0,0,1.91-.12l42.81-.24C304.3,86.13,292.21,85.75,298,85.18Z"/><path class="cls-1" d="M378.22,85l-.13.07C378.38,85.05,378.47,85,378.22,85Z"/><path class="cls-1" d="M371.22,85.28l1.72-.36-7.68.76,12-.06.87-.53A44.17,44.17,0,0,1,371.22,85.28Z"/><path class="cls-1" d="M365.73,85c-.13-.45-7.12-.19-8.73-.11l-.64,1.22c6.17-.22,5.84-.84,2.47-1.13C364.5,84.72,361.82,85.67,365.73,85Z"/><polygon class="cls-1" points="310.78 85.81 312.52 85.55 308.24 85.48 310.78 85.81"/><path class="cls-1" d="M315.49,85.11l-3,.44,4.25.07A3.09,3.09,0,0,0,315.49,85.11Z"/><path class="cls-1" d="M334.12,85.89l-6.21-.09C329.71,85.84,331.7,85.88,334.12,85.89Z"/><path class="cls-1" d="M323.2,85.72l4.71.08-4.85-.16Z"/><path class="cls-1" d="M324.41,86.39l-1.21-.67-6.43-.1C317.46,86.05,318.27,86.51,324.41,86.39Z"/><path class="cls-1" d="M345.51,86.05c-.1.27,3.13.11,4.76,0C349,86.05,347.09,86,345.51,86.05Z"/><path class="cls-1" d="M470,85.18a20.32,20.32,0,0,0-2.86-.22Z"/></g></g></svg>