<svg xmlns="http://www.w3.org/2000/svg" xmlns:xlink="http://www.w3.org/1999/xlink" viewBox="0 0 1168.85 445.2"><defs><style>.cls-1{fill:url(#Degradado_sin_nombre_34);}.cls-2{fill:#ffd9b7;}.cls-3{fill:#fff;}.cls-4{fill:url(#Degradado_sin_nombre_6);}.cls-5{fill:#65b3f0;}.cls-6{fill:url(#Degradado_sin_nombre_6-2);}.cls-7{fill:#ffb368;}.cls-8{fill:url(#Degradado_sin_nombre_6-3);}.cls-9{fill:url(#Degradado_sin_nombre_34-2);}.cls-10{fill:url(#Degradado_sin_nombre_34-3);}.cls-11{fill:#76c6ef;}.cls-12{fill:url(#Degradado_sin_nombre_6-4);}.cls-13{fill:#15005d;}</style><linearGradient id="Degradado_sin_nombre_34" x1="949.1" y1="323" x2="1110.97" y2="323" gradientUnits="userSpaceOnUse"><stop offset="0" stop-color="#62dd8e"/><stop offset="0.48" stop-color="#5dd08c"/><stop offset="1" stop-color="#56bd88"/></linearGradient><linearGradient id="Degradado_sin_nombre_6" x1="440.09" y1="327.56" x2="744.35" y2="327.56" gradientUnits="userSpaceOnUse"><stop offset="0" stop-color="#ff9657"/><stop offset="1" stop-color="#ffb55b"/></linearGradient><linearGradient id="Degradado_sin_nombre_6-2" x1="336.78" y1="83.57" x2="497.45" y2="83.57" xlink:href="#Degradado_sin_nombre_6"/><linearGradient id="Degradado_sin_nombre_6-3" x1="135.42" y1="114.9" x2="180.44" y2="114.9" gradientTransform="translate(233.21 -65.31) rotate(76.63)" xlink:href="#Degradado_sin_nombre_6"/><linearGradient id="Degradado_sin_nombre_34-2" x1="908.28" y1="244.6" x2="1026.86" y2="244.6" xlink:href="#Degradado_sin_nombre_34"/><linearGradient id="Degradado_sin_nombre_34-3" x1="767.72" y1="357.04" x2="1044.74" y2="357.04" xlink:href="#Degradado_sin_nombre_34"/><linearGradient id="Degradado_sin_nombre_6-4" x1="825.78" y1="270.53" x2="913.63" y2="270.53" xlink:href="#Degradado_sin_nombre_6"/></defs><g id="Capa_2" data-name="Capa 2"><g id="Capa_1-2" data-name="Capa 1"><polygon class="cls-1" points="967.72 329 1006.33 275.37 1031.99 262.32 1042.22 269.03 1058.36 258.93 1110.97 365.01 949.1 387.07 967.72 329"/><rect class="cls-2" x="704.57" y="323" width="171.99" height="119.02"/><path class="cls-3" d="M1057,366.4a27,27,0,0,1,54-1.39,39.07,39.07,0,0,1,4.22-.23,38.62,38.62,0,0,1,0,77.24H887V366Z"/><polygon class="cls-3" points="78.03 441.87 478.08 442.02 478.08 298.61 73.05 298.61 78.03 441.87"/><circle class="cls-3" cx="807.46" cy="265.14" r="136.62"/><path class="cls-3" d="M269.7,135.55c-79.64,0-116.58,69.16-132.16,117.65a52.85,52.85,0,0,1-49,36.42l-.93,0a74,74,0,1,0,76.19,86.45A143.18,143.18,0,0,0,269.7,422.69c78.12,0,142.47-63.42,143.55-141.53A143.56,143.56,0,0,0,269.7,135.55Z"/><circle class="cls-3" cx="488.63" cy="221.6" r="148.57"/><circle class="cls-3" cx="876.56" cy="319.29" r="122.73" transform="translate(30.96 713.34) rotate(-45)"/><path class="cls-4" d="M744.35,257.68a31.54,31.54,0,0,0-31.54-31.54H471.63a31.54,31.54,0,0,0-31.54,31.54V400a29,29,0,0,0,29,29H715.38a29,29,0,0,0,29-29Z"/><path class="cls-5" d="M901.29,81.41c0,25.08-45.4,72.82-45.4,72.82s-45.41-47.74-45.41-72.82a45.41,45.41,0,0,1,90.81,0Z"/><path class="cls-3" d="M875.76,84.59A21,21,0,1,1,857.47,61.2,21,21,0,0,1,875.76,84.59Z"/><path class="cls-6" d="M339,148.24l22.09-26.36Q397.18,78.8,437,39L451.88,24.1A78.66,78.66,0,0,1,488.17,3.47a7.44,7.44,0,0,1,9,9A78.66,78.66,0,0,1,476.58,48.8L461.66,63.72q-39.74,39.73-82.86,75.87l-26.36,22.09A9.54,9.54,0,0,1,339,148.24Z"/><path class="cls-3" d="M436.31,39.67,336,15.55a6.83,6.83,0,0,0-6.42,1.81L325,21.89a6.82,6.82,0,0,0,1.67,10.87l76.9,40.07Z"/><path class="cls-3" d="M461,64.37,485.13,164.7a6.83,6.83,0,0,1-1.81,6.42l-4.53,4.53A6.82,6.82,0,0,1,467.92,174L428.4,95.8Z"/><path class="cls-3" d="M362.7,51.52l-5.88,5.89a4,4,0,0,0,0,5.68l4.61,4.61a4,4,0,0,0,5.68,0l9.14-9.14Z"/><path class="cls-3" d="M337.13,38.65l-2.95,3a3,3,0,0,0-.13,4.28l3.37,3.37a3,3,0,0,0,4.29-.12l5.48-5.48Z"/><path class="cls-3" d="M449.16,138l-5.89,5.88a4,4,0,0,1-5.68,0L433,139.25a4,4,0,0,1,0-5.68l9.14-9.14Z"/><path class="cls-3" d="M462,163.55l-3,2.95a3,3,0,0,1-4.28.13l-3.37-3.37a3,3,0,0,1,.12-4.29l5.48-5.48Z"/><path class="cls-3" d="M350.4,162.94l8.71,15.23a4.87,4.87,0,0,0,7.66,1l3.6-3.61a4.86,4.86,0,0,0,1.28-4.61l-5.26-21Z"/><path class="cls-3" d="M337.15,150l-14.64-8.42a4.87,4.87,0,0,1-1-7.66l3.61-3.6A4.86,4.86,0,0,1,329.7,129l21,5.26Z"/><polygon class="cls-3" points="556.01 345.97 532.19 367.97 510.68 345.97 510.68 226.14 556.01 226.14 556.01 345.97"/><polygon class="cls-3" points="670.75 345.97 646.93 367.97 625.43 345.97 625.43 226.14 670.75 226.14 670.75 345.97"/><polygon class="cls-5" points="546.67 354.31 532.19 367.97 517.23 354.31 517.23 428.41 546.67 428.41 546.67 354.31"/><polygon class="cls-5" points="661.03 354.31 646.55 367.97 631.59 354.31 631.59 428.41 661.03 428.41 661.03 354.31"/><path class="cls-5" d="M518.93,203.15h34.54a5.39,5.39,0,0,1,5.39,5.39V222.2a0,0,0,0,1,0,0H513.53a0,0,0,0,1,0,0V208.54A5.39,5.39,0,0,1,518.93,203.15Z"/><path class="cls-5" d="M523.79,202.68h21.83V187.52a4.71,4.71,0,0,1,4.7-4.7h41.73V163H549.57a25.44,25.44,0,0,0-25.43,24.85Z"/><polygon class="cls-3" points="465.88 425.9 472.98 441.87 492.8 441.87 500.13 425.9 465.88 425.9"/><polygon class="cls-3" points="680.79 425.9 687.89 441.87 707.71 441.87 715.03 425.9 680.79 425.9"/><path class="cls-3" d="M603.14,120.34h99.15a15,15,0,0,1,15,15V225.4a0,0,0,0,1,0,0H603.14a0,0,0,0,1,0,0V120.34A0,0,0,0,1,603.14,120.34Z"/><circle class="cls-7" cx="60.25" cy="374.33" r="17.15" transform="translate(-317.88 346.55) rotate(-76.65)"/><circle class="cls-8" cx="157.93" cy="114.9" r="22.51" transform="translate(9.64 241.99) rotate(-76.63)"/><path class="cls-3" d="M414.81,258.56,300,193.71,182.46,258.56a3.44,3.44,0,0,0,1.51,6.58H413.3A3.44,3.44,0,0,0,414.81,258.56Z"/><path class="cls-3" d="M246.27,285.63v.89a11.91,11.91,0,0,1-11.91,11.91H219.31a11.91,11.91,0,0,1-11.91-11.91v-.89Z"/><path class="cls-3" d="M294.62,285.63v.89a11.92,11.92,0,0,1-11.92,11.91h-15a11.92,11.92,0,0,1-11.92-11.91v-.89Z"/><path class="cls-3" d="M343,285.63v.89a11.91,11.91,0,0,1-11.91,11.91H316a11.91,11.91,0,0,1-11.91-11.91v-.89Z"/><path class="cls-3" d="M391.31,285.63v.89a11.92,11.92,0,0,1-11.92,11.91h-15a11.92,11.92,0,0,1-11.92-11.91v-.89Z"/><path class="cls-3" d="M352.43,406v-.89a11.92,11.92,0,0,1,11.92-11.92h15a11.92,11.92,0,0,1,11.92,11.92V406Z"/><path class="cls-3" d="M304.09,406v-.89A11.92,11.92,0,0,1,316,393.2h15.05A11.92,11.92,0,0,1,343,405.12V406Z"/><path class="cls-3" d="M255.74,406v-.89a11.92,11.92,0,0,1,11.92-11.92h15a11.92,11.92,0,0,1,11.92,11.92V406Z"/><path class="cls-3" d="M207.4,406v-.89a11.92,11.92,0,0,1,11.91-11.92h15.05a11.92,11.92,0,0,1,11.91,11.92V406Z"/><path class="cls-5" d="M290.14,221.6h11.43a9.65,9.65,0,0,1,9.65,9.65v18.52a0,0,0,0,1,0,0H280.49a0,0,0,0,1,0,0V231.25A9.65,9.65,0,0,1,290.14,221.6Z"/><rect class="cls-3" x="216.79" y="298.43" width="20.49" height="93.49"/><rect class="cls-3" x="264.94" y="298.43" width="20.49" height="93.49"/><rect class="cls-3" x="313.28" y="298.43" width="20.49" height="93.49"/><rect class="cls-3" x="362.79" y="298.43" width="20.49" height="93.49"/><rect class="cls-5" x="171.1" y="423.94" width="238.2" height="17.93"/><rect class="cls-3" x="195.02" y="408.57" width="207.47" height="13.18"/><path class="cls-3" d="M150.29,155.58a8,8,0,1,1,.18-16.08h12s.15-5.47,1.25-7.46c2.46-4.47,8-6.62,13.53-6.62h9.83a14.08,14.08,0,0,1,14.08,14.08h17a7.69,7.69,0,0,1,7.69,7.69v.7a7.69,7.69,0,0,1-7.69,7.69Z"/><path class="cls-9" d="M908.28,252.63c3.2-1.5,29.83-41.92,29.83-41.92l11,1.69,18.68-14.1,9,8.39,6.94-4.9,21.17,12,22,32.74L995.15,290.9l-18.19-31-17.05,3.69-10.84-22Z"/><polygon class="cls-3" points="979.79 327.56 1036.41 295.6 1049.08 307.84 1063.85 295.6 1087.36 311.58 1064.58 265.64 1048.44 275.73 1038.2 269.02 1012.55 282.07 979.79 327.56"/><path class="cls-10" d="M1044.74,417.72v-27.5A33.49,33.49,0,0,0,1020.47,358l-39.76-11.4L941.05,307a36.22,36.22,0,0,0-25.62-10.61h-91a35.57,35.57,0,0,0-35.57,35.57V352a42.42,42.42,0,0,0-21.1,36.68v29.05Z"/><circle class="cls-11" cx="973.82" cy="421.18" r="22.43"/><circle class="cls-11" cx="823.05" cy="421.18" r="22.43"/><path class="cls-3" d="M945.6,349.24l-24.87-24.88A32.2,32.2,0,0,0,898,314.94H836a14.77,14.77,0,0,0-14.77,14.77v19.53Z"/><polygon class="cls-12" points="825.78 281.64 837.45 259.42 902.19 259.42 913.63 281.42 825.78 281.64"/><circle class="cls-3" cx="228.61" cy="186.83" r="12.5"/><rect class="cls-13" x="662.4" y="438.69" width="130.89" height="6.35"/><rect class="cls-13" x="1008.46" y="438.69" width="160.39" height="6.35"/><rect class="cls-13" y="438.69" width="518.45" height="6.35"/><path class="cls-13" d="M593.67,222.67h-6.35V114.43h94.81A25.64,25.64,0,0,1,707.74,140v67.72h-6.35V140a19.28,19.28,0,0,0-19.26-19.26H593.67Z"/><polygon class="cls-13" points="655.38 117.6 649.03 117.6 649.03 85.25 608.63 85.25 608.63 117.6 602.28 117.6 602.28 78.9 655.38 78.9 655.38 117.6"/><path class="cls-13" d="M644.4,207.18a30.75,30.75,0,1,1,30.76-30.75A30.79,30.79,0,0,1,644.4,207.18Zm0-55.15a24.4,24.4,0,1,0,24.4,24.4A24.43,24.43,0,0,0,644.4,152Z"/><path class="cls-13" d="M618.33,175.13l-3-5.6a66.73,66.73,0,0,1,58.16,0l-3,5.6a60.38,60.38,0,0,0-52.15,0Z"/><path class="cls-13" d="M644.4,190a66.67,66.67,0,0,1-29.08-6.67l3-5.6a60.38,60.38,0,0,0,52.15,0l3,5.6A66.56,66.56,0,0,1,644.4,190Z"/><path class="cls-13" d="M651.3,205.51l-5.6-3a60.38,60.38,0,0,0,0-52.15l5.6-3a66.73,66.73,0,0,1,0,58.16Z"/><path class="cls-13" d="M637.51,205.51a66.64,66.64,0,0,1,0-58.16l5.59,3a60.38,60.38,0,0,0,0,52.15Z"/><path class="cls-13" d="M715.22,428.68H468.9a32.18,32.18,0,0,1-32.15-32.14V254.21a34.76,34.76,0,0,1,34.72-34.72H712.65a34.76,34.76,0,0,1,34.71,34.72V396.54A32.18,32.18,0,0,1,715.22,428.68ZM471.47,225.84a28.41,28.41,0,0,0-28.37,28.37V396.54a25.82,25.82,0,0,0,25.8,25.79H715.22A25.82,25.82,0,0,0,741,396.54V254.21a28.4,28.4,0,0,0-28.36-28.37Z"/><polygon class="cls-13" points="533.08 369.33 508.73 343.07 508.73 237.39 515.08 237.39 515.08 340.57 533.49 360.43 554.53 341.51 554.53 237.39 560.88 237.39 560.88 344.34 533.08 369.33"/><path class="cls-13" d="M547.62,204h-6.35v-16a7.82,7.82,0,0,1,7.81-7.82h29v6.35h-29a1.46,1.46,0,0,0-1.46,1.47Z"/><path class="cls-13" d="M526.27,204h-6.36v-16a27.48,27.48,0,0,1,27.45-27.45h30.76V167H547.36a21.12,21.12,0,0,0-21.09,21.1Z"/><rect class="cls-13" x="515.27" y="348.63" width="6.35" height="76.88"/><rect class="cls-13" x="544.71" y="351.52" width="6.35" height="73.99"/><polygon class="cls-13" points="647.59 369.33 623.23 343.07 623.23 237.39 629.59 237.39 629.59 340.57 647.99 360.43 669.04 341.51 669.04 237.39 675.39 237.39 675.39 344.34 647.59 369.33"/><rect class="cls-13" x="629.78" y="348.63" width="6.35" height="76.88"/><rect class="cls-13" x="659.22" y="351.52" width="6.35" height="73.99"/><path class="cls-13" d="M539.71,324.09a4.91,4.91,0,1,1-4.91-4.91A4.91,4.91,0,0,1,539.71,324.09Z"/><path class="cls-13" d="M654.22,324.09a4.91,4.91,0,1,1-4.91-4.91A4.91,4.91,0,0,1,654.22,324.09Z"/><polygon class="cls-13" points="494.87 445.04 470.92 445.04 462.72 426.61 468.52 424.03 475.04 438.69 490.73 438.69 497.22 424.03 503.03 426.61 494.87 445.04"/><polygon class="cls-13" points="709.9 445.04 685.95 445.04 677.76 426.61 683.56 424.03 690.08 438.69 705.77 438.69 712.26 424.03 718.07 426.61 709.9 445.04"/><path class="cls-13" d="M560.88,222.67h-6.35v-9.9a5.6,5.6,0,0,0-5.59-5.59H520.66a5.59,5.59,0,0,0-5.58,5.59v9.9h-6.35v-9.9a12,12,0,0,1,11.93-11.94h28.28a12,12,0,0,1,11.94,11.94Z"/><path class="cls-13" d="M856.66,161.1l-2.3-2.42c-1.89-2-46.28-49-46.28-75a48.58,48.58,0,0,1,97.16,0c0,26.05-44.39,73-46.28,75Zm0-119.65a42.27,42.27,0,0,0-42.22,42.22c0,20.4,33.09,58.13,42.22,68.14,9.12-10,42.23-47.75,42.23-68.14A42.28,42.28,0,0,0,856.66,41.45Z"/><path class="cls-13" d="M855.72,108.47a24.45,24.45,0,0,1-3-.18,24.15,24.15,0,1,1,3,.18Zm0-42A17.84,17.84,0,0,0,838,82.14a17.82,17.82,0,1,0,17.67-15.66Z"/><path class="cls-13" d="M477.62,40.74l-4.49-4.5a6.06,6.06,0,1,0-8.58-8.57l-4.49-4.49a12.42,12.42,0,0,1,17.56,17.56Z"/><rect class="cls-13" x="332.72" y="94.21" width="34.78" height="6.35" transform="translate(33.69 276.09) rotate(-45)"/><rect class="cls-13" x="334.79" y="85.01" width="11.72" height="6.35" transform="translate(37.42 266.71) rotate(-45)"/><rect class="cls-13" x="404.39" y="159.25" width="15.39" height="6.35" transform="translate(5.85 338.97) rotate(-45)"/><rect class="cls-13" x="385.29" y="148.57" width="36.02" height="6.35" transform="translate(10.82 329.62) rotate(-45)"/><path class="cls-13" d="M346.72,167.05a12.74,12.74,0,0,1-9.74-20.9l22.09-26.37c24-28.67,49.61-56.61,76.06-83.06L450.05,21.8A81.91,81.91,0,0,1,487.8.33a10.62,10.62,0,0,1,12.9,12.91A81.85,81.85,0,0,1,479.24,51L464.32,65.91c-26.45,26.45-54.39,52-83.07,76.06l-26.36,22.09A12.71,12.71,0,0,1,346.72,167.05ZM490.45,6.35a4.59,4.59,0,0,0-1.09.14,75.62,75.62,0,0,0-34.82,19.8L439.62,41.21c-26.32,26.32-51.78,54.13-75.68,82.65l-22.09,26.37a6.36,6.36,0,0,0,9,9l26.36-22.09c28.53-23.9,56.34-49.37,82.66-75.68L474.74,46.5a75.63,75.63,0,0,0,19.81-34.82,4.28,4.28,0,0,0-4.1-5.33Z"/><path class="cls-13" d="M404.63,76.68l-79-41.15a10,10,0,0,1-2.45-15.94l4.52-4.53a10.07,10.07,0,0,1,9.41-2.65l105.8,25.43ZM334.8,18.49a3.68,3.68,0,0,0-2.59,1.06l-4.52,4.53a3.64,3.64,0,0,0,.89,5.81l74.82,39,27.11-27.48-94.86-22.8A3.53,3.53,0,0,0,334.8,18.49Z"/><path class="cls-13" d="M474.42,180.77a10.25,10.25,0,0,1-1.56-.12,9.93,9.93,0,0,1-7.35-5.26l-34.77-68,5.66-2.89,34.75,68a3.59,3.59,0,0,0,2.67,1.89,3.63,3.63,0,0,0,3.14-1l4.52-4.53a3.68,3.68,0,0,0,1-3.43L458.33,65.06l6.18-1.49,24.12,100.34a10.08,10.08,0,0,1-2.65,9.4l-4.53,4.53A9.92,9.92,0,0,1,474.42,180.77Z"/><path class="cls-13" d="M364.68,72a7.16,7.16,0,0,1-5.09-2.11L355,65.28a7.21,7.21,0,0,1,0-10.17l5.89-5.88,4.49,4.49-5.89,5.88a.86.86,0,0,0,0,1.19l4.61,4.61a.84.84,0,0,0,.6.25.81.81,0,0,0,.59-.25l9.14-9.14,4.5,4.5-9.15,9.14A7.15,7.15,0,0,1,364.68,72Z"/><path class="cls-13" d="M339.86,53.21a6,6,0,0,1-4.27-1.76l-3.37-3.37a6.21,6.21,0,0,1,.12-8.77l3-3,4.49,4.49-2.92,2.92,3,3,5.44-5.43,4.5,4.49-5.49,5.48A6.36,6.36,0,0,1,340,53.21Z"/><path class="cls-13" d="M440.84,148.16a7.14,7.14,0,0,1-5.09-2.11l-4.61-4.61a7.21,7.21,0,0,1,0-10.17l9.14-9.14,4.49,4.49-9.14,9.14a.86.86,0,0,0,0,1.19l4.61,4.61a.88.88,0,0,0,.6.25.85.85,0,0,0,.59-.25l5.89-5.88,4.49,4.49-5.89,5.88A7.12,7.12,0,0,1,440.84,148.16Z"/><path class="cls-13" d="M457.23,170.57a6,6,0,0,1-4.27-1.75l-3.38-3.37a6.07,6.07,0,0,1-1.75-4.46,6.36,6.36,0,0,1,1.88-4.32l5.48-5.48,4.49,4.49-5.44,5.44,3,3,2.92-2.91,4.49,4.49-3,3A6.36,6.36,0,0,1,457.23,170.57Z"/><path class="cls-13" d="M363.77,183.74a8.23,8.23,0,0,1-1.1-.07,8,8,0,0,1-5.91-4l-8.7-15.22,5.51-3.16,8.71,15.23a1.69,1.69,0,0,0,2.65.36l3.6-3.6a1.64,1.64,0,0,0,.44-1.6l-5.25-21,6.16-1.55,5.26,21a8.06,8.06,0,0,1-2.12,7.63l-3.6,3.6A8,8,0,0,1,363.77,183.74Z"/><path class="cls-13" d="M336,152.69l-14.63-8.42a8,8,0,0,1-1.69-12.66l3.6-3.6a8.08,8.08,0,0,1,7.63-2.11l21,5.26-1.54,6.16-21-5.26a1.69,1.69,0,0,0-1.6.44l-3.6,3.61a1.61,1.61,0,0,0-.47,1.41,1.64,1.64,0,0,0,.83,1.24l14.64,8.42Z"/><rect class="cls-13" x="326.21" y="152.86" width="37.58" height="6.35" transform="translate(-9.29 289.65) rotate(-45)"/><path class="cls-13" d="M446.92,59.87a6,6,0,1,1,4.21-10.17,6,6,0,0,1-4.21,10.17Zm-.28-6.24a.4.4,0,0,0,0,.56.4.4,0,0,0,.57,0Zm.28-.12a.44.44,0,0,0-.28.12l.57.56a.39.39,0,0,0,.11-.28.41.41,0,0,0-.11-.28A.45.45,0,0,0,446.92,53.51Z"/><path class="cls-13" d="M434,72.83a6,6,0,0,1-4.21-10.17,6.11,6.11,0,0,1,8.42,0,6,6,0,0,1,0,8.42A5.89,5.89,0,0,1,434,72.83Zm-.28-6.24a.4.4,0,0,0,0,.56.42.42,0,0,0,.56,0Zm.28-.11a.41.41,0,0,0-.28.11l.57.57a.42.42,0,0,0,0-.57A.44.44,0,0,0,434,66.48Z"/><path class="cls-13" d="M404.63,268.31H175.29a6.64,6.64,0,0,1-6.56-5.23,6.48,6.48,0,0,1,3.61-7.35l119-65.66L407.6,255.74a6.47,6.47,0,0,1,3.6,7.34A6.65,6.65,0,0,1,404.63,268.31Zm-113.32-71-116.2,64.1c-.2.09-.21.13-.18.27s.15.24.36.24H404.63c.21,0,.32,0,.37-.24s0-.18-.18-.27l-.24-.12Z"/><rect class="cls-13" x="204.95" y="297.22" width="6.35" height="94.7"/><rect class="cls-13" x="225.44" y="297.22" width="6.35" height="94.7"/><rect class="cls-13" x="253.61" y="298.43" width="6.35" height="93.49"/><rect class="cls-13" x="274.1" y="298.43" width="6.35" height="93.49"/><rect class="cls-13" x="302.28" y="298.43" width="6.35" height="93.49"/><rect class="cls-13" x="322.77" y="298.43" width="6.35" height="93.49"/><rect class="cls-13" x="350.94" y="297.22" width="6.35" height="94.7"/><rect class="cls-13" x="371.43" y="297.22" width="6.35" height="94.7"/><path class="cls-13" d="M225.69,301.61H210.64a15.11,15.11,0,0,1-15.09-15.09v-.89h6.35v.89a8.75,8.75,0,0,0,8.74,8.74h15.05a8.75,8.75,0,0,0,8.74-8.74v-.89h6.35v.89A15.11,15.11,0,0,1,225.69,301.61Z"/><path class="cls-13" d="M274,301.61H259a15.11,15.11,0,0,1-15.1-15.09v-.89h6.36v.89a8.75,8.75,0,0,0,8.74,8.74h15a8.75,8.75,0,0,0,8.74-8.74v-.89h6.35v.89A15.11,15.11,0,0,1,274,301.61Z"/><path class="cls-13" d="M322.37,301.61h-15a15.11,15.11,0,0,1-15.09-15.09v-.89h6.35v.89a8.75,8.75,0,0,0,8.74,8.74h15a8.75,8.75,0,0,0,8.74-8.74v-.89h6.36v.89A15.11,15.11,0,0,1,322.37,301.61Z"/><path class="cls-13" d="M370.72,301.61h-15a15.11,15.11,0,0,1-15.1-15.09v-.89h6.35v.89a8.76,8.76,0,0,0,8.75,8.74h15a8.75,8.75,0,0,0,8.74-8.74v-.89h6.35v.89A15.11,15.11,0,0,1,370.72,301.61Z"/><rect class="cls-13" x="186.35" y="279.89" width="207.47" height="6.35"/><rect class="cls-13" x="186.35" y="405.39" width="207.47" height="6.35"/><path class="cls-13" d="M385.81,406h-6.35v-.89a8.75,8.75,0,0,0-8.74-8.74h-15a8.76,8.76,0,0,0-8.75,8.74V406h-6.35v-.89A15.11,15.11,0,0,1,355.68,390h15a15.11,15.11,0,0,1,15.09,15.09Z"/><path class="cls-13" d="M337.47,406h-6.36v-.89a8.75,8.75,0,0,0-8.74-8.74h-15a8.75,8.75,0,0,0-8.74,8.74V406h-6.35v-.89A15.11,15.11,0,0,1,307.33,390h15a15.11,15.11,0,0,1,15.1,15.09Z"/><path class="cls-13" d="M289.12,406h-6.35v-.89a8.75,8.75,0,0,0-8.74-8.74H259a8.75,8.75,0,0,0-8.74,8.74V406h-6.36v-.89A15.11,15.11,0,0,1,259,390h15a15.11,15.11,0,0,1,15.09,15.09Z"/><path class="cls-13" d="M240.78,406h-6.35v-.89a8.75,8.75,0,0,0-8.74-8.74H210.64a8.75,8.75,0,0,0-8.74,8.74V406h-6.35v-.89A15.11,15.11,0,0,1,210.64,390h15.05a15.11,15.11,0,0,1,15.09,15.09Z"/><polygon class="cls-13" points="411.08 441.87 404.73 441.87 404.73 427.11 172.88 427.11 172.88 441.87 166.53 441.87 166.53 420.76 411.08 420.76 411.08 441.87"/><path class="cls-13" d="M311.19,253H274.1v-16a18.52,18.52,0,0,1,18.5-18.5h.09a18.52,18.52,0,0,1,18.5,18.5Zm-30.74-6.36h24.39v-9.67a12.17,12.17,0,0,0-12.15-12.15h-.09a12.16,12.16,0,0,0-12.15,12.15Z"/><path class="cls-13" d="M329.78,242.09a3.84,3.84,0,1,1-3.84-3.85A3.84,3.84,0,0,1,329.78,242.09Z"/><path class="cls-13" d="M263.19,242.09a3.84,3.84,0,1,1-3.84-3.85A3.84,3.84,0,0,1,263.19,242.09Z"/><path class="cls-13" d="M633,445h-8.84v-6.35H633Zm-18.36,0h-9.53v-6.35h9.53Zm-19.06,0H586v-6.35h9.53Zm-19.06,0H567v-6.35h9.52Zm-19.05,0h-9.53v-6.35h9.53Z"/><path class="cls-13" d="M1046,418.37h-36.15V412h29.8V387.7a30.44,30.44,0,0,0-22-29.14l-40.56-11.63-40.24-40.24A32.84,32.84,0,0,0,913.56,297h-91a32.43,32.43,0,0,0-32.39,32.39v21.89l-1.58.92A39.36,39.36,0,0,0,769,386.14V412h19.25v6.35h-25.6V386.14a45.76,45.76,0,0,1,21.11-38.46V329.4a38.79,38.79,0,0,1,38.74-38.74h91a39.14,39.14,0,0,1,27.86,11.54l39.08,39.08,39,11.17A36.83,36.83,0,0,1,1046,387.7Z"/><rect class="cls-13" x="859.51" y="412.02" width="81.79" height="6.35"/><path class="cls-13" d="M790.4,418.66H784a40.82,40.82,0,0,1,40.78-40.77v6.35A34.46,34.46,0,0,0,790.4,418.66Z"/><path class="cls-13" d="M825.21,444.75a25.6,25.6,0,1,1,25.6-25.6A25.62,25.62,0,0,1,825.21,444.75Zm0-44.85a19.25,19.25,0,1,0,19.25,19.25A19.27,19.27,0,0,0,825.21,399.9Z"/><path class="cls-13" d="M975.59,444.75a25.6,25.6,0,1,1,25.6-25.6A25.62,25.62,0,0,1,975.59,444.75Zm0-44.85a19.25,19.25,0,1,0,19.25,19.25A19.28,19.28,0,0,0,975.59,399.9Z"/><path class="cls-13" d="M953.27,352.41H818.07v-22.7A18,18,0,0,1,836,311.76h62a35.12,35.12,0,0,1,25,10.35Zm-128.84-6.35H937.94L918.48,326.6A28.79,28.79,0,0,0,898,318.12H836a11.6,11.6,0,0,0-11.59,11.59Z"/><rect class="cls-13" x="889.31" y="347.92" width="6.35" height="65.96"/><rect class="cls-13" x="904.36" y="364.53" width="15.83" height="6.35"/><path class="cls-13" d="M821.25,419.15a4,4,0,1,0,4-4A4,4,0,0,0,821.25,419.15Z"/><path class="cls-13" d="M971.63,419.15a4,4,0,1,0,4-4A4,4,0,0,0,971.63,419.15Z"/><path class="cls-13" d="M837.9,386.53c-1.64-1.17-6.2-2-8.92-2.3l.58-6.33c1.38.13,8.44.9,12,3.46Z"/><polygon class="cls-13" points="827.63 280.6 822 277.64 834.56 253.72 903.16 253.72 915.49 277.43 909.85 280.36 899.3 260.07 838.4 260.07 827.63 280.6"/><path class="cls-13" d="M893.07,278.54h-9.53v-6.35h9.53Zm-19.06,0h-9.53v-6.35H874Zm-19.06,0h-9.52v-6.35H855Z"/><rect class="cls-13" x="959.76" y="364.53" width="42.21" height="6.35"/><polygon class="cls-13" points="1023.66 248.38 964.12 163.72 910.88 239.39 905.68 235.74 964.12 152.68 1028.86 244.73 1023.66 248.38"/><polygon class="cls-13" points="997.06 209.87 977.64 198.85 970.23 204.07 961.32 195.74 944.77 208.23 940.94 203.16 961.75 187.45 970.79 195.9 977.27 191.34 1000.2 204.35 997.06 209.87"/><polygon class="cls-13" points="975.55 322.71 970.39 319.01 1032.88 231.87 1042.68 245.99 1049.78 239.85 1075.35 281.01 1069.96 284.36 1048.31 249.52 1041.49 255.41 1032.8 242.88 975.55 322.71"/><path class="cls-13" d="M1004.37,281.85l-3.22-5.47,30.19-17.8,10.22,6.69c6.49-3.94,13.14-8,14-8.7a3,3,0,0,0-1.06,2l3.14.36,2.48-2,.66,2.55c-.31,1.79-.31,1.79-17.63,12.25l-1.71,1-10.25-6.72Z"/><path class="cls-13" d="M150.51,141.47a25.73,25.73,0,0,1,8.29-50.09h.11a25.75,25.75,0,0,1,24.51,33.23l-6.08-1.85a19.38,19.38,0,0,0-18.46-25h-.08a19.38,19.38,0,0,0-6.25,37.72Z"/><path class="cls-13" d="M217.44,158.6H171.92v-6.35h45.52a4.52,4.52,0,0,0,4.51-4.52V147a4.52,4.52,0,0,0-4.51-4.52H197.3v-3.17a10.91,10.91,0,0,0-10.9-10.9h-9.84a13.86,13.86,0,0,0-11,5.39l-5-3.89a20.17,20.17,0,0,1,16-7.86h9.84a17.29,17.29,0,0,1,17,14.08h14.08A10.89,10.89,0,0,1,228.31,147v.7A10.89,10.89,0,0,1,217.44,158.6Z"/><path class="cls-13" d="M180,158.6H149.62a11.22,11.22,0,1,1,.18-22.44H180v6.35H149.8a4.85,4.85,0,0,0-4.11,7.75,4.84,4.84,0,0,0,3.93,2H180Z"/><rect class="cls-13" x="151.65" y="63.93" width="6.35" height="14.08"/><rect class="cls-13" x="125.12" y="72.84" width="6.35" height="13.57" transform="translate(-22.3 90.62) rotate(-36)"/><rect class="cls-13" x="108.47" y="95.76" width="6.35" height="13.57" transform="translate(-20.38 177.04) rotate(-72)"/><rect class="cls-13" x="104.86" y="127.69" width="13.57" height="6.35" transform="translate(-34.98 40.92) rotate(-18)"/><rect class="cls-13" x="192.04" y="99.37" width="13.57" height="6.35" transform="translate(-21.96 66.46) rotate(-18)"/><rect class="cls-13" x="175.39" y="76.45" width="13.57" height="6.35" transform="translate(10.67 180.2) rotate(-54)"/><path class="cls-13" d="M829.29,207.18h-6.14v-6.35h6.14a22.71,22.71,0,0,0,3-.19l.8,6.3A29.74,29.74,0,0,1,829.29,207.18Zm-15.67,0H804.1v-6.35h9.52Zm-19,0H785v-6.35h9.53Zm-19.06,0H766v-6.35h9.53Zm-19,0h-9.53v-6.35h9.53Zm86.73-3.46-3-5.6a23.47,23.47,0,0,0,6.54-5.18l4.77,4.19A29.67,29.67,0,0,1,843.19,203.72ZM857,188,851,185.8a23.36,23.36,0,0,0,1.49-8.21h6.35A29.48,29.48,0,0,1,857,188Z"/><path class="cls-13" d="M456.72,207.18h-9.53v-6.35h9.53Zm-19.05,0h-9.53v-6.35h9.53Zm-19.06,0h-9.53v-6.35h9.53Zm-19.05,0H390v-6.35h9.53Zm-19.06,0H371v-6.35h9.53Z"/><path class="cls-13" d="M144.59,377.94h-9.53v-6.35h9.53Zm-19.06,0H116v-6.35h9.52Zm-19,0H97v-6.35h9.53Zm47.85-.07-.43-6.34a24.32,24.32,0,0,0,8.14-2l2.55,5.82A30.73,30.73,0,0,1,154.33,377.87Zm19.07-8.35-4.35-4.62a24.68,24.68,0,0,0,5-6.72l5.66,2.9A31,31,0,0,1,173.4,369.52ZM182.88,351l-6.3-.81a24.34,24.34,0,0,0,.21-3.2,25.16,25.16,0,0,0-.55-5.2l6.21-1.33a31.17,31.17,0,0,1,.43,10.54Zm-9.79-17a24.6,24.6,0,0,0-5.58-6.28l4-5a31.27,31.27,0,0,1,7,7.89Zm-12.94-10.32a24.51,24.51,0,0,0-8-1.32h-.35V316h.35a30.83,30.83,0,0,1,10,1.67Zm-17.86-1.32h-9.53V316h9.53Zm-19.06,0H118c-1.51,0-3-.06-4.53-.17l.46-6.34c1.35.1,2.72.15,4.07.15h5.22Zm-19.67-1.73A61.52,61.52,0,0,1,94,317.44l2.5-5.83a53.68,53.68,0,0,0,8.53,2.84Zm-18.39-7.9a61.34,61.34,0,0,1-8-6.11l4.27-4.71a56.48,56.48,0,0,0,7.13,5.48ZM70.35,299.29a61,61,0,0,1-5.56-8.36l5.56-3.07a55.33,55.33,0,0,0,5,7.49Zm-9.67-17.53a60.27,60.27,0,0,1-2.53-9.71L64.41,271a54.53,54.53,0,0,0,2.26,8.7Zm-3.43-19.7v-.47A61,61,0,0,1,58,252l6.27,1a55.71,55.71,0,0,0-.67,8.56v.4Zm9.16-17.75-6-2a60.58,60.58,0,0,1,4-9.22l5.61,3A52.85,52.85,0,0,0,66.41,244.31Zm8.42-15.82-5-3.86a60.84,60.84,0,0,1,6.74-7.43l4.34,4.63A55.19,55.19,0,0,0,74.83,228.49Zm13.09-12.23L84.41,211a60.21,60.21,0,0,1,8.79-4.86l2.59,5.8A54.93,54.93,0,0,0,87.92,216.26Zm16.36-7.33-1.6-6.14a61.08,61.08,0,0,1,9.89-1.72l.56,6.33A55.15,55.15,0,0,0,104.28,208.93Zm103.84-1.75h-9.53v-6.35h9.53Zm-19.05,0h-9.53v-6.35h9.53Zm-19.06,0h-9.53v-6.35H170Zm-19.06,0h-9.52v-6.35H151Zm-19,0h-9.53v-6.35h9.53Z"/><path class="cls-13" d="M57.12,395.1a20.33,20.33,0,1,1,20.33-20.33A20.35,20.35,0,0,1,57.12,395.1Zm0-34.31a14,14,0,1,0,14,14A14,14,0,0,0,57.12,360.79Z"/><rect class="cls-13" x="859.51" y="438.4" width="81.79" height="6.35"/><path class="cls-13" d="M1115.19,445.2v-6.36a35.45,35.45,0,1,0,0-70.89,36.93,36.93,0,0,0-3.88.22l-3.34.36-.17-3.36a23.85,23.85,0,0,0-47.67,1.23h-6.35a30.2,30.2,0,0,1,60-4.78l1.39,0a41.8,41.8,0,0,1,0,83.6Z"/></g></g></svg>