<svg xmlns="http://www.w3.org/2000/svg" viewBox="0 0 911 961"><defs><style>.cls-1{fill:#ffd350;}.cls-2{fill:#fff;}</style></defs><g id="Capa_2" data-name="Capa 2"><g id="Capa_1-2" data-name="Capa 1"><rect class="cls-1" x="3.16" width="907.84" height="941" rx="66.92"/><path class="cls-2" d="M380,961H79.89A79.89,79.89,0,0,1,0,881.11V757.45a73.15,73.15,0,0,1,12.72-1.17c15.69,0,31.47,4.6,46.09,13.05,26.3,15.19,32.09,46.35,38,73.68,10.14-10.14,22.89-18.61,37.47-18.61,25.71,0,54.48,26.82,54.48,56.61,0,2.53-.08,4.6-.2,6.26,2.63-7.48,10.6-21,31.85-31.19a101.76,101.76,0,0,1,43.42-9.86c40.48,0,70.24,26.5,70.24,54.17a44.08,44.08,0,0,1-3.14,16.3c2.92-5.36,7.3-7.37,11.91-7.37,9.54,0,25.25,9.11,25.25,28.51a32,32,0,0,1-.17,3.79,3,3,0,0,1,2.92-1.71c1.58,0,3.31.55,4,.55,0,0,1.69-.16,3.66-.16.72,0,1.46,0,2.23.07C394,941.2,393.2,961,380,961Z"/></g></g></svg>