<svg xmlns="http://www.w3.org/2000/svg" viewBox="0 0 935.15 211.03"><defs><style>.cls-1{fill:#fff;}</style></defs><title>barra texto habitos alimenticios</title><g id="Capa_2" data-name="Capa 2"><g id="Capa_1-2" data-name="Capa 1"><path class="cls-1" d="M926.42,60.4a4.52,4.52,0,0,1-.17,1.68c.18,1.67-.83,3.12-1.28,2.49,1.22,3.39-.17,3.47,2.19,3.91,1.16,2.17-.44,4.5-1.4,2l1.44,6.27.37-3.75c2,1-.59,6,1.7,7.19l-.19-6.8.65.34c-.7-1.54-.41-4.55-.13-5.59.32.16.85,0,.91,1.25C930.66,61.21,927.07,67.2,926.42,60.4Z"/><path class="cls-1" d="M931.05,55.12l-2.46-2.87.63-4.8c-.85-.05-1.53-3.55-2.28-1.18a6.16,6.16,0,0,1,.31,2.12c-1.84-.54-.92-6.38-2.78-5,.49,3.79.09,4.37,1.58,6.71a24.54,24.54,0,0,1-1.27,7.64c.28,1,1.41,1.18,1.63,2.49,0-.29,0-.56-.07-.89l2.76-.14c-.58-1.1-.3-2.13-.36-3.35L932,61.5c2.58-1.81,1.06-7.33,2.14-9.54C931.78,54.7,933,49.79,931.05,55.12Z"/><path class="cls-1" d="M4.94,33.57l1.64,6c-.78-.8-.55,2.08-1.45.82.12.46.43,2.6.83,2l0-1.22c2.26,3.16,3.13,1.25,4.86,6.48,1.34-3.25.11-4.67-.92-6.39a13.54,13.54,0,0,1-.31-1.57l-3.17-5Z"/><path class="cls-1" d="M930.69,16.11c-.07.4-.15.86-.22,1.23A3.71,3.71,0,0,0,930.69,16.11Z"/><path class="cls-1" d="M206.75,4l4.8,0C209.67,4,208.14,4,206.75,4Z"/><path class="cls-1" d="M314.47.93l7-.21C318.72.73,316.55.82,314.47.93Z"/><path class="cls-1" d="M885,4.24h-.24l-1.1,0Z"/><path class="cls-1" d="M530.52,3.07c1.07.08,2.27.15,3.91.2A29.77,29.77,0,0,0,530.52,3.07Z"/><path class="cls-1" d="M313.18,1l.42,0,.87-.06Z"/><path class="cls-1" d="M159.3,1.29l-3.07.09C157.67,1.36,158.56,1.32,159.3,1.29Z"/><path class="cls-1" d="M166.07,3.88c-1.11,0-2.17.05-3,.09Z"/><path class="cls-1" d="M10.47,18.32l.39,2.15A6.3,6.3,0,0,0,10.47,18.32Z"/><path class="cls-1" d="M149,3.28c-.37,0-.75.08-1,.12C148.85,3.37,149.28,3.32,149,3.28Z"/><path class="cls-1" d="M922.52,30.18v-.13l-.32-.05Z"/><path class="cls-1" d="M926.74,37.31a5.93,5.93,0,0,0-.23-1.89C926.59,36,926.66,36.68,926.74,37.31Z"/><path class="cls-1" d="M624.39,4.54c1.71.13,5.72.29,3.85.44C631.51,4.79,631.29,4.33,624.39,4.54Z"/><path class="cls-1" d="M930.72,30.48c.49,3.81,1.1,8.07.28,11.19l-1.76-1.31c1.55-3.53.39-5.71.56-9.18l-.94,7.8c-1.46,3.65-1.8,1.21-2.12-1.67,0,.71-.13,1.35-.44,1.53.65.34,2.07,8.56,2.41,1.64,2,.27.94,4.44,1.44,6.29.48-1.34,1.31.66,2,.26a8.64,8.64,0,0,1-.69-3.52c.93-.69,1.56,1.6,1.22,3.39,1.07-2.21,1.61,2.8,2.43-.32C934.44,39.9,933.7,35.18,930.72,30.48Z"/><path class="cls-1" d="M919.38,28.94h0C919.36,28.87,919.36,28.88,919.38,28.94Z"/><path class="cls-1" d="M64.66,1.37a1,1,0,0,0-.33-.08C63.26,1.32,63.77,1.35,64.66,1.37Z"/><path class="cls-1" d="M613,1.9c-2.37,0-4.15,0-5.66,0C609.1,1.94,611,1.94,613,1.9Z"/><path class="cls-1" d="M716.93,7.78c-1.39,0-2.78,0-4.18,0l-.81.07C712.79,7.91,715.54,7.82,716.93,7.78Z"/><path class="cls-1" d="M402.24,8.15c1.48,0,2.85-.09,3.86-.21C403.81,8,402.79,8.08,402.24,8.15Z"/><path class="cls-1" d="M289.2,3.57h0Z"/><path class="cls-1" d="M928.15,25.19c.55-2.07,2.16.75,3.22.5-.36-3.34-2.27-3.14-2.62-6.49.22-.85.56-.59.75-.21l-.38-1-.24-.61-.24-.83c.26-.09.49-2.15.81-3.64s.71-2.44,1.32,0c0,.75,0,2.13-.08,3.2.58-3.6,1.36-8.5,2-12.47-11.29-.25-20.5-.52-19.43-.84-6.18-.07-8.53,0-11.74,0-1.61,0-3.44,0-6.11,0l-4.35,0-3.94,0c-5.64.46.45.92-12.83,1.24l10.47.22c2.16-.08,4-.2,6.31-.27L880.15,4c6.89-.21,5.67-.45,7.69-.89h6.95c2.8,0,5.33,0,7.63.09,4.61.07,8.31.17,11.5.28,6.39.22,10.75.47,16.8.57-8.79.35-21.48.25-17.6.8-5.53-.25-9.12-.13-12.69,0-1.8.06-3.63.13-5.84.15h-3.48c-1,0-2.05-.06-3.27-.11l1.88-.15c-7.91.43-9-.1-15.53.29.49-.11-.38-.18-1.21-.25-14.21.25,4.29.34-10,.87-12.64-.08-4.11-.91-7.59-1.17C876.65,3.75,855,3.57,878,3c-.08-.74-9.08-.84-21.35-.75,8,.32-5.08,1.09,5.54,1.61-18.34.37-16.8,1.82-37.3,1.14l.5-.11-8.42.53-11.6-.29c7.19-.79,16-.4,21.7-.86-14.12-.78-19,.77-35.25.71-13.56-.89,16.58-.51,16.51-1.25-3.27.19-12.16-.19-11.11-.41,15.25.28,9.29-.47,26.28-.06-8.28.26,1.27.25-.29.57,2.43-.26,18.34-.37,29.59-.25,2.56-.54-9.75-.45-16.85-.69-13.45.59-27.39-.48-37.73.21-14.51.07-1.08-.52-2-.59-13-.26-5.66.45-9.8.58-19.69.41-21.89-.64-35.92-.68-11.67.73-40.09.48-60,.43,2.4-.26-.24-.46-1.44-.7-11.85,1-7.58.6-22.4,1.24l12.53.37c-10.05.12-18.13.83-27.35.27,12.23.94-16.19.68-23.6,1-10.27-.34-20.56.35-26.17-.23l1.4,0-14.91-.1,1.8-.9c-10.23-.34-22.83.32-19.3.59-10.76-.23-4.41-.33-6-.75,6.06-.28,19.11-1,22.84-.32a26,26,0,0,0-3.66,0c28,.41,9.13-1.08,23.1-1.31-7.28-.06-12.71-.5-20.49-.26-3.6,0-18.3.37-25.71.69,10.18-.4,15.41,0,23.4.32-6.78-.08-7.88.42-13.68.13l1.89-.15L565.39,3c-1.11-.53-20.28-.22-9-.84-10.06.12-3.46.48-12.6.66l18,.2-.3.57c-6.59.38-8.18,0-15.45,0l.62.64-12.88-.54c1.59.41-8.3.25-11.06.33-7.11-.25-2.5-1.23-14.59-.67l.87.07c-6.92.21-11,.33-20.92.17.54-.11,3.27-.2,4.62-.24C478.84,3,456.62,4,450.3,3c1.12-.5,6.9-.21,7.19-.78,21.35.75,15-.92,40.11-.48,1.16,1.28,21.21-.74,26,.52-9.87-.17-23,.6-21.22.74,9.09-.07,21.82-.1,28.15,0-5.57-.41-3.78-1.12.27-1.55C516.1,1.87,489.39,1,468.6.9l2.33.76C453,2.21,473.11.94,459.1.9l-6.2.57L452,1.4l-10.29.69c7.27,0,3.93-.59,11.92-.27,7.11.25-.3.57-2.33,1-4.86-.22-22.16-.07-11.48-.58l-19,.76c.14-.28,4.27-.41,6.21-.56l-13.7.14.5-.11c-11,.34-26.44.34-34.87.88,18.77.55-8.95.64-7.35,1.06-6.75-.07-8.8-1.41,5.52-1.94,3.85.44,13.69-.13,20.93-.17-9.34-.27-12.25.09-19.56.13,5.16-.34-9.72-.45-9.57-.73,1-.22,4-.88,13.43-.6,14,0,1.46.7,5.6.57,3.72.73,19.55-.13,28.05.08.89.07-1.89.15-3.27.19,7.3,0,22.69,0,23.82-.54l-18.28.38c-4-.16,5.64-.46-.08-.75-4.15.13-9.14.19-14.55.07l1-.22c-11.09-.4-28.42-.25-41.18,0-2.86,1.11-9.52,1.78-15.13,3-19,0-38.89,0-59.12-.24.33.24.08.47-.89.68-5.73-.29-16.28-.07-16-.63-6.16.56-23.61,1-20.28,1.55l-2.31,0c-7.34-.62-18.4-1.1-38.28-1.23-3.89,0-4.45.37-3.56.91-4.2-.17-8.15-.31-12.14-.34a105.33,105.33,0,0,1,10.9-.6l-30.91-.19,2.4-.26-12.17.38c6.86-.15,17.48,0,14.88.57-13.82.42-21.65-.18-33.37.55.08-1-3.92-1.19,0-1.77.79,0,1.16,0,1.38,0,4.39-.56,13.76-1.16,21-1.3-25.67-.33-19.05,0-41.58-.22-2-.6,20.73-.63,15.5-1L165.05,1c-3.59.05-4,.18-5.75.28,14.57-.43,19.85.11,30.81-.58,6.94.28-10.8.46-3.2.56a135.22,135.22,0,0,0-15.86,1.24c16.65.24,9.46-.75,23.63-1L205.27,2c6.4-.11-2.09-.31-2.47-.49,7.78-.14,10.74.23,16.64.24-1.73-.13-5.71-.29-4.72-.51,9.77.45,19.39.16,28.46,1-5.23-.4,6-1,10.14-1.15L234.69.29c-23.67.25-38.42-.14-64,.27l1.5-.33C132-.78,138.8,1.81,104.37,1.84c-1-.81-15.93.11-14.63-.68,10.4.06,8.29-.25,5.33-.62a209.75,209.75,0,0,1-21.6.56c4.29-.41-6-.75,5.46-.91C71.05.1,64.94.08,59.8.17L56.07.25,49.55.38C45.4.49,41.6.63,38,.8,26,1,19.28,1,14.84,1S8.38.79,6.13.66A4.17,4.17,0,0,0,5.13,3a37.11,37.11,0,0,0,0,7.8L4.24,8.28,4.58,18l.3-.43L5,17.35c0-.1.1-.27.15-.4l.6-1.65L6,16.79l0,.37,0,.18,0,.09.09.4.36,1.56.72,3.14C8.56,26.38,8.75,21,9.74,21.46L8,20.16a8.06,8.06,0,0,0,0-2c-.1-1.05-.19-2.1-.27-3.06-.18-2.34-.25-4.24.38-4.63.13,3.77.55,5.2,1,6,.12.21.24.39.36.56l.18.25a1.19,1.19,0,0,0,.18.15,2.45,2.45,0,0,1,.63.87l-.18-1-.18-1.71-.36-3.46,1.32-2c0-2.9.09-5.47,0-7.82,9.14,0,16.71-.11,23.22-.39-4.41-.11-7.74,0-10.84.09s-6.06.17-10.28,0c3.95-.36,12.62-.57,23.56-.71,5.47-.07,11.51-.12,17.81-.17l3.33,0,2.63,0L65.85,1c.37.18,4.86.23,3,.38-.29.06-2.77.06-4.15,0,1.07.33-6.83.54,6.49.73-4.79.53-14.75,1.39-14.39,1.57l-2,0-2.38,0-5,0c-3.38,0-6.87,0-10.28,0-6.84,0-13.43,0-18.49-.11l.47-.11H14.87c.06,1.9.36,4.36.47,6.33s0,3.52-.67,3.72c.08.54.19,1.32.31,2.09.06.38.12.76.18,1.1l.09.49.1.27c.14.32.3.48.48.31a1.4,1.4,0,0,0,.28-.51c.1-.35.2-.93.32-1.64.15,1.83.3,2.6.46,3.72l.46,3.2c-2.82-1.06-3.4,5-5.71-1.38.06.22.39,2.54.91,6.27a2.2,2.2,0,0,1-.28-.18,1.16,1.16,0,0,0-.49-.49c.07-.75,0-1.21.48-1.34-2-2.23-2.52,1-2.68,4.53l1.59.83c-.9,3-2.32,4.8-1.63,8.79L15.48,49c.13.9.25,1.83.37,2.75-.92,1.22-.23,5.33-2.08,3.72-.73.41-1.11-1-.76-2.77.2-.27.33.17.53-.11-1-.51-2.16-.73-3.23,1.46.21-2.24.41-2.53-.29-4.08L9.8,52.26c-.36-3.34-2.61-8.45-4-8.38,2,1,0,3.17-.31,5C5.12,47.47,4,44.54,3.81,46.78c.78.8,1.9,6.91,2.66,2.58.51,1.83,1.47,4.3.92,6.38-1-2.45-1.63-.84-2.94-1.52C5.61,56.4,7,56.33,7.64,56.68a56,56,0,0,1-3,7.59,14.91,14.91,0,0,0-1,3.63A13.12,13.12,0,0,0,3.56,70c.1,1.08.19,2.23.3,3.49.06.45.06.16,0-.52s-.05-1.38-.08-2.23A4.73,4.73,0,0,1,4,69.12a50.61,50.61,0,0,0,.13,6.72l-.84-2.56.26,8a22.75,22.75,0,0,0-.41,7.29l1.37-2,.13.53L5,86.56l-.12-.48.43-.62c.09.61.18,1.44.26,2.76h.68c.48,1.14.77.71,1,0l3,0c.14,1.07.33,2.55.56,4.37a2,2,0,0,1-.25-.18,1.13,1.13,0,0,0-.45-.49c.07-.75-.05-1.21.44-1.34-1.84-2.23-2.3,1-2.45,4.53l1.45.83c-.82,3-2.11,4.8-1.48,8.79L13.54,114c.11.9.22,1.83.34,2.75-.85,1.22-.21,5.33-1.9,3.72-.67.41-1-1-.69-2.77.18-.27.29.17.47-.11-.89-.51-2-.73-2.94,1.46.2-2.24.38-2.53-.27-4.08l-.2,2.25C8,113.92,6,108.81,4.72,108.88c1.79,1,0,3.17-.29,5-.35-1.38-1.33-4.31-1.54-2.07.72.8,1.73,6.91,2.43,2.58.47,1.83,1.34,4.3.84,6.38-.87-2.45-1.48-.84-2.68-1.52,1.05,2.18,2.31,2.11,2.91,2.46a59.39,59.39,0,0,1-2.76,7.59,15.81,15.81,0,0,0-.89,3.63A14.44,14.44,0,0,0,2.67,135c.08,1.08.17,2.23.27,3.49.06.45.05.16,0-.52s-.05-1.38-.07-2.23c0-1,.07-2,.56-1.92l.06,3.78-.38-.34a18.6,18.6,0,0,1,.08,5.6c-.19-.16-.49-.06-.53-1.26a20.09,20.09,0,0,0,.19,3.47,30.3,30.3,0,0,0-.71,5.4l-.32-.95c-1.5,1.81-.62,7.33-1.24,9.53,1.34-2.73.67,2.18,1.77-3.15l1.42,2.86-.36,4.8c.49.06.89,3.55,1.32,1.19a10.53,10.53,0,0,1-.18-2.12c1.07.54.53,6.38,1.61,5-.28-3.79-.05-4.38-.91-6.71A40.92,40.92,0,0,1,6,153.26s0,0,0-.06l3.85,0v49.39h2.76c-1,.08-2.08.15-3.1.19a31.71,31.71,0,0,1-.1-5c0-.85,0-1.7,0-2.55A14.38,14.38,0,0,0,9,192.65c.19.17.26.62.3-.13.19-5-1.59-6.94-.76-10.93l.56.5c-.07-.34-.53-2.69-1.16-2.23a44.55,44.55,0,0,1,.3,7A18.52,18.52,0,0,1,7.33,181l-1-.22c-1-2.52.49-5.08-.55-7.59l-.67,2.94a2.7,2.7,0,0,1-.1-.5,8.29,8.29,0,0,0,.47,2.8c.54,4.43-.89,6.71-1.42,7.42-.32,2.08-1.25-.74-1.87-.49.21,3.34,1.32,3.14,1.52,6.48-.13.86-.32.59-.43.21l.22,1,.14.62.14.83a25.92,25.92,0,0,0-.47,3.64c-.19,1.49-.42,2.44-.77,0,0-.74,0-2.12,0-3.19-.33,3.6-.78,8.5-1.15,12.47,6.55.24,11.88.52,11.26.84,3.59.07,5,0,6.81,0,.93,0,2,0,3.53,0h2.53l2.28.05c3.27-.45-.26-.92,7.44-1.23l-6.07-.22c-1.25.08-2.29.2-3.66.27l6.32-.06c-4,.22-3.28.46-4.45.89H25.67l-2.28,0c-1.62,0-3.09,0-4.42-.08-2.67-.07-4.81-.17-6.66-.28-3.71-.22-6.24-.47-9.74-.57,5.09-.35,12.45-.25,10.2-.8a48.29,48.29,0,0,0,7.35,0c1-.07,2.1-.13,3.39-.15h2c.56,0,1.19,0,1.9.11l-1.09.15c4.58-.43,5.21.1,9-.29-.29.11.21.18.7.24,8.23-.24-2.49-.33,5.76-.86,7.33.08,2.38.9,4.4,1.17-12.29.74.25.92-13,1.53,0,.74,5.26.84,12.37.75-4.63-.32,2.95-1.09-3.21-1.61,10.63-.37,9.74-1.82,21.61-1.14l-.29.11,4.88-.54,6.73.3c-4.17.78-9.3.4-12.58.85,8.18.79,11-.76,20.43-.7,7.85.89-9.61.51-9.57,1.25,1.89-.19,7,.19,6.44.41-8.84-.28-5.38.47-15.23.05,4.8-.25-.74-.24.16-.57-1.4.27-10.62.38-17.14.25-1.48.55,5.65.46,9.77.7,7.79-.59,15.87.47,21.86-.21,8.41-.07.63.52,1.13.59,7.56.26,3.28-.45,5.68-.58,11.41-.41,12.68.64,20.81.68,6.77-.73,23.24-.48,34.77-.43-1.39.25.14.46.83.7,6.87-1,4.4-.6,13-1.24l-7.26-.37c5.83-.12,10.51-.83,15.85-.27-7.09-.94,9.38-.69,13.68-1,6,.33,11.91-.35,15.16.22l-.81,0,8.64.1-1.05.9c5.94.34,13.24-.33,11.19-.59,6.23.23,2.56.33,3.46.75-3.51.28-11.08,1.05-13.24.32a8.22,8.22,0,0,0,2.12,0c-16.22-.4-5.29,1.09-13.38,1.32,4.22.06,7.36.5,11.87.26,2.09,0,10.61-.38,14.9-.69a81.54,81.54,0,0,1-13.56-.32c3.93.08,4.57-.43,7.93-.13l-1.09.15,4.28-.32c.64.52,11.75.22,5.24.84,5.83-.12,2-.48,7.3-.66l-10.45-.2.17-.57c3.82-.39,4.74,0,8.95,0l-.36-.64,7.47.54c-.92-.41,4.81-.25,6.41-.34,4.12.26,1.45,1.23,8.45.68l-.5-.07a119.85,119.85,0,0,1,12.12-.17,23.14,23.14,0,0,1-2.68.24c8,.32,20.91-.64,24.57.29-.65.5-4,.21-4.17.78-12.37-.75-8.67.92-23.24.48-.68-1.28-12.29.74-15.06-.52,5.72.17,13.31-.6,12.3-.74-5.27.07-12.65.1-16.32,0,3.23.41,2.19,1.11-.15,1.55,8.51-.35,24,.51,36,.62l-1.35-.76c10.41-.55-1.26.71,6.86.75l3.59-.56.51.07,6-.69c-4.21,0-2.27.59-6.9.27-4.12-.25.17-.57,1.35-1,2.81.23,12.84.07,6.65.59l11-.77c-.08.29-2.48.41-3.59.56l7.93-.13-.29.11c6.39-.34,15.32-.34,20.21-.88-10.88-.55,5.19-.65,4.26-1.07,3.91.08,5.1,1.42-3.2,1.95-2.23-.45-7.93.13-12.13.17,5.42.27,7.1-.1,11.33-.13-3,.34,5.64.45,5.55.73-.57.22-2.34.87-7.78.6-8.12,0-.85-.7-3.25-.57-2.15-.73-11.33.12-16.25-.08-.52-.07,1.09-.15,1.89-.2-4.23,0-13.15,0-13.8.54l10.6-.37c2.3.16-3.27.46,0,.75,2.41-.13,5.3-.19,8.43-.07l-.59.21c6.42.41,16.47.26,23.86.05,1.66-1.11,5.52-1.78,8.77-3,11,0,22.54,0,34.26.25-.19-.24-.05-.47.51-.68,3.32.29,9.44.06,9.26.63,3.57-.56,13.69-1,11.75-1.55l1.35,0c4.25.62,10.65,1.1,22.18,1.23,2.25,0,2.57-.37,2.06-.91,2.43.16,4.72.31,7,.33a34.54,34.54,0,0,1-6.31.61l17.91.19-1.39.25,7.05-.37c-4,.15-10.13,0-8.62-.57,8-.42,12.54.18,19.33-.55,0,1,2.28,1.18,0,1.77a6.52,6.52,0,0,1-.8-.05,83.37,83.37,0,0,1-12.18,1.3c14.87.33,11,0,24.09.22,1.14.59-12,.63-9,1L446.25,210a23.71,23.71,0,0,0,3.33-.27c-8.44.43-11.5-.11-17.85.57-4-.27,6.26-.45,1.85-.55a46.2,46.2,0,0,0,9.19-1.24c-9.64-.24-5.48.75-13.69,1L423,209c-3.71.1,1.21.31,1.43.49-4.52.14-6.23-.23-9.64-.24,1,.13,3.3.29,2.73.51-5.66-.45-11.24-.16-16.49-1,3,.4-3.47,1-5.88,1.15l10.8.83c13.72-.26,22.26.13,37.07-.27l-.87.32c23.32,1,19.36-1.58,39.31-1.6.55.81,9.23-.11,8.48.67-6-.05-4.8.26-3.09.63a69.77,69.77,0,0,1,12.52-.56c-2.49.41,3.44.75-3.17.91,4.57.08,8.11.11,11.09,0l2.16-.08c1.32,0,2.57-.08,3.78-.14,2.4-.1,4.6-.24,6.67-.42,7-.17,10.87-.2,13.44-.15a50.09,50.09,0,0,1,5.05.3,5.88,5.88,0,0,0,.58-2.38,64.09,64.09,0,0,0,0-7.8l.53,2.56-.2-9.72-.18.43-.08.22c0,.1-.06.27-.09.4l-.35,1.65-.1-1.49,0-.37v-.18l0-.1,0-.39-.21-1.56-.41-3.14c-.78-3.85-.89,1.57-1.46,1.07l1,1.3a13.7,13.7,0,0,0,0,2c0,1,.11,2.1.15,3.06.1,2.34.15,4.24-.22,4.63-.07-3.77-.31-5.2-.58-6.05-.07-.21-.14-.39-.21-.56l-.11-.25a.86.86,0,0,0-.1-.16,2.63,2.63,0,0,1-.36-.86l.1,1,.11,1.7.21,3.47-.77,2c0,2.89-.05,5.47,0,7.82-5.3,0-9.68.11-13.45.39a61.94,61.94,0,0,0,6.28-.09,46.76,46.76,0,0,1,6,0,134.68,134.68,0,0,1-13.65.71c-3.17.07-6.67.13-10.32.18l-1.93,0-1.53,0-3.07.09c-.22-.18-2.82-.23-1.72-.38a17.14,17.14,0,0,1,2.4,0c-.62-.33,4-.54-3.75-.74,2.77-.52,8.54-1.38,8.33-1.56l1.15,0,1.38,0,2.88,0,6,0c4,0,7.78,0,10.71.12l-.27.11h2.47c0-1.9-.21-4.36-.27-6.33s0-3.52.38-3.72c0-.54-.11-1.32-.18-2.09l-.1-1.1c0-.17,0-.34-.06-.49l-.06-.28c-.08-.31-.17-.47-.27-.3a1.58,1.58,0,0,0-.16.51c-.06.35-.12.93-.19,1.64-.09-1.83-.17-2.6-.26-3.72l-.27-3.2c1.63,1.06,2-4.95,3.31,1.38,0-.22-.23-2.54-.53-6.27,0,.06.11.1.16.17a1,1,0,0,0,.29.5c-.05.75,0,1.21-.28,1.34,1.17,2.23,1.46-1.06,1.55-4.53l-.92-.83c.52-3,1.35-4.8,1-8.79L532.92,162c-.07-.9-.14-1.83-.21-2.75.53-1.22.13-5.34,1.2-3.72.43-.41.64,1,.44,2.77-.11.27-.19-.17-.3.11.57.51,1.25.73,1.87-1.46-.13,2.24-.24,2.53.17,4.08l.13-2.25c.2,3.34,1.5,8.45,2.3,8.38-1.13-1,0-3.17.19-5,.22,1.38.85,4.31,1,2.06-.45-.79-1.1-6.9-1.54-2.57a21.53,21.53,0,0,1-.53-6.38c.55,2.45.94.83,1.7,1.52-.67-2.18-1.47-2.11-1.85-2.46.12-.74.25-1.43.38-2.09,1.47,0,3.15-.07,4.3-.11l-4.26-.07c.25-1.13.52-2.14.77-3.12,5.33,0,11,0,16.18,0,.11-.28-9.84-.23-5.13-.57-5.38,0-9.93.05-8,.36-1.22,0-2.16,0-3-.07l.19-.73,13.55-.21a16.87,16.87,0,0,1,2.36.11l1.53-.52c5.39,0,7,.13,6,.35,11.69-.2,15.74-.9,28.07-.75a165.57,165.57,0,0,1-17.34.77H587.2c-6.43.5-30.75.38-26.58,1.17,15.45-.33,38-.8,51.49-1.44,7.18.6,17.82-.13,29.67.13,1.61.13,5.25.29,3.05.55h-3.31c15.68.13,33.6-.28,47.46-.75l7.13.61c23.86.23-4.5-1,19.95-1.14,5.9.65,30,.31,31,.83,4.57-.06,6.64,0,7.2-.43-4.11-.05-13.23.07-8.06-.38,8.34-.19,12.32.15,18.94.11-.46.11-5.19.46-2.64.37,16.23-.26,46.38-.25,61.76-1.32-5.83.1-6.44.5-14.21.29.13-.29,4.25-.24,6-.39-1-.53-8,.37-16.1,0l13.54-.64h23.18V82.3h1a8.67,8.67,0,0,0,.33,1.1c-.3-.17-.42-.63-.48.12-.29,5,2.51,7,1.21,10.94l-.89-.5c.1.34.84,2.69,1.83,2.22-.33-3.34-.74-4-.47-7a12.69,12.69,0,0,1,1.49,5.85l1.57.21c1.65,2.53-.77,5.09.87,7.6l1.06-3a2.46,2.46,0,0,1,.15.51,5.65,5.65,0,0,0-.73-2.8c-.85-4.43,1.39-6.71,2.23-7.43.5-2.07,2,.75,2.93.5-.32-3.34-2.06-3.14-2.39-6.49.2-.85.51-.59.68-.21l-.34-1-.22-.61-.06-.23h1.54l0,.17a.85.85,0,0,0,.06-.17c18.25-.17,42.86-.32,56.65-1.2-6.4.1-7.07.5-15.59.29.15-.29,4.66-.24,6.53-.39-1.06-.53-8.78.37-17.65,0l14.85-.64h25.42V8.48H913.4c1.8-.09,3.59-.15,5.34-.19a18.4,18.4,0,0,1,.18,5,18.09,18.09,0,0,0,0,2.55,8.86,8.86,0,0,0,.6,2.54c-.32-.17-.45-.63-.52.12-.32,5,2.75,7,1.33,10.94l-1-.5c.11.34.92,2.69,2,2.22-.35-3.34-.8-4-.51-7a11.91,11.91,0,0,1,1.64,5.85l1.71.21c1.82,2.53-.84,5.09,1,7.6l1.15-3a1.88,1.88,0,0,1,.17.51c-.17-1.34-.4-2.49-.81-2.8A7.07,7.07,0,0,1,928.15,25.19ZM535.63,150c0-.35-.1-.67-.14-1h.62C536,149.49,535.86,149.86,535.63,150ZM525,151.48a11.49,11.49,0,0,0-.26,1.25v-3.62l.94,0c-.13,2.53-.26,5-.38,7.32A23.29,23.29,0,0,1,525,151.48Zm.07,9.81c0,.79-.08,1.54-.11,2.29l0-.32A8.89,8.89,0,0,1,525.06,161.29ZM9.85,139.38c-.09-.55-.2-1.12-.28-1.71l-.1-.7-.06-.66a3.57,3.57,0,0,1,0-.8,2,2,0,0,1,.44-1ZM29.17,59.55a6.87,6.87,0,0,0,.44-1.25v7.57h-.72a14.42,14.42,0,0,1-.09-2.57c-.06.17-.18,1.11-.34,2.58h-.81c.35-4,.68-7.74,1-11.28A13.49,13.49,0,0,1,29.17,59.55Zm-.11-9.81c.06-.79.12-1.54.18-2.3l.05.33A5.57,5.57,0,0,1,29.06,49.74Zm-3,74.81a6.77,6.77,0,0,0,.41-1.25v6.14l-.75,0c0-.39,0-.77,0-1.17a11.21,11.21,0,0,0-.17,1.18l-.77,0q.42-5.2.8-9.91A14.71,14.71,0,0,1,26,124.55Zm-.1-9.81c.06-.79.12-1.54.18-2.3l0,.33A6.22,6.22,0,0,1,25.91,114.74Zm3.7-47.85h-.56c0-.17-.08-.33-.11-.51l.67,0Zm0,.08v1.82h0a9.05,9.05,0,0,1-.53-1.8Zm-3.86,63.76c0-.16,0-.31,0-.47l.71,0v.46Zm-.08-1,.75,0v.14a5.76,5.76,0,0,1-.74.08C25.68,129.9,25.67,129.82,25.67,129.73Zm-.21.27-.76,0,0-.33.76,0Zm-.78.31.75,0c0,.15,0,.31-.05.48l-.74.05Zm3.73-63.94c0,.17,0,.33-.05.51h-.8l.05-.48ZM13,67.07,11.46,67l1.44-.12Zm15.34,0c-.05.54-.11,1.14-.18,1.77H28l-.57-.89c0-.29.05-.57.08-.85Zm507.05,81.32c0-.13,0-.26-.07-.38h.88a3.87,3.87,0,0,1,0,.48ZM667.25,7.52a12.44,12.44,0,0,1-1.89.16c15.42,0,16.79,0,29.06-.14l-3.79.3c2.18.42,12.15,0,22.12-.07a107,107,0,0,1,13.34-.18l-1.54.33c1.75.29,11.64.31,22.78.31L744,8.48H639.33C648,8.25,657.32,7.93,667.25,7.52Zm-219.09.57,22.4-1.28-.52.11,19.57-.13-2.4.26,11.5-.45c-.27.57,3.53.27,2.87.66,7.2,1,25.57-.4,41.19,0l-2.39.26c8.46-.54,29.44,0,42.93.18l-.48.11c-6.25.17-8.68.4-7.83.62H555.69c-.39-.06-1.46-.14-3-.26-2.68.14-6,.21-9.44.26H514c1-.12,2.91-.23,4.79-.34l-38.2.32,0,0h-33.3C448.48,8.37,448.14,8.28,448.16,8.09ZM278.1,6.71l1,.53c23.95.2,41-1.16,65.72-.89-3.42.48-12.79.21-11.52.45,14.88.1,12.85-1.23,27.45-.56-19.93.16,9.92.25-3.47.67,25.54-.67,52.38.37,69.15.22-4.36-.34,7.07-.5,7.56-.61,4.51.05,3,.38-.66.4,8.92.29,10.47.73,9,1.15l-18.19.06c3.25.08,5.68.23,8,.35H404.09c-1.75-.1-2.67-.21-1.85-.33-6.23.16-15.44-.28-18.8-.18,6.46.22,5.2.37,1.66.51H375c.08-.15,1.92-.31-1.56-.39l-14.53.07,12.66.09-1.5.23h-92A124,124,0,0,1,263.3,6.93ZM203.27,7.78h-1.38l14-.19c1.31.46,1.86.81.52.9H196c-1.64-.11-4-.21-6.61-.28Zm-15.12.7H171.92C173.57,8.22,181.6,8.31,188.15,8.48ZM24.56,6.8,52.65,7l24.53.18-2.12-.31c5.39.12,9.71-.29,12.67.08.07,0-1.56.18-4.18.37L73.44,8l-7.6.49H57c-2.2-.4-13.94-1-32.11-1.58l-.35.86C24.53,7.45,24.55,7.14,24.56,6.8ZM10.81,61.07A23.2,23.2,0,0,0,12.42,66L10,65.9C9.68,63.89,9.61,61.35,10.81,61.07ZM7.7,57.88a43.11,43.11,0,0,1,1.36,8c-1.38-.05-2.45-.11-3.49-.18,0-.26,0-.54.07-.8A16,16,0,0,1,7.7,57.88ZM6.4,76.62c.06-.6.18-1,.41-1.18,0,.16,0,.28,0,.43L6.4,77.34Zm1.69,5.47.14.21a1.1,1.1,0,0,0,.16.15l.12.13a18.2,18.2,0,0,0-.38,3.74h0C8.14,84.89,8.13,83.49,8.09,82.09Zm0,4.35h0v0Zm1.5.43a11.36,11.36,0,0,1,.3-5.38c.18-1.59-.28-1.76-.78-.81a5.69,5.69,0,0,0-.4,1l-.11-1.09L8.3,77.16l1.22-2c0-2,0-3.79,0-5.5.15.79.3,1.54.43,2.24a16.14,16.14,0,0,0,1.54,5.36c.4-1-.1-2.71-.4-4.56L11,72c0-.22,0-.44-.07-.66a2.68,2.68,0,0,1,0-.8,2,2,0,0,1,1-1.37l-1.56-1.59-.06-.24h2.83c.24.43.49.84.74,1.26H13c.06,1.9.33,4.36.43,6.33s0,3.52-.61,3.72c.08.54.18,1.32.29,2.09.05.38.11.76.16,1.1l.09.49.09.27c.08.21.17.34.27.36a25.8,25.8,0,0,0-.08,2.61H15l.15,1.17c-1.59.06-3.17.11-4.88.15l-.2-.58a5,5,0,0,1,.09.59Zm1.17,1.3,2.51,0C12.39,89,11.76,90.06,10.79,88.17Zm-1.51,37.9a24.57,24.57,0,0,0,1.41,4.75H9.85v2.83l-1-1.1C8.4,130.7,7.84,126.44,9.28,126.07ZM4.12,136c0,.14,0,.28,0,.42,0,.38,0,.74,0,1.1A7.4,7.4,0,0,1,4,135.07c0,.19.09.38.12.56Zm.57,3.57-.28,1.66A2.9,2.9,0,0,1,4.69,139.6ZM3.51,151.8a12.65,12.65,0,0,1,.21,3.34l-.84-2.52,1.38-2.16c0,.34.09.75.13,1.26Zm4.68.07a12.45,12.45,0,0,1,.28-5.38c.16-1.59-.26-1.76-.72-.81a15.26,15.26,0,0,0-.93,5.93c0-2.46,0-4.83-.08-7.3s-.09-5,0-7.72l-1.53,5.75,0-2.47a3.78,3.78,0,0,1,.2.66L5.24,139v-2.59L5,137.51l-.43-3.26L4.39,138a1,1,0,0,1-.08-.11v-3.48c0-1.55.11-3.08.26-4.53a17.32,17.32,0,0,1,1.88-7,58.64,58.64,0,0,1,1.38,9.31l.3,2.34c.14.83.28,1.61.41,2.34a18,18,0,0,0,1.32,5.19v9.76Zm2.49,50.92,2.15-.24h2.54Zm144.56.71a4.16,4.16,0,0,1,1.1-.15c-8.94,0-9.73.05-16.84.14l2.19-.3c-1.26-.43-7,0-12.81.07a35.45,35.45,0,0,1-7.73.17l.89-.32c-1-.29-6.75-.31-13.2-.32l1.9-.24h60.68C166.4,202.78,161,203.09,155.24,203.5Zm127-.56-13,1.28.3-.11-11.34.13,1.39-.26-6.67.45c.16-.57-2-.27-1.66-.66-4.17-1-14.82.4-23.87-.05l1.39-.26c-4.9.54-17.06,0-24.88-.18l.28-.11c3.62-.17,5-.41,4.54-.62h11.19c.22.06.85.14,1.72.26,1.55-.14,3.5-.21,5.47-.26h17c-.6.12-1.69.23-2.78.34l22.14-.33h19.31C282,202.66,282.21,202.75,282.2,202.94Zm98.54,1.38-.59-.53c-13.88-.2-23.74,1.16-38.08.89,2-.48,7.41-.21,6.68-.45-8.63-.11-7.45,1.23-15.91.56,12.12-.17-7.55-.26,3.37-.74-15.21.8-31.42-.3-41.43-.15,2.52.33-4.1.49-4.39.6-2.61,0-1.73-.37.39-.39-5.17-.29-6.06-.73-5.21-1.15l10.54-.06c-1.88-.08-3.29-.23-4.63-.35h16.26c1,.1,1.54.21,1.07.32,3.61-.15,8.95.29,10.89.18-3.74-.21-3-.37-1-.5h5.87c-.05.15-1.12.31.9.38l8.42-.07-7.33-.08.87-.23h53.28a43.21,43.21,0,0,1,8.57,1.55Zm43.36-1.07h.8l-8.13.18c-.76-.46-1.07-.8-.3-.89H428.3c.95.11,2.31.21,3.83.27Zm8.76-.7h9.41C441.32,202.81,436.66,202.72,432.86,202.55Zm94.8,1.68-16.28-.17-14.21-.18,1.23.31c-3.12-.12-5.63.29-7.34-.08a17.25,17.25,0,0,1,2.42-.37c1.52-.2,3.61-.44,5.86-.7l4.4-.49h5.13c1.28.39,8.08.95,18.61,1.58l.2-.87C527.68,203.58,527.67,203.89,527.66,204.23Zm9.77-51.08c0-.28-.1-.58-.15-.88h.44A9.08,9.08,0,0,1,537.43,153.15Zm.35-1.07h-.53c-.14-1-.25-2-.34-3.11h1.45A23.35,23.35,0,0,1,537.78,152.08Zm.62-3.45c-.57,0-1.07-.08-1.52-.13,0-.18,0-.37,0-.56l1.65,0C538.45,148.15,538.43,148.39,538.4,148.63ZM836.65,82.22v-.3h.88a2.07,2.07,0,0,0,0,.22ZM913,8.48h-4.37l8.08-.24Z"/><path class="cls-1" d="M357.3,6.91,355,7Z"/><path class="cls-1" d="M320.8,2.88l-6,.28c11.27.13,15.55-.28,20.2-.52-.53.11.35.18,2.09.31,10-.12,15.32-.75,10.14-1.15L343.9,2,337,1.46c-2.64,1-23.12.44-34.35.9,7.71-.45,14.35-1.41,24.3-.78l-1.07-.53c8.62-.07,15.61.46,20.4-.06l-10.05.12.18-.29c-7.12,0-16.2.49-22.77.17-5.77.35-11.2.91-26.64.78l.51-.11c-10.46,1-29.17-.6-37.08-.17-4.57,1,17,.41,22.21.81-6.51.39-13.49-.15-7.89.43-15.21.47-9.09-.84-21.65-.18l7.12.25c-5.64.46-15,.18-20.72.63-.79.68,9.55,0,20.31.22L245,4.17l21.57-.56c6.35-.85.44-.85,13.89-1.45,4.74.36,8.13.9,8.86,1.4C294.13,3.05,306.83,2.85,320.8,2.88Z"/><path class="cls-1" d="M922.29,32.42c.58,1.09.49,3.8,1.74,3.27C922.65,35.75,923.82,30.85,922.29,32.42Z"/><path class="cls-1" d="M920.94,35.65c.29.17.72.09.86.86l-.3-2.93Z"/><path class="cls-1" d="M823.93,2.37c-.74-.35-5.9,0-8.67.08C817.51,2.47,820.66,2.56,823.93,2.37Z"/><path class="cls-1" d="M607,4l7.32.71c16.95-.33,24.49-.94,41.77-1.09C633.39,2.87,626.1,4.67,607,4Z"/><path class="cls-1" d="M609.69,3.12c11.43-.16,5.33-.63,15.7-.57l-5.07-.69C623.13,2.52,607.23,2.64,609.69,3.12Z"/><polygon class="cls-1" points="544.9 2.3 536.39 2.09 543.02 2.45 544.9 2.3"/><polygon class="cls-1" points="483.62 2.49 491.91 2.23 491.09 2.17 482.77 2.42 483.62 2.49"/><path class="cls-1" d="M288.11,1.27c11.52.13,9.73-.55,16.68-.71-13,.08-15.7-.1-31.29,0C285.64.79,288.77.88,288.11,1.27Z"/><path class="cls-1" d="M304.79.56l4.55,0C307.44.52,306,.53,304.79.56Z"/><path class="cls-1" d="M263.12.54c.65-.39-9.87-.17-7.62-.14S261.35.41,263.12.54Z"/><path class="cls-1" d="M313.58,8.29l.86,0Z"/><path class="cls-1" d="M302.29,8.12c1.13.22,7.77.12,11.29.17C309.44,8.17,306,7.57,302.29,8.12Z"/><path class="cls-1" d="M224.9,2.64c3.27-.19,7.69-.89-4.21-.62C222.94,2.05,226.4,2.31,224.9,2.64Z"/><polygon class="cls-1" points="290.15 7.93 280.12 8.05 281.85 8.18 290.15 7.93"/><path class="cls-1" d="M87.77.57l6-.28L86.26.21C88.43.32,84.51.83,87.77.57Z"/><path class="cls-1" d="M84.8.2h1.46C85.94.19,85.48.19,84.8.2Z"/><polygon class="cls-1" points="34.93 1.52 36.65 1.59 54.38 1.47 34.93 1.52"/><polygon class="cls-1" points="5.36 18.81 4.96 19.38 5.72 22.14 6.12 21.56 5.36 18.81"/><path class="cls-1" d="M539,177.46l-.95-6c.45.8.32-2.09.84-.83-.07-.45-.25-2.59-.48-2l0,1.22c-1.31-3.15-1.82-1.24-2.82-6.47a9.23,9.23,0,0,0,.53,6.39c.1.58.14,1.07.19,1.57l1.83,5Z"/><path class="cls-1" d="M2.58,194.92c0-.4.1-.86.13-1.23A7.7,7.7,0,0,0,2.58,194.92Z"/><path class="cls-1" d="M422.09,207.08l-2.78,0C420.39,207.08,421.28,207.08,422.09,207.08Z"/><path class="cls-1" d="M359.67,210.1l-4.07.21C357.21,210.3,358.46,210.21,359.67,210.1Z"/><path class="cls-1" d="M29.07,206.79h.14l.64-.05Z"/><path class="cls-1" d="M234.47,208c-.62-.08-1.31-.15-2.26-.2A10.08,10.08,0,0,0,234.47,208Z"/><path class="cls-1" d="M360.41,210.06l-.24,0-.5.06Z"/><path class="cls-1" d="M449.58,209.74l1.78-.09C450.52,209.67,450,209.7,449.58,209.74Z"/><path class="cls-1" d="M445.66,207.15c.64,0,1.26-.05,1.73-.09Z"/><path class="cls-1" d="M535.83,192.71l-.23-2.15A9.78,9.78,0,0,0,535.83,192.71Z"/><path class="cls-1" d="M455.57,207.75c.22,0,.44-.08.58-.12C455.64,207.65,455.39,207.71,455.57,207.75Z"/><path class="cls-1" d="M7.32,180.85V181l.18.05Z"/><path class="cls-1" d="M5,175.61c0-.61-.09-1.26-.13-1.89A10.5,10.5,0,0,0,5,175.61Z"/><path class="cls-1" d="M180.08,206.49c-1-.14-3.32-.29-2.23-.44C176,206.24,176.08,206.7,180.08,206.49Z"/><path class="cls-1" d="M3.73,170.55c-1.17-.27-.54-4.44-.83-6.29-.28,1.34-.76-.66-1.18-.26a14.52,14.52,0,0,1,.4,3.52c-.54.69-.91-1.6-.71-3.39-.62,2.2-.93-2.8-1.41.32.42,6.68.85,11.4,2.57,16.09-.29-3.8-.64-8.06-.16-11.18l1,1.31c-.9,3.53-.23,5.71-.33,9.18l.55-7.8c.85-3.65,1-1.21,1.23,1.67a3,3,0,0,1,.25-1.53C4.75,171.85,3.93,163.63,3.73,170.55Z"/><path class="cls-1" d="M9.14,182.09h0C9.15,182.16,9.15,182.14,9.14,182.09Z"/><path class="cls-1" d="M504.42,209.66a.57.57,0,0,0,.2.08C505.24,209.71,504.94,209.68,504.42,209.66Z"/><path class="cls-1" d="M186.66,209.13c1.38,0,2.41,0,3.28,0C188.94,209.08,187.85,209.09,186.66,209.13Z"/><path class="cls-1" d="M126.45,203.25c.81,0,1.62,0,2.43,0l.47-.07A24.56,24.56,0,0,0,126.45,203.25Z"/><path class="cls-1" d="M308.81,202.87a15.83,15.83,0,0,0-2.24.22A13.82,13.82,0,0,0,308.81,202.87Z"/><path class="cls-1" d="M374.31,207.46h0Z"/><path class="cls-1" d="M356,208.14l3.48-.28a81,81,0,0,0-11.71.53c.31-.11-.2-.18-1.2-.31-5.82.12-8.88.75-5.88,1.15l1.92-.19,4,.53c1.53-1,13.39-.45,19.9-.9-4.47.45-8.32,1.41-14.08.78l.62.53c-5,.07-9.05-.46-11.82.06l5.82-.12-.1.28c4.13,0,9.38-.48,13.19-.16a97.09,97.09,0,0,1,15.44-.78l-.3.11c6.07-1,16.9.6,21.49.17,2.65-1-9.84-.41-12.87-.81,3.77-.39,7.81.14,4.57-.43,8.82-.47,5.27.84,12.55.17l-4.13-.24c3.27-.46,8.71-.18,12-.63.46-.68-5.53,0-11.77-.22l2.79-.53-12.5.57c-3.68.85-.25.85-8,1.45-2.75-.36-4.72-.9-5.14-1.41C371.45,208,364.09,208.18,356,208.14Z"/><path class="cls-1" d="M7.45,178.61c-.33-1.09-.28-3.8-1-3.27C7.25,175.27,6.57,180.18,7.45,178.61Z"/><path class="cls-1" d="M7.74,174.52l.17,2.93.33-2.08C8.07,175.21,7.82,175.29,7.74,174.52Z"/><path class="cls-1" d="M64.45,208.66c.43.35,3.42,0,5-.08A41.62,41.62,0,0,0,64.45,208.66Z"/><path class="cls-1" d="M190.14,207.08l-4.24-.71c-9.82.33-14.19.93-24.2,1.09C174.86,208.16,179.09,206.35,190.14,207.08Z"/><path class="cls-1" d="M188.59,207.91c-6.62.16-3.08.63-9.09.57l2.94.68C180.81,208.5,190,208.39,188.59,207.91Z"/><polygon class="cls-1" points="226.14 208.73 231.07 208.94 227.23 208.58 226.14 208.73"/><polygon class="cls-1" points="261.65 208.54 256.85 208.79 257.32 208.86 262.14 208.6 261.65 208.54"/><path class="cls-1" d="M374.94,209.76c-6.67-.13-5.64.55-9.66.71,7.55-.08,9.09.1,18.13,0C376.38,210.24,374.56,210.15,374.94,209.76Z"/><path class="cls-1" d="M365.28,210.47l-2.64,0C363.74,210.51,364.55,210.49,365.28,210.47Z"/><path class="cls-1" d="M393.84,210.63c-1.3,0-3.39,0-4.42-.14C389,210.88,395.14,210.65,393.84,210.63Z"/><path class="cls-1" d="M366.73,202.91c-.66-.22-4.51-.12-6.55-.17C362.58,202.86,364.6,203.46,366.73,202.91Z"/><path class="cls-1" d="M411.57,208.39c-1.9.19-4.46.89,2.44.62C412.71,209,410.7,208.72,411.57,208.39Z"/><polygon class="cls-1" points="373.76 203.1 379.57 202.98 378.57 202.85 373.76 203.1"/><path class="cls-1" d="M491,210.46l-3.5.28,4.38.08C490.65,210.71,492.92,210.2,491,210.46Z"/><path class="cls-1" d="M492.75,210.83h-.84C492.09,210.83,492.36,210.84,492.75,210.83Z"/><polygon class="cls-1" points="521.65 209.5 520.66 209.44 510.38 209.56 521.65 209.5"/><polygon class="cls-1" points="538.79 192.22 539.02 191.65 538.58 188.89 538.35 189.47 538.79 192.22"/><path class="cls-1" d="M844.19,125.4a4.94,4.94,0,0,1-.16,1.68c.17,1.67-.75,3.12-1.16,2.49,1.11,3.39-.16,3.47,2,3.91,1,2.17-.41,4.5-1.28,2l1.31,6.27.34-3.75c1.79,1-.54,6,1.55,7.19l-.17-6.8.59.34c-.64-1.54-.37-4.55-.12-5.59.29.16.77.05.83,1.25C848.05,126.21,844.78,132.2,844.19,125.4Z"/><path class="cls-1" d="M848.41,120.12l-2.24-2.87.58-4.8c-.78,0-1.4-3.55-2.09-1.18a6.48,6.48,0,0,1,.28,2.12c-1.67-.54-.83-6.38-2.53-5,.45,3.79.08,4.37,1.44,6.71a27,27,0,0,1-1.15,7.64c.25,1,1.28,1.18,1.48,2.49,0-.29,0-.56-.06-.89l2.52-.14c-.53-1.1-.28-2.13-.34-3.35l3,5.62c2.35-1.81,1-7.33,2-9.54C849.08,119.7,850.15,114.79,848.41,120.12Z"/><path class="cls-1" d="M3.92,98.57l1.5,6c-.71-.8-.5,2.08-1.33.82.12.46.4,2.6.76,2l0-1.22c2.06,3.16,2.86,1.25,4.43,6.48,1.22-3.25.1-4.67-.84-6.39a15.43,15.43,0,0,1-.28-1.57l-2.89-5Z"/><path class="cls-1" d="M554.84,147.81l-.18.06C554.83,147.85,554.86,147.83,554.84,147.81Z"/><path class="cls-1" d="M554,148.11l.71-.24C553.78,148,550.42,148.11,554,148.11Z"/><path class="cls-1" d="M840.63,95.18v-.13l-.29,0Z"/><path class="cls-1" d="M844.27,100.42c.07.61.14,1.26.21,1.89A6.27,6.27,0,0,0,844.27,100.42Z"/><path class="cls-1" d="M846.28,105.48c1.85.27.86,4.44,1.32,6.29.43-1.34,1.19.66,1.85.26a9.28,9.28,0,0,1-.63-3.52c.85-.69,1.43,1.6,1.11,3.39,1-2.21,1.47,2.8,2.22-.32-.65-6.68-1.33-11.4-4-16.1.45,3.81,1,8.07.26,11.19l-1.61-1.31c1.41-3.53.36-5.71.51-9.18l-.85,7.8c-1.34,3.65-1.65,1.21-1.94-1.67,0,.71-.12,1.35-.4,1.53C844.68,104.18,846,112.4,846.28,105.48Z"/><path class="cls-1" d="M837.77,93.94h0C837.75,93.87,837.75,93.88,837.77,93.94Z"/><path class="cls-1" d="M840.42,97.42c.54,1.09.45,3.8,1.59,3.27C840.75,100.75,841.82,95.85,840.42,97.42Z"/><path class="cls-1" d="M839.19,100.65c.26.17.66.09.79.86l-.28-2.93Z"/><path class="cls-1" d="M647,151.34c-16.57.09-31.87.14-57.6.34Z"/><path class="cls-1" d="M585.43,151.14c.44,0,.58-.07.19-.07Z"/><path class="cls-1" d="M574.73,151.34l2.68-.37-11.94.77,18.61-.06,1.35-.54A103.88,103.88,0,0,1,574.73,151.34Z"/><path class="cls-1" d="M566.19,151.06c-.2-.46-11.07-.19-13.57-.1l-1,1.25c9.6-.23,9.08-.87,3.84-1.16C564.29,150.75,560.12,151.73,566.19,151.06Z"/><path class="cls-1" d="M728.45,151.23c-1.57-.13-2.37-.2-4.44-.22Z"/></g></g></svg>