<svg xmlns="http://www.w3.org/2000/svg" viewBox="0 0 683.15 89.03"><defs><style>.cls-1{fill:#59d4ff;}</style></defs><title>barra mejorara tu vida</title><g id="Capa_2" data-name="Capa 2"><g id="Capa_1-2" data-name="Capa 1"><path class="cls-1" d="M676.63,62.08c.13,1.67-.61,3.12-.94,2.49.89,3.39-.12,3.47,1.61,3.91.85,2.17-.33,4.5-1,2l1.06,6.27L677.6,73c1.44,1-.43,6,1.24,7.19l-.14-6.8.48.34a14.93,14.93,0,0,1-.1-5.59c.24.16.63,0,.67,1.25.11-8.2-2.52-2.21-3-9A5.91,5.91,0,0,1,676.63,62.08Z"/><path class="cls-1" d="M680.15,55.12l-1.81-2.87.47-4.8c-.62-.05-1.13-3.55-1.68-1.18a8,8,0,0,1,.23,2.12c-1.35-.54-.67-6.38-2-5,.35,3.79.06,4.37,1.15,6.71a33.07,33.07,0,0,1-.93,7.64c.21,1,1,1.18,1.2,2.49,0-.29,0-.56,0-.89l2-.14a9.76,9.76,0,0,1-.27-3.35l2.37,5.62c1.89-1.81.78-7.33,1.57-9.54C680.68,54.7,681.54,49.79,680.15,55.12Z"/><path class="cls-1" d="M8.57,70c-.07,0-.13,0-.22,0L9,71.25v0C8.85,70.77,8.71,70.37,8.57,70Z"/><path class="cls-1" d="M1.42,33.57l1.2,6c-.57-.8-.4,2.08-1.06.82.09.46.32,2.6.61,2l0-1.22c1.66,3.16,2.3,1.25,3.56,6.48,1-3.25.09-4.67-.67-6.39-.11-.58-.17-1.07-.23-1.57l-2.32-5Z"/><path class="cls-1" d="M444.2,82.81l-.14.06C444.19,82.85,444.21,82.83,444.2,82.81Z"/><path class="cls-1" d="M443.48,83.11l.58-.24C443.35,83,440.64,83.11,443.48,83.11Z"/><path class="cls-1" d="M679.89,16.11c-.06.4-.12.86-.17,1.23A5,5,0,0,0,679.89,16.11Z"/><path class="cls-1" d="M149.32,4l3.52,0C151.47,4,150.34,4,149.32,4Z"/><path class="cls-1" d="M228.27.93l5.14-.21C231.38.73,229.79.82,228.27.93Z"/><path class="cls-1" d="M646.39,4.24h-.17l-.81,0Z"/><path class="cls-1" d="M386.61,3.07c.78.08,1.66.15,2.86.2A16,16,0,0,0,386.61,3.07Z"/><path class="cls-1" d="M227.32,1l.32,0,.63-.06Z"/><path class="cls-1" d="M114.55,1.29l-2.25.09C113.36,1.36,114,1.32,114.55,1.29Z"/><path class="cls-1" d="M119.51,3.88c-.81,0-1.59.05-2.19.09Z"/><path class="cls-1" d="M5.47,18.32l.29,2.15A7.6,7.6,0,0,0,5.47,18.32Z"/><path class="cls-1" d="M107,3.28c-.27,0-.55.08-.73.12C106.89,3.37,107.21,3.32,107,3.28Z"/><path class="cls-1" d="M673.89,30.18v-.13l-.24-.05Z"/><path class="cls-1" d="M677,37.31a8.07,8.07,0,0,0-.17-1.89C676.88,36,676.93,36.68,677,37.31Z"/><path class="cls-1" d="M455.4,4.54c1.25.13,4.2.29,2.82.44C460.62,4.79,460.46,4.33,455.4,4.54Z"/><path class="cls-1" d="M679.91,30.48c.36,3.81.8,8.07.2,11.19l-1.29-1.31c1.13-3.53.29-5.71.41-9.18l-.69,7.8c-1.07,3.65-1.32,1.21-1.55-1.67,0,.71-.1,1.35-.33,1.53.48.34,1.53,8.56,1.77,1.64,1.49.27.69,4.44,1.06,6.29.35-1.34,1,.66,1.49.26a11.31,11.31,0,0,1-.5-3.52c.68-.69,1.14,1.6.89,3.39.79-2.21,1.18,2.8,1.78-.32C682.63,39.9,682.09,35.18,679.91,30.48Z"/><path class="cls-1" d="M671.59,28.94h0C671.58,28.87,671.58,28.88,671.59,28.94Z"/><path class="cls-1" d="M45.19,1.37a.59.59,0,0,0-.25-.08C44.16,1.32,44.54,1.35,45.19,1.37Z"/><path class="cls-1" d="M447.08,1.9c-1.74,0-3.05,0-4.15,0C444.2,1.94,445.57,1.94,447.08,1.9Z"/><path class="cls-1" d="M523.22,7.78c-1,0-2,0-3.06,0l-.59.07C520.19,7.91,522.2,7.82,523.22,7.78Z"/><path class="cls-1" d="M292.6,8.15a23,23,0,0,0,2.82-.21A25.1,25.1,0,0,0,292.6,8.15Z"/><path class="cls-1" d="M209.75,3.57h0Z"/><path class="cls-1" d="M679,19l.07.27A2.68,2.68,0,0,0,679,19Z"/><path class="cls-1" d="M678,25.19c.41-2.07,1.59.75,2.36.5-.26-3.34-1.66-3.14-1.92-6.49.16-.85.41-.59.55-.21l-.28-1-.18-.61-.17-.83a22.65,22.65,0,0,0,.59-3.64c.23-1.49.53-2.44,1,0,0,.75,0,2.13-.05,3.2.42-3.6,1-8.5,1.45-12.47-8.28-.25-15-.52-14.24-.84-4.53-.07-6.25,0-8.6,0-1.18,0-2.52,0-4.48,0l-3.19,0-2.89,0c-4.13.46.33.92-9.4,1.24l7.68.22c1.58-.08,2.89-.2,4.62-.27l-8,0c5-.21,4.15-.45,5.64-.89h5.09c2,0,3.91,0,5.6.09,3.37.07,6.08.17,8.42.28,4.68.22,7.88.47,12.31.57-6.43.35-15.74.25-12.9.8a77.11,77.11,0,0,0-9.29,0c-1.32.06-2.66.13-4.29.15h-2.54c-.72,0-1.51-.06-2.4-.11l1.37-.15c-5.79.43-6.59-.1-11.38.29.37-.11-.27-.18-.89-.25-10.4.25,3.15.34-7.28.87-9.27-.08-3-.91-5.56-1.17,15.54-.74-.32-.92,16.49-1.53-.06-.74-6.66-.84-15.64-.75,5.85.32-3.73,1.09,4,1.61C616.2,4.19,617.33,5.64,602.31,5l.37-.11-6.18.53L588,5.09c5.27-.79,11.76-.4,15.91-.86-10.35-.78-13.9.77-25.84.71-9.93-.89,12.15-.51,12.1-1.25-2.39.19-8.91-.19-8.14-.41,11.18.28,6.8-.47,19.26-.06-6.07.26.93.25-.21.57,1.78-.26,13.44-.37,21.68-.25,1.88-.54-7.15-.45-12.35-.69-9.85.59-20.07-.48-27.65.21-10.63.07-.79-.52-1.44-.59-9.55-.26-4.14.45-7.18.58-14.42.41-16-.64-26.32-.68-8.55.73-29.38.48-44,.43,1.77-.26-.17-.46-1.05-.7-8.69,1-5.56.6-16.42,1.24l9.19.37c-7.37.12-13.29.83-20.05.27,9,.94-11.87.68-17.3,1-7.52-.34-15.07.35-19.17-.23l1,0-10.93-.1,1.33-.9c-7.51-.34-16.74.32-14.15.59-7.89-.23-3.23-.33-4.38-.75,4.45-.28,14-1,16.75-.32a14.06,14.06,0,0,0-2.69,0c20.52.41,6.69-1.08,16.93-1.31-5.33-.06-9.31-.5-15-.26-2.64,0-13.41.37-18.84.69a130.33,130.33,0,0,1,17.15.32c-5-.08-5.78.42-10,.13l1.39-.15L412.16,3c-.81-.53-14.86-.22-6.63-.84-7.37.12-2.53.48-9.24.66l13.23.2-.22.57c-4.83.38-6,0-11.32,0l.45.64L389,3.67c1.17.41-6.08.25-8.11.33-5.21-.25-1.83-1.23-10.69-.67l.64.07c-5.07.21-8.07.33-15.33.17a33.52,33.52,0,0,1,3.39-.24C348.73,3,332.45,4,327.81,3c.83-.5,5.06-.21,5.28-.78,15.64.75,11-.92,29.39-.48.85,1.28,15.55-.74,19,.52C374.3,2.13,364.7,2.9,366,3c6.66-.07,16-.1,20.63,0-4.08-.41-2.77-1.12.2-1.55C376,1.87,356.47,1,341.23.9l1.71.76c-13.16.55,1.6-.72-8.68-.76l-4.54.57-.64-.07-7.55.69c5.33,0,2.88-.59,8.74-.27,5.21.25-.22.57-1.71,1-3.56-.22-16.24-.07-8.41-.58L306.25,3c.1-.28,3.13-.41,4.54-.56l-10,.14.36-.11c-8.08.34-19.37.34-25.55.88,13.76.55-6.56.64-5.39,1.06-4.94-.07-6.45-1.41,4.05-1.94,2.82.44,10-.13,15.34-.17-6.85-.27-9,.09-14.34.13,3.79-.34-7.12-.45-7-.73.72-.22,3-.88,9.84-.6,10.27,0,1.07.7,4.11.57,2.72.73,14.32-.13,20.55.08.66.07-1.38.15-2.39.19,5.35,0,16.63,0,17.45-.54l-13.4.38c-2.92-.16,4.14-.46-.05-.75-3.05.13-6.7.19-10.66.07l.74-.22c-8.12-.4-20.82-.25-30.18,0-2.09,1.11-7,1.78-11.09,3-13.92,0-28.5,0-43.33-.24.24.24.06.47-.64.68-4.2-.29-11.94-.07-11.72-.63-4.51.56-17.3,1-14.86,1.55l-1.7,0c-5.37-.62-13.48-1.1-28-1.23-2.85,0-3.26.37-2.61.91-3.08-.17-6-.31-8.9-.34a56.91,56.91,0,0,1,8-.6l-22.65-.19,1.76-.26-8.92.38c5-.15,12.81,0,10.91.57-10.13.42-15.87-.18-24.46.55.05-1-2.88-1.19,0-1.77a10,10,0,0,1,1,0A132.75,132.75,0,0,1,122.38,2c-18.81-.33-14,0-30.47-.22-1.44-.6,15.19-.63,11.36-1L118.76,1a39.48,39.48,0,0,0-4.21.28c10.67-.43,14.55.11,22.58-.58,5.09.28-7.92.46-2.34.56a73.23,73.23,0,0,0-11.63,1.24c12.2.24,6.93-.75,17.32-1l7.76.52c4.69-.11-1.54-.31-1.81-.49,5.7-.14,7.87.23,12.19.24-1.27-.13-4.18-.29-3.45-.51,7.16.45,14.21.16,20.85,1-3.83-.4,4.38-1,7.44-1.15L169.8.29c-17.35.25-28.16-.14-46.89.27L124,.23c-29.5-1-24.48,1.58-49.72,1.61C73.59,1,62.62,2,63.57,1.16c7.62.06,6.08-.25,3.9-.62a112.74,112.74,0,0,1-15.83.56c3.15-.41-4.35-.75,4-.91C49.87.1,45.4.08,41.63.17L38.89.25,34.12.38c-3,.11-5.83.25-8.44.42C16.82,1,11.93,1,8.68,1S3.94.79,2.29.66A5.12,5.12,0,0,0,1.56,3a51,51,0,0,0,0,7.8L.91,8.28,1.16,18l.22-.43.11-.22c0-.1.07-.27.11-.4L2,15.3l.13,1.49,0,.37,0,.18,0,.09.06.4.27,1.56.53,3.14c1,3.85,1.12-1.57,1.84-1.07l-1.3-1.3a10.53,10.53,0,0,0,0-2c-.07-1.05-.13-2.1-.19-3.06-.13-2.34-.18-4.24.27-4.63.1,3.77.4,5.2.75,6a4.9,4.9,0,0,0,.26.56l.13.25c0,.07.09.1.13.15a2.49,2.49,0,0,1,.46.87l-.13-1-.13-1.71-.27-3.46,1-2c0-2.9.06-5.47,0-7.82,6.7,0,12.24-.11,17-.39-3.23-.11-5.67,0-7.94.09A72.29,72.29,0,0,1,7.48,2c2.89-.36,9.24-.57,17.26-.71,4-.07,8.43-.12,13.06-.17l2.43,0,1.94,0L46.06,1c.27.18,3.57.23,2.17.38a30.27,30.27,0,0,1-3,0c.78.33-5,.54,4.75.73-3.5.53-10.8,1.39-10.54,1.57L38,3.69l-1.75,0-3.64,0c-2.48,0-5,0-7.54,0-5,0-9.84,0-13.54-.11l.34-.11H8.7c0,1.9.26,4.36.34,6.33s0,3.52-.49,3.72c.06.54.14,1.32.23,2.09l.13,1.1c0,.17.05.33.07.49l.07.27c.11.32.22.48.35.31a1.63,1.63,0,0,0,.21-.51c.07-.35.15-.93.23-1.64.11,1.83.22,2.6.34,3.72l.33,3.2c-2.06-1.06-2.49,5-4.18-1.38,0,.22.29,2.54.67,6.27a1.68,1.68,0,0,1-.21-.18,1,1,0,0,0-.36-.49c.06-.75,0-1.21.35-1.34-1.47-2.23-1.84,1-2,4.53L6,30.89c-.66,3-1.7,4.8-1.2,8.79L9.15,49c.09.9.18,1.83.27,2.75C8.74,53,9.25,57.12,7.9,55.51c-.54.41-.82-1-.56-2.77.14-.27.24.17.38-.11-.72-.51-1.58-.73-2.36,1.46.15-2.24.3-2.53-.22-4.08L5,52.26c-.26-3.34-1.91-8.45-2.92-8.38,1.44,1,0,3.17-.23,5C1.55,47.47.76,44.54.59,46.78c.58.8,1.39,6.91,2,2.58.37,1.83,1.07,4.3.67,6.38-.7-2.45-1.19-.84-2.15-1.52A3.61,3.61,0,0,0,3.4,56.68a70,70,0,0,1-2.21,7.59A19,19,0,0,0,.47,67.9,18,18,0,0,0,.41,70c.07,1.08.14,2.23.22,3.49.05.45,0,.16,0-.52s0-1.38-.05-2.23c0-1.1.06-2.22.54-1.89a9.58,9.58,0,0,1,.4,1.77l0,.4,0,.42c0,.48,0,1,0,1.4a38,38,0,0,1-.59,5A38.93,38.93,0,0,0,.09,88.56l1.6-3.1c.07.61.13,1.44.2,2.76C8,88.13,17.42,88.05,22.65,88c.75.12,6,.31,9.32.49s4.71.37-3,.48l5.83,0h4.66c1.59,0,3,0,4.2-.11,2.48-.12,4.41-.32,6.41-.53A134.57,134.57,0,0,1,68,87.65c-8.89-.19-9.91-.15-16.9-.14,7.46-.4,1.15-.33,2-.83,4.48.47,18.92,0,9.08.65,6,0,17.88.09,20.64-.21l-5.22-.25a177.27,177.27,0,0,0,20.62-1c-10.68.07-10.33,1-23.93.9-14.73-.5,3.52-.52-6.16-1.23l-10.49.53,5,.07c-1.6.72-16.24-.07-14.92.81-2.67-.17-4.86-.27-6.84-.34l-1.45,0H37.17l-4.62,0c-6.09-.06-12.55-.12-21.77-.44-5.27.31,2,.31,7.57.36-6,0-9.13.28-13.5.41a15.55,15.55,0,0,1,.22-5.38c.13-1.59-.2-1.76-.57-.81a18.6,18.6,0,0,0-.75,5.93c0-2.46,0-4.83-.07-7.3s-.06-5,0-7.72L2.49,77.34l0-5.93L1.78,76.5c0-1.44,0-2.91-.05-4.39V69.42c0-1.55.08-3.08.2-4.53a20.46,20.46,0,0,1,1.52-7,73.51,73.51,0,0,1,1.1,9.31c.08.8.17,1.59.24,2.34l.33,2.34a20.69,20.69,0,0,0,1.13,5.36c.29-1-.07-2.71-.29-4.56L5.88,72l0-.66a3.56,3.56,0,0,1,0-.8,2.09,2.09,0,0,1,.69-1.37L5.39,67.55c-.37-1.85-.82-6.11.34-6.48.84,5.05,1.85,6.37,2.84,8.93.24,0,.37.48.42,1.21l0,.08,0,0,0,1.89c0,.71,0,1.46,0,2.21a34.77,34.77,0,0,0,.2,4c-.26,2.79-.92,1.13-1.16.88a33.17,33.17,0,0,0-.33,5.31c8,0,15.66-.3,23.07-.53l5.58-.15,4.6-.11c2.54,0,5.21,0,8.07,0,.15.46,11.08.57,7.67.8,8.24.12,12.78-.44,18.2-.76,1.19.42,12.57.13,8.42.59l7.55-.69c5.21.25,16-.11,17.8.38,5.7-.15,1.59-.72,9.48-.49-.36.11.26.17-1.38.15a149.63,149.63,0,0,0,16-.11c-5.57-.14-1.28-.13-7.89-.23.15-.28,7.56-.68,15.07-.34-10.21.7,8.06.69,3.27,1.07,16.22.07,25.54-.87,39.07-1.53,16-.11,35.79.19,48.3-.43l-1.64,0,7.45-.4c4.31,0,.07.74,6.75.55-2.25.66-11.65.12-18.47.59,11.72.63-10.86.64-3.08,1.15,4.47-1.3,25-.2,35.2-.9,9.91.14-4.54.56.39.63l3.16-.41c3.93.12,5.23.25,5.12.53,10.53.22,22.59,0,31.43-.56-11.41.29,3.86-.63-7.41-.62,3.42-.24,10.76-.36,17.72-.37-6.7.19,9,.94-5.9.72,2.07.66,7.34-.12,14,0-3.39.24-10.9.64-10.23.71,9.95-.88,32,.53,35.87-.09,7.22-.58,18.34-1.05,27.17-1.6,8.79.47,18.54.16,28.44.31l-1.76.26c5.6.14,14.31-.13,22.57,0l1.84.48c5.68-.14,16.32-.21,25-.2.09-.28-7.91-.23-4.12-.57-4.32,0-8,.05-6.44.36-4.32,0-4.49-.47-8-.69l16.7-.32a11,11,0,0,1,1.9.11l1.23-.52c4.33,0,5.59.13,4.86.35,9.39-.2,12.64-.9,22.55-.75a107.06,107.06,0,0,1-13.93.77h11.3c-5.17.5-24.72.38-21.37,1.17,12.42-.33,30.53-.8,41.39-1.44,5.77.6,14.32-.13,23.85.13,1.29.13,4.21.29,2.44.55h-2.65c12.6.13,27-.28,38.14-.75l5.73.61c19.18.23-3.61-1,16-1.14,4.74.65,24.13.31,24.93.83,3.68-.06,5.34,0,5.79-.43-3.3,0-10.63.07-6.47-.38,6.7-.19,9.89.15,15.21.11-.36.11-4.17.46-2.12.37,13-.26,37.28-.25,49.64-1.32-4.69.1-5.18.5-11.42.29.11-.29,3.41-.24,4.79-.39-.78-.53-6.44.37-12.94,0l10.89-.64H670.7V8.48h-3.49c1.32-.09,2.63-.15,3.92-.19a25,25,0,0,1,.12,5c0,.85,0,1.7,0,2.55a11.66,11.66,0,0,0,.44,2.54c-.24-.17-.33-.63-.38.12-.24,5,2,7,1,10.94l-.72-.5c.09.34.68,2.69,1.47,2.22-.26-3.34-.59-4-.37-7a15.39,15.39,0,0,1,1.2,5.85l1.25.21c1.33,2.53-.62,5.09.71,7.6l.84-3a2.07,2.07,0,0,1,.13.51,6.82,6.82,0,0,0-.59-2.8C675.54,28.19,677.34,25.91,678,25.19ZM486.81,7.52a6.69,6.69,0,0,1-1.39.16c11.31,0,12.31,0,21.31-.14l-2.78.3c1.6.42,8.9,0,16.21-.07a57.57,57.57,0,0,1,9.78-.18l-1.13.33c1.28.29,8.53.31,16.7.31l-2.42.25H466.35C472.7,8.25,479.54,7.93,486.81,7.52Zm-160.56.57,16.41-1.28-.38.11,14.34-.13-1.75.26,8.43-.45c-.2.57,2.58.27,2.1.66,5.28,1,18.74-.4,30.19,0l-1.76.26c6.2-.54,21.58,0,31.46.18l-.35.11c-4.58.17-6.36.4-5.73.62H405.05c-.28-.06-1.07-.14-2.17-.26-2,.14-4.43.21-6.92.26H374.51c.75-.12,2.13-.23,3.52-.34l-28,.32,0,0H325.6C326.48,8.37,326.23,8.28,326.25,8.09ZM201.61,6.71l.76.53c17.55.2,30-1.16,48.16-.89-2.51.48-9.38.21-8.45.45,10.91.1,9.42-1.23,20.12-.56-15.33.17,9.55.26-4.26.74,19.23-.8,39.73.3,52.4.15-3.2-.34,5.18-.5,5.54-.61,3.31.05,2.19.38-.48.4,6.53.29,7.66.73,6.58,1.15l-13.33.06c2.38.08,4.16.23,5.86.35H294c-1.28-.1-2-.21-1.35-.33-4.57.16-11.32-.28-13.78-.18,4.73.22,3.81.37,1.22.51h-7.43c.06-.15,1.41-.31-1.14-.39l-10.66.07,9.28.09-1.1.23H201.6a67.43,67.43,0,0,1-10.83-1.55ZM146.77,7.78h-1l10.29-.19c1,.46,1.35.81.37.9H141.47c-1.21-.11-2.93-.21-4.85-.28Zm-11.08.7H123.8C125,8.22,130.89,8.31,135.69,8.48ZM15.77,7.76l0-1L36.39,7l18,.18-1.55-.31c3.95.12,7.11-.29,9.29.08A28.33,28.33,0,0,1,59,7.29L51.62,8l-5.56.49h-6.5C38,8.08,29.34,7.53,16,6.9,15.94,7.18,15.86,7.47,15.77,7.76Zm3.5,40a8.22,8.22,0,0,1-.17,2c0-.79.09-1.54.13-2.3ZM18.43,69l-.49-1.06q.45-7.07.85-13.28a18,18,0,0,1,.39,4.93,8.48,8.48,0,0,0,.32-1.25V68.8a17,17,0,0,1-.59-5.49C18.83,63.59,18.66,65.79,18.43,69ZM318,80.5l2.28-.29h5.63C325.68,80.44,325.29,80.79,318,80.5Zm12.65-.16-1.37-.13h5.06C333.3,80.29,332.08,80.35,330.64,80.34ZM666.93,8.48h-3.21l5.92-.24Z"/><path class="cls-1" d="M232.91,2.88l-4.41.28a127.57,127.57,0,0,0,14.81-.52c-.39.11.25.18,1.53.31,7.35-.12,11.23-.75,7.43-1.15L249.84,2l-5.09-.53c-1.94,1-16.94.44-25.17.9,5.65-.45,10.51-1.41,17.81-.78l-.79-.53c6.32-.07,11.44.46,15-.06l-7.36.12.13-.29c-5.22,0-11.87.49-16.68.17a155.12,155.12,0,0,1-19.53.78l.37-.11c-7.67,1-21.37-.6-27.17-.17-3.35,1,12.44.41,16.28.81-4.78.39-9.89-.15-5.79.43-11.15.47-6.66-.84-15.87-.18l5.22.25c-4.13.46-11,.18-15.19.63-.57.68,7,0,14.89.22l-3.53.52,15.81-.56c4.65-.85.32-.85,10.17-1.45,3.48.36,6,.9,6.5,1.4C213.36,3.05,222.67,2.85,232.91,2.88Z"/><path class="cls-1" d="M673.73,32.42c.42,1.09.35,3.8,1.27,3.27C674,35.75,674.85,30.85,673.73,32.42Z"/><path class="cls-1" d="M673.37,36.51l0,.42A2.5,2.5,0,0,0,673.37,36.51Z"/><path class="cls-1" d="M672.74,35.65c.21.17.53.09.63.86l-.23-2.93Z"/><path class="cls-1" d="M601.64,2.37c-.54-.35-4.33,0-6.35.08C596.94,2.47,599.24,2.56,601.64,2.37Z"/><path class="cls-1" d="M518.29,86.34c-13.32.09-25.61.14-46.29.34Z"/><path class="cls-1" d="M442.67,4l5.36.71c12.43-.33,18-.94,30.62-1.09C462,2.87,456.65,4.67,442.67,4Z"/><path class="cls-1" d="M444.63,3.12c8.38-.16,3.9-.63,11.51-.57l-3.72-.69C454.48,2.52,442.83,2.64,444.63,3.12Z"/><polygon class="cls-1" points="397.14 2.3 390.91 2.09 395.77 2.45 397.14 2.3"/><polygon class="cls-1" points="352.23 2.49 358.31 2.23 357.71 2.17 351.61 2.42 352.23 2.49"/><path class="cls-1" d="M209,1.27c8.44.13,7.13-.55,12.23-.71-9.56.08-11.51-.1-22.93,0C207.14.79,209.44.88,209,1.27Z"/><path class="cls-1" d="M221.18.56l3.33,0C223.12.52,222.09.53,221.18.56Z"/><path class="cls-1" d="M185.05.4c1.65,0,4.29,0,5.59.14C191.11.15,183.4.37,185.05.4Z"/><path class="cls-1" d="M227.62,8.29l.63,0Z"/><path class="cls-1" d="M219.34,8.12c.83.22,5.7.12,8.28.17C224.58,8.17,222,7.57,219.34,8.12Z"/><path class="cls-1" d="M162.63,2.64c2.39-.19,5.63-.89-3.09-.62C161.19,2.05,163.72,2.31,162.63,2.64Z"/><polygon class="cls-1" points="210.45 7.93 203.09 8.05 204.36 8.18 210.45 7.93"/><path class="cls-1" d="M62.12.57,66.56.29,61,.21C62.61.32,59.74.83,62.12.57Z"/><path class="cls-1" d="M60,.2H61C60.79.19,60.45.19,60,.2Z"/><polygon class="cls-1" points="23.4 1.52 24.66 1.59 37.66 1.47 23.4 1.52"/><polygon class="cls-1" points="1.73 18.81 1.44 19.38 1.99 22.14 2.28 21.56 1.73 18.81"/><path class="cls-1" d="M158,85.67l2-.09C159.17,85.6,158.51,85.63,158,85.67Z"/><path class="cls-1" d="M250.8,86.94a109.61,109.61,0,0,1,11.32,0c1.11-.32-3.11-.62-2.62-1-12.48-.41-14.38,1.16-26.58.92.48-.39,4.25-.74-3.73-.68l2-.09c-12.78.44-10-.89-18,.19l.21-.57c-5.8.43-17.08.43-23.43.51l.38-.11c-17.84.65-10,.14-30,.41l9.22-.66c-6.91-.27-8.47.45-13.42.37.29-.09-.43-.38,1.86-.54l-22.27.93c-5.8.43,1.18.41,2.08.66-2.15.37-12.67.15-13.22-.2,1.42-.15,7.12-.3,3.54-.52l-8.32.91c-11.07-.57,8.41-1.19,13.87-1.51-11.27-.12-14.61.47-26.61.47,3.54.08,5.78.31,7.65.5.4.64-10.77.36-18.76.41,5.08.27,2.14.51-1.56.76a12.2,12.2,0,0,0-1.43.1l-1.26.09h1c-.07.07.15.15.84.27,6.7-.18,11.83.35,16.14.36-4.26-1,14.7-.24,20.13-.56l6.26-.1h2.34c.47.12-.19.26-3.76.47,3-.21,12.92-.14,12-.47l22.7,0c.71.05,1.42.1,1.94.17.79-.06.92-.11.81-.17l98.9-.06c-4.88-.09-9.1-.32-14.13-.44C264.39,87,248.59,87.59,250.8,86.94Z"/><path class="cls-1" d="M102.6,86.39c1.67,0,3.1,0,4.47,0C105.79,86.38,104.33,86.37,102.6,86.39Z"/><path class="cls-1" d="M277.91,88.14H271C273.12,88.18,275.36,88.19,277.91,88.14Z"/><path class="cls-1" d="M84.57,87.61l-12.32,0c4.21.3-3.15.41-3.89.63H83.45C83.38,88.05,84.87,87.81,84.57,87.61Z"/><path class="cls-1" d="M87.82,88.68a31.42,31.42,0,0,1,3.89-.41H83.45C83.5,88.44,84.43,88.59,87.82,88.68Z"/><path class="cls-1" d="M329.26,85.9l3.29,0C331.05,85.86,330.06,85.88,329.26,85.9Z"/><path class="cls-1" d="M368.59,86.23c-10.56,0-25.94-.36-28.64.23.16-.1,0-.22-1.54-.28l-6.53.65,6.23.21c-6.57.64-27.76.5-31.6.1,12.06-.22,6-1,22.8-.58-.75-.2-3.83-.55-.05-.66-19.67.23-37.31-.13-57.69.55,16,.63-10.51.53-5.47,1.34l8.73-.27-.74.22,10.64-.07c-2.18-.38-3.82-.4-3.35-.79,14.21.15,4.48.46,14.9,1l15.89-.07-1.29.12a18.78,18.78,0,0,0,2.39-.12l53.52-.25C376.53,87.21,361.41,86.81,368.59,86.23Z"/><path class="cls-1" d="M468.94,86.07l-.16.07C469.14,86.1,469.26,86.07,468.94,86.07Z"/><path class="cls-1" d="M460.19,86.34l2.15-.37-9.59.77,14.95-.06,1.08-.54A67,67,0,0,1,460.19,86.34Z"/><path class="cls-1" d="M453.32,86.06c-.16-.46-8.9-.19-10.9-.1l-.81,1.25c7.72-.23,7.3-.87,3.09-1.16C451.79,85.75,448.44,86.73,453.32,86.06Z"/><polygon class="cls-1" points="384.63 86.87 386.81 86.61 381.46 86.54 384.63 86.87"/><path class="cls-1" d="M390.52,86.16l-3.71.45,5.31.07A4.14,4.14,0,0,0,390.52,86.16Z"/><path class="cls-1" d="M413.81,87l-7.76-.1C408.3,86.91,410.79,86.94,413.81,87Z"/><path class="cls-1" d="M400.16,86.78l5.89.08L400,86.7Z"/><path class="cls-1" d="M401.67,87.47l-1.51-.69-8-.1C393,87.12,394,87.59,401.67,87.47Z"/><path class="cls-1" d="M428.05,87.12c-.12.28,3.92.11,5.95,0C432.35,87.12,430,87,428.05,87.12Z"/><path class="cls-1" d="M583.73,86.23a31.54,31.54,0,0,0-3.57-.22Z"/></g></g></svg>