<svg xmlns="http://www.w3.org/2000/svg" viewBox="0 0 207 67"><defs><style>.cls-1{fill:#fff;}</style></defs><title>Recurso 11</title><g id="Capa_2" data-name="Capa 2"><g id="Capa_1-2" data-name="Capa 1"><path class="cls-1" d="M205,46.72c0,1.25-.18,2.35-.28,1.88.27,2.55,0,2.6.49,2.93.25,1.64-.1,3.39-.32,1.53l.32,4.72.09-2.83c.43.77-.13,4.52.37,5.41l0-5.11.15.25a27.1,27.1,0,0,1,0-4.21c.07.13.19.05.2,1,0-6.17-.76-1.66-.91-6.79A12.37,12.37,0,0,1,205,46.72Z"/><path class="cls-1" d="M206.09,41.48l-.55-2.15.14-3.62c-.19,0-.34-2.67-.5-.89a14.65,14.65,0,0,1,.06,1.6c-.4-.41-.2-4.81-.61-3.75a28.35,28.35,0,0,0,.35,5.06c0,2.62-.13,4.52-.28,5.75.06.77.31.88.36,1.87l0-.67.62-.11a17.13,17.13,0,0,1-.08-2.51l.71,4.22c.58-1.36.24-5.51.48-7.17C206.25,41.17,206.51,37.47,206.09,41.48Z"/><path class="cls-1" d="M2.6,52.68s0,0-.07,0l.19.91v0C2.68,53.26,2.64,53,2.6,52.68Z"/><path class="cls-1" d="M.43,25.26l.36,4.5c-.17-.6-.12,1.57-.32.62,0,.35.1,2,.19,1.52V31c.5,2.37.69.94,1.08,4.87A13.28,13.28,0,0,0,1.52,31c0-.44-.05-.8-.07-1.18l-.7-3.74Z"/><path class="cls-1" d="M134.6,62.32l0,0S134.6,62.34,134.6,62.32Z"/><path class="cls-1" d="M134.38,62.55l.17-.18C134.34,62.46,133.52,62.54,134.38,62.55Z"/><path class="cls-1" d="M206,12.12l0,.93C206,12.85,206,12.5,206,12.12Z"/><path class="cls-1" d="M45.25,3l1.06,0C45.9,3,45.55,3,45.25,3Z"/><path class="cls-1" d="M69.17.7,70.72.54A8.5,8.5,0,0,0,69.17.7Z"/><path class="cls-1" d="M195.86,3.19h-.05l-.25,0Z"/><path class="cls-1" d="M117.15,2.31a6,6,0,0,0,.86.15C118,2.39,117.65,2.35,117.15,2.31Z"/><path class="cls-1" d="M68.88.73H69l.2,0Z"/><path class="cls-1" d="M34.71,1,34,1A5.74,5.74,0,0,0,34.71,1Z"/><path class="cls-1" d="M36.21,2.92a5.58,5.58,0,0,0-.66.07Z"/><path class="cls-1" d="M1.66,13.78l.09,1.62A15.49,15.49,0,0,0,1.66,13.78Z"/><path class="cls-1" d="M32.41,2.47l-.22.09C32.39,2.54,32.48,2.5,32.41,2.47Z"/><path class="cls-1" d="M204.19,22.71v-.1l-.07,0Z"/><path class="cls-1" d="M205.13,28.08a12.3,12.3,0,0,0,0-1.43Z"/><path class="cls-1" d="M138,3.42c.38.1,1.27.22.85.33C139.57,3.61,139.52,3.26,138,3.42Z"/><path class="cls-1" d="M206,22.94c.1,2.87.24,6.07.06,8.42l-.39-1a53.1,53.1,0,0,0,.12-6.9l-.21,5.86c-.32,2.75-.4.91-.47-1.25a4,4,0,0,1-.1,1.15c.15.25.46,6.44.54,1.24.45.2.21,3.34.32,4.72.11-1,.29.51.45.2a22,22,0,0,1-.15-2.65c.21-.52.35,1.21.27,2.56.24-1.66.36,2.1.54-.25A79.14,79.14,0,0,0,206,22.94Z"/><path class="cls-1" d="M203.5,21.78h0S203.49,21.74,203.5,21.78Z"/><path class="cls-1" d="M13.69,1s0,0-.07-.06C13.38,1,13.5,1,13.69,1Z"/><path class="cls-1" d="M135.47,1.43c-.53,0-.93,0-1.26,0C134.6,1.46,135,1.46,135.47,1.43Z"/><path class="cls-1" d="M158.54,5.86c-.31,0-.62,0-.93,0l-.18.05A5.41,5.41,0,0,0,158.54,5.86Z"/><path class="cls-1" d="M88.66,6.14A3.11,3.11,0,0,0,89.51,6,3,3,0,0,0,88.66,6.14Z"/><path class="cls-1" d="M63.56,2.69h0Z"/><path class="cls-1" d="M205.74,14.29l0,.2Z"/><path class="cls-1" d="M205.44,19c.13-1.56.48.56.72.37-.08-2.51-.5-2.36-.58-4.88,0-.64.12-.44.16-.16l-.08-.72,0-.47-.06-.62c.06-.07.11-1.62.18-2.75s.16-1.83.3,0c0,.56,0,1.6,0,2.4.13-2.71.3-6.39.44-9.38-2.51-.19-4.55-.39-4.31-.64-1.38-.05-1.9,0-2.61,0-.36,0-.76,0-1.36,0h-1l-.88,0c-1.25.34.1.69-2.85.93l2.33.17c.48-.07.87-.15,1.4-.21l-2.42,0c1.53-.16,1.25-.34,1.7-.67h.67l.88,0c.62,0,1.18,0,1.69.06,1,0,1.85.13,2.55.21,1.42.16,2.39.35,3.74.43-2,.26-4.78.19-3.91.6a9.39,9.39,0,0,0-2.82,0c-.4,0-.81.09-1.3.11h-.77c-.22,0-.46,0-.73-.08l.42-.12c-1.76.33-2-.07-3.45.22.11-.08-.08-.13-.27-.18-3.15.18,1,.25-2.21.65-2.8-.06-.91-.68-1.68-.88,4.71-.56-.1-.7,5-1.15,0-.56-2-.64-4.74-.57,1.77.24-1.13.82,1.23,1.21-4.08.28-3.73,1.37-8.29.86l.12-.08-1.88.4-2.57-.22c1.59-.59,3.56-.3,4.82-.64-3.14-.59-4.21.57-7.83.53-3-.67,3.68-.39,3.67-1-.73.15-2.7-.14-2.47-.3,3.39.21,2.06-.35,5.83,0-1.84.19.29.18-.06.43a38.46,38.46,0,0,1,6.57-.19c.57-.41-2.17-.34-3.74-.53-3,.45-6.08-.35-8.38.16-3.22.06-.24-.39-.44-.44-2.89-.2-1.25.34-2.17.43-4.37.31-4.86-.48-8-.51-2.59.55-8.9.36-13.32.33.53-.2,0-.35-.32-.53-2.63.77-1.68.45-5,.94l2.78.27c-2.23.09-4,.63-6.07.21,2.71.7-3.6.51-5.25.75-2.27-.26-4.56.26-5.81-.17l.31,0L130,3.47l.4-.68c-2.27-.25-5.07.25-4.28.45-2.39-.18-1-.25-1.33-.57,1.35-.21,4.25-.79,5.07-.24a1.69,1.69,0,0,0-.81,0c6.22.31,2-.82,5.13-1a29.53,29.53,0,0,0-4.55-.19c-.8,0-4.06.28-5.71.52a16.14,16.14,0,0,1,5.2.23c-1.51,0-1.75.33-3,.11l.42-.12-1.64.24c-.25-.39-4.51-.16-2-.63-2.23.09-.77.36-2.8.5l4,.15-.07.42c-1.46.3-1.82,0-3.43,0l.14.48-2.86-.41c.35.31-1.85.19-2.46.25-1.58-.19-.56-.92-3.24-.5l.19.05a23.94,23.94,0,0,1-4.64.12,4.46,4.46,0,0,1,1-.17c-3.07-.25-8,.48-9.41-.22.25-.38,1.53-.16,1.6-.59,4.74.56,3.32-.69,8.9-.36.26,1,4.71-.56,5.78.39-2.2-.13-5.1.45-4.72.56,2-.06,4.85-.08,6.26,0-1.24-.31-.85-.84,0-1.17-3.26.27-9.19-.38-13.81-.47l.52.58c-4,.41.49-.54-2.63-.57l-1.37.42-.2-.05-2.28.52c1.61,0,.87-.44,2.64-.2,1.58.19-.06.43-.51.75C98.48,2,94.64,2.07,97,1.69l-4.22.57c0-.21.95-.31,1.38-.42l-3,.1.11-.08c-2.45.25-5.87.26-7.74.66,4.17.41-2,.49-1.63.8-1.5,0-2-1.06,1.22-1.46.86.33,3-.1,4.65-.13a25,25,0,0,0-4.34.1c1.14-.26-2.16-.34-2.13-.55.22-.17.9-.66,3-.45,3.12,0,.33.52,1.25.43.82.55,4.34-.1,6.23.06.19.05-.42.11-.73.14,1.62,0,5,0,5.29-.4l-4.06.28c-.88-.12,1.25-.34,0-.56A18.83,18.83,0,0,1,89,.83l.23-.16a59.2,59.2,0,0,0-9.15,0C79.43,1.47,78,2,76.7,2.87c-4.21,0-8.63,0-13.12-.18.07.18,0,.35-.2.51-1.27-.22-3.62-.05-3.55-.48-1.37.42-5.24.75-4.5,1.17l-.52,0A34.51,34.51,0,0,0,46.31,3c-.86,0-1,.27-.79.68a23.21,23.21,0,0,0-2.69-.25A7.18,7.18,0,0,1,45.25,3l-6.87-.14.53-.19-2.7.28c1.53-.11,3.88,0,3.31.43-3.07.31-4.81-.14-7.41.41,0-.77-.87-.89,0-1.33a1.09,1.09,0,0,1,.3,0,17.11,17.11,0,0,1,4.67-1c-5.7-.25-4.23,0-9.23-.17-.44-.44,4.6-.47,3.44-.77L36,.76A4.94,4.94,0,0,0,34.71,1c3.23-.33,4.41.08,6.84-.43,1.54.21-2.4.34-.71.42a9.73,9.73,0,0,0-3.52.93c3.7.18,2.1-.57,5.24-.75l2.36.38c1.42-.07-.47-.23-.55-.36a32.22,32.22,0,0,1,3.69.18c-.38-.1-1.26-.22-1-.38,2.17.33,4.3.11,6.32.75C52.17,1.4,54.66.94,55.59.84L51.45.22c-5.26.19-8.53-.1-14.21.2l.34-.24c-8.94-.77-7.42,1.19-15.07,1.2C22.3.77,19,1.47,19.26.88,21.57.92,21.1.69,20.44.4a13.91,13.91,0,0,1-4.79.43c1-.31-1.32-.57,1.21-.69-1.75-.06-3.1-.08-4.25,0l-.82.07-1.45.1C9.42.37,8.57.47,7.78.61,5.1.74,3.61.76,2.63.72A9.79,9.79,0,0,1,.69.49a8.58,8.58,0,0,0-.22,1.8c0,1.06-.06,2.83,0,5.87L.28,6.23l.07,7.32.07-.33,0-.16c0-.08,0-.21,0-.3l.14-1.25,0,1.13v.48l0,.3.08,1.17L.94,17c.3,2.9.34-1.18.56-.8l-.4-1c0-.47,0-1,0-1.53l-.06-2.3a17.89,17.89,0,0,1,.08-3.48,33.42,33.42,0,0,0,.23,4.55c0,.16,0,.29.08.42l0,.19c0,.05,0,.07,0,.12a3.16,3.16,0,0,1,.14.64l0-.74,0-1.28L1.5,9.15l.29-1.53c0-2.18,0-4.12,0-5.88A37.69,37.69,0,0,0,7,1.44a12.07,12.07,0,0,0-2.4.07,9.06,9.06,0,0,1-2.28,0A26.71,26.71,0,0,1,7.5,1c1.21,0,2.55-.09,3.95-.13l.74,0,.59,0L14,.72c.08.14,1.08.17.65.29a3.6,3.6,0,0,1-.92,0c.24.25-1.52.4,1.44.55a25.35,25.35,0,0,0-3.19,1.18l-.44,0L11,2.8l-1.1,0-2.29,0c-1.52,0-3,0-4.1-.09l.1-.08h-1c0,1.44.09,3.29.11,4.77a9.17,9.17,0,0,1-.15,2.8l.07,1.57,0,.83,0,.37,0,.21c0,.24.07.35.11.23a2.47,2.47,0,0,0,.06-.39c0-.26,0-.7.07-1.23,0,1.37.07,1.95.1,2.8L3.19,17c-.63-.79-.76,3.73-1.27-1,0,.16.09,1.91.2,4.71a.81.81,0,0,1-.06-.13A1.17,1.17,0,0,0,2,20.22c0-.57,0-.91.11-1-.45-1.67-.56.8-.6,3.41l.35.62a37.42,37.42,0,0,0-.36,6.62l1.32,7L2.85,39c-.2.92-.05,4-.46,2.8-.16.32-.24-.72-.17-2.08,0-.21.08.13.12-.09-.22-.38-.48-.54-.72,1.11a14.07,14.07,0,0,0-.06-3.07l-.05,1.69C1.43,36.82.93,33,.62,33c.44.77,0,2.39-.07,3.74-.08-1-.32-3.24-.37-1.55.17.6.42,5.2.59,1.93A32.54,32.54,0,0,1,1,42C.76,40.11.61,41.32.32,40.8c.26,1.64.57,1.59.71,1.85-.18,2.35-.47,4-.67,5.72-.1.86-.18,1.74-.22,2.73,0,.5,0,1,0,1.59,0,.81,0,1.68.06,2.62,0,.34,0,.12,0-.39l0-1.68c0-.82,0-1.67.17-1.42.06.48.1.92.12,1.33v1.67c0,1.36-.1,2.55-.18,3.75A70.14,70.14,0,0,0,0,66.65l.48-2.33c0,.46,0,1.08.06,2.07,1.85-.07,4.71-.13,6.29-.16.23.09,1.82.23,2.83.37s1.42.27-.93.36l1.77,0h1.41a11.3,11.3,0,0,0,1.27-.09,13.65,13.65,0,0,0,1.95-.4A16.66,16.66,0,0,1,20.59,66c-2.69-.14-3-.11-5.12-.1,2.26-.31.35-.25.6-.63,1.35.35,5.73,0,2.75.49a47.1,47.1,0,0,0,6.25-.15l-1.58-.19a22.34,22.34,0,0,0,6.25-.72c-3.24,0-3.13.75-7.25.68C18,65,23.56,65,20.62,64.41l-3.18.4,1.5.06c-.48.54-4.92-.06-4.52.6-.8-.12-1.47-.2-2.07-.25l-.44,0h-.65l-1.4,0c-1.84,0-3.8-.08-6.59-.32-1.6.23.59.23,2.29.27a36,36,0,0,0-4.09.3,28.87,28.87,0,0,1,.07-4c0-1.2-.07-1.33-.18-.62a32.93,32.93,0,0,0-.22,4.47c0-1.85,0-3.64,0-5.49s0-3.77,0-5.81L.76,58.21V53.74L.54,57.57c0-1.08,0-2.19,0-3.31v-2c0-1.16,0-2.32.07-3.4A36.42,36.42,0,0,1,1,43.56c.19,2,.25,4.59.34,7l.07,1.76.1,1.76a38,38,0,0,0,.34,4,26.83,26.83,0,0,0-.09-3.43l0-.53v-.49c0-.21,0-.41,0-.61A3,3,0,0,1,2,52l-.35-1.2c-.11-1.38-.25-4.59.11-4.87a51.14,51.14,0,0,0,.86,6.72c.07,0,.11.36.12.91v0l0,1.42c0,.54,0,1.1,0,1.67,0,1.12,0,2.23.06,3-.08,2.11-.28.86-.35.67-.08,1.42-.11,2.75-.1,4,2.42,0,4.74-.22,7-.39L11,63.86l1.39-.08a18.4,18.4,0,0,1,2.45,0c0,.35,3.35.43,2.32.6a23.85,23.85,0,0,0,5.52-.57c.36.32,3.81.1,2.55.44l2.29-.52c1.57.19,4.84-.08,5.39.29,1.73-.11.48-.54,2.87-.37-.11.08.08.13-.42.11a18.28,18.28,0,0,0,4.84-.07c-1.68-.11-.39-.1-2.39-.18,0-.21,2.29-.52,4.57-.26-3.1.53,2.44.52,1,.81,4.91,0,7.74-.66,11.84-1.15,4.84-.08,10.84.14,14.63-.32l-.5,0,2.26-.31c1.31,0,0,.56,2,.42-.68.5-3.53.09-5.6.44,3.55.48-3.29.48-.93.87,1.35-1,7.57-.15,10.66-.68,3,.11-1.37.42.12.48l1-.31c1.19.09,1.58.19,1.55.4A50.29,50.29,0,0,0,90,63.49c-3.45.22,1.17-.47-2.24-.47a41.74,41.74,0,0,1,5.37-.28c-2,.14,2.71.71-1.79.54.63.5,2.23-.09,4.23,0-1,.18-3.3.49-3.1.54,3-.67,9.7.4,10.87-.08,2.19-.43,5.56-.78,8.23-1.2,2.67.36,5.62.12,8.62.23l-.53.2c1.69.11,4.33-.1,6.83,0l.56.37c1.72-.11,5-.16,7.57-.15,0-.22-2.39-.18-1.25-.43-1.31,0-2.41,0-2,.27-1.31,0-1.36-.35-2.43-.52l5.06-.25a1.53,1.53,0,0,1,.58.09l.37-.39c1.31,0,1.69.1,1.47.26,2.84-.15,3.83-.67,6.83-.56a13.23,13.23,0,0,1-4.22.57h3.43c-1.57.38-7.49.28-6.48.88,3.77-.25,9.25-.6,12.54-1.09,1.75.46,4.34-.09,7.23.1.39.1,1.28.22.74.41l-.8,0A94.7,94.7,0,0,0,167.26,62l1.74.45c5.81.17-1.1-.73,4.86-.86,1.43.49,7.31.23,7.55.63,1.11,0,1.62,0,1.76-.33-1,0-3.23.06-2-.28,2-.14,3,.11,4.61.08-.11.08-1.26.34-.64.28,4-.2,11.3-.19,15-1a15.42,15.42,0,0,1-3.46.21c0-.21,1-.18,1.45-.29-.24-.39-1.95.28-3.92,0l3.3-.49h5.65v-54h-1.06c.4-.06.8-.11,1.19-.14.08,1.16,0,2.48,0,3.76,0,.64,0,1.28,0,1.92s.06,1.29.14,1.91c-.08-.12-.11-.47-.12.1-.07,3.73.61,5.22.29,8.22l-.21-.37c0,.25.2,2,.44,1.67-.08-2.51-.18-3-.11-5.24a26.43,26.43,0,0,1,.36,4.4l.38.17c.41,1.89-.18,3.82.22,5.71l.25-2.21a2.43,2.43,0,0,1,0,.37,12,12,0,0,0-.18-2.1A13.6,13.6,0,0,1,205.44,19ZM147.51,5.66a.84.84,0,0,1-.42.12c3.42,0,3.73,0,6.45-.11l-.84.23c.48.32,2.7,0,4.91-.05a7,7,0,0,1,3-.13l-.34.24a25.21,25.21,0,0,0,5.06.24l-.73.18H141.31Q144.19,6.13,147.51,5.66Zm-48.66.43,5-1-.12.08,4.35-.1-.53.19L110.08,5c-.06.43.79.2.64.49,1.6.75,5.68-.3,9.15,0l-.54.2c1.88-.41,6.54,0,9.54.13l-.11.09c-1.39.13-1.93.3-1.74.46h-4.29a4.45,4.45,0,0,0-.65-.19,20.19,20.19,0,0,1-2.1.19h-6.5a9.13,9.13,0,0,1,1.06-.26l-8.48.25h-7.4C98.93,6.3,98.85,6.23,98.85,6.09Zm-37.76-1,.23.4c5.32.15,9.09-.87,14.59-.67-.76.36-2.84.15-2.56.34,3.31.08,2.86-.93,6.1-.42-4.65.13,2.89.19-1.29.55,5.82-.6,12,.23,15.87.12-1-.26,1.57-.38,1.68-.46,1,0,.67.28-.14.3,2,.22,2.32.55,2,.86l-4,0c.72.06,1.26.17,1.78.26H89.07c-.39-.07-.59-.16-.41-.24-1.39.11-3.43-.22-4.18-.14,1.44.16,1.16.28.37.38H82.6c0-.11.43-.23-.34-.29L79,6.14l2.81.07-.33.17H61.09A9.65,9.65,0,0,1,57.8,5.21Zm-16.62.81-.3,0,3.11-.13c.29.34.41.6.12.67H42.87a12.25,12.25,0,0,0-1.47-.21Zm-3.35.52H37.51A12.56,12.56,0,0,1,41.12,6.38ZM4.78,5.84V5.11L11,5.25l5.44.13L16,5.15c1.2.08,2.16-.22,2.82.06a4.49,4.49,0,0,1-.93.28L15.64,6,14,6.38H12c-.49-.3-3.1-.71-7.13-1.19ZM5.84,36a13.49,13.49,0,0,1,0,1.48l0-1.72ZM5.58,51.9l-.15-.8c.1-3.54.18-6.88.26-10a33.41,33.41,0,0,1,.12,3.72c0-.3.07-.62.1-1v7.91a29.68,29.68,0,0,1-.18-4.14C5.71,47.86,5.65,49.51,5.58,51.9Zm90.77,8.68.69-.22h1.71C98.68,60.54,98.57,60.8,96.35,60.58Zm3.84-.11-.42-.11h1.53A5.08,5.08,0,0,1,100.19,60.47ZM202.08,6.38h-1l1.8-.18Z"/><path class="cls-1" d="M70.57,2.17l-1.33.21A16.51,16.51,0,0,0,73.72,2c-.11.08.08.13.47.23,2.23-.09,3.4-.56,2.25-.87l-.74.15-1.54-.4c-.59.78-5.13.33-7.63.68,1.72-.35,3.19-1.06,5.4-.59l-.24-.4c1.92-.06,3.47.35,4.53-.05L74,.83l0-.21A32,32,0,0,1,69,.74a18.91,18.91,0,0,1-5.91.59l.11-.08C60.85,2,56.69.8,54.94,1.12c-1,.74,3.77.31,4.93.61-1.45.29-3-.11-1.75.33-3.38.34-2-.64-4.81-.14l1.58.19c-1.25.34-3.34.13-4.6.47-.18.51,2.12,0,4.51.17l-1.07.39,4.79-.42c1.41-.64.1-.65,3.08-1.1,1.06.28,1.81.68,2,1.06A27.84,27.84,0,0,1,70.57,2.17Z"/><path class="cls-1" d="M204.14,24.4c.13.82.11,2.86.39,2.46C204.22,26.91,204.48,23.22,204.14,24.4Z"/><path class="cls-1" d="M204,27.48v.31C204,27.67,204,27.57,204,27.48Z"/><path class="cls-1" d="M203.84,26.83c.07.13.16.07.2.65L204,25.27Z"/><path class="cls-1" d="M182.3,1.78c-.16-.26-1.31,0-1.92.06A7.53,7.53,0,0,0,182.3,1.78Z"/><path class="cls-1" d="M157.05,65c-4,.07-7.77.1-14,.25Z"/><path class="cls-1" d="M134.13,3l1.63.54c3.76-.25,5.44-.71,9.27-.82C140,2.16,138.37,3.52,134.13,3Z"/><path class="cls-1" d="M134.73,2.35c2.53-.12,1.18-.47,3.48-.43l-1.12-.52C137.71,1.9,134.18,2,134.73,2.35Z"/><polygon class="cls-1" points="120.34 1.73 118.45 1.57 119.92 1.84 120.34 1.73"/><polygon class="cls-1" points="106.73 1.87 108.57 1.68 108.39 1.63 106.54 1.82 106.73 1.87"/><path class="cls-1" d="M63.31,1c2.56.09,2.16-.42,3.71-.54-2.9.06-3.49-.08-6.95,0C62.76.59,63.46.66,63.31,1Z"/><path class="cls-1" d="M67,.42l1,0C67.61.39,67.29.4,67,.42Z"/><path class="cls-1" d="M56.07.3a11,11,0,0,1,1.69.11C57.91.11,55.57.28,56.07.3Z"/><path class="cls-1" d="M69,6.24h0Z"/><path class="cls-1" d="M66.46,6.11A13.1,13.1,0,0,0,69,6.24C68.05,6.15,67.28,5.7,66.46,6.11Z"/><path class="cls-1" d="M49.28,2c.72-.15,1.71-.67-.94-.47C48.84,1.54,49.61,1.74,49.28,2Z"/><polygon class="cls-1" points="63.77 5.97 61.54 6.06 61.92 6.16 63.77 5.97"/><path class="cls-1" d="M18.82.43,20.17.22,18.49.16C19,.24,18.1.63,18.82.43Z"/><path class="cls-1" d="M18.17.15h.32A1.47,1.47,0,0,0,18.17.15Z"/><polygon class="cls-1" points="7.09 1.15 7.47 1.2 11.41 1.11 7.09 1.15"/><polygon class="cls-1" points="0.52 14.16 0.44 14.59 0.6 16.66 0.69 16.22 0.52 14.16"/><path class="cls-1" d="M47.87,64.47l.62-.06A4.32,4.32,0,0,0,47.87,64.47Z"/><path class="cls-1" d="M76,65.43a13.58,13.58,0,0,1,3.43,0c.33-.24-1-.46-.8-.76-3.78-.31-4.36.88-8,.69.14-.29,1.29-.55-1.13-.51l.61-.06c-3.87.33-3-.67-5.45.14l.06-.43a62.74,62.74,0,0,1-7.1.38l.11-.08c-5.4.49-3,.11-9.09.31l2.79-.5c-2.1-.21-2.57.34-4.07.28.09-.07-.13-.29.56-.41l-6.74.7c-1.76.32.35.31.63.5a9.83,9.83,0,0,1-4-.15c.43-.11,2.16-.22,1.07-.39l-2.52.68c-3.35-.43,2.55-.9,4.21-1.14-3.42-.09-4.43.36-8.07.36a10.53,10.53,0,0,1,2.32.38c.12.48-3.26.26-5.68.3,1.54.21.65.39-.48.58a1.73,1.73,0,0,0-.43.07l-.38.07h.29s0,.11.25.2a41.92,41.92,0,0,1,4.9.27c-1.3-.78,4.45-.18,6.09-.42l1.9-.08h.71c.14.09-.06.2-1.14.35.9-.15,3.92-.1,3.64-.35h6.88a2.93,2.93,0,0,1,.58.13c.24,0,.28-.09.25-.13l30,0c-1.47-.07-2.75-.24-4.28-.33C80.11,65.49,75.32,65.92,76,65.43Z"/><path class="cls-1" d="M31.09,65c.5,0,.94,0,1.35,0C32.05,65,31.61,65,31.09,65Z"/><path class="cls-1" d="M84.21,66.33H82.1C82.76,66.36,83.44,66.37,84.21,66.33Z"/><path class="cls-1" d="M25.63,65.93l-3.74,0c1.28.23-.95.31-1.18.48h4.58C25.27,66.27,25.72,66.08,25.63,65.93Z"/><path class="cls-1" d="M26.61,66.74a4,4,0,0,1,1.18-.31h-2.5C25.3,66.55,25.58,66.67,26.61,66.74Z"/><path class="cls-1" d="M99.77,64.65l1,0C100.31,64.62,100,64.63,99.77,64.65Z"/><path class="cls-1" d="M111.69,64.9c-3.21,0-7.86-.28-8.68.17,0-.08,0-.17-.47-.21l-2,.48,1.89.16a39,39,0,0,1-9.57.08c3.65-.17,1.82-.75,6.9-.44-.22-.15-1.16-.41,0-.49-6,.17-11.31-.1-17.48.41,4.86.48-3.19.4-1.66,1l2.64-.2-.22.16,3.23,0c-.67-.28-1.16-.3-1-.6,4.31.12,1.36.35,4.52.73l4.81-.06-.39.09a2,2,0,0,0,.72-.09l16.22-.18C114.09,65.63,109.51,65.33,111.69,64.9Z"/><path class="cls-1" d="M142.09,64.77l-.05,0C142.15,64.8,142.19,64.77,142.09,64.77Z"/><path class="cls-1" d="M139.44,65l.65-.28-2.91.58,4.54,0,.32-.41A8.31,8.31,0,0,1,139.44,65Z"/><path class="cls-1" d="M137.36,64.77c-.05-.35-2.7-.15-3.3-.08l-.25.94c2.34-.17,2.21-.65.94-.87C136.9,64.54,135.88,65.27,137.36,64.77Z"/><polygon class="cls-1" points="116.55 65.38 117.2 65.18 115.58 65.13 116.55 65.38"/><path class="cls-1" d="M118.33,64.84l-1.13.34,1.61,0A1,1,0,0,0,118.33,64.84Z"/><path class="cls-1" d="M125.39,65.44,123,65.37C123.72,65.41,124.47,65.43,125.39,65.44Z"/><path class="cls-1" d="M121.25,65.31l1.79.06-1.84-.12Z"/><path class="cls-1" d="M121.71,65.83l-.46-.52-2.44-.08C119.08,65.57,119.38,65.92,121.71,65.83Z"/><path class="cls-1" d="M129.7,65.56c0,.21,1.19.09,1.8,0A15.18,15.18,0,0,0,129.7,65.56Z"/><path class="cls-1" d="M176.87,64.9a3.35,3.35,0,0,0-1.08-.17Z"/></g></g></svg>