<svg xmlns="http://www.w3.org/2000/svg" viewBox="0 0 936 135"><defs><style>.cls-1{fill:#32ba46;}.cls-2{font-size:26px;font-family:Montserrat-Regular, Montserrat;letter-spacing:0.02em;}.cls-11,.cls-2{fill:#fff;}.cls-3{letter-spacing:-0.02em;}.cls-4{letter-spacing:0.01em;}.cls-5{letter-spacing:0.02em;}.cls-6{letter-spacing:-0.02em;}.cls-7{letter-spacing:0em;}.cls-8{letter-spacing:-0.01em;}.cls-9{letter-spacing:0.01em;}.cls-10{fill:none;}</style></defs><title>Recurso 8</title><g id="Capa_2" data-name="Capa 2"><g id="Capa_1-2" data-name="Capa 1"><path class="cls-1" d="M927.05,94.14c.19,2.53-.82,4.73-1.28,3.78,1.23,5.14-.17,5.25,2.21,5.92,1.16,3.3-.45,6.82-1.41,3.06l1.45,9.52.37-5.69c2,1.55-.59,9.09,1.7,10.89l-.19-10.3.66.52c-.71-2.35-.41-6.9-.14-8.49.33.25.86.09.91,1.91.15-12.44-3.45-3.35-4.1-13.67A9.91,9.91,0,0,1,927.05,94.14Z"/><path class="cls-1" d="M931.88,83.58l-2.47-4.34.64-7.28c-.86-.08-1.55-5.38-2.3-1.79a13.74,13.74,0,0,1,.31,3.2c-1.84-.81-.92-9.67-2.79-7.54.49,5.76.09,6.64,1.59,10.19a55.4,55.4,0,0,1-1.27,11.58c.28,1.57,1.41,1.79,1.63,3.78,0-.44,0-.85-.07-1.35l2.78-.22c-.59-1.66-.31-3.23-.37-5.07l3.24,8.52c2.6-2.75,1.07-11.12,2.15-14.46C932.61,83,933.79,75.49,931.88,83.58Z"/><path class="cls-1" d="M11.74,106.15a.3.3,0,0,0-.29,0l.87,1.84V108C12.13,107.31,11.93,106.71,11.74,106.15Z"/><path class="cls-1" d="M1.94,50.9,3.59,60c-.78-1.21-.54,3.16-1.45,1.25.12.69.43,3.93.83,3l-.05-1.85c2.27,4.78,3.15,1.89,4.88,9.81,1.35-4.92.11-7.08-.92-9.68-.16-.89-.23-1.63-.32-2.38L3.39,52.63Z"/><path class="cls-1" d="M608.61,125.57l-.2.09C608.59,125.63,608.62,125.6,608.61,125.57Z"/><path class="cls-1" d="M607.62,126l.79-.37C607.44,125.85,603.73,126,607.62,126Z"/><path class="cls-1" d="M931.52,24.43c-.07.61-.16,1.31-.22,1.86A8.74,8.74,0,0,0,931.52,24.43Z"/><path class="cls-1" d="M204.59,6l4.82,0C207.53,6,206,6,204.59,6Z"/><path class="cls-1" d="M312.76,1.41l7-.32C317,1.11,314.84,1.24,312.76,1.41Z"/><path class="cls-1" d="M885.63,6.43h-.24l-1.11.07Z"/><path class="cls-1" d="M529.7,4.66c1.07.11,2.28.22,3.92.3A19.19,19.19,0,0,0,529.7,4.66Z"/><path class="cls-1" d="M311.46,1.47l.43,0,.87-.09Z"/><path class="cls-1" d="M156.94,2l-3.08.14C155.31,2.06,156.2,2,156.94,2Z"/><path class="cls-1" d="M163.74,5.88c-1.11,0-2.17.08-3,.14Z"/><path class="cls-1" d="M7.5,27.78,7.89,31A13.46,13.46,0,0,0,7.5,27.78Z"/><path class="cls-1" d="M146.57,5c-.38.07-.76.13-1,.19C146.46,5.12,146.88,5,146.57,5Z"/><path class="cls-1" d="M923.31,45.76v-.19l-.32-.09Z"/><path class="cls-1" d="M927.55,56.57a13.61,13.61,0,0,0-.23-2.87C927.4,54.64,927.47,55.61,927.55,56.57Z"/><path class="cls-1" d="M624,6.89c1.72.2,5.75.44,3.87.67C631.11,7.27,630.89,6.56,624,6.89Z"/><path class="cls-1" d="M931.55,46.22c.49,5.78,1.1,12.24.28,17l-1.77-2c1.56-5.35.4-8.66.56-13.92l-.94,11.82c-1.47,5.54-1.81,1.84-2.13-2.53a4.12,4.12,0,0,1-.44,2.32c.65.51,2.08,13,2.42,2.5,2,.4.94,6.73,1.45,9.52.48-2,1.31,1,2,.4a19,19,0,0,1-.69-5.33c.94-1.06,1.57,2.42,1.22,5.14,1.08-3.35,1.62,4.25,2.45-.49C935.28,60.5,934.54,53.35,931.55,46.22Z"/><path class="cls-1" d="M920.16,43.88h0C920.14,43.78,920.14,43.8,920.16,43.88Z"/><path class="cls-1" d="M61.92,2.07A1,1,0,0,0,61.58,2C60.51,2,61,2,61.92,2.07Z"/><path class="cls-1" d="M612.55,2.88c-2.39,0-4.17,0-5.68.05C608.61,3,610.49,3,612.55,2.88Z"/><path class="cls-1" d="M716.88,11.8c-1.4,0-2.8,0-4.2,0l-.82.11C712.72,12,715.48,11.87,716.88,11.8Z"/><path class="cls-1" d="M400.89,12.36a29.51,29.51,0,0,0,3.87-.32A29.14,29.14,0,0,0,400.89,12.36Z"/><path class="cls-1" d="M287.38,5.42h0Z"/><path class="cls-1" d="M930.32,28.8l.1.4A2.92,2.92,0,0,0,930.32,28.8Z"/><path class="cls-1" d="M929,38.2c.55-3.14,2.17,1.13,3.23.75-.36-5.05-2.27-4.76-2.63-9.83.22-1.3.56-.89.75-.32l-.38-1.47-.24-.93-.24-1.26c.26-.13.49-3.26.81-5.53s.72-3.69,1.33,0c0,1.13-.05,3.22-.08,4.85.58-5.46,1.36-12.89,2-18.91-11.35-.37-20.59-.79-19.51-1.28-6.21-.11-8.57,0-11.79,0-1.62,0-3.46,0-6.14,0l-4.37,0-4-.07c-5.67.68.45,1.39-12.89,1.87l10.52.34c2.17-.13,4-.3,6.33-.41l-11,.08c6.92-.32,5.69-.69,7.72-1.35h3l4,0c2.81,0,5.35.07,7.67.12,4.62.11,8.33.26,11.53.43,6.42.33,10.8.71,16.88.87-8.82.52-21.58.37-17.68,1.21a94,94,0,0,0-12.74,0c-1.81.09-3.64.19-5.86.22h-1.75c-.6,0-1.33,0-1.74,0-1,0-2.06-.08-3.29-.16l1.88-.23c-7.93.65-9-.15-15.59.44.5-.17-.37-.27-1.22-.37-14.26.37,4.32.51-10,1.31-12.69-.12-4.12-1.37-7.62-1.77,21.3-1.13-.43-1.4,22.6-2.32-.08-1.13-9.12-1.28-21.44-1.14,8,.48-5.1,1.66,5.56,2.44-18.41.56-16.87,2.76-37.45,1.73l.51-.17-8.46.81-11.65-.45c7.22-1.18,16.11-.6,21.79-1.29-14.18-1.19-19,1.17-35.4,1.07-13.61-1.35,16.65-.77,16.58-1.9-3.28.3-12.21-.29-11.15-.62,15.31.43,9.32-.71,26.39-.08-8.32.38,1.27.37-.29.86,2.43-.39,18.41-.56,29.7-.38,2.58-.82-9.79-.68-16.92-1.06-13.5.91-27.5-.71-37.87.33-14.58.11-1.1-.8-2-.9-13.08-.39-5.68.69-9.84.88-19.76.63-22-1-36.06-1-11.72,1.11-40.26.73-60.25.66,2.42-.39-.23-.7-1.43-1.07-11.91,1.55-7.63.92-22.5,1.89L679,5.62c-10.09.19-18.21,1.27-27.46.42,12.28,1.42-16.26,1-23.7,1.52-10.31-.52-20.65.52-26.28-.35l1.4-.06L588,7l1.81-1.36c-10.28-.52-22.93.49-19.38.89-10.81-.35-4.44-.5-6-1.14,6.09-.42,19.19-1.59,22.94-.49a16.5,16.5,0,0,0-3.68,0c28.11.62,9.17-1.65,23.2-2-7.31-.1-12.77-.76-20.58-.4-3.62,0-18.37.57-25.81,1.05C570.7,3,576,3.58,584,4.06c-6.8-.12-7.91.65-13.74.2l1.9-.23-7.42.49c-1.12-.8-20.36-.33-9.09-1.28-10.09.18-3.47.73-12.65,1l18.12.3-.31.86c-6.61.58-8.21,0-15.51,0l.63,1L533,5.56c1.6.63-8.34.38-11.1.51-7.15-.38-2.52-1.86-14.66-1l.88.1c-6.95.32-11.06.51-21,.26a45.87,45.87,0,0,1,4.63-.36c-13.91-.49-36.22,1-42.57-.44,1.13-.76,6.93-.32,7.23-1.18,21.43,1.13,15-1.4,40.27-.73,1.17,1.93,21.3-1.12,26.1.78-9.91-.25-23.06.92-21.31,1.13,9.12-.11,21.91-.15,28.27,0C524.11,4,525.9,3,530,2.3c-14.75.54-41.57-.77-62.45-.94l2.35,1.16c-18,.83,2.18-1.09-11.89-1.15l-6.22.86-.89-.11-10.33,1c7.3-.06,3.94-.89,12-.41,7.14.38-.3.86-2.34,1.52-4.88-.34-22.25-.1-11.53-.88L419.59,4.56c.14-.43,4.3-.63,6.23-.85l-13.75.2.5-.16c-11.07.51-26.54.51-35,1.33,18.85.83-9,1-7.38,1.61-6.77-.11-8.84-2.14,5.54-2.94,3.87.67,13.75-.21,21-.26-9.38-.42-12.3.14-19.64.19,5.18-.52-9.76-.68-9.61-1.11,1-.33,4.06-1.32,13.48-.91,14.08.06,1.47,1.07,5.63.88,3.73,1.1,19.63-.2,28.16.12.9.1-1.9.22-3.28.29,7.34-.06,22.79-.06,23.92-.82L417,2.69c-4-.24,5.67-.68-.07-1.13-4.18.19-9.18.29-14.61.11l1-.33C392.25.72,374.84,1,362,1.27,359.16,3,352.47,4,346.84,5.78c-19.08,0-39.06,0-59.37-.36.33.36.08.71-.89,1-5.75-.44-16.35-.09-16.05-1-6.18.86-23.71,1.52-20.36,2.36l-2.33,0C240.48,7,229.38,6.23,209.41,6c-3.91,0-4.46.56-3.58,1.37-4.22-.25-8.18-.47-12.19-.5a68.91,68.91,0,0,1,11-.92l-31-.28,2.4-.4-12.22.57c6.89-.22,17.56,0,14.95.87-13.88.63-21.75-.28-33.51.83.07-1.56-3.94-1.8,0-2.69.79,0,1.16.05,1.39.08a164,164,0,0,1,21.11-2c-25.78-.51-19.13,0-41.75-.34-2-.9,20.81-1,15.56-1.57l21.22.44a47.3,47.3,0,0,0-5.77.41c14.63-.65,19.94.17,30.94-.87,7,.42-10.84.69-3.21.85a90.1,90.1,0,0,0-15.92,1.88c16.71.36,9.49-1.15,23.72-1.52l10.63.78c6.43-.15-2.1-.47-2.48-.73,7.82-.22,10.79.35,16.71.36-1.74-.2-5.73-.44-4.73-.77,9.81.68,19.47.23,28.57,1.51-5.25-.61,6-1.55,10.19-1.74L232.64.44C208.87.83,194.07.23,168.4.85l1.51-.49c-40.42-1.54-33.55,2.39-68.12,2.43-1-1.23-16,.17-14.69-1,10.44.08,8.32-.39,5.35-1-6.06.42-10,1.31-21.69.86,4.31-.62-6-1.14,5.48-1.38C68.33.16,62.2.12,57,.25c-1.3,0-2.48.08-3.74.13C51,.44,48.83.5,46.75.58c-4.17.16-8,.37-11.57.64-12.14.27-18.84.31-23.29.24S5.4,1.19,3.14,1a8.26,8.26,0,0,0-1,3.61,85.41,85.41,0,0,0,0,11.84l-.92-3.89L1.59,27.3l.3-.66L2,26.3c0-.14.1-.4.15-.6l.6-2.5L3,25.46,3,26l0,.27,0,.15.09.59.36,2.38.72,4.75C5.59,40,5.78,31.78,6.76,32.54L5,30.57a18.52,18.52,0,0,0,0-3.08c-.1-1.59-.19-3.19-.27-4.64-.18-3.54-.25-6.43.38-7,.13,5.72.55,7.89,1,9.18.12.32.24.59.36.84l.18.38a2.5,2.5,0,0,0,.18.24,3.8,3.8,0,0,1,.63,1.31l-.18-1.5-.19-2.59-.36-5.25,1.34-3.08c0-4.39.08-8.3,0-11.85,9.17,0,16.77-.17,23.3-.6C27,2.74,23.68,2.9,20.56,3a85.89,85.89,0,0,1-10.32,0c4-.55,12.67-.86,23.66-1.07,5.49-.11,11.55-.19,17.89-.27,1.9,0,2.38,0,3.33-.06l2.65-.06,5.33-.13c.38.26,4.89.34,3,.57a34.6,34.6,0,0,1-4.16,0c1.07.5-6.87.82,6.51,1.12C63.62,4,53.62,5.29,54,5.56l-2,0-2.4,0-5,.06c-3.39,0-6.89.06-10.32.06-6.87,0-13.49,0-18.56-.17l.47-.17H11.91c.07,2.89.37,6.61.48,9.6s0,5.33-.68,5.64c.09.82.2,2,.32,3.17.06.58.12,1.15.18,1.67,0,.26.06.51.09.74l.11.42c.14.48.29.72.47.46a2.46,2.46,0,0,0,.28-.77c.1-.53.21-1.41.32-2.49.16,2.78.31,3.94.46,5.65l.46,4.84c-2.83-1.6-3.41,7.51-5.72-2.08.06.32.39,3.85.91,9.5-.09-.1-.19-.16-.28-.27a1.54,1.54,0,0,0-.5-.74c.08-1.15-.05-1.85.49-2-2-3.38-2.53,1.6-2.7,6.88l1.6,1.24c-.9,4.56-2.33,7.28-1.64,13.34l6,14.19c.12,1.37.24,2.77.37,4.17-.93,1.85-.23,8.09-2.09,5.64-.74.63-1.12-1.46-.76-4.2.19-.41.32.27.52-.17C9.6,79,8.41,78.7,7.34,82c.22-3.39.41-3.83-.29-6.19l-.23,3.42c-.35-5.07-2.61-12.82-4-12.71,2,1.55,0,4.8-.32,7.54C2.12,72,1,67.54.81,70.94c.79,1.21,1.91,10.48,2.68,3.9C4,77.63,5,81.37,4.41,84.53c-1-3.72-1.63-1.27-2.95-2.31,1.16,3.3,2.55,3.19,3.2,3.72-.82,4.73-2.11,8-3,11.51a30.67,30.67,0,0,0-1,5.51,27.66,27.66,0,0,0-.08,3.2c.09,1.64.19,3.39.3,5.29.06.69.05.24,0-.79,0-.81-.05-2.09-.08-3.38,0-1.66.09-3.37.74-2.86a16,16,0,0,1,.55,2.68l.05.6,0,.65c0,.73,0,1.43,0,2.11A63.46,63.46,0,0,1,1.34,118c-.76,4.8-1.68,9.74-1.21,16.29l2.19-4.71c.09.93.18,2.18.27,4.18,8.37-.14,21.27-.26,28.45-.33,1,.18,8.19.47,12.77.74s6.45.56-4.18.73l8,.08H54c2.18,0,4.06-.08,5.76-.17,3.39-.19,6-.49,8.79-.8a166.49,166.49,0,0,1,24.58-1.12c-12.18-.28-13.58-.22-23.16-.2,10.22-.62,1.57-.5,2.7-1.26,6.13.71,25.91.08,12.44,1,8.15,0,24.5.14,28.28-.32l-7.15-.38c11.81,0,23.43-.65,28.25-1.44-14.64.1-14.16,1.5-32.79,1.37-20.18-.77,4.83-.79-8.44-1.87l-14.37.8,6.77.11c-2.19,1.09-22.24-.11-20.43,1.22-3.65-.25-6.66-.4-9.38-.51l-2-.06-.48,0h-.82l-1.63,0-6.33-.08c-8.35-.09-17.2-.18-29.83-.65-7.22.45,2.7.47,10.38.54-8.17,0-12.52.41-18.5.62a25.88,25.88,0,0,1,.3-8.16c.18-2.42-.28-2.67-.78-1.24a31,31,0,0,0-1,9c.05-3.74,0-7.34-.09-11.07s-.1-7.59,0-11.71l-1.68,8.72,0-9L2.43,116c0-2.19,0-4.43-.07-6.67,0-1.35,0-2.72,0-4.07,0-2.35.11-4.68.28-6.87C3,94,3.62,90.18,4.72,87.77c.86,4,1.12,9.25,1.52,14.12.11,1.21.22,2.4.33,3.54s.31,2.45.45,3.56a34.27,34.27,0,0,0,1.54,8.11c.4-1.55-.1-4.1-.4-6.91l-.1-1.06-.07-1a6.1,6.1,0,0,1,0-1.21A3.24,3.24,0,0,1,9,104.84l-1.56-2.41c-.51-2.8-1.13-9.26.46-9.82,1.15,7.65,2.53,9.65,3.89,13.54.33,0,.51.73.58,1.84l0,.12,0-.07c0,.84,0,1.82.07,2.86s0,2.22,0,3.36a60.29,60.29,0,0,0,.28,6.06c-.35,4.23-1.26,1.72-1.59,1.34a55.67,55.67,0,0,0-.45,8.05c11,0,21.46-.46,31.61-.8l7.64-.24,6.3-.16c3.49-.07,7.14-.07,11.07.07.2.69,15.17.85,10.5,1.21,11.3.18,17.52-.67,24.94-1.15,1.63.63,17.22.2,11.54.88l10.34-1c7.14.38,21.91-.16,24.38.57,7.82-.22,2.19-1.09,13-.74-.5.17.36.27-1.9.23a184,184,0,0,0,21.88-.16c-7.62-.21-1.75-.2-10.8-.35.2-.43,10.36-1,20.65-.53-14,1.08,11,1.05,4.47,1.64,22.23.11,35-1.33,53.53-2.33,21.89-.16,49.05.29,66.19-.64l-2.26,0,10.21-.61c5.91,0,.09,1.13,9.25.85-3.08,1-16,.16-25.31.88,16.06,1-14.88,1-4.22,1.75,6.12-2,34.25-.3,48.23-1.37,13.58.22-6.22.85.53,1l4.34-.62c5.38.17,7.16.38,7,.81,14.43.32,31,0,43.06-.85-15.63.43,5.29-1-10.14-1,4.67-.36,14.73-.54,24.26-.56-9.17.29,12.29,1.42-8.08,1.08,2.85,1,10.06-.18,19.14,0-4.66.36-14.95,1-14,1.07,13.64-1.33,43.86.81,49.15-.14,9.89-.88,25.13-1.58,37.23-2.42,12,.72,25.4.24,39,.47l-2.42.39c7.67.21,19.61-.2,30.92,0l2.53.73c7.78-.21,22.35-.32,34.22-.3.13-.43-10.83-.35-5.65-.87-5.92,0-10.93.08-8.82.54-5.91,0-6.15-.7-11-1l22.9-.49a14,14,0,0,1,2.6.17l1.68-.8c5.94,0,7.65.22,6.65.54,12.87-.3,17.33-1.36,30.91-1.13a134,134,0,0,1-19.1,1.16h15.49c-7.08.75-33.86.57-29.27,1.78,17-.5,41.82-1.22,56.7-2.2,7.9.92,19.63-.19,32.67.2,1.78.2,5.78.44,3.36.83l-3.64,0c17.26.2,37-.43,52.25-1.14l7.85.92c26.28.34-4.94-1.47,22-1.72,6.49,1,33.05.46,34.15,1.25,5-.08,7.31,0,7.94-.65-4.53-.07-14.58.11-8.88-.58,9.18-.28,13.56.23,20.85.18-.5.16-5.72.68-2.9.55,17.87-.4,51.07-.37,68-2-6.43.16-7.1.75-15.65.44.14-.43,4.67-.36,6.56-.59-1.07-.8-8.82.55-17.73,0l14.92-1h25.52V12.86h-4.78c1.81-.13,3.61-.23,5.37-.3a42.26,42.26,0,0,1,.18,7.59c0,1.29-.05,2.58,0,3.86a19.27,19.27,0,0,0,.6,3.86c-.32-.25-.45-.95-.52.19-.32,7.53,2.76,10.53,1.33,16.58l-1-.76c.12.51.92,4.09,2,3.38-.35-5.08-.81-6-.51-10.57a25.48,25.48,0,0,1,1.64,8.88l1.72.32c1.82,3.82-.84,7.71,1,11.52l1.16-4.47a3.81,3.81,0,0,1,.17.76c-.17-2-.4-3.76-.81-4.24C925.57,42.74,928,39.29,929,38.2ZM667,11.41a7.9,7.9,0,0,1-1.9.23c15.49,0,16.86-.07,29.18-.21l-3.8.45c2.19.65,12.19,0,22.21-.1a71.22,71.22,0,0,1,13.39-.26l-1.54.49c1.76.44,11.69.47,22.88.48-1,.1-2.15.23-3.31.37H639C647.65,12.5,657,12,667,11.41Zm-220,.86,22.5-1.94-.52.16,19.64-.2-2.4.4L497.76,10c-.27.86,3.54.4,2.88,1,7.23,1.51,25.67-.61,41.36.08l-2.4.39c8.49-.82,29.55.06,43.1.27l-.48.17c-6.28.26-8.72.61-7.86.94H555c-.39-.09-1.47-.22-3-.39-2.69.2-6.06.31-9.48.39H513.12c1-.18,2.93-.35,4.82-.52l-38.36.49,0,0H446.11C447.31,12.69,447,12.55,447,12.27ZM276.24,10.18l1,.79c24.05.31,41.14-1.75,66-1.34-3.43.73-12.85.31-11.57.68,14.95.16,12.9-1.87,27.57-.85-21,.26,13.08.39-5.84,1.12,26.34-1.21,54.43.46,71.79.23-4.38-.51,7.1-.75,7.59-.92,4.53.08,3,.58-.66.6,8.95.45,10.5,1.11,9,1.75l-18.27.09c3.27.12,5.7.34,8,.53H402.74c-1.75-.15-2.68-.33-1.85-.5-6.26.24-15.51-.42-18.88-.27,6.48.33,5.22.56,1.67.77H373.5c.09-.23,1.94-.47-1.56-.59l-14.59.11,12.71.12-1.51.36H276.21a85.26,85.26,0,0,1-14.84-2.35ZM201.09,11.8l-1.38,0,14.09-.28c1.32.7,1.86,1.22.52,1.36H193.83c-1.65-.17-4-.32-6.64-.42Zm-15.17,1.06h-16.3C171.27,12.46,179.34,12.6,185.92,12.86ZM21.61,11.77c0-.47,0-.95,0-1.46l28.21.26,24.62.27-2.13-.47c5.42.18,9.75-.44,12.73.12a36.86,36.86,0,0,1-4.2.57c-2.63.29-6.25.66-10.15,1l-7.63.75H54.21c-2.22-.6-14-1.44-32.25-2.4C21.84,10.88,21.73,11.33,21.61,11.77ZM26.4,72.44a12.76,12.76,0,0,1-.24,3c.07-1.19.13-2.34.19-3.48Zm-1.15,32.13-.67-1.6q.62-10.73,1.17-20.15a30.55,30.55,0,0,1,.53,7.48,13.87,13.87,0,0,0,.44-1.9v15.93A28,28,0,0,1,25.91,96C25.8,96.42,25.56,99.76,25.25,104.57Zm410.43,17.5,3.13-.45h7.71C446.22,122,445.69,122.51,435.68,122.07Zm17.33-.24-1.88-.21h6.94C456.66,121.75,455,121.84,453,121.83Zm460.76-109h-4.4l8.12-.37Z"/><path class="cls-1" d="M319.11,4.37l-6,.43A161.37,161.37,0,0,0,333.36,4c-.53.17.35.27,2.1.47,10.07-.18,15.38-1.13,10.18-1.74L342.31,3l-7-.81c-2.65,1.57-23.21.68-34.48,1.37,7.74-.69,14.41-2.14,24.4-1.18l-1.08-.81c8.66-.11,15.68.7,20.48-.09l-10.08.18.17-.43c-7.15.05-16.26.73-22.85.25a193.08,193.08,0,0,1-26.76,1.19l.52-.17c-10.51,1.48-29.29-.91-37.24-.26-4.59,1.48,17,.62,22.31,1.23-6.55.59-13.55-.22-7.93.65-15.27.71-9.13-1.28-21.74-.27l7.15.38c-5.67.69-15.1.27-20.81,1-.79,1,9.59,0,20.4.33L243,6.33l21.66-.86c6.38-1.28.44-1.29,13.94-2.2,4.76.55,8.17,1.36,8.91,2.14C292.33,4.62,305.08,4.32,319.11,4.37Z"/><path class="cls-1" d="M923.08,49.16c.59,1.66.49,5.76,1.75,5C923.45,54.22,924.62,46.78,923.08,49.16Z"/><path class="cls-1" d="M922.59,55.36l0,.63A5.37,5.37,0,0,0,922.59,55.36Z"/><path class="cls-1" d="M921.73,54.06c.29.25.72.14.86,1.3l-.3-4.44Z"/><path class="cls-1" d="M824.32,3.59c-.75-.53-5.93,0-8.71.12A77.08,77.08,0,0,0,824.32,3.59Z"/><path class="cls-1" d="M710.12,130.93c-18.25.13-35.1.2-63.42.51Z"/><path class="cls-1" d="M606.51,6l7.35,1.08c17-.51,24.59-1.42,41.95-1.65C633,4.34,625.67,7.09,606.51,6Z"/><path class="cls-1" d="M609.2,4.73c11.47-.24,5.34-1,15.76-.86l-5.1-1C622.69,3.83,606.72,4,609.2,4.73Z"/><polygon class="cls-1" points="544.13 3.49 535.59 3.17 542.25 3.72 544.13 3.49"/><polygon class="cls-1" points="482.6 3.77 490.93 3.39 490.1 3.29 481.75 3.67 482.6 3.77"/><path class="cls-1" d="M286.29,1.93c11.57.19,9.77-.84,16.75-1.08C290,1,287.28.69,271.62.91,283.8,1.19,287,1.33,286.29,1.93Z"/><path class="cls-1" d="M303,.85l4.56,0C305.7.78,304.29.81,303,.85Z"/><path class="cls-1" d="M253.54.6c2.26,0,5.88,0,7.66.22C261.85.22,251.29.57,253.54.6Z"/><path class="cls-1" d="M311.86,12.57c.29,0,.58,0,.87,0Z"/><path class="cls-1" d="M300.52,12.31c1.14.34,7.81.18,11.34.26C307.7,12.39,304.21,11.48,300.52,12.31Z"/><path class="cls-1" d="M222.82,4c3.28-.29,7.72-1.34-4.23-.93C220.85,3.11,224.32,3.51,222.82,4Z"/><polygon class="cls-1" points="288.34 12.02 278.26 12.21 280 12.41 288.34 12.02"/><path class="cls-1" d="M85.12.87,91.19.44,83.61.32C85.78.48,81.85,1.26,85.12.87Z"/><path class="cls-1" d="M82.14.3l1.47,0A12.75,12.75,0,0,0,82.14.3Z"/><polygon class="cls-1" points="32.06 2.31 33.78 2.42 51.6 2.23 32.06 2.31"/><polygon class="cls-1" points="2.37 28.52 1.97 29.39 2.73 33.58 3.13 32.69 2.37 28.52"/><path class="cls-1" d="M216.47,129.91l2.78-.13C218.08,129.81,217.17,129.85,216.47,129.91Z"/><path class="cls-1" d="M343.63,131.83a133.64,133.64,0,0,1,15.51,0c1.51-.5-4.27-.94-3.6-1.54-17.09-.63-19.7,1.76-36.41,1.4.66-.6,5.83-1.12-5.11-1l2.78-.13c-17.51.67-13.64-1.35-24.67.29l.29-.87c-7.94.65-23.39.66-32.1.78l.52-.17c-24.43,1-13.72.21-41.15.62l12.62-1c-9.46-.42-11.59.67-18.39.56.4-.13-.57-.58,2.55-.82L186,131.31c-7.94.65,1.62.64,2.85,1-2.94.56-17.35.24-18.1-.29,1.93-.23,9.74-.45,4.84-.79l-11.4,1.37c-15.17-.86,11.53-1.8,19-2.29-15.45-.18-20,.73-36.46.72,4.85.12,7.91.47,10.47.76.56,1-14.75.54-25.7.62,7,.42,2.94.77-2.14,1.15a16.09,16.09,0,0,0-2,.15l-1.72.13H127c-.09.11.2.24,1.14.42,9.19-.28,16.21.53,22.13.54-5.84-1.57,20.13-.36,27.57-.85l8.58-.15h3.21c.65.18-.27.39-5.16.71,4.08-.31,17.71-.21,16.45-.71l31.1,0c1,.06,1.94.14,2.66.25,1.07-.1,1.25-.18,1.11-.26l135.5-.1c-6.69-.12-12.47-.48-19.36-.65C362.24,132,340.6,132.82,343.63,131.83Z"/><path class="cls-1" d="M140.58,131c2.28,0,4.24,0,6.12,0C144.94,131,142.94,131,140.58,131Z"/><path class="cls-1" d="M380.78,133.66h-9.52C374.21,133.72,377.28,133.73,380.78,133.66Z"/><path class="cls-1" d="M115.87,132.84,99,132.91c5.77.45-4.32.63-5.33,1l20.67,0C114.24,133.52,116.29,133.15,115.87,132.84Z"/><path class="cls-1" d="M120.32,134.48a38.19,38.19,0,0,1,5.34-.64H114.33C114.41,134.1,115.67,134.33,120.32,134.48Z"/><path class="cls-1" d="M451.13,130.26l4.5-.06C453.57,130.2,452.22,130.23,451.13,130.26Z"/><path class="cls-1" d="M505,130.76c-14.47,0-35.53-.56-39.24.35.22-.15,0-.33-2.11-.43l-8.94,1,8.53.31c-9,1-38,.76-43.29.15,16.52-.33,8.23-1.51,31.24-.87-1-.3-5.25-.83-.07-1-27,.35-51.12-.2-79.05.82,22,1-14.39.81-7.49,2l12-.41-1,.33,14.58-.11c-3-.57-5.24-.6-4.59-1.2,19.47.23,6.14.71,20.42,1.46l21.77-.11-1.77.18a22.78,22.78,0,0,0,3.28-.18l73.33-.38C515.89,132.24,495.17,131.64,505,130.76Z"/><path class="cls-1" d="M642.5,130.51l-.21.11C642.77,130.56,642.93,130.52,642.5,130.51Z"/><path class="cls-1" d="M630.51,130.92l2.94-.56-13.14,1.17,20.49-.09,1.49-.82A84.79,84.79,0,0,1,630.51,130.92Z"/><path class="cls-1" d="M621.11,130.5c-.22-.69-12.2-.29-15-.16l-1.1,1.9c10.58-.35,10-1.32,4.23-1.76C619,130,614.42,131.52,621.11,130.5Z"/><polygon class="cls-1" points="527 131.73 529.97 131.33 522.64 131.22 527 131.73"/><path class="cls-1" d="M535.06,130.65l-5.09.68,7.28.11A5.48,5.48,0,0,0,535.06,130.65Z"/><path class="cls-1" d="M567,131.87l-10.63-.16C559.42,131.79,562.83,131.84,567,131.87Z"/><path class="cls-1" d="M548.26,131.59l8.08.12-8.32-.24Z"/><path class="cls-1" d="M550.33,132.63l-2.07-1-11-.15C538.43,132.11,539.81,132.82,550.33,132.63Z"/><path class="cls-1" d="M586.48,132.1c-.17.43,5.36.17,8.14.05C592.36,132.11,589.19,132,586.48,132.1Z"/><path class="cls-1" d="M799.78,130.76a40.26,40.26,0,0,0-4.89-.34Z"/><text class="cls-2" transform="translate(135.44 79.89)">CLIC <tspan class="cls-3" x="69.96" y="0">P</tspan><tspan x="87.98" y="0">ARA UNI</tspan><tspan class="cls-4" x="204.1" y="0">R</tspan><tspan class="cls-5" x="223.16" y="0">TE GR</tspan><tspan class="cls-6" x="303.78" y="0">A</tspan><tspan x="322.03" y="0">TIS AL GRUPO DE </tspan><tspan class="cls-7" x="569.16" y="0">W</tspan><tspan x="598.17" y="0">H</tspan><tspan class="cls-8" x="619.83" y="0">A</tspan><tspan class="cls-9" x="638.08" y="0">T</tspan><tspan x="653.24" y="0">SA</tspan><tspan class="cls-4" x="688.91" y="0">P</tspan><tspan x="707.84" y="0">P</tspan></text><path class="cls-10" d="M71.5,37.45A30,30,0,0,0,47.81,86l-2,10.36L55.57,93A30.07,30.07,0,1,0,71.5,37.45Z"/><path class="cls-11" d="M71.5,100a32.42,32.42,0,0,1-16.21-4.36L42.63,100l2.6-13.41A32.13,32.13,0,0,1,39,67.53,32.5,32.5,0,1,1,71.5,100ZM55.87,90.35l1,.62a27.69,27.69,0,1,0-7.14-6.43l.68.86L49,92.73Z"/><path class="cls-11" d="M55.09,55s1.91-3.33,3.46-3.52,3.56-.19,4.1.83,2.95,6.92,2.95,6.92a2.29,2.29,0,0,1-.22,2,19.68,19.68,0,0,1-2.06,2.41,1.74,1.74,0,0,0,0,2.09,37.41,37.41,0,0,0,4.57,5.61c2.54,2.55,7.43,4.36,7.43,4.36a1.46,1.46,0,0,0,1.14-.35c.44-.44,2.86-3.46,2.86-3.46a1.68,1.68,0,0,1,2.06-.41c1.29.59,6.86,3.37,6.86,3.37a1.19,1.19,0,0,1,.65,1.22c0,1-.4,3.39-1.21,4.2s-3.2,3.33-6.78,3.33-12.09-2.91-16.63-7.45S55.7,67,54.75,62.85,53.92,56.77,55.09,55Z"/></g></g></svg>