<svg xmlns="http://www.w3.org/2000/svg" width="668.72" height="41.907" viewBox="0 0 668.72 41.907">
  <defs>
    <style>
      .cls-1 {
        fill: #fff;
        fill-rule: evenodd;
      }
    </style>
  </defs>
  <path id="FRANCISCO_PACHECO" data-name="FRANCISCO PACHECO" class="cls-1" d="M1578.63,745.882v40.193h10.92V770.724h16.41V762.61h-16.41v-8.525h19.16v-8.2h-30.08Zm38.3,0v40.193h10.93V774.562h4.87l6.52,11.513h12.48l-9.37-14.091a14.617,14.617,0,0,0,5.91-4.848,11.844,11.844,0,0,0,2.13-6.929,12.966,12.966,0,0,0-4.67-10.341q-4.68-3.984-12.25-3.984h-16.55Zm10.93,8.2h5.19a6.4,6.4,0,0,1,4.69,1.64,6.083,6.083,0,0,1,1.66,4.541,5.951,5.951,0,0,1-1.71,4.438,6.541,6.541,0,0,1-4.78,1.685h-5.05v-12.3Zm43.49-8.262-15.07,40.252h11.61l2.38-7.909h13.96l2.42,7.909h11.76l-15.08-40.252h-11.98Zm5.49,9.961h0.72l4.29,14.267h-9.23Zm54.13-9.9v24.462l-15.58-24.462h-9.84v40.193h10.49V762.492l14.65,23.583h10.78V745.882h-10.5Zm53.89,4.013q-5.385-4.861-14.39-4.863a21.324,21.324,0,0,0-10.97,2.827,19.432,19.432,0,0,0-7.43,7.617,21.926,21.926,0,0,0-2.59,10.62q0,9.52,5.51,15.175t14.79,5.654a25.577,25.577,0,0,0,8.82-1.406,19.858,19.858,0,0,0,6.98-4.424l-6.42-6.064a13.164,13.164,0,0,1-9.09,3.545,8.509,8.509,0,0,1-7.07-3.443q-2.67-3.441-2.67-9.154a14.273,14.273,0,0,1,2.76-9.082,8.755,8.755,0,0,1,7.23-3.516,12.923,12.923,0,0,1,8.41,2.754Zm8.76-4.013v40.193h10.93V745.882h-10.93Zm52.37,4.072q-5.88-4.921-15.9-4.922-7.44,0-12.01,3.384a11.41,11.41,0,0,0-1.28,17.167q3.3,3.092,9.46,4l5.38,0.762a6.523,6.523,0,0,1,3.48,1.42,3.572,3.572,0,0,1-.65,5.757,9.348,9.348,0,0,1-4.89,1.113,23.55,23.55,0,0,1-11.9-3.369l-5.09,7.031q6.93,4.629,16.85,4.629,8.04,0,12.84-3.545a11.225,11.225,0,0,0,4.79-9.492,10.424,10.424,0,0,0-3.46-8.056q-3.465-3.163-10.1-4.189l-5.19-.82q-4.035-.645-4.04-3.721a3.128,3.128,0,0,1,1.57-2.768,7.742,7.742,0,0,1,4.24-1.011,17.144,17.144,0,0,1,10.06,2.871Zm42.31-.059q-5.37-4.861-14.39-4.863a21.35,21.35,0,0,0-10.97,2.827,19.432,19.432,0,0,0-7.43,7.617,21.926,21.926,0,0,0-2.59,10.62q0,9.52,5.51,15.175t14.79,5.654a25.577,25.577,0,0,0,8.82-1.406,19.858,19.858,0,0,0,6.98-4.424l-6.42-6.064a13.164,13.164,0,0,1-9.09,3.545,8.509,8.509,0,0,1-7.07-3.443q-2.67-3.441-2.67-9.154a14.273,14.273,0,0,1,2.76-9.082,8.755,8.755,0,0,1,7.23-3.516,12.9,12.9,0,0,1,8.41,2.754Zm14.61-2.036a18.143,18.143,0,0,0-6.86,7.544,23.728,23.728,0,0,0-2.31,10.576,23.992,23.992,0,0,0,2.31,10.692,17.77,17.77,0,0,0,6.84,7.485,19.839,19.839,0,0,0,10.58,2.769,19.528,19.528,0,0,0,10.61-2.856,18.218,18.218,0,0,0,6.83-7.559,23.687,23.687,0,0,0,2.29-10.531,24.486,24.486,0,0,0-2.25-10.723,17.566,17.566,0,0,0-6.76-7.455,20.094,20.094,0,0,0-10.72-2.769A19.583,19.583,0,0,0,1902.91,747.859Zm17.13,8.789q2.235,3.442,2.23,9.331a20.859,20.859,0,0,1-.93,6.518,9.972,9.972,0,0,1-2.96,4.541,7.839,7.839,0,0,1-11.43-1.8,19.934,19.934,0,0,1,0-18.515A7.9,7.9,0,0,1,1920.04,756.648Zm38.59-10.766v40.193h10.93V775.148h4.65a22.905,22.905,0,0,0,6.96-1.04,18.653,18.653,0,0,0,5.74-2.915,13.759,13.759,0,0,0,3.89-4.658,13,13,0,0,0,1.44-6.064,13.177,13.177,0,0,0-4.79-10.517q-4.8-4.072-12.55-4.072h-16.27Zm10.93,8.2h4.87a7.263,7.263,0,0,1,5.14,1.7,6.262,6.262,0,0,1,1.82,4.8,6.032,6.032,0,0,1-1.88,4.731,7.54,7.54,0,0,1-5.23,1.685h-4.72V754.085Zm39.92-8.262-15.07,40.252h11.61l2.38-7.909h13.96l2.42,7.909h11.75l-15.07-40.252h-11.98Zm5.49,9.961h0.72l4.29,14.267h-9.23Zm60.77-5.889q-5.37-4.861-14.39-4.863a21.35,21.35,0,0,0-10.97,2.827,19.5,19.5,0,0,0-7.43,7.617,21.926,21.926,0,0,0-2.59,10.62q0,9.52,5.52,15.175,5.505,5.654,14.78,5.654a25.577,25.577,0,0,0,8.82-1.406,19.858,19.858,0,0,0,6.98-4.424l-6.42-6.064a13.164,13.164,0,0,1-9.09,3.545,8.509,8.509,0,0,1-7.07-3.443q-2.67-3.441-2.67-9.154a14.273,14.273,0,0,1,2.76-9.082,8.755,8.755,0,0,1,7.23-3.516,12.9,12.9,0,0,1,8.41,2.754Zm8.76-4.013v40.193h10.93V769.992h13.89v16.083h10.93V745.882h-10.93v15.761h-13.89V745.882H2084.5Zm45.7,0v40.193h30.95V777.9h-20.02v-8.32h16.77v-8.056h-16.77v-7.5h19.08v-8.144H2130.2Zm72.24,4.013q-5.37-4.861-14.39-4.863a21.288,21.288,0,0,0-10.96,2.827,19.432,19.432,0,0,0-7.43,7.617,21.932,21.932,0,0,0-2.6,10.62q0,9.52,5.52,15.175t14.79,5.654a25.618,25.618,0,0,0,8.82-1.406,19.819,19.819,0,0,0,6.97-4.424l-6.42-6.064a13.157,13.157,0,0,1-9.08,3.545,8.5,8.5,0,0,1-7.07-3.443q-2.67-3.441-2.67-9.154a14.273,14.273,0,0,1,2.76-9.082,8.755,8.755,0,0,1,7.23-3.516,12.9,12.9,0,0,1,8.4,2.754Zm14.61-2.036a18.12,18.12,0,0,0-6.85,7.544,23.728,23.728,0,0,0-2.31,10.576,23.992,23.992,0,0,0,2.31,10.692,17.746,17.746,0,0,0,6.83,7.485,19.9,19.9,0,0,0,10.59,2.769,19.493,19.493,0,0,0,10.6-2.856,18.242,18.242,0,0,0,6.84-7.559,23.824,23.824,0,0,0,2.29-10.531,24.348,24.348,0,0,0-2.26-10.723,17.439,17.439,0,0,0-6.76-7.455,20.082,20.082,0,0,0-10.71-2.769A19.594,19.594,0,0,0,2217.05,747.859Zm17.13,8.789q2.235,3.442,2.24,9.331a20.559,20.559,0,0,1-.94,6.518,9.815,9.815,0,0,1-2.96,4.541,7.839,7.839,0,0,1-11.43-1.8,20.012,20.012,0,0,1,0-18.515A7.9,7.9,0,0,1,2234.18,756.648Z" transform="translate(-1578.62 -745.031)"/>
</svg>
