<svg xmlns="http://www.w3.org/2000/svg" viewBox="0 0 1222.6 398.53"><defs><style>.cls-1{fill:#00bb81;}.cls-2{fill:#8590b0;}.cls-3{fill:#fff;}.cls-4{fill:#142b54;}</style></defs><g id="Capa_2" data-name="Capa 2"><g id="Capa_1-2" data-name="Capa 1"><path class="cls-1" d="M1014.28,397.8a3.18,3.18,0,0,1,.48-6.33c2.94.2,5.89.35,8.85.48a3,3,0,0,1,2.85,3.29,3.1,3.1,0,0,1-3.14,3.05q-4.5-.18-9-.48Zm-14.82-1.32h-.09c-1.57-.17-3.14-.36-4.71-.55l-4.23-.54a3.12,3.12,0,0,1-2.56-3.55,3.05,3.05,0,0,1,3.38-2.75l4.15.54c1.55.19,3.1.37,4.66.54a3.18,3.18,0,0,1-.6,6.32Zm38.65,2a3.06,3.06,0,0,1-2.74-3.14,3.12,3.12,0,0,1,3-3.19q4.44,0,8.86-.21a3,3,0,0,1,3.08,3,3.14,3.14,0,0,1-2.92,3.29c-3,.12-6,.19-9,.21Zm-62.25-5.34-.24,0q-4.44-.73-8.85-1.56a3.13,3.13,0,0,1-2.4-3.67,3,3,0,0,1,3.49-2.58q4.36.81,8.74,1.54a3.12,3.12,0,0,1,2.47,3.62A3.08,3.08,0,0,1,975.86,393.18Zm-23.41-4.48-.37-.05c-2.94-.64-5.86-1.3-8.78-2a3.15,3.15,0,0,1-2.24-3.79,3,3,0,0,1,3.59-2.41q4.33,1,8.68,2a3.15,3.15,0,0,1,2.3,3.74A3.06,3.06,0,0,1,952.45,388.7Zm109.49,8.66a3.05,3.05,0,0,1-2.72-2.9A3.15,3.15,0,0,1,1062,391c3-.27,5.88-.59,8.81-1a3,3,0,0,1,3.31,2.77,3.17,3.17,0,0,1-2.65,3.53c-3,.38-6,.71-9,1A2.68,2.68,0,0,1,1061.94,397.36ZM76,315.4a2.71,2.71,0,0,1-.82-.19c-2.87-1.14-5.7-2.35-8.4-3.6a3.23,3.23,0,0,1-1.52-4.17,3,3,0,0,1,4-1.65c2.6,1.2,5.33,2.37,8.11,3.47a3.22,3.22,0,0,1,1.73,4.09A3,3,0,0,1,76,315.4Zm853.21,67.73a3.1,3.1,0,0,1-.5-.09q-4.35-1.14-8.68-2.36A3.17,3.17,0,0,1,918,376.8a3,3,0,0,1,3.68-2.26c2.86.8,5.72,1.59,8.59,2.34a3.16,3.16,0,0,1,2.15,3.85A3.06,3.06,0,0,1,929.25,383.13ZM1085.62,394a3,3,0,0,1-2.69-2.6,3.19,3.19,0,0,1,2.44-3.69q4.38-.84,8.68-1.85a3,3,0,0,1,3.55,2.42,3.21,3.21,0,0,1-2.31,3.78c-3,.69-5.91,1.32-8.9,1.9A3.35,3.35,0,0,1,1085.62,394ZM906.29,376.55a3.29,3.29,0,0,1-.61-.12q-4.3-1.33-8.58-2.72a3.19,3.19,0,0,1-2-4,3,3,0,0,1,3.76-2.1q4.25,1.38,8.5,2.7a3.17,3.17,0,0,1,2,3.93A3,3,0,0,1,906.29,376.55ZM54.46,305a2.76,2.76,0,0,1-1.21-.38c-2.67-1.56-5.3-3.22-7.81-4.91a3.27,3.27,0,0,1-.89-4.38,2.9,2.9,0,0,1,4.14-1c2.4,1.62,4.92,3.2,7.49,4.7a3.25,3.25,0,0,1,1.15,4.31A3,3,0,0,1,54.46,305Zm1054.43,83.27a3,3,0,0,1-2.63-2.26,3.25,3.25,0,0,1,2.06-3.95c2.84-.89,5.67-1.85,8.41-2.86a2.94,2.94,0,0,1,3.8,2,3.27,3.27,0,0,1-1.89,4c-2.82,1-5.74,2-8.67,3A2.88,2.88,0,0,1,1108.89,388.22ZM883.59,369a2.9,2.9,0,0,1-.71-.15c-2.84-1-5.66-2-8.48-3.05a3.19,3.19,0,0,1-1.82-4,3,3,0,0,1,3.83-2c2.79,1,5.6,2,8.4,3a3.19,3.19,0,0,1,1.87,4A3,3,0,0,1,883.59,369Zm-22.43-8.35a2.65,2.65,0,0,1-.81-.19c-2.8-1.09-5.59-2.21-8.37-3.34a3.21,3.21,0,0,1-1.69-4.1,3,3,0,0,1,3.88-1.83q4.14,1.68,8.31,3.32a3.21,3.21,0,0,1,1.74,4.08A3,3,0,0,1,861.16,360.69ZM34.79,290.94a2.87,2.87,0,0,1-1.65-.71c-2.38-2.07-4.68-4.23-6.82-6.43a3.3,3.3,0,0,1-.05-4.49,2.88,2.88,0,0,1,4.23-.1c2,2.09,4.21,4.14,6.47,6.1a3.3,3.3,0,0,1,.39,4.47A3,3,0,0,1,34.79,290.94ZM1131.35,379.5a3,3,0,0,1-2.49-1.87,3.26,3.26,0,0,1,1.55-4.19c2.72-1.29,5.39-2.64,7.94-4a2.9,2.9,0,0,1,4,1.36,3.3,3.3,0,0,1-1.33,4.28c-2.65,1.44-5.43,2.85-8.25,4.18A2.86,2.86,0,0,1,1131.35,379.5ZM839,351.58a2.7,2.7,0,0,1-.9-.22q-4.14-1.78-8.26-3.61a3.22,3.22,0,0,1-1.58-4.15,3,3,0,0,1,3.93-1.71q4.09,1.82,8.21,3.58a3.22,3.22,0,0,1,1.62,4.14A3,3,0,0,1,839,351.58Zm-21.9-9.78a2.86,2.86,0,0,1-1-.26q-4.1-1.91-8.17-3.84a3.24,3.24,0,0,1-1.47-4.2,3,3,0,0,1,4-1.6q4,1.94,8.12,3.82a3.23,3.23,0,0,1,1.51,4.18A3,3,0,0,1,817.1,341.8Zm335.3,25.68a3,3,0,0,1-2.27-1.44,3.3,3.3,0,0,1,.92-4.39c2.46-1.69,4.89-3.47,7.22-5.3a2.86,2.86,0,0,1,4.18.64,3.31,3.31,0,0,1-.64,4.44c-2.43,1.91-5,3.78-7.54,5.54A2.87,2.87,0,0,1,1152.4,367.48ZM18.3,273a2.89,2.89,0,0,1-2.14-1.23c-1.87-2.61-3.61-5.32-5.18-8.05a3.29,3.29,0,0,1,1-4.37,2.89,2.89,0,0,1,4.11,1c1.47,2.55,3.1,5.08,4.85,7.52a3.32,3.32,0,0,1-.59,4.45A2.86,2.86,0,0,1,18.3,273ZM795.46,331.4a2.75,2.75,0,0,1-1-.29q-4-2-8.08-4a3.23,3.23,0,0,1-1.38-4.23,3,3,0,0,1,4-1.51q4,2,8,4a3.24,3.24,0,0,1,1.41,4.22A3,3,0,0,1,795.46,331.4Zm-21.4-10.91a3,3,0,0,1-1.1-.32c-2.66-1.4-5.33-2.81-8-4.23a3.23,3.23,0,0,1-1.3-4.26,2.93,2.93,0,0,1,4-1.41l7.95,4.2a3.25,3.25,0,0,1,1.33,4.25A3,3,0,0,1,774.06,320.49Zm397.2,31.43a2.91,2.91,0,0,1-1.94-1,3.31,3.31,0,0,1,.17-4.49c2.09-2.07,4.13-4.23,6.06-6.43l2.31,2,2.11,2.23q-3.12,3.56-6.42,6.82A2.92,2.92,0,0,1,1171.26,351.92ZM6.81,251.05A3,3,0,0,1,4.25,249a79,79,0,0,1-2.64-9.44,3.21,3.21,0,0,1,2.26-3.82,3,3,0,0,1,3.58,2.36,72.7,72.7,0,0,0,2.43,8.66,3.26,3.26,0,0,1-1.78,4.09A2.93,2.93,0,0,1,6.81,251.05Zm746.06,58.06a2.65,2.65,0,0,1-1.14-.35q-4-2.17-7.91-4.38a3.24,3.24,0,0,1-1.22-4.28,2.93,2.93,0,0,1,4-1.34l7.88,4.37a3.24,3.24,0,0,1,1.25,4.27A3,3,0,0,1,752.87,309.11Zm-21-11.77a2.71,2.71,0,0,1-1.18-.37q-3.93-2.25-7.83-4.51a3.26,3.26,0,0,1-1.17-4.31,3,3,0,0,1,4.08-1.27c2.59,1.51,5.2,3,7.81,4.5a3.26,3.26,0,0,1,1.18,4.3A3,3,0,0,1,731.88,297.34ZM1187.23,333a2.86,2.86,0,0,1-1.56-.62,3.29,3.29,0,0,1-.56-4.45c1.76-2.46,3.48-5,5.1-7.59a2.91,2.91,0,0,1,4.16-.91,3.29,3.29,0,0,1,.82,4.4c-1.69,2.68-3.48,5.35-5.32,7.91A3,3,0,0,1,1187.23,333ZM711.07,285.24a2.91,2.91,0,0,1-1.22-.39l-7.78-4.62a3.26,3.26,0,0,1-1.11-4.32,2.93,2.93,0,0,1,4.09-1.22l7.76,4.61a3.24,3.24,0,0,1,1.12,4.31A3,3,0,0,1,711.07,285.24ZM2.74,226.34A3.07,3.07,0,0,1,0,223.15c0-2.27.16-4.56.34-6.82.08-1,.18-2,.28-2.93a3.11,3.11,0,0,1,3.32-2.83,3.09,3.09,0,0,1,2.63,3.48c-.1.93-.18,1.85-.26,2.77-.17,2.11-.28,4.26-.32,6.39a3.11,3.11,0,0,1-3.05,3.14Zm687.65,46.53a2.78,2.78,0,0,1-1.25-.4q-3.87-2.33-7.73-4.69a3.25,3.25,0,0,1-1.08-4.33,2.93,2.93,0,0,1,4.1-1.18l7.71,4.68a3.26,3.26,0,0,1,1.1,4.32A3,3,0,0,1,690.39,272.87Zm509.74,38.81a2.93,2.93,0,0,1-1.16-.35,3.27,3.27,0,0,1-1.22-4.29c1.37-2.72,2.69-5.53,3.91-8.35a3,3,0,0,1,4-1.58,3.23,3.23,0,0,1,1.46,4.2c-1.27,2.92-2.64,5.84-4.07,8.68A3,3,0,0,1,1200.13,311.68ZM669.8,260.34a2.81,2.81,0,0,1-1.26-.42l-7.71-4.74a3.25,3.25,0,0,1-1.05-4.33,2.92,2.92,0,0,1,4.1-1.16l7.7,4.73a3.27,3.27,0,0,1,1.06,4.34A3,3,0,0,1,669.8,260.34Zm-663.64-59a2.56,2.56,0,0,1-.53-.09,3.17,3.17,0,0,1-2.1-3.88c.79-3.1,1.72-6.23,2.77-9.3a3,3,0,0,1,3.84-1.94,3.19,3.19,0,0,1,1.79,4.05c-1,2.91-1.88,5.87-2.62,8.8A3,3,0,0,1,6.16,201.37Zm643.11,46.32a3,3,0,0,1-1.27-.42l-7.68-4.77a3.24,3.24,0,0,1-1.05-4.33,2.91,2.91,0,0,1,4.1-1.15l7.69,4.76a3.27,3.27,0,0,1,1.05,4.34A3,3,0,0,1,649.27,247.69Zm560.47,40.79a2.72,2.72,0,0,1-.74-.16,3.2,3.2,0,0,1-1.83-4c1-2.91,1.87-5.9,2.69-8.88a3,3,0,0,1,3.71-2.19,3.17,3.17,0,0,1,2,3.91c-.85,3.09-1.79,6.19-2.79,9.21A3,3,0,0,1,1209.74,288.48ZM628.77,235a2.73,2.73,0,0,1-1.27-.42l-7.69-4.75a3.28,3.28,0,0,1-1-4.34,2.94,2.94,0,0,1,4.11-1.16l7.69,4.76a3.26,3.26,0,0,1,1,4.34A3,3,0,0,1,628.77,235ZM14.86,177.82a2.88,2.88,0,0,1-1.12-.33,3.25,3.25,0,0,1-1.28-4.27c1.39-2.85,2.92-5.7,4.53-8.48a2.91,2.91,0,0,1,4.12-1.08,3.27,3.27,0,0,1,1,4.36c-1.53,2.65-3,5.36-4.3,8.07A3,3,0,0,1,14.86,177.82Zm593.4,44.5a2.85,2.85,0,0,1-1.27-.42l-7.7-4.73a3.26,3.26,0,0,1-1.06-4.33,2.93,2.93,0,0,1,4.1-1.17l7.71,4.74a3.25,3.25,0,0,1,1.05,4.33A3,3,0,0,1,608.26,222.32ZM1216,264.07l-.32-.05a3.13,3.13,0,0,1-2.36-3.7c.56-3,1.06-6.12,1.47-9.19a3,3,0,1,1,5.93.84c-.43,3.19-.94,6.39-1.52,9.52A3.07,3.07,0,0,1,1216,264.07ZM587.69,209.74a2.93,2.93,0,0,1-1.25-.41l-7.72-4.67a3.26,3.26,0,0,1-1.09-4.33,2.92,2.92,0,0,1,4.09-1.2l7.74,4.69a3.26,3.26,0,0,1,1.08,4.33A3,3,0,0,1,587.69,209.74ZM27.81,156.53a2.83,2.83,0,0,1-1.59-.66,3.3,3.3,0,0,1-.51-4.45c1.88-2.55,3.86-5.06,5.89-7.46a2.88,2.88,0,0,1,4.23-.28,3.29,3.29,0,0,1,.22,4.47c-1.93,2.31-3.83,4.71-5.63,7.15A3,3,0,0,1,27.81,156.53ZM567,197.32a2.83,2.83,0,0,1-1.23-.4q-3.87-2.31-7.76-4.59a3.25,3.25,0,0,1-1.13-4.31,2.93,2.93,0,0,1,4.08-1.25l7.79,4.61a3.27,3.27,0,0,1,1.11,4.32A3,3,0,0,1,567,197.32Zm-20.78-12.19a2.81,2.81,0,0,1-1.19-.38l-7.81-4.49a3.25,3.25,0,0,1-1.19-4.3,2.93,2.93,0,0,1,4.07-1.29q3.92,2.24,7.84,4.51a3.24,3.24,0,0,1,1.16,4.3A3,3,0,0,1,546.26,185.13ZM1219,239a3.08,3.08,0,0,1-2.73-3.32c.18-3.08.29-6.22.33-9.32a3.12,3.12,0,0,1,3-3.16,3,3,0,0,1,3,3.18c0,3.21-.15,6.44-.34,9.62a3.1,3.1,0,0,1-3.17,3ZM44.08,137.94a2.87,2.87,0,0,1-2-1,3.3,3.3,0,0,1,.21-4.48c2.25-2.18,4.59-4.31,7-6.33a2.88,2.88,0,0,1,4.21.45A3.31,3.31,0,0,1,53,131c-2.27,1.94-4.51,4-6.67,6.08A2.94,2.94,0,0,1,44.08,137.94Zm481.26,35.29a2.89,2.89,0,0,1-1.16-.35q-3.93-2.19-7.88-4.36a3.25,3.25,0,0,1-1.25-4.27,3,3,0,0,1,4.05-1.37q4,2.18,7.91,4.38a3.25,3.25,0,0,1,1.23,4.28A3,3,0,0,1,525.34,173.23Zm-21.12-11.52a2.84,2.84,0,0,1-1.11-.33c-2.64-1.41-5.3-2.81-7.95-4.2a3.24,3.24,0,0,1-1.33-4.25,2.93,2.93,0,0,1,4-1.45q4,2.1,8,4.23a3.24,3.24,0,0,1,1.3,4.26A3,3,0,0,1,504.22,161.71ZM63,122.36A2.9,2.9,0,0,1,60.72,121a3.31,3.31,0,0,1,.86-4.41c2.5-1.76,5.1-3.5,7.72-5.16a2.89,2.89,0,0,1,4.1,1.09,3.29,3.29,0,0,1-1.07,4.35c-2.53,1.61-5,3.29-7.46,5A2.81,2.81,0,0,1,63,122.36Zm1156,91.39a3.07,3.07,0,0,1-2.73-2.93c-.19-3.07-.45-6.2-.77-9.29a3.17,3.17,0,0,1,2.65-3.53,3,3,0,0,1,3.31,2.77c.33,3.19.6,6.41.79,9.58a3.16,3.16,0,0,1-2.8,3.4ZM482.89,150.63a2.86,2.86,0,0,1-1.05-.3q-4-2-8-4a3.24,3.24,0,0,1-1.42-4.22,3,3,0,0,1,4-1.54q4,2,8.09,4a3.25,3.25,0,0,1,1.38,4.23A3,3,0,0,1,482.89,150.63ZM83.7,109.72A3,3,0,0,1,81.26,108a3.3,3.3,0,0,1,1.38-4.26q4.08-2.13,8.24-4.1a2.91,2.91,0,0,1,3.94,1.61,3.27,3.27,0,0,1-1.55,4.19c-2.7,1.27-5.37,2.59-8,4A2.81,2.81,0,0,1,83.7,109.72Zm377.62,30.34a2.75,2.75,0,0,1-1-.26q-4.05-1.92-8.12-3.8a3.23,3.23,0,0,1-1.52-4.18,3,3,0,0,1,3.95-1.65q4.11,1.89,8.18,3.83a3.22,3.22,0,0,1,1.48,4.19A3,3,0,0,1,461.32,140.06Zm-21.83-10a2.91,2.91,0,0,1-.9-.23c-2.74-1.2-5.48-2.39-8.23-3.55a3.21,3.21,0,0,1-1.64-4.12,3,3,0,0,1,3.91-1.78c2.77,1.18,5.54,2.37,8.29,3.58a3.22,3.22,0,0,1,1.59,4.15A3,3,0,0,1,439.49,130.1ZM105.68,99.74a3,3,0,0,1-2.57-2.07,3.26,3.26,0,0,1,1.81-4.07c2.84-1.11,5.7-2.15,8.57-3.16a2.94,2.94,0,0,1,3.77,2,3.25,3.25,0,0,1-1.94,4q-4.23,1.47-8.38,3.08A2.79,2.79,0,0,1,105.68,99.74Zm1110.3,89a3,3,0,0,1-2.68-2.55c-.54-3.06-1.15-6.1-1.81-9.12a3.22,3.22,0,0,1,2.24-3.83,3,3,0,0,1,3.6,2.33q1,4.68,1.85,9.39a3.19,3.19,0,0,1-2.39,3.73A2.81,2.81,0,0,1,1216,188.72ZM417.39,120.83a2.64,2.64,0,0,1-.82-.19q-4.15-1.67-8.33-3.27a3.21,3.21,0,0,1-1.76-4.07,3,3,0,0,1,3.85-1.9q4.21,1.62,8.4,3.3a3.2,3.2,0,0,1,1.71,4.08A3,3,0,0,1,417.39,120.83ZM128.47,92.12a3,3,0,0,1-2.64-2.34A3.24,3.24,0,0,1,128,85.89q4.36-1.23,8.78-2.34a3,3,0,0,1,3.58,2.36,3.21,3.21,0,0,1-2.26,3.82q-4.32,1.08-8.6,2.3A2.91,2.91,0,0,1,128.47,92.12ZM395,112.32a2.73,2.73,0,0,1-.73-.16q-4.2-1.51-8.42-3a3.18,3.18,0,0,1-1.89-4,3,3,0,0,1,3.79-2q4.26,1.45,8.5,3a3.2,3.2,0,0,1,1.84,4A3,3,0,0,1,395,112.32Zm-22.64-7.69a2.83,2.83,0,0,1-.63-.13q-4.26-1.35-8.52-2.64a3.18,3.18,0,0,1-2-3.92,3,3,0,0,1,3.72-2.19c2.88.87,5.74,1.76,8.61,2.68a3.17,3.17,0,0,1,2,3.95A3,3,0,0,1,372.37,104.63ZM151.77,86.55A3,3,0,0,1,149.08,84a3.2,3.2,0,0,1,2.43-3.71c1.85-.36,3.7-.72,5.55-1.05l3.34-.59a3,3,0,0,1,3.41,2.63,3.19,3.19,0,0,1-2.5,3.64l-3.29.57c-1.83.34-3.65.68-5.47,1A3,3,0,0,1,151.77,86.55Zm197.7,11.28a3.29,3.29,0,0,1-.53-.1q-4.29-1.19-8.6-2.29a3.16,3.16,0,0,1-2.17-3.84,3,3,0,0,1,3.64-2.33q4.35,1.13,8.7,2.32a3.17,3.17,0,0,1,2.11,3.87A3.06,3.06,0,0,1,349.47,97.83ZM175.37,82.72a3.05,3.05,0,0,1-2.72-2.79,3.17,3.17,0,0,1,2.65-3.53c3-.38,6-.73,9-1a3,3,0,0,1,3.24,2.85,3.17,3.17,0,0,1-2.73,3.47q-4.41.45-8.82,1A2.94,2.94,0,0,1,175.37,82.72Zm1034.88,81.55a3,3,0,0,1-2.6-2.19c-.87-3-1.81-5.91-2.8-8.83a3.26,3.26,0,0,1,1.81-4.08,2.92,2.92,0,0,1,3.83,1.88c1,3,2,6,2.88,9.09a3.24,3.24,0,0,1-2,4A2.87,2.87,0,0,1,1210.25,164.27ZM326.33,92a2,2,0,0,1-.41-.07q-4.34-1-8.69-1.91a3.14,3.14,0,0,1-2.31-3.74,3,3,0,0,1,3.54-2.49q4.4.93,8.78,1.94a3.14,3.14,0,0,1,2.26,3.78A3.05,3.05,0,0,1,326.33,92ZM199.13,80.46a3.06,3.06,0,0,1-2.73-3,3.15,3.15,0,0,1,2.84-3.36q4.5-.28,9-.45a3,3,0,0,1,3.07,3A3.13,3.13,0,0,1,208.41,80c-3,.12-5.91.26-8.87.45A2.81,2.81,0,0,1,199.13,80.46ZM303,87.16a1.33,1.33,0,0,1-.28,0c-2.92-.53-5.84-1-8.76-1.51A3.12,3.12,0,0,1,291.46,82a3.07,3.07,0,0,1,3.44-2.66c3,.48,5.91,1,8.86,1.53a3.12,3.12,0,0,1,2.41,3.66A3.06,3.06,0,0,1,303,87.16Zm-80-7.45a3.08,3.08,0,0,1-2.74-3.16,3.13,3.13,0,0,1,3-3.18c3,0,6,0,9,.09a3.06,3.06,0,0,1,2.9,3.24,3.11,3.11,0,0,1-3.08,3.11q-4.44-.09-8.88-.09Zm56.45,3.76-.14,0q-4.41-.57-8.82-1.07a3.18,3.18,0,0,1,.68-6.31q4.47.51,8.93,1.08a3.19,3.19,0,0,1-.65,6.32ZM246.8,80.39a3.19,3.19,0,0,1,.45-6.34c3,.17,6,.38,9,.61h0a3.18,3.18,0,0,1-.5,6.33c-3-.23-5.91-.43-8.87-.6Zm955.07,60.32a3,3,0,0,1-2.48-1.84c-1.18-2.8-2.45-5.62-3.78-8.37a3.29,3.29,0,0,1,1.31-4.28,2.89,2.89,0,0,1,4,1.35c1.37,2.85,2.69,5.76,3.92,8.66a3.28,3.28,0,0,1-1.53,4.21A2.82,2.82,0,0,1,1201.87,140.71Zm-11.19-22.17a2.93,2.93,0,0,1-2.28-1.45c-1.56-2.62-3.19-5.21-4.86-7.71a3.3,3.3,0,0,1,.72-4.43,2.87,2.87,0,0,1,4.17.73c1.74,2.59,3.43,5.28,5,8a3.31,3.31,0,0,1-1,4.38A2.85,2.85,0,0,1,1190.68,118.54Zm-14-20.25a2.94,2.94,0,0,1-2-1.1c-1.88-2.34-3.84-4.66-5.84-6.91a3.3,3.3,0,0,1,.15-4.48,2.87,2.87,0,0,1,4.23.11c2.07,2.32,4.1,4.72,6,7.14a3.33,3.33,0,0,1-.36,4.48A2.91,2.91,0,0,1,1176.63,98.29Zm-16.57-18a2.87,2.87,0,0,1-1.74-.79c-2.18-2.06-4.42-4.08-6.67-6a3.3,3.3,0,0,1-.43-4.46,2.9,2.9,0,0,1,4.22-.5c2.33,2,4.64,4.08,6.89,6.21a3.31,3.31,0,0,1,.22,4.48A3,3,0,0,1,1160.06,80.31Zm-18.67-15.48a2.84,2.84,0,0,1-1.45-.54c-2.39-1.73-4.86-3.43-7.35-5.05a3.28,3.28,0,0,1-.94-4.37,2.9,2.9,0,0,1,4.12-1c2.56,1.67,5.11,3.42,7.58,5.21a3.28,3.28,0,0,1,.76,4.41A3,3,0,0,1,1141.39,64.83ZM1121,52a2.89,2.89,0,0,1-1.14-.35q-3.88-2.13-7.87-4.09a3.24,3.24,0,0,1-1.43-4.21,3,3,0,0,1,4-1.55q4.11,2,8.11,4.21a3.26,3.26,0,0,1,1.25,4.28A3,3,0,0,1,1121,52Zm-21.67-10.25a3.23,3.23,0,0,1-.83-.2c-2.73-1.1-5.49-2.15-8.27-3.13a3.2,3.2,0,0,1-1.86-4,3,3,0,0,1,3.81-2q4.29,1.52,8.5,3.21a3.21,3.21,0,0,1,1.7,4.09A3,3,0,0,1,1099.34,41.71ZM973.22,29a3,3,0,0,1-2.72-2.81,3.17,3.17,0,0,1,2.67-3.51c3-.36,6-.68,9-1a3,3,0,0,1,3.25,2.85A3.17,3.17,0,0,1,982.65,28c-3,.3-5.92.63-8.86,1A3.66,3.66,0,0,1,973.22,29Zm103.5,5a2.35,2.35,0,0,1-.53-.09c-2.83-.79-5.69-1.52-8.55-2.19a3.15,3.15,0,0,1-2.25-3.78,3,3,0,0,1,3.59-2.42q4.41,1,8.78,2.24a3.17,3.17,0,0,1,2.1,3.88A3,3,0,0,1,1076.72,34ZM997,26.7a3.06,3.06,0,0,1-2.73-2.95,3.14,3.14,0,0,1,2.82-3.38l3.35-.24c1.89-.13,3.78-.24,5.66-.32a3,3,0,0,1,3.09,3,3.14,3.14,0,0,1-2.9,3.3c-1.84.09-3.68.19-5.52.32l-3.33.23A2.16,2.16,0,0,1,997,26.7Zm56.45,2.23-.23,0c-2.9-.48-5.81-.89-8.73-1.26a3.1,3.1,0,0,1-2.6-3.52,3,3,0,0,1,3.35-2.78c3,.37,6,.8,9,1.29a3.12,3.12,0,0,1,2.47,3.62A3.08,3.08,0,0,1,1053.44,28.93Zm-32.62-3a3.07,3.07,0,0,1-2.73-3.22,3.11,3.11,0,0,1,3.08-3.11c3,.05,6,.17,9,.34a3.18,3.18,0,0,1-.39,6.34q-4.39-.25-8.82-.34Z"/><path class="cls-2" d="M957.85,35.45Q950.44,52.74,943,70.06A323.2,323.2,0,0,0,807.74,38.24a498.74,498.74,0,0,1,125.1-10.82Z"/><path class="cls-3" d="M990.18,78.14c-58.67-22.85-120.2-43.9-183-39.87C846.67,22.83,886.52,7.29,928.32,0Z"/><path class="cls-4" d="M957.35,36.67,947.27,23.93c-40.15.27-81.45-2-121.22,12C871,27,913.92,29.93,957.35,36.67Z"/></g></g></svg>