<svg version="1.2" xmlns="http://www.w3.org/2000/svg" viewBox="0 0 201 156" width="201" height="156">
	<title>em pro pinting-pdf</title>
	<defs>
		<clipPath clipPathUnits="userSpaceOnUse" id="cp1">
			<path d="m0 0h201v156h-201z"/>
		</clipPath>
	</defs>
	<style>
		.s0 { fill: #626c71 } 
		.s1 { fill: #e32b1c } 
	</style>
	<g id="Page 1" clip-path="url(#cp1)">
		<path id="Path 1" fill-rule="evenodd" class="s0" d="m30.4 103.5h-20.5q-1.1 0-2.5-0.5-1.4-0.4-2.6-1.3-1.2-1-2-2.5-0.8-1.5-0.8-3.7v-20.5q0-0.5 0.2-1.1 0.2-0.5 0.6-0.9 0.4-0.4 0.9-0.6 0.6-0.2 1.2-0.2h25.5v5.7h-22.7v17.6q0 1.1 0.6 1.7 0.6 0.6 1.7 0.6h20.4zm-2.5-12.8h-18v-5.7h18zm44.4 12.8h-5.7v-18.7l-10.1 17.7q-0.4 0.7-1 1.1-0.7 0.3-1.5 0.3-0.7 0-1.3-0.3-0.7-0.4-1.1-1.1l-10.1-17.7v18.7h-5.6v-28.9q0-1 0.6-1.7 0.5-0.8 1.5-1 0.4-0.2 0.9-0.1 0.4 0 0.9 0.2 0.4 0.1 0.7 0.4 0.4 0.3 0.6 0.7l12.9 22.5 13-22.5q0.5-0.8 1.3-1.1 0.9-0.4 1.9-0.1 0.9 0.2 1.5 1 0.6 0.7 0.6 1.7zm52.3-18.2q0 2-0.5 3.5-0.5 1.5-1.3 2.7-0.8 1.2-1.9 2-1.1 0.8-2.2 1.3-1.2 0.6-2.4 0.8-1.2 0.2-2.2 0.2h-12.9v-5.6h12.9q1.1-0.1 1.9-0.5 0.9-0.3 1.6-0.9 0.6-0.7 0.9-1.5 0.4-0.9 0.4-2v-2.5q-0.1-1.1-0.5-2-0.3-0.9-0.9-1.5-0.6-0.7-1.5-1-0.8-0.4-1.9-0.4h-12.8q-1.2 0-1.7 0.6-0.6 0.6-0.6 1.7v23.3h-5.7v-23.3q0-2.2 0.8-3.7 0.8-1.5 2-2.5 1.2-0.9 2.6-1.3 1.4-0.5 2.5-0.5h12.9q1.9 0 3.4 0.5 1.5 0.5 2.7 1.3 1.2 0.9 2 1.9 0.8 1.1 1.3 2.3 0.6 1.1 0.8 2.3 0.3 1.2 0.3 2.3zm36-2.6q0 1.9-0.4 3.5-0.5 1.5-1.3 2.6-0.9 1.2-1.9 2-1.1 0.9-2.3 1.4-1.1 0.5-2.3 0.8-1.2 0.2-2.2 0.2l11.8 10.2h-8.8l-11.8-10.2h-4.1v-5.7h12.9q1 0 1.9-0.4 0.9-0.4 1.5-1 0.7-0.6 1-1.4 0.4-0.9 0.4-2v-3.6q0-0.5-0.1-0.7-0.2-0.3-0.4-0.4-0.1-0.1-0.3-0.1-0.3-0.1-0.4-0.1h-18.7v25.6h-5.7v-28.4q0-0.6 0.2-1.1 0.2-0.5 0.6-0.9 0.4-0.4 0.9-0.6 0.5-0.2 1.1-0.2h21.6q1.9 0 3.2 0.7 1.3 0.6 2.1 1.7 0.8 1 1.2 2.2 0.3 1.2 0.3 2.3zm38.6 8.1q0 2.8-1 5.2-1 2.4-2.8 4.2-1.7 1.7-4.1 2.7-2.4 1-5.2 1h-7.7q-2.8 0-5.2-1-2.4-1-4.1-2.7-1.8-1.8-2.8-4.2-0.9-2.4-0.9-5.2v-6q0-2.8 0.9-5.2 1-2.5 2.8-4.2 1.7-1.7 4.1-2.7 2.4-1 5.2-1h7.7q2.8 0 5.2 1 2.4 1 4.1 2.7 1.8 1.7 2.8 4.2 1 2.4 1 5.2zm-5.7-6q0-1.7-0.5-3-0.6-1.4-1.6-2.3-0.9-1-2.3-1.6-1.3-0.5-3-0.5h-7.7q-1.6 0-3 0.5-1.3 0.6-2.3 1.6-1 0.9-1.5 2.3-0.6 1.3-0.6 3v6q0 1.7 0.6 3 0.5 1.4 1.5 2.4 1 0.9 2.3 1.5 1.4 0.5 3 0.5h7.7q1.6 0 3-0.5 1.4-0.6 2.3-1.5 1-1 1.6-2.4 0.5-1.3 0.5-3z"/>
		<path id="Path 2" class="s1" d="m79 41.2h-10.2v-10.2h10.2zm12.2 12.2h-10.2v-10.1h10.2zm0-12.2h-10.2v-10.2h10.2zm-12.2 12.2h-10.2v-10.2h10.2zm59.9 8l-56.6-56.6-2.3-2.4-58.9 59 4.7 4.6 54.2-54.2 54.2 54.2zm16.1 4.7l-56.6-56.6 4.7-4.6 56.5 56.5zm20.5 0l-56.6-56.5 4.7-4.7 56.6 56.6zm23.7 48.9h-197.1v-5.7h197.1z"/>
		<path id="Path 3" fill-rule="evenodd" class="s0" d="m21.1 129.4q0 1.2-0.3 2.2-0.3 0.9-0.8 1.6-0.5 0.7-1.2 1.2-0.6 0.5-1.3 0.8-0.7 0.4-1.5 0.5-0.7 0.2-1.3 0.2h-7.8v-3.5h7.8q0.6-0.1 1.2-0.3 0.5-0.2 0.9-0.6 0.4-0.3 0.6-0.9 0.2-0.5 0.2-1.2v-1.5q-0.1-0.7-0.3-1.2-0.2-0.6-0.5-1-0.4-0.3-0.9-0.6-0.5-0.2-1.2-0.2h-7.8q-0.7 0-1.1 0.4-0.3 0.3-0.3 1v14.2h-3.5v-14.2q0-1.3 0.5-2.2 0.5-1 1.2-1.6 0.7-0.5 1.6-0.8 0.8-0.2 1.6-0.2h7.8q1.1 0 2.1 0.3 0.9 0.3 1.6 0.8 0.7 0.5 1.2 1.1 0.5 0.7 0.9 1.4 0.3 0.7 0.4 1.4 0.2 0.7 0.2 1.4zm21.6 11.1h-3.4v-4.7h-12.2v4.7h-3.4v-9.6q0-2.1 0.7-3.8 0.7-1.8 2-3 1.3-1.3 3-2 1.7-0.7 3.8-0.7h7.8q0.4 0 0.7 0.1 0.3 0.2 0.5 0.4 0.3 0.2 0.4 0.6 0.1 0.3 0.1 0.6zm-15.6-8.1h12.2v-7.5h-6.1q-0.2 0-0.7 0.1-0.5 0-1.1 0.2-0.7 0.2-1.5 0.6-0.7 0.3-1.3 1-0.7 0.7-1.1 1.7-0.4 1-0.4 2.5zm23.1 8.1h-3.4v-19h3.4zm23.2-1.5q0 0.4-0.2 0.7-0.1 0.3-0.4 0.5-0.2 0.3-0.5 0.4-0.3 0.1-0.7 0.1-0.3 0-0.6-0.1-0.4-0.1-0.6-0.4l-12.6-13.2v13.5h-3.5v-17.6q0-0.6 0.3-1 0.3-0.4 0.8-0.7 0.4-0.2 1-0.1 0.5 0.1 0.9 0.5l12.6 13.2v-13.4h3.5zm21.2-14.2h-7.6v15.7h-3.5v-15.7h-7.6v-3.4h18.7zm6 15.6h-3.4v-19.1h3.4zm23.2-1.5q0 0.4-0.2 0.7-0.1 0.4-0.4 0.6-0.2 0.2-0.5 0.4-0.3 0.1-0.7 0.1-0.3 0-0.6-0.1-0.4-0.2-0.6-0.4l-12.7-13.2v13.4h-3.4v-17.6q0-0.5 0.3-0.9 0.3-0.5 0.8-0.7 0.4-0.2 1-0.1 0.5 0.1 0.9 0.5l12.6 13.2v-13.5h3.5zm22.8-0.2q0 0.3-0.1 0.7-0.2 0.3-0.4 0.5-0.2 0.3-0.6 0.4-0.3 0.1-0.6 0.1h-12.5q-0.5 0-1.1-0.1-0.5-0.1-1-0.3-0.6-0.3-1.1-0.7-0.5-0.3-0.9-0.9-0.3-0.5-0.6-1.2-0.2-0.7-0.2-1.6v-9.4q0-0.5 0.1-1 0.1-0.6 0.4-1.1 0.2-0.6 0.6-1.1 0.4-0.4 0.9-0.8 0.6-0.4 1.3-0.6 0.7-0.3 1.6-0.3h14v3.5h-14q-0.7 0-1.1 0.4-0.3 0.3-0.3 1v9.4q0 0.6 0.3 1 0.4 0.4 1.1 0.4h10.7v-4.4h-9.2v-3.5h11q0.3 0 0.6 0.2 0.4 0.1 0.6 0.4 0.2 0.2 0.4 0.5 0.1 0.3 0.1 0.7zm29.5 1.7h-12.4q-0.5 0-1.1-0.1-0.5-0.1-1.1-0.3-0.5-0.3-1-0.7-0.5-0.3-0.9-0.9-0.3-0.5-0.6-1.2-0.2-0.7-0.2-1.6v-9.4q0-0.5 0.1-1 0.1-0.6 0.4-1.1 0.2-0.6 0.6-1.1 0.4-0.4 0.9-0.8 0.6-0.4 1.3-0.6 0.7-0.3 1.6-0.3h12.4v3.5h-12.4q-0.7 0-1.1 0.4-0.3 0.3-0.3 1v9.4q0 0.6 0.3 1 0.4 0.4 1.1 0.4h12.4zm23.1-7.8q0 1.8-0.6 3.3-0.6 1.4-1.7 2.5-1.1 1-2.5 1.6-1.5 0.6-3.2 0.6h-4.7q-1.7 0-3.2-0.6-1.4-0.6-2.5-1.6-1.1-1.1-1.7-2.5-0.6-1.5-0.6-3.3v-3.6q0-1.7 0.6-3.2 0.6-1.5 1.7-2.5 1.1-1.1 2.5-1.7 1.5-0.6 3.2-0.6h4.7q1.7 0 3.2 0.6 1.4 0.6 2.5 1.7 1.1 1 1.7 2.5 0.6 1.5 0.6 3.2zm-3.5-3.6q0-1.1-0.3-1.9-0.4-0.8-0.9-1.4-0.6-0.6-1.5-0.9-0.8-0.4-1.8-0.4h-4.7q-1 0-1.8 0.4-0.9 0.3-1.5 0.9-0.6 0.6-0.9 1.4-0.3 0.8-0.3 1.9v3.6q0 1 0.3 1.9 0.3 0.8 0.9 1.4 0.6 0.6 1.5 0.9 0.8 0.3 1.8 0.3h4.7q1 0 1.8-0.3 0.8-0.3 1.4-0.9 0.6-0.6 1-1.4 0.3-0.9 0.3-1.9z"/>
		<path id="Path 4" fill-rule="evenodd" class="s1" d="m69.2 154h-5.6q-0.2 0-0.3 0-0.1-0.1-0.2-0.2-0.1-0.1-0.1-0.2 0-0.1 0-0.2v-6.2h1.2v5.6h5zm2.2 0h-1.3v-6.8h1.3zm7.5 0h-4.4q-0.2 0-0.4-0.1-0.2 0-0.4-0.1-0.2-0.1-0.4-0.2-0.1-0.2-0.3-0.4-0.1-0.2-0.2-0.4-0.1-0.3-0.1-0.6v-3.3q0-0.2 0.1-0.4 0-0.2 0.1-0.4 0.1-0.2 0.2-0.4 0.1-0.1 0.3-0.3 0.2-0.1 0.5-0.2 0.2-0.1 0.6-0.1h4.4v1.3h-4.4q-0.3 0-0.4 0.1-0.1 0.1-0.1 0.4v3.3q0 0.3 0.1 0.4 0.1 0.1 0.4 0.1h4.4zm1.6-4.9h1l0.4-1.6h1.1l-0.3 1.6h1.2l0.3-1.6h1.2l-0.4 1.6h1.1l-0.2 1.1h-1.1l-0.3 1.1h1.1l-0.3 1.1h-1l-0.4 1.6h-1.1l0.3-1.6h-1.2l-0.3 1.6h-1.2l0.4-1.6h-1.1l0.3-1.1h1l0.3-1.1h-1.1zm1.7 2.2h1.2l0.3-1.1h-1.2zm6.9 2.7h-1.2v-5.6h-1.2v-1.3h2.4zm9.2-2.8q0 0.4-0.1 0.8-0.1 0.4-0.3 0.7-0.2 0.3-0.4 0.6-0.3 0.2-0.6 0.4-0.3 0.2-0.7 0.3-0.4 0-0.7 0h-2.3q-0.3 0-0.7 0-0.3-0.1-0.7-0.3-0.3-0.2-0.5-0.4-0.3-0.3-0.5-0.6-0.2-0.3-0.3-0.7-0.1-0.4-0.1-0.8v-1.1q0-0.6 0.2-1.2 0.3-0.5 0.7-0.9 0.4-0.3 0.9-0.6 0.5-0.2 1-0.2h2.3q0.3 0 0.7 0.1 0.4 0.1 0.7 0.3 0.3 0.2 0.6 0.4 0.2 0.3 0.4 0.6 0.2 0.3 0.3 0.7 0.1 0.4 0.1 0.8zm-1.2-1.1q0-0.4-0.2-0.7-0.1-0.3-0.3-0.5-0.2-0.2-0.5-0.3-0.3-0.1-0.6-0.1h-2.3q-0.3 0-0.6 0.1-0.2 0.1-0.5 0.3-0.2 0.2-0.3 0.5-0.2 0.3-0.2 0.7v1.1q0 0.4 0.2 0.7 0.1 0.3 0.3 0.5 0.2 0.2 0.5 0.3 0.3 0.1 0.6 0.1h2.3q0.3 0 0.6-0.1 0.3-0.1 0.5-0.4 0.3-0.2 0.4-0.5 0.1-0.3 0.1-0.6zm-0.6-0.9q0.1 0.1 0.1 0.2 0.1 0.1 0 0.2 0 0.2-0.1 0.3 0 0.1-0.1 0.1l-3.4 2.3q-0.1 0-0.1 0.1-0.1 0-0.2 0-0.2 0-0.3-0.1-0.1-0.1-0.2-0.2-0.1-0.1-0.1-0.2 0-0.1 0-0.3 0-0.1 0.1-0.2 0-0.1 0.1-0.2l3.4-2.2q0.1-0.1 0.2-0.1 0.1 0 0.2 0 0.2 0 0.3 0.1 0.1 0.1 0.1 0.2zm9.1 3.1q0 0.2 0 0.4-0.1 0.2-0.2 0.4 0 0.2-0.2 0.3-0.1 0.2-0.3 0.4-0.2 0.1-0.5 0.2-0.2 0-0.5 0h-2.8q-0.3 0-0.6 0-0.3-0.1-0.5-0.3-0.3-0.2-0.5-0.6-0.1-0.3-0.1-0.8v-0.5q0-0.2 0-0.4 0-0.2 0.1-0.4 0.1-0.2 0.3-0.4 0.1-0.2 0.3-0.3-0.1-0.2-0.1-0.4-0.1-0.2-0.1-0.4v-0.5q0-0.5 0.2-0.8 0.2-0.4 0.4-0.6 0.3-0.2 0.6-0.3 0.3-0.1 0.5-0.1h1.7q0.3 0 0.6 0.1 0.2 0.1 0.4 0.2 0.2 0.2 0.4 0.3 0.1 0.2 0.2 0.4 0.1 0.2 0.1 0.4 0.1 0.2 0.1 0.4v0.5q0 0.5-0.2 0.8 0.1 0.1 0.3 0.3 0.1 0.1 0.2 0.3 0.1 0.2 0.2 0.4 0 0.2 0 0.5zm-1.2-0.6q0-0.2-0.2-0.4-0.1-0.1-0.3-0.1h-2.8q-0.2 0-0.4 0.2-0.1 0.1-0.1 0.3v0.6q0 0.2 0.1 0.3 0.2 0.2 0.4 0.2h2.8q0.2 0 0.3-0.2 0.2-0.1 0.2-0.3zm-0.6-2.8q0-0.3-0.1-0.4-0.1-0.1-0.4-0.1h-1.6q-0.3 0-0.4 0.1-0.1 0.1-0.1 0.4v0.5q0 0.3 0.1 0.4 0.1 0.1 0.3 0.1h1.7q0.3 0 0.4-0.1 0.1-0.1 0.1-0.4zm10.8 2.2q0 0.5-0.1 0.8-0.1 0.4-0.3 0.7-0.2 0.3-0.5 0.6-0.2 0.2-0.6 0.4-0.3 0.2-0.6 0.3-0.4 0.1-0.8 0.1h-2.2q-0.4 0-0.7-0.1-0.4-0.1-0.7-0.3-0.3-0.2-0.6-0.4-0.2-0.3-0.4-0.6-0.2-0.3-0.3-0.7-0.1-0.3-0.1-0.8v-1.1q0-0.6 0.2-1.1 0.2-0.5 0.6-0.9 0.4-0.4 0.9-0.6 0.5-0.2 1.1-0.2h2.2q0.4 0 0.8 0.1 0.3 0.1 0.6 0.2 0.4 0.2 0.6 0.5 0.3 0.2 0.5 0.5 0.2 0.4 0.3 0.7 0.1 0.4 0.1 0.8zm-1.3-1.1q0-0.3-0.1-0.6-0.1-0.3-0.3-0.6-0.3-0.2-0.6-0.3-0.2-0.1-0.6-0.1h-2.2q-0.3 0-0.6 0.1-0.3 0.1-0.5 0.3-0.2 0.2-0.4 0.5-0.1 0.4-0.1 0.7v1.1q0 0.4 0.1 0.7 0.2 0.3 0.4 0.5 0.2 0.2 0.5 0.3 0.3 0.2 0.6 0.1h2.2q0.4 0 0.7-0.1 0.3-0.1 0.5-0.3 0.2-0.2 0.3-0.5 0.1-0.3 0.1-0.7zm-0.5-0.9q0.1 0.1 0.1 0.3 0 0.1 0 0.2 0 0.1-0.1 0.2-0.1 0.1-0.2 0.2l-3.3 2.2q-0.1 0.1-0.2 0.1-0.1 0-0.1 0-0.2 0-0.3 0-0.2-0.1-0.3-0.3 0-0.1-0.1-0.2 0-0.1 0-0.2 0.1-0.1 0.1-0.2 0.1-0.1 0.2-0.2l3.3-2.2q0.2-0.1 0.3-0.1 0.1-0.1 0.2 0 0.1 0 0.2 0.1 0.1 0 0.2 0.1zm10.8 2q0 0.5-0.1 0.8-0.1 0.4-0.3 0.7-0.2 0.3-0.5 0.6-0.2 0.2-0.6 0.4-0.3 0.2-0.6 0.3-0.4 0.1-0.8 0.1h-2.2q-0.4 0-0.7-0.1-0.4-0.1-0.7-0.3-0.3-0.2-0.6-0.4-0.2-0.3-0.4-0.6-0.2-0.3-0.3-0.7-0.1-0.3-0.1-0.8v-1.1q0-0.6 0.2-1.1 0.2-0.5 0.6-0.9 0.4-0.4 0.9-0.6 0.6-0.2 1.1-0.2h2.2q0.4 0 0.8 0.1 0.3 0.1 0.6 0.2 0.4 0.2 0.6 0.5 0.3 0.2 0.5 0.5 0.2 0.4 0.3 0.7 0.1 0.4 0.1 0.8zm-1.3-1.1q0-0.3-0.1-0.6-0.1-0.3-0.3-0.6-0.3-0.2-0.6-0.3-0.2-0.1-0.6-0.1h-2.2q-0.3 0-0.6 0.1-0.3 0.1-0.5 0.3-0.2 0.2-0.4 0.5-0.1 0.4-0.1 0.7v1.1q0 0.4 0.1 0.7 0.2 0.3 0.4 0.5 0.2 0.2 0.5 0.3 0.3 0.2 0.6 0.1h2.2q0.4 0 0.7-0.1 0.3-0.1 0.5-0.3 0.2-0.2 0.3-0.5 0.1-0.3 0.1-0.7zm-0.5-0.9q0.1 0.1 0.1 0.3 0 0.1 0 0.2 0 0.1-0.1 0.2-0.1 0.1-0.2 0.2l-3.3 2.2q-0.1 0.1-0.2 0.1-0.1 0-0.1 0-0.2 0-0.3 0-0.2-0.1-0.3-0.3 0-0.1-0.1-0.2 0-0.1 0-0.2 0.1-0.1 0.1-0.2 0.1-0.1 0.2-0.2l3.4-2.2q0.1-0.1 0.2-0.1 0.1-0.1 0.2 0 0.1 0 0.2 0.1 0.1 0 0.2 0.1zm2.7 0.4v-0.6q0-0.2 0.1-0.4 0-0.1 0.1-0.3 0.1-0.2 0.2-0.4 0.2-0.2 0.3-0.3 0.2-0.2 0.5-0.2 0.2-0.1 0.6-0.1h2.2q0.2 0 0.5 0 0.2 0.1 0.5 0.2 0.2 0.1 0.5 0.3 0.2 0.2 0.4 0.4 0.2 0.3 0.3 0.6 0.1 0.4 0.1 0.8v2.2q0 0.4-0.1 0.8-0.1 0.3-0.3 0.5-0.2 0.3-0.4 0.5-0.3 0.2-0.5 0.3-0.3 0.1-0.5 0.1-0.3 0.1-0.5 0.1h-3.1v-1.2h3.1q0.2-0.1 0.4-0.1 0.2-0.1 0.3-0.2 0.2-0.2 0.3-0.4 0-0.1 0-0.4v-0.5h-3.2q-0.2 0-0.4 0-0.2-0.1-0.4-0.2-0.2 0-0.4-0.2-0.1-0.1-0.3-0.3-0.1-0.2-0.2-0.5-0.1-0.2-0.1-0.5zm5 0q0-0.3 0-0.5-0.1-0.2-0.3-0.3-0.1-0.1-0.3-0.2-0.2-0.1-0.4-0.1h-2.2q-0.3 0-0.4 0.2-0.1 0.1-0.1 0.3v0.6q0 0.2 0.1 0.3 0.1 0.2 0.4 0.2h3.2zm3.7 0.5h3.3q0.2 0 0.5 0.1 0.3 0 0.6 0.3 0.3 0.2 0.4 0.5 0.2 0.3 0.2 0.8v0.6q0 0.1 0 0.3-0.1 0.2-0.2 0.4-0.1 0.2-0.2 0.4-0.1 0.2-0.3 0.3-0.2 0.1-0.5 0.2-0.2 0.1-0.5 0.1h-2.3q-0.2 0-0.5-0.1-0.2 0-0.5-0.1-0.2-0.1-0.5-0.3-0.2-0.2-0.4-0.5-0.1-0.2-0.2-0.5-0.2-0.4-0.2-0.8v-2.2q0-0.5 0.2-0.8 0.1-0.3 0.2-0.6 0.2-0.2 0.4-0.4 0.3-0.2 0.5-0.3 0.3-0.1 0.5-0.2 0.3 0 0.5 0h3.1v1.2h-3.1q-0.2 0-0.4 0.1-0.2 0.1-0.3 0.2-0.2 0.2-0.2 0.3-0.1 0.2-0.1 0.5zm0 1.2v0.5q0 0.3 0.1 0.4 0 0.2 0.2 0.4 0.1 0.1 0.3 0.2 0.2 0.1 0.4 0.1h2.3q0.2 0 0.3-0.2 0.2-0.1 0.2-0.3v-0.6q0-0.2-0.2-0.4-0.1-0.1-0.3-0.1z"/>
	</g>
</svg>